G04 ================== begin FILE IDENTIFICATION RECORD ==================*
G04 Layout Name:  RK_SAPPHIRE_SOCBOARD_RK3399_LPDDR3D178P232SD8_V12_20161110_final_lint.brd*
G04 Film Name:    L2*
G04 File Format:  Gerber RS274X*
G04 File Origin:  Cadence Allegro 16.6-S050*
G04 Origin Date:  Fri Nov 11 15:52:05 2016*
G04 *
G04 Layer:  BOARD GEOMETRY/OUTLINE*
G04 Layer:  ETCH/GND1*
G04 Layer:  PIN/GND1*
G04 Layer:  VIA CLASS/GND1*
G04 *
G04 Offset:    (0.000 0.000)*
G04 Mirror:    No*
G04 Mode:      Positive*
G04 Rotation:  0*
G04 FullContactRelief:  No*
G04 UndefLineWidth:     5.000*
G04 ================== end FILE IDENTIFICATION RECORD ====================*
%FSLAX25Y25*MOIN*%
%IR0*IPPOS*OFA0.00000B0.00000*MIA0B0*SFA1.00000B1.00000*%
%ADD27O,.098429X.059059*%
%ADD12C,.11811*%
%ADD11O,.05906X.1378*%
%ADD10O,.07087X.1378*%
%ADD29O,.106299X.055118*%
%ADD26O,.137799X.059059*%
%ADD22C,.06*%
%ADD28C,.043311*%
%ADD14C,.01378*%
%ADD25C,.025591*%
%ADD23C,.07087*%
%ADD17C,.035429*%
%ADD21C,.086614*%
%ADD16C,.015748*%
%ADD18C,.057087*%
%ADD19O,.07874X.055118*%
%ADD20O,.098425X.047244*%
%ADD15C,.019689*%
%ADD24O,.059059X.035429*%
%ADD13O,.098425X.070866*%
%ADD30C,.005*%
%ADD41R,.102004X.012004*%
%ADD42R,.103004X.012004*%
%ADD40R,.103004X.013004*%
%ADD32R,.008004X.032004*%
%ADD48C,.134052*%
%ADD36R,.027004X.009004*%
%ADD51C,.145862*%
%ADD43R,.011004X.014004*%
%ADD35R,.024004X.024004*%
%ADD37R,.028004X.012004*%
%ADD38R,.028004X.013004*%
%ADD34R,.045004X.032004*%
%ADD33R,.044004X.033004*%
%ADD39R,.029004X.013004*%
%ADD52C,.0435*%
%ADD49C,.04547*%
%ADD45C,.023816*%
%ADD47C,.047434*%
%ADD54C,.027752*%
%ADD50C,.047438*%
%ADD55C,.039564*%
%ADD44C,.098614*%
%ADD46C,.019874*%
%ADD53C,.037596*%
%ADD31O,.043494X.090744*%
G75*
%LPD*%
G75*
G36*
G01X-215450Y-257750D02*
Y152254D01*
X-175050D01*
Y107450D01*
X-150003D01*
Y122067D01*
X-147621D01*
G03Y131989I0J4961D01*
G01X-150018D01*
Y142000D01*
X13278D01*
Y141378D01*
G03X21215I3969J0D01*
G01Y142000D01*
X168812D01*
Y131989D01*
X166562D01*
G03Y122067I0J-4961D01*
G01X168825D01*
Y107450D01*
X194150D01*
Y152246D01*
X226150D01*
Y-257750D01*
X-215450D01*
G37*
%LPC*%
G75*
G36*
G01X194060Y49582D02*
G02X190300I-1880J0D01*
G01Y50764D01*
G02X194060I1880J0D01*
G01Y49582D01*
G37*
G36*
G01X-158978Y-148890D02*
G02Y-144540I0J2175D01*
G01X-156222D01*
G02Y-148890I0J-2175D01*
G01X-158978D01*
G37*
G36*
G01Y-168575D02*
G02Y-164225I0J2175D01*
G01X-156222D01*
G02Y-168575I0J-2175D01*
G01X-158978D01*
G37*
G36*
G01X-48100Y-400D02*
X-48900Y400D01*
X-48000Y1300D01*
X-47200Y500D01*
X-48100Y-400D01*
G37*
G36*
G01X-46100Y1600D02*
X-46900Y2400D01*
X-46000Y3300D01*
X-45200Y2500D01*
X-46100Y1600D01*
G37*
G36*
G01X-47600Y3100D02*
X-48400Y3900D01*
X-47500Y4800D01*
X-46700Y4000D01*
X-47600Y3100D01*
G37*
G36*
G01X-49600Y1100D02*
X-50400Y1900D01*
X-49500Y2800D01*
X-48700Y2000D01*
X-49600Y1100D01*
G37*
G36*
G01X-51600Y-900D02*
X-52400Y-100D01*
X-51500Y800D01*
X-50700Y0D01*
X-51600Y-900D01*
G37*
G36*
G01X-50100Y-2400D02*
X-50900Y-1600D01*
X-50000Y-700D01*
X-49200Y-1500D01*
X-50100Y-2400D01*
G37*
G36*
G01X-52100Y-4400D02*
X-52900Y-3600D01*
X-52000Y-2700D01*
X-51200Y-3500D01*
X-52100Y-4400D01*
G37*
G36*
G01X-53600Y-2900D02*
X-54400Y-2100D01*
X-53500Y-1200D01*
X-52700Y-2000D01*
X-53600Y-2900D01*
G37*
G36*
G01X-55600Y-4900D02*
X-56400Y-4100D01*
X-55500Y-3200D01*
X-54700Y-4000D01*
X-55600Y-4900D01*
G37*
G36*
G01X-54100Y-6400D02*
X-54900Y-5600D01*
X-54000Y-4700D01*
X-53200Y-5500D01*
X-54100Y-6400D01*
G37*
G36*
G01X-56100Y-8400D02*
X-56900Y-7600D01*
X-56000Y-6700D01*
X-55200Y-7500D01*
X-56100Y-8400D01*
G37*
G36*
G01X-57600Y-6900D02*
X-58400Y-6100D01*
X-57500Y-5200D01*
X-56700Y-6000D01*
X-57600Y-6900D01*
G37*
G36*
G01X-59600Y-8900D02*
X-60400Y-8100D01*
X-59500Y-7200D01*
X-58700Y-8000D01*
X-59600Y-8900D01*
G37*
G36*
G01X-58100Y-10400D02*
X-58900Y-9600D01*
X-58000Y-8700D01*
X-57200Y-9500D01*
X-58100Y-10400D01*
G37*
G36*
G01X-60100Y-12400D02*
X-60900Y-11600D01*
X-60000Y-10700D01*
X-59200Y-11500D01*
X-60100Y-12400D01*
G37*
G36*
G01X-61600Y-10900D02*
X-62400Y-10100D01*
X-61500Y-9200D01*
X-60700Y-10000D01*
X-61600Y-10900D01*
G37*
G36*
G01X98801Y139517D02*
G03X98399I-201J-222D01*
G02Y141283I-799J883D01*
G03X98801I201J222D01*
G02Y139517I799J-883D01*
G37*
G36*
G01X122741Y138954D02*
G03X122307Y138947I-213J-211D01*
G02X122285Y140321I-729J675D01*
G03X122718Y140328I213J211D01*
G02X122741Y138954I729J-675D01*
G37*
G36*
G01X-129817Y138001D02*
G03Y137599I222J-201D01*
G02X-131583I-883J-799D01*
G03Y138001I-222J201D01*
G02X-129817I883J799D01*
G37*
G36*
G01X140870Y134926D02*
G03X140430I-220J-204D01*
G02Y136274I-730J675D01*
G03X140870I220J204D01*
G02Y134926I730J-674D01*
G37*
G36*
G01X125670Y124926D02*
G03X125230I-220J-204D01*
G02Y126274I-730J674D01*
G03X125670I220J204D01*
G02Y124926I730J-675D01*
G37*
G36*
G01X2322Y126606D02*
G03Y126194I218J-206D01*
G02X878I-722J-683D01*
G03Y126606I-218J206D01*
G02X2322I722J683D01*
G37*
G36*
G01X89084Y122363D02*
G03X88672I-206J-218D01*
G02Y123807I-683J722D01*
G03X89084I206J218D01*
G02Y122363I683J-722D01*
G37*
G36*
G01X84595D02*
G03X84183I-206J-218D01*
G02Y123807I-683J722D01*
G03X84595I206J218D01*
G02Y122363I683J-722D01*
G37*
G36*
G01X93395Y122163D02*
G03X92983I-206J-218D01*
G02Y123607I-683J722D01*
G03X93395I206J218D01*
G02Y122163I683J-722D01*
G37*
G36*
G01X10722Y122917D02*
G03Y122505I218J-206D01*
G02X9278I-722J-683D01*
G03Y122917I-218J206D01*
G02X10722I722J683D01*
G37*
G36*
G01X18900Y122695D02*
G03Y122283I218J-206D01*
G02X17456I-722J-683D01*
G03Y122695I-218J206D01*
G02X18900I722J683D01*
G37*
G36*
G01X81095Y116078D02*
G03X80683I-206J-218D01*
G02Y117522I-683J722D01*
G03X81095I206J218D01*
G02Y116078I683J-722D01*
G37*
G36*
G01X5109Y116813D02*
G03X4787Y116491I-23J-299D01*
G02X3691Y117587I-1187J-91D01*
G03X4013Y117909I23J299D01*
G02X6387I1187J91D01*
G03X6709Y117587I299J-23D01*
G02X5613Y116491I91J-1187D01*
G03X5291Y116813I-299J23D01*
G02X5109I-91J1187D01*
G37*
G36*
G01X85717Y114478D02*
G03X85305I-206J-218D01*
G02Y115922I-683J722D01*
G03X85717I206J218D01*
G02Y114478I683J-722D01*
G37*
G36*
G01X116611Y115206D02*
G03X116634Y114765I215J-210D01*
G02X115289Y114694I-634J-765D01*
G03X115266Y115135I-215J210D01*
G02X116611Y115206I634J765D01*
G37*
G36*
G01X131610Y113305D02*
G03Y113095I107J-105D01*
G02X130190I-710J-695D01*
G03Y113305I-107J105D01*
G02X131610I710J695D01*
G37*
G36*
G01X77182Y111987D02*
G03X77228Y111570I236J-185D01*
G02X75818Y111413I-629J-770D01*
G03X75772Y111830I-236J185D01*
G02X77182Y111987I629J770D01*
G37*
G36*
G01X-26683Y108178D02*
G03X-27095I-206J-218D01*
G02Y109622I-683J722D01*
G03X-26683I206J218D01*
G02Y108178I683J-722D01*
G37*
G36*
G01X13199Y106483D02*
G03X13601I201J222D01*
G02Y104717I799J-883D01*
G03X13199I-201J-222D01*
G02Y106483I-799J883D01*
G37*
G36*
G01X-10295Y105122D02*
G03X-9883I206J218D01*
G02Y103678I683J-722D01*
G03X-10295I-206J-218D01*
G02Y105122I-683J722D01*
G37*
G36*
G01X-14695Y102722D02*
G03X-14283I206J218D01*
G02Y101278I683J-722D01*
G03X-14695I-206J-218D01*
G02Y102722I-683J722D01*
G37*
G36*
G01X61495Y99177D02*
G03X61083I-206J-218D01*
G02Y100621I-683J722D01*
G03X61495I206J218D01*
G02Y99177I683J-722D01*
G37*
G36*
G01X57095D02*
G03X56683I-206J-218D01*
G02Y100621I-683J722D01*
G03X57095I206J218D01*
G02Y99177I683J-722D01*
G37*
G36*
G01X52695Y96377D02*
G03X52283I-206J-218D01*
G02Y97821I-683J722D01*
G03X52695I206J218D01*
G02Y96377I683J-722D01*
G37*
G36*
G01X48206D02*
G03X47794I-206J-218D01*
G02Y97821I-683J722D01*
G03X48206I206J218D01*
G02Y96377I683J-722D01*
G37*
G36*
G01X65895Y93177D02*
G03X65483I-206J-218D01*
G02Y94621I-683J722D01*
G03X65895I206J218D01*
G02Y93177I683J-722D01*
G37*
G36*
G01X15895Y84710D02*
G03X16105I105J107D01*
G02Y83290I695J-710D01*
G03X15895I-105J-107D01*
G02Y84710I-695J710D01*
G37*
G36*
G01X-57678Y68517D02*
G03Y68105I218J-206D01*
G02X-59122I-722J-683D01*
G03Y68517I-218J206D01*
G02X-57678I722J683D01*
G37*
G36*
G01X-29286Y56909D02*
G03Y56491I216J-209D01*
G02X-30714I-714J-691D01*
G03Y56909I-216J209D01*
G02X-29286I714J691D01*
G37*
G36*
G01X-36391Y49386D02*
G03X-36809I-209J-215D01*
G02Y50814I-691J714D01*
G03X-36391I209J215D01*
G02Y49386I691J-714D01*
G37*
G36*
G01X36917Y48340D02*
G03X36505I-206J-218D01*
G02Y49784I-683J722D01*
G03X36917I206J218D01*
G02Y48340I683J-722D01*
G37*
G36*
G01X23922Y46695D02*
G03Y46283I218J-206D01*
G02X22478I-722J-683D01*
G03Y46695I-218J206D01*
G02X23922I722J683D01*
G37*
G36*
G01X51565Y44234D02*
G03X52006Y44211I231J191D01*
G02X51935Y42866I694J-711D01*
G03X51494Y42889I-231J-191D01*
G02X51565Y44234I-694J711D01*
G37*
G36*
G01X193165Y41555D02*
G03X193635Y41565I231J191D01*
G02X193510Y40080I1104J-841D01*
G03X193048Y40168I-266J-139D01*
G02X193165Y41555I-648J753D01*
G37*
G36*
G01X122801Y36717D02*
G03X122399I-201J-222D01*
G02Y38483I-799J883D01*
G03X122801I201J222D01*
G02Y36717I799J-883D01*
G37*
G36*
G01X193048Y31832D02*
G03X193510Y31920I196J227D01*
G02X193635Y30435I1229J-644D01*
G03X193165Y30445I-239J-182D01*
G02X193048Y31832I-765J634D01*
G37*
G36*
G01X-21864Y24335D02*
G03X-21493Y24149I282J101D01*
G02X-22136Y22865I293J-949D01*
G03X-22507Y23051I-282J-101D01*
G02X-21864Y24335I-293J949D01*
G37*
G36*
G01X176001Y21917D02*
G03X175599I-201J-222D01*
G02Y23683I-799J883D01*
G03X176001I201J222D01*
G02X177599I799J-883D01*
G03X178001I201J222D01*
G02Y21917I799J-883D01*
G03X177599I-201J-222D01*
G02X176001I-799J883D01*
G37*
G36*
G01X-18706Y20495D02*
G03X-18405Y20194I300J-1D01*
G02X-19394Y19205I5J-994D01*
G03X-19695Y19506I-300J1D01*
G02X-18706Y20495I-5J994D01*
G37*
G36*
G01X166722Y19317D02*
G03Y18905I218J-206D01*
G02X165278I-722J-683D01*
G03Y19317I-218J206D01*
G02X166722I722J683D01*
G37*
G36*
G01X72722Y18117D02*
G03Y17705I218J-206D01*
G02X71278I-722J-683D01*
G03Y18117I-218J206D01*
G02X72722I722J683D01*
G37*
G36*
G01X76322Y16517D02*
G03Y16105I218J-206D01*
G02X74878I-722J-683D01*
G03Y16517I-218J206D01*
G02X76322I722J683D01*
G37*
G36*
G01X-22410Y15818D02*
G03X-22108Y15494I299J-25D01*
G02X-23090Y14582I8J-994D01*
G03X-23392Y14906I-299J25D01*
G02X-22410Y15818I-8J994D01*
G37*
G36*
G01X60722Y11106D02*
G03Y10694I218J-206D01*
G02X59278I-722J-683D01*
G03Y11106I-218J206D01*
G02X60722I722J683D01*
G37*
G36*
G01X84322Y11006D02*
G03Y10594I218J-206D01*
G02X82878I-722J-683D01*
G03Y11006I-218J206D01*
G02X84322I722J683D01*
G37*
G36*
G01X89122Y10117D02*
G03Y9705I218J-206D01*
G02X87678I-722J-683D01*
G03Y10117I-218J206D01*
G02X89122I722J683D01*
G37*
G36*
G01X69122Y8917D02*
G03Y8505I218J-206D01*
G02X67678I-722J-683D01*
G03Y8917I-218J206D01*
G02X69122I722J683D01*
G37*
G36*
G01X89922Y6117D02*
G03Y5705I218J-206D01*
G02X88478I-722J-683D01*
G03Y6117I-218J206D01*
G02X89922I722J683D01*
G37*
G36*
G01X155231Y5547D02*
G03X155271Y5084I209J-215D01*
G02X153769Y4953I-671J-984D01*
G03X153729Y5416I-209J215D01*
G02X153213Y6491I671J984D01*
G03X152891Y6813I-299J23D01*
G02X153987Y7909I-91J1187D01*
G03X154309Y7587I299J-23D01*
G02X155231Y5547I91J-1187D01*
G37*
G36*
G01X-23941Y2782D02*
G03X-24087Y2393I130J-271D01*
G02X-25429Y2896I-913J-393D01*
G03X-25283Y3286I-130J271D01*
G02X-23941Y2782I913J393D01*
G37*
G36*
G01X183283Y401D02*
G03Y-1I222J-201D01*
G02X181517I-883J-799D01*
G03Y401I-222J201D01*
G02Y1999I883J799D01*
G03Y2401I-222J201D01*
G02X181842Y4252I883J799D01*
G03X181956Y4675I-141J265D01*
G02Y5725I844J525D01*
G03X181842Y6148I-255J158D01*
G02X181220Y7043I558J1052D01*
G03X180817Y7285I-297J-40D01*
G02Y9515I-417J1115D01*
G03X181220Y9757I105J281D01*
G02X183107Y8642I1180J-157D01*
G03Y8158I178J-242D01*
G02X183320Y6444I-707J-958D01*
G03X183377Y6009I232J-190D01*
G02Y4391I-577J-809D01*
G03X183320Y3956I174J-244D01*
G02X183283Y2401I-920J-756D01*
G03Y1999I222J-201D01*
G02Y401I-883J-799D01*
G37*
G36*
G01X-113685Y-5890D02*
G03X-114010Y-6215I-26J-299D01*
G02X-114915Y-5310I-990J-85D01*
G03X-114590Y-4985I26J299D01*
G02X-113685Y-5890I990J85D01*
G37*
G36*
G01X80192Y-32450D02*
G03X80503Y-32765I300J-15D01*
G02X79546Y-33708I36J-993D01*
G03X79236Y-33393I-300J15D01*
G02X80192Y-32450I-36J993D01*
G37*
G36*
G01X166587Y-46382D02*
G03X166170Y-46429I-185J-236D01*
G02X166013Y-45018I-770J629D01*
G03X166430Y-44972I185J236D01*
G02X166587Y-46382I770J-629D01*
G37*
G36*
G01X-43305Y-48322D02*
G03X-43717I-206J-218D01*
G02Y-46878I-683J722D01*
G03X-43305I206J218D01*
G02Y-48322I683J-722D01*
G37*
G36*
G01X53922Y-61305D02*
G03Y-61717I218J-206D01*
G02X52478I-722J-683D01*
G03Y-61305I-218J206D01*
G02X53922I722J683D01*
G37*
G36*
G01X66448Y-95636D02*
G03X66252I-98J-113D01*
G02Y-94136I-652J750D01*
G03X66448I98J113D01*
G02Y-95636I652J-750D01*
G37*
G36*
G01X64549Y-186693D02*
G03X64735Y-187064I287J-89D01*
G02X63451Y-187707I-335J-936D01*
G03X63265Y-187336I-287J89D01*
G02X64549Y-186693I335J936D01*
G37*
G36*
G01X64689Y-190702D02*
G03X65051Y-190966I299J29D01*
G02X64274Y-192035I212J-971D01*
G03X63912Y-191771I-299J-29D01*
G02X64689Y-190702I-212J971D01*
G37*
G36*
G01X137895Y-193522D02*
G03X137483I-206J-218D01*
G02Y-192078I-683J722D01*
G03X137895I206J218D01*
G02Y-193522I683J-722D01*
G37*
G36*
G01X-61213Y-210091D02*
G03X-60891Y-210413I299J-23D01*
G02X-61987Y-211509I91J-1187D01*
G03X-62309Y-211187I-299J23D01*
G02X-61213Y-210091I-91J1187D01*
G37*
G36*
G01X128801Y-218083D02*
G03X128399I-201J-222D01*
G02Y-216317I-799J883D01*
G03X128801I201J222D01*
G02Y-218083I799J-883D01*
G37*
G36*
G01X-55494Y-232251D02*
G03X-55389Y-232094I-44J143D01*
G02X-54106Y-232949I989J94D01*
G03X-54211Y-233107I44J-143D01*
G02X-55494Y-232251I-989J-94D01*
G37*
G36*
G01X-41285Y-232417D02*
G03X-41043Y-232820I281J-105D01*
G02X-42315Y-233583I-157J-1180D01*
G03X-42557Y-233180I-281J105D01*
G02X-41285Y-232417I157J1180D01*
G37*
G36*
G01X127495Y138490D02*
G02Y139910I-695J710D01*
G03X127705I105J107D01*
G02X129168Y139830I695J-710D01*
G03X129632I232J190D01*
G02X131095Y139910I768J-630D01*
G03X131305I105J107D01*
G02Y138490I695J-710D01*
G03X131095I-105J-107D01*
G02X129632Y138570I-695J710D01*
G03X129168I-232J-190D01*
G02X127705Y138490I-768J630D01*
G03X127495I-105J-107D01*
G37*
G36*
G01X74152Y136753D02*
G02X73912Y135554I648J-753D01*
G03X73448Y135647I-268J-135D01*
G02X72119Y135677I-648J753D01*
G03X71645Y135594I-206J-218D01*
G02X71440Y136765I-887J448D01*
G03X71913Y136848I206J218D01*
G02X73688Y136846I887J-448D01*
G03X74152Y136753I268J135D01*
G37*
G36*
G01X148768Y134970D02*
G02Y136230I-768J630D01*
G03X149232I232J190D01*
G02Y134970I768J-630D01*
G03X148768I-232J-190D01*
G37*
G36*
G01X24573Y134196D02*
G02X24164Y135218I-973J204D01*
G03X24627Y135404I170J247D01*
G02X26368Y135830I973J-204D01*
G03X26832I232J190D01*
G02Y134570I768J-630D01*
G03X26368I-232J-190D01*
G02X25036Y134382I-768J630D01*
G03X24573Y134196I-170J-247D01*
G37*
G36*
G01X-36970Y132368D02*
G02X-38230I-630J-768D01*
G03Y132832I-190J232D01*
G02X-36970I630J768D01*
G03Y132368I190J-232D01*
G37*
G36*
G01X-120893Y132158D02*
G02X-122307I-707J-958D01*
G03Y132642I-178J242D01*
G02Y134558I707J959D01*
G03Y135042I-178J242D01*
G02X-120893I707J959D01*
G03Y134558I178J-241D01*
G02Y132642I-707J-958D01*
G03Y132158I178J-241D01*
G37*
G36*
G01X57568Y128970D02*
G02Y130230I-768J630D01*
G03X58032I232J190D01*
G02X59568I768J-630D01*
G03X60032I232J190D01*
G02Y128970I768J-630D01*
G03X59568I-232J-190D01*
G02X58032I-768J630D01*
G03X57568I-232J-190D01*
G37*
G36*
G01X-52032Y128570D02*
G02Y129830I-768J630D01*
G03X-51568I232J190D01*
G02Y128570I768J-630D01*
G03X-52032I-232J-190D01*
G37*
G36*
G01X61168Y124570D02*
G02Y125830I-768J630D01*
G03X61632I232J190D01*
G02X63168I768J-630D01*
G03X63632I232J190D01*
G02Y124570I768J-630D01*
G03X63168I-232J-190D01*
G02X61632I-768J630D01*
G03X61168I-232J-190D01*
G37*
G36*
G01X-127842Y124493D02*
G02X-129507Y126158I-958J707D01*
G03Y126642I-178J242D01*
G02Y128558I707J958D01*
G03Y129042I-178J242D01*
G02Y130958I707J958D01*
G03Y131442I-178J242D01*
G02Y133358I707J959D01*
G03Y133842I-178J242D01*
G02X-127842Y135507I707J959D01*
G03X-127358I242J178D01*
G02X-125693Y133842I958J-707D01*
G03Y133358I178J-241D01*
G02Y131442I-707J-958D01*
G03Y130958I178J-241D01*
G02Y129042I-707J-958D01*
G03Y128558I178J-242D01*
G02Y126642I-707J-958D01*
G03Y126158I178J-242D01*
G02X-127358Y124493I-707J-958D01*
G03X-127842I-242J-178D01*
G37*
G36*
G01X26768Y122170D02*
G02Y123430I-768J630D01*
G03X27232I232J190D01*
G02Y122170I768J-630D01*
G03X26768I-232J-190D01*
G37*
G36*
G01X102149Y120693D02*
G02X100865Y121336I-949J-293D01*
G03X101051Y121707I-101J282D01*
G02X101410Y122800I949J293D01*
G03X101433Y123263I-178J241D01*
G02X102690Y123201I667J737D01*
G03X102667Y122737I178J-241D01*
G02X102335Y121064I-667J-737D01*
G03X102149Y120693I101J-282D01*
G37*
G36*
G01X36368Y118170D02*
G02Y119430I-768J630D01*
G03X36832I232J190D01*
G02Y118170I768J-630D01*
G03X36368I-232J-190D01*
G37*
G36*
G01X60894Y119299D02*
G02X60770Y118054I706J-699D01*
G03X60306Y118101I-251J-165D01*
G02X58832Y118170I-706J699D01*
G03X58368I-232J-190D01*
G02Y119430I-768J630D01*
G03X58832I232J190D01*
G02X60430Y119346I768J-630D01*
G03X60894Y119299I251J165D01*
G37*
G36*
G01X22368Y117670D02*
G02Y118930I-768J630D01*
G03X22832I232J190D01*
G02Y117670I768J-630D01*
G03X22368I-232J-190D01*
G37*
G36*
G01X72630Y117568D02*
G02X71370I-630J-768D01*
G03Y118032I-190J232D01*
G02X72630I630J768D01*
G03Y117568I190J-232D01*
G37*
G36*
G01X-121693Y116959D02*
G02X-123107I-707J-959D01*
G03Y117442I-178J241D01*
G02X-121693I707J958D01*
G03Y116959I178J-242D01*
G37*
G36*
G01X-112242Y114893D02*
G02X-113907Y116559I-959J707D01*
G03Y117042I-178J241D01*
G02Y118959I707J958D01*
G03Y119442I-178J241D01*
G02X-112242Y121107I707J958D01*
G03X-111758I241J178D01*
G02X-109841I958J-707D01*
G03X-109358I241J178D01*
G02X-107693Y119442I958J-707D01*
G03Y118959I178J-242D01*
G02Y117042I-707J-959D01*
G03Y116559I178J-242D01*
G02X-109358Y114893I-707J-959D01*
G03X-109841I-242J-178D01*
G02X-111758I-959J707D01*
G03X-112242I-242J-178D01*
G37*
G36*
G01X-129442Y113693D02*
G02X-131107Y115359I-958J707D01*
G03Y115842I-178J241D01*
G02X-129442Y117507I707J958D01*
G03X-128958I242J178D01*
G02X-127293Y115842I958J-707D01*
G03Y115359I178J-242D01*
G02X-128958Y113693I-707J-958D01*
G03X-129442I-242J-178D01*
G37*
G36*
G01X141430Y113168D02*
G02X140170I-630J-768D01*
G03Y113632I-190J232D01*
G02X141430I630J768D01*
G03Y113168I190J-232D01*
G37*
G36*
G01X-138642Y111793D02*
G02X-140358Y113419I-958J707D01*
G03Y113881I-191J231D01*
G02X-138642Y115507I758J919D01*
G03X-138158I241J178D01*
G02X-136442Y113881I958J-707D01*
G03Y113419I191J-231D01*
G02X-138158Y111793I-758J-919D01*
G03X-138642I-242J-178D01*
G37*
G36*
G01X150230Y112368D02*
G02X148970I-630J-768D01*
G03Y112832I-190J232D01*
G02Y114368I630J768D01*
G03Y114832I-190J232D01*
G02X150230I630J768D01*
G03Y114368I190J-232D01*
G02Y112832I-630J-768D01*
G03Y112368I190J-232D01*
G37*
G36*
G01X112774Y105423D02*
G02X111917Y105790I-774J-623D01*
G03X112126Y106277I-25J299D01*
G02X112983Y105910I774J623D01*
G03X112774Y105423I25J-299D01*
G37*
G36*
G01X-22695Y103278D02*
G02Y104722I-683J722D01*
G03X-22283I206J218D01*
G02X-20747Y104509I683J-722D01*
G03X-20231I258J154D01*
G02X-18695Y104722I853J-509D01*
G03X-18283I206J218D01*
G02Y103278I683J-722D01*
G03X-18695I-206J-218D01*
G02X-20231Y103491I-683J722D01*
G03X-20747I-258J-154D01*
G02X-22283Y103278I-853J509D01*
G03X-22695I-206J-218D01*
G37*
G36*
G01X107733Y103343D02*
G02X106912Y103794I-832J-543D01*
G03X107168Y104257I4J300D01*
G02X107051Y105093I832J543D01*
G03X106865Y105464I-287J89D01*
G02X108149Y106107I335J936D01*
G03X108335Y105736I287J-89D01*
G02X107988Y103806I-335J-936D01*
G03X107733Y103343I-4J-300D01*
G37*
G36*
G01X-32170Y102768D02*
G02X-33430I-630J-768D01*
G03Y103232I-190J232D01*
G02X-32170I630J768D01*
G03Y102768I190J-232D01*
G37*
G36*
G01X39355Y98674D02*
G02X38674Y99355I-955J-274D01*
G03X39045Y99726I83J288D01*
G02X39726Y99045I955J274D01*
G03X39355Y98674I-83J-288D01*
G37*
G36*
G01X-122642Y95293D02*
G02Y96707I-958J707D01*
G03X-122159I242J178D01*
G02X-120242I959J-707D01*
G03X-119759I242J178D01*
G02X-117842I959J-707D01*
G03X-117359I242J178D01*
G02Y95293I959J-707D01*
G03X-117842I-241J-178D01*
G02X-119759I-958J707D01*
G03X-120242I-241J-178D01*
G02X-122159I-958J707D01*
G03X-122642I-241J-178D01*
G37*
G36*
G01X38158Y94493D02*
G02Y95907I-959J707D01*
G03X38642I242J178D01*
G02Y94493I959J-707D01*
G03X38158I-242J-178D01*
G37*
G36*
G01X-14636Y80565D02*
G02X-15393Y79557I236J-965D01*
G03X-15764Y79835I-300J-13D01*
G02X-16965Y81036I-236J965D01*
G03X-17244Y81407I-291J71D01*
G02X-18165Y82636I44J993D01*
G03X-18444Y83007I-291J71D01*
G02X-17435Y83764I44J993D01*
G03X-17156Y83393I291J-71D01*
G02X-16235Y82164I-44J-993D01*
G03X-15957Y81793I291J-71D01*
G02X-15007Y80844I-43J-993D01*
G03X-14636Y80565I300J13D01*
G37*
G36*
G01X-192242Y78493D02*
G02Y79907I-958J707D01*
G03X-191758I242J178D01*
G02X-189842I958J-707D01*
G03X-189358I241J178D01*
G02Y78493I958J-707D01*
G03X-189842I-242J-178D01*
G02X-191758I-959J707D01*
G03X-192242I-241J-178D01*
G37*
G36*
G01X-142642Y78093D02*
G02Y79507I-958J707D01*
G03X-142158I242J178D01*
G02Y78093I959J-707D01*
G03X-142642I-241J-178D01*
G37*
G36*
G01X97030Y75568D02*
G02X95770I-630J-768D01*
G03Y76032I-190J232D01*
G02X95810Y77600I630J768D01*
G03X95833Y78063I-178J241D01*
G02X97090Y78000I667J737D01*
G03X97067Y77537I178J-241D01*
G02X97030Y76032I-667J-737D01*
G03Y75568I190J-232D01*
G37*
G36*
G01X-20432Y72170D02*
G02Y73430I-768J630D01*
G03X-19968I232J190D01*
G02Y72170I768J-630D01*
G03X-20432I-232J-190D01*
G37*
G36*
G01X-19454Y69361D02*
G02X-20175Y68591I254J-961D01*
G03X-20546Y68939I-294J58D01*
G02X-19825Y69709I-254J961D01*
G03X-19454Y69361I294J-58D01*
G37*
G36*
G01X146158Y66093D02*
G02Y67507I-959J707D01*
G03X146642I241J178D01*
G02Y66093I958J-707D01*
G03X146158I-242J-178D01*
G37*
G36*
G01X-18570Y63968D02*
G02X-19830I-630J-768D01*
G03Y64432I-190J232D01*
G02X-18570I630J768D01*
G03Y63968I190J-232D01*
G37*
G36*
G01X-148642Y57293D02*
G02Y58707I-958J707D01*
G03X-148159I242J178D01*
G02Y57293I959J-707D01*
G03X-148642I-241J-178D01*
G37*
G36*
G01X161358Y54093D02*
G02Y55507I-958J707D01*
G03X161842I242J178D01*
G02X163758I959J-707D01*
G03X164242I242J178D01*
G02X166158I959J-707D01*
G03X166642I242J178D01*
G02Y54093I958J-707D01*
G03X166158I-241J-178D01*
G02X164242I-958J707D01*
G03X163758I-241J-178D01*
G02X161842I-958J707D01*
G03X161358I-241J-178D01*
G37*
G36*
G01X-102493Y54159D02*
G02X-103907I-707J-959D01*
G03Y54642I-178J241D01*
G02X-102493I707J959D01*
G03Y54159I178J-241D01*
G37*
G36*
G01X177358Y38893D02*
G02Y40307I-958J707D01*
G03X177842I242J178D01*
G02Y38893I958J-707D01*
G03X177358I-242J-178D01*
G37*
G36*
G01X-106570Y39168D02*
G02X-107830I-630J-768D01*
G03Y39632I-190J232D01*
G02X-106570I630J768D01*
G03Y39168I190J-232D01*
G37*
G36*
G01X-8265Y34184D02*
G02X-9226Y33752I-135J-984D01*
G03X-9435Y34216I-250J167D01*
G02X-8474Y34648I135J984D01*
G03X-8265Y34184I250J-167D01*
G37*
G36*
G01X-54170Y24368D02*
G02X-55430I-630J-768D01*
G03Y24832I-190J232D01*
G02X-54170I630J768D01*
G03Y24368I190J-232D01*
G37*
G36*
G01X173600Y20096D02*
X173351D01*
X173312Y20006D01*
G02X171488I-912J394D01*
G01X171449Y20096D01*
X171200D01*
Y19700D01*
X170100D01*
Y21100D01*
X171200D01*
Y20704D01*
X171449D01*
X171488Y20794D01*
G02X173312I912J-394D01*
G01X173351Y20704D01*
X173600D01*
Y21100D01*
X174700D01*
Y19700D01*
X173600D01*
Y20096D01*
G37*
G36*
G01X66322Y19883D02*
G02X64878I-722J-683D01*
G03Y20295I-218J206D01*
G02X65466Y21963I722J683D01*
G03X65652Y22457I-40J297D01*
G02X65678Y23794I748J654D01*
G03Y24206I-218J206D01*
G02X65838Y25708I722J683D01*
G03Y26203I-170J247D01*
G02X65678Y27705I563J819D01*
G03Y28117I-218J206D01*
G02X67122I722J683D01*
G03Y27705I218J-206D01*
G02X66962Y26203I-722J-683D01*
G03Y25708I170J-247D01*
G02X67122Y24206I-563J-819D01*
G03Y23794I218J-206D01*
G02X66534Y22126I-722J-683D01*
G03X66348Y21632I40J-297D01*
G02X66322Y20295I-748J-654D01*
G03Y19883I218J-206D01*
G37*
G36*
G01X173500Y17113D02*
X173270D01*
X173225Y17046D01*
G02X171575I-825J554D01*
G01X171530Y17113D01*
X171300D01*
Y16900D01*
X170200D01*
Y18300D01*
X171300D01*
Y18087D01*
X171530D01*
X171575Y18154D01*
G02X173225I825J-554D01*
G01X173270Y18087D01*
X173500D01*
Y18300D01*
X174600D01*
Y16900D01*
X173500D01*
Y17113D01*
G37*
G36*
G01X-44832Y14570D02*
G02Y15830I-768J630D01*
G03X-44368I232J190D01*
G02X-42832I768J-630D01*
G03X-42368I232J190D01*
G02X-40832I768J-630D01*
G03X-40368I232J190D01*
G02Y14570I768J-630D01*
G03X-40832I-232J-190D01*
G02X-42368I-768J630D01*
G03X-42832I-232J-190D01*
G02X-44368I-768J630D01*
G03X-44832I-232J-190D01*
G37*
G36*
G01X-106820Y12163D02*
G02X-108839Y12845I-1180J-163D01*
G03X-108919Y13328I-211J213D01*
G02X-108309Y15587I519J1072D01*
G03X-107987Y15909I23J299D01*
G02X-106382Y17115I1187J91D01*
G03X-105980Y17437I105J281D01*
G02X-104382Y18715I1180J163D01*
G03X-103980Y19037I105J281D01*
G02X-101883Y18441I1180J163D01*
G03X-101722Y17958I231J-191D01*
G02X-102418Y15685I-278J-1158D01*
G03X-102820Y15363I-105J-281D01*
G02X-104418Y14085I-1180J-163D01*
G03X-104820Y13763I-105J-281D01*
G02X-106418Y12485I-1180J-163D01*
G03X-106820Y12163I-105J-281D01*
G37*
G36*
G01X-151442Y9293D02*
G02Y10707I-958J707D01*
G03X-150959I242J178D01*
G02X-149042I959J-707D01*
G03X-148559I242J178D01*
G02X-146642I959J-707D01*
G03X-146158I242J178D01*
G02X-144242I959J-707D01*
G03X-143758I242J178D01*
G02Y9293I959J-707D01*
G03X-144242I-241J-178D01*
G02X-146158I-958J707D01*
G03X-146642I-241J-178D01*
G02X-148559I-958J707D01*
G03X-149042I-241J-178D01*
G02X-150959I-958J707D01*
G03X-151442I-241J-178D01*
G37*
G36*
G01X-190032Y6970D02*
G02Y8230I-768J630D01*
G03X-189568I232J190D01*
G02Y6970I768J-630D01*
G03X-190032I-232J-190D01*
G37*
G36*
G01X-151442Y6493D02*
G02Y7907I-958J707D01*
G03X-150959I242J178D01*
G02X-149042I959J-707D01*
G03X-148559I242J178D01*
G02X-146642I959J-707D01*
G03X-146158I242J178D01*
G02X-144242I959J-707D01*
G03X-143758I242J178D01*
G02Y6493I959J-707D01*
G03X-144242I-241J-178D01*
G02X-146158I-958J707D01*
G03X-146642I-241J-178D01*
G02X-148559I-958J707D01*
G03X-149042I-241J-178D01*
G02X-150959I-958J707D01*
G03X-151442I-241J-178D01*
G37*
G36*
G01X-13725Y2211D02*
G02X-14560Y2628I-809J-577D01*
G03X-14324Y3102I-8J300D01*
G02X-13489Y2685I809J577D01*
G03X-13725Y2211I8J-300D01*
G37*
G36*
G01X-10711Y-2008D02*
G02X-12635Y-1764I-989J-92D01*
G03X-12983Y-1370I-282J101D01*
G02X-12265Y-736I-217J970D01*
G03X-11917Y-1130I282J-101D01*
G02X-11844Y-1117I217J-970D01*
G03X-11589Y-792I-44J297D01*
G02X-10456Y-1683I989J92D01*
G03X-10711Y-2008I44J-297D01*
G37*
G36*
G01X112158Y-12707D02*
G02X110493Y-11042I-958J707D01*
G03Y-10558I-178J242D01*
G02Y-8642I707J958D01*
G03Y-8158I-178J242D01*
G02X112158Y-6493I707J958D01*
G03X112642I242J178D01*
G02X112893Y-6242I959J-707D01*
G03Y-5758I-178J242D01*
G02X114559Y-4093I707J959D01*
G03X115042I242J178D01*
G02X115293Y-3842I958J-707D01*
G03Y-3359I-178J241D01*
G02Y-1442I707J959D01*
G03Y-959I-178J241D01*
G02X115481Y1072I707J959D01*
G03X115561Y1555I-131J270D01*
G02X115693Y3359I839J845D01*
G03Y3842I-178J242D01*
G02X117359Y5507I707J959D01*
G03X117842I241J178D01*
G02X119507Y3842I958J-707D01*
G03Y3359I178J-241D01*
G02X119319Y1328I-707J-959D01*
G03X119239Y845I131J-270D01*
G02X119107Y-959I-839J-845D01*
G03Y-1442I178J-241D01*
G02Y-3359I-707J-959D01*
G03Y-3842I178J-242D01*
G02Y-5758I-707J-959D01*
G03Y-6242I178J-241D01*
G02Y-8158I-707J-959D01*
G03Y-8642I178J-242D01*
G02Y-10558I-707J-958D01*
G03Y-11042I178J-242D01*
G02X117442Y-12707I-707J-958D01*
G03X116959I-242J-178D01*
G02X115042I-959J707D01*
G03X114559I-241J-178D01*
G02X112642I-958J707D01*
G03X112158I-241J-178D01*
G37*
G36*
G01X87968Y-15030D02*
G02Y-13770I-768J630D01*
G03X88432I232J190D01*
G02Y-15030I768J-630D01*
G03X87968I-232J-190D01*
G37*
G36*
G01X79757Y-20969D02*
G02X79380Y-19893I-956J269D01*
G03X79844Y-19731I175J244D01*
G02X81568Y-19370I956J-269D01*
G03X82032I232J190D01*
G02Y-20630I768J-630D01*
G03X81568I-232J-190D01*
G02X80220Y-20807I-768J630D01*
G03X79757Y-20969I-175J-244D01*
G37*
G36*
G01X-163442Y-27907D02*
G02X-164678Y-26042I-958J707D01*
G03X-164517Y-25559I-70J292D01*
G02X-162642Y-24093I917J759D01*
G03X-162158I241J178D01*
G02X-160242I958J-707D01*
G03X-159758I241J178D01*
G02X-158522Y-25958I958J-707D01*
G03X-158683Y-26441I70J-292D01*
G02X-160558Y-27907I-917J-759D01*
G03X-161042I-242J-178D01*
G02X-162958I-959J707D01*
G03X-163442I-242J-178D01*
G37*
G36*
G01X133830Y-28832D02*
G02X132570I-630J-768D01*
G03Y-28368I-190J232D01*
G02X133830I630J768D01*
G03Y-28832I190J-232D01*
G37*
G36*
G01X-112832Y-31030D02*
G02Y-29770I-768J630D01*
G03X-112368I232J190D01*
G02Y-31030I768J-630D01*
G03X-112832I-232J-190D01*
G37*
G36*
G01X-69370Y-40432D02*
G02X-70630I-630J-768D01*
G03Y-39968I-190J232D01*
G02Y-38432I630J768D01*
G03Y-37968I-190J232D01*
G02X-69370I630J768D01*
G03Y-38432I190J-232D01*
G02Y-39968I-630J-768D01*
G03Y-40432I190J-232D01*
G37*
G36*
G01X122959Y-44307D02*
G02X121293Y-42642I-959J707D01*
G03Y-42158I-178J242D01*
G02X121042Y-41907I707J958D01*
G03X120559I-242J-178D01*
G02X118893Y-40242I-959J707D01*
G03Y-39758I-178J242D01*
G02X120559Y-38093I707J958D01*
G03X121042I241J178D01*
G02X122959I958J-707D01*
G03X123442I241J178D01*
G02X125107Y-39758I958J-707D01*
G03Y-40242I178J-242D01*
G02Y-42158I-707J-959D01*
G03Y-42642I178J-242D01*
G02X123442Y-44307I-707J-958D01*
G03X122959I-242J-178D01*
G37*
G36*
G01X172559Y-67507D02*
G02X170893Y-65842I-959J707D01*
G03Y-65359I-178J241D01*
G02Y-63441I707J959D01*
G03Y-62959I-178J241D01*
G02X172559Y-61293I707J959D01*
G03X173042I241J178D01*
G02X174959I958J-707D01*
G03X175442I241J178D01*
G02X177107Y-62959I958J-707D01*
G03Y-63441I178J-241D01*
G02Y-65359I-707J-959D01*
G03Y-65842I178J-241D01*
G02X175442Y-67507I-707J-959D01*
G03X174959I-242J-178D01*
G02X173042I-959J707D01*
G03X172559I-242J-178D01*
G37*
G36*
G01X-35552Y-77718D02*
G02X-35558Y-76672I-848J517D01*
G03X-35048Y-76668I254J160D01*
G02X-35042Y-77714I848J-517D01*
G03X-35552Y-77718I-254J-160D01*
G37*
G36*
G01X-25968Y-77346D02*
G02X-27032I-532J-839D01*
G03Y-76840I-161J253D01*
G02X-25968I532J840D01*
G03Y-77346I161J-253D01*
G37*
G36*
G01X69236Y-83037D02*
G02Y-81963I-836J537D01*
G03X69741I252J162D01*
G02Y-83037I836J-537D01*
G03X69236I-252J-162D01*
G37*
G36*
G01X-60214Y-84925D02*
G02X-60650Y-83973I-986J125D01*
G03X-60186Y-83761I166J250D01*
G02X-59750Y-84713I986J-125D01*
G03X-60214Y-84925I-166J-250D01*
G37*
G36*
G01X64561Y-85982D02*
G02X64452Y-84836I-861J496D01*
G03X64939Y-84790I227J196D01*
G02X65048Y-85935I861J-496D01*
G03X64561Y-85982I-227J-196D01*
G37*
G36*
G01X59168Y-86116D02*
G02Y-84855I-768J630D01*
G03X59632I232J190D01*
G02Y-86116I768J-630D01*
G03X59168I-232J-190D01*
G37*
G36*
G01X51568Y-86230D02*
G02Y-84970I-768J630D01*
G03X52032I232J190D01*
G02Y-86230I768J-630D01*
G03X51568I-232J-190D01*
G37*
G36*
G01X36566Y-92702D02*
G02X36324Y-91789I-966J232D01*
G03X36834Y-91654I218J206D01*
G02X37076Y-92567I966J-232D01*
G03X36566Y-92702I-218J-206D01*
G37*
G36*
G01X-49232Y-95316D02*
G02Y-94055I-768J630D01*
G03X-48768I232J190D01*
G02X-47232I768J-630D01*
G03X-46768I232J190D01*
G02Y-95316I768J-630D01*
G03X-47232I-232J-190D01*
G02X-48768I-768J630D01*
G03X-49232I-232J-190D01*
G37*
G36*
G01X-136642Y-105107D02*
G02Y-103693I-959J707D01*
G03X-136158I241J178D01*
G02X-134242I958J-707D01*
G03X-133758I241J178D01*
G02X-131842I958J-707D01*
G03X-131358I241J178D01*
G02X-129442I958J-707D01*
G03X-128958I242J178D01*
G02Y-105107I958J-707D01*
G03X-129442I-242J-178D01*
G02X-131358I-958J707D01*
G03X-131842I-242J-178D01*
G02X-133758I-959J707D01*
G03X-134242I-242J-178D01*
G02X-136158I-959J707D01*
G03X-136642I-242J-178D01*
G37*
G36*
G01X-153770Y-106432D02*
G02X-155030I-630J-768D01*
G03Y-105968I-190J232D01*
G02X-153770I630J768D01*
G03Y-106432I190J-232D01*
G37*
G36*
G01X-136642Y-107907D02*
G02Y-106493I-959J707D01*
G03X-136158I241J178D01*
G02X-134242I958J-707D01*
G03X-133758I241J178D01*
G02X-131842I958J-707D01*
G03X-131358I241J178D01*
G02X-129442I958J-707D01*
G03X-128958I242J178D01*
G02Y-107907I958J-707D01*
G03X-129442I-242J-178D01*
G02X-131358I-958J707D01*
G03X-131842I-242J-178D01*
G02X-133758I-959J707D01*
G03X-134242I-242J-178D01*
G02X-136158I-959J707D01*
G03X-136642I-242J-178D01*
G37*
G36*
G01Y-110707D02*
G02Y-109293I-959J707D01*
G03X-136158I241J178D01*
G02X-134242I958J-707D01*
G03X-133758I241J178D01*
G02X-131842I958J-707D01*
G03X-131358I241J178D01*
G02X-129442I958J-707D01*
G03X-128958I242J178D01*
G02Y-110707I958J-707D01*
G03X-129442I-242J-178D01*
G02X-131358I-958J707D01*
G03X-131842I-242J-178D01*
G02X-133758I-959J707D01*
G03X-134242I-242J-178D01*
G02X-136158I-959J707D01*
G03X-136642I-242J-178D01*
G37*
G36*
G01Y-113507D02*
G02Y-112093I-959J707D01*
G03X-136158I241J178D01*
G02X-134242I958J-707D01*
G03X-133758I241J178D01*
G02X-131842I958J-707D01*
G03X-131358I241J178D01*
G02X-129442I958J-707D01*
G03X-128958I242J178D01*
G02Y-113507I958J-707D01*
G03X-129442I-242J-178D01*
G02X-131358I-958J707D01*
G03X-131842I-242J-178D01*
G02X-133758I-959J707D01*
G03X-134242I-242J-178D01*
G02X-136158I-959J707D01*
G03X-136642I-242J-178D01*
G37*
G36*
G01Y-116307D02*
G02Y-114893I-959J707D01*
G03X-136158I241J178D01*
G02X-134242I958J-707D01*
G03X-133758I241J178D01*
G02X-131842I958J-707D01*
G03X-131358I241J178D01*
G02X-129442I958J-707D01*
G03X-128958I242J178D01*
G02Y-116307I958J-707D01*
G03X-129442I-242J-178D01*
G02X-131358I-958J707D01*
G03X-131842I-242J-178D01*
G02X-133758I-959J707D01*
G03X-134242I-242J-178D01*
G02X-136158I-959J707D01*
G03X-136642I-242J-178D01*
G37*
G36*
G01Y-119107D02*
G02Y-117693I-959J707D01*
G03X-136158I241J178D01*
G02X-134242I958J-707D01*
G03X-133758I241J178D01*
G02X-131842I958J-707D01*
G03X-131358I241J178D01*
G02X-129442I958J-707D01*
G03X-128958I242J178D01*
G02Y-119107I958J-707D01*
G03X-129442I-242J-178D01*
G02X-131358I-958J707D01*
G03X-131842I-242J-178D01*
G02X-133758I-959J707D01*
G03X-134242I-242J-178D01*
G02X-136158I-959J707D01*
G03X-136642I-242J-178D01*
G37*
G36*
G01X-171442Y-127107D02*
G02X-173107Y-125442I-958J707D01*
G03Y-124959I-178J242D01*
G02Y-123042I707J959D01*
G03Y-122559I-178J242D01*
G02X-171442Y-120893I707J959D01*
G03X-170958I242J178D01*
G02X-169293Y-122559I959J-707D01*
G03Y-123042I178J-241D01*
G02Y-124959I-707J-958D01*
G03Y-125442I178J-241D01*
G02X-169241Y-125483I-707J-959D01*
G03X-168758Y-125322I191J231D01*
G02X-166642Y-124893I1158J-278D01*
G03X-166158I241J178D01*
G02Y-126307I958J-707D01*
G03X-166642I-242J-178D01*
G02X-168359Y-126517I-959J707D01*
G03X-168842Y-126678I-191J-231D01*
G02X-170958Y-127107I-1158J278D01*
G03X-171442I-241J-178D01*
G37*
G36*
G01X-109035Y-146164D02*
G02X-110044Y-145407I-965J-236D01*
G03X-109765Y-145036I-13J300D01*
G02X-108757Y-145793I965J236D01*
G03X-109035Y-146164I13J-300D01*
G37*
G36*
G01X-32642Y-147107D02*
G02X-34307Y-145442I-959J707D01*
G03Y-144958I-178J242D01*
G02X-32642Y-143293I707J959D01*
G03X-32158I242J178D01*
G02X-30242I959J-707D01*
G03X-29758I242J178D01*
G02X-27842I958J-707D01*
G03X-27358I242J178D01*
G02X-25442I958J-707D01*
G03X-24958I242J178D01*
G02X-23042I959J-707D01*
G03X-22558I242J178D01*
G02X-20893Y-144958I959J-707D01*
G03Y-145442I178J-241D01*
G02X-22558Y-147107I-707J-958D01*
G03X-23042I-242J-178D01*
G02X-24958I-958J707D01*
G03X-25442I-242J-178D01*
G02X-27358I-959J707D01*
G03X-27842I-242J-178D01*
G02X-29758I-959J707D01*
G03X-30242I-242J-178D01*
G02X-32158I-958J707D01*
G03X-32642I-242J-178D01*
G37*
G36*
G01X193830Y-174832D02*
G02X192570I-630J-768D01*
G03Y-174368I-190J232D01*
G02X193830I630J768D01*
G03Y-174832I190J-232D01*
G37*
G36*
G01X45168Y-183730D02*
G02Y-182470I-768J630D01*
G03X45632I232J190D01*
G02Y-183730I768J-630D01*
G03X45168I-232J-190D01*
G37*
G36*
G01X194230Y-184432D02*
G02X192970I-630J-768D01*
G03Y-183968I-190J232D01*
G02Y-182432I630J768D01*
G03Y-181968I-190J232D01*
G02X194230I630J768D01*
G03Y-182432I190J-232D01*
G02Y-183968I-630J-768D01*
G03Y-184432I190J-232D01*
G37*
G36*
G01X-119842Y-187107D02*
G02Y-185693I-958J707D01*
G03X-119359I242J178D01*
G02Y-187107I959J-707D01*
G03X-119842I-241J-178D01*
G37*
G36*
G01X38488Y-190846D02*
G02X38248Y-189647I-888J446D01*
G03X38712Y-189554I196J227D01*
G02X38952Y-190753I888J-446D01*
G03X38488Y-190846I-196J-227D01*
G37*
G36*
G01X-82642Y-192707D02*
G02X-84307Y-191042I-958J707D01*
G03Y-190558I-178J241D01*
G02X-84558Y-190307I707J958D01*
G03X-85042I-241J-178D01*
G02X-86707Y-188642I-958J707D01*
G03Y-188158I-178J241D01*
G02Y-186242I707J958D01*
G03Y-185758I-178J241D01*
G02Y-183842I707J958D01*
G03Y-183358I-178J241D01*
G02X-85042Y-181693I707J958D01*
G03X-84558I242J178D01*
G02X-82642I959J-707D01*
G03X-82158I241J178D01*
G02X-80401Y-181517I959J-707D01*
G03X-79999I201J222D01*
G02X-78401I799J-883D01*
G03X-77999I201J222D01*
G02X-76493Y-183358I799J-883D01*
G03Y-183842I178J-242D01*
G02Y-185758I-707J-959D01*
G03Y-186242I178J-242D01*
G02X-77999Y-188083I-707J-959D01*
G03X-78401I-201J-222D01*
G02X-79999I-799J883D01*
G03X-80401I-201J-222D01*
G02X-80493Y-188158I-798J884D01*
G03Y-188642I178J-242D01*
G02Y-190558I-707J-959D01*
G03Y-191042I178J-242D01*
G02X-82158Y-192707I-707J-958D01*
G03X-82642I-242J-178D01*
G37*
G36*
G01X-104642Y-194307D02*
G02Y-192893I-958J707D01*
G03X-104158I242J178D01*
G02X-102242I958J-707D01*
G03X-101758I242J178D01*
G02X-99842I958J-707D01*
G03X-99358I241J178D01*
G02X-97442I959J-707D01*
G03X-96958I242J178D01*
G02X-95042I959J-707D01*
G03X-94558I241J178D01*
G02X-92642I958J-707D01*
G03X-92159I241J178D01*
G02Y-194307I959J-707D01*
G03X-92642I-241J-178D01*
G02X-94558I-959J707D01*
G03X-95042I-242J-178D01*
G02X-96958I-958J707D01*
G03X-97442I-241J-178D01*
G02X-99358I-958J707D01*
G03X-99842I-241J-178D01*
G02X-101758I-959J707D01*
G03X-102242I-242J-178D01*
G02X-104158I-958J707D01*
G03X-104642I-242J-178D01*
G37*
G36*
G01Y-197107D02*
G02Y-195693I-958J707D01*
G03X-104158I242J178D01*
G02X-102242I958J-707D01*
G03X-101758I242J178D01*
G02X-99842I958J-707D01*
G03X-99358I241J178D01*
G02X-97442I959J-707D01*
G03X-96958I242J178D01*
G02X-95042I959J-707D01*
G03X-94558I241J178D01*
G02X-92642I958J-707D01*
G03X-92159I241J178D01*
G02Y-197107I959J-707D01*
G03X-92642I-241J-178D01*
G02X-94558I-959J707D01*
G03X-95042I-242J-178D01*
G02X-96958I-958J707D01*
G03X-97442I-241J-178D01*
G02X-99358I-958J707D01*
G03X-99842I-241J-178D01*
G02X-101758I-959J707D01*
G03X-102242I-242J-178D01*
G02X-104158I-958J707D01*
G03X-104642I-242J-178D01*
G37*
G36*
G01X-54277Y-195755D02*
G02X-55323I-523J-845D01*
G03Y-195245I-158J255D01*
G02X-54277I523J845D01*
G03Y-195755I158J-255D01*
G37*
G36*
G01X-48555Y-198123D02*
G02Y-197077I-845J523D01*
G03X-48045I255J158D01*
G02Y-198123I845J-523D01*
G03X-48555I-255J-158D01*
G37*
G36*
G01X-104642Y-199907D02*
G02Y-198493I-958J707D01*
G03X-104158I242J178D01*
G02X-102242I958J-707D01*
G03X-101758I242J178D01*
G02X-99842I958J-707D01*
G03X-99358I241J178D01*
G02X-97442I959J-707D01*
G03X-96958I242J178D01*
G02X-95042I959J-707D01*
G03X-94558I241J178D01*
G02X-92642I958J-707D01*
G03X-92159I241J178D01*
G02Y-199907I959J-707D01*
G03X-92642I-241J-178D01*
G02X-94558I-959J707D01*
G03X-95042I-242J-178D01*
G02X-96958I-958J707D01*
G03X-97442I-241J-178D01*
G02X-99358I-958J707D01*
G03X-99842I-241J-178D01*
G02X-101758I-959J707D01*
G03X-102242I-242J-178D01*
G02X-104158I-958J707D01*
G03X-104642I-242J-178D01*
G37*
G36*
G01X110558Y-201507D02*
G02X108893Y-199842I-958J707D01*
G03Y-199359I-178J242D01*
G02X110558Y-197693I707J959D01*
G03X111042I242J178D01*
G02X112707Y-199359I959J-707D01*
G03Y-199842I178J-241D01*
G02X111042Y-201507I-707J-958D01*
G03X110558I-241J-178D01*
G37*
G36*
G01X-104642Y-202707D02*
G02Y-201293I-958J707D01*
G03X-104158I242J178D01*
G02X-102242I958J-707D01*
G03X-101758I242J178D01*
G02X-99842I958J-707D01*
G03X-99358I241J178D01*
G02X-97442I959J-707D01*
G03X-96958I242J178D01*
G02X-95042I959J-707D01*
G03X-94558I241J178D01*
G02X-92642I958J-707D01*
G03X-92159I241J178D01*
G02Y-202707I959J-707D01*
G03X-92642I-241J-178D01*
G02X-94558I-959J707D01*
G03X-95042I-242J-178D01*
G02X-96958I-958J707D01*
G03X-97442I-241J-178D01*
G02X-99358I-958J707D01*
G03X-99842I-241J-178D01*
G02X-101758I-959J707D01*
G03X-102242I-242J-178D01*
G02X-104158I-958J707D01*
G03X-104642I-242J-178D01*
G37*
G36*
G01X71568Y-203430D02*
G02Y-202170I-768J630D01*
G03X72032I232J190D01*
G02Y-203430I768J-630D01*
G03X71568I-232J-190D01*
G37*
G36*
G01X82918Y-204139D02*
G02X82572Y-203082I-955J273D01*
G03X83045Y-202927I184J237D01*
G02X83390Y-203984I955J-273D01*
G03X82918Y-204139I-184J-237D01*
G37*
G36*
G01X-63632Y-207030D02*
G02Y-205770I-768J630D01*
G03X-63168I232J190D01*
G02X-61632I768J-630D01*
G03X-61168I232J190D01*
G02Y-207030I768J-630D01*
G03X-61632I-232J-190D01*
G02X-63168I-768J630D01*
G03X-63632I-232J-190D01*
G37*
G36*
G01X14959Y-210307D02*
G02X13293Y-208642I-959J707D01*
G03Y-208158I-178J242D01*
G02X14959Y-206493I707J958D01*
G03X15442I241J178D01*
G02X17107Y-208158I959J-707D01*
G03Y-208642I178J-242D01*
G02X15442Y-210307I-707J-958D01*
G03X14959I-242J-178D01*
G37*
G36*
G01X1758Y-211107D02*
G02X93Y-209442I-958J707D01*
G03Y-208958I-178J242D01*
G02Y-207042I707J958D01*
G03Y-206558I-178J242D01*
G02X1758Y-204893I707J958D01*
G03X2242I242J178D01*
G02X3907Y-206558I958J-707D01*
G03Y-207042I178J-242D01*
G02Y-208958I-707J-958D01*
G03Y-209442I178J-242D01*
G02X2242Y-211107I-707J-958D01*
G03X1758I-242J-178D01*
G37*
G36*
G01X-26642Y-216707D02*
G02Y-215293I-959J707D01*
G03X-26158I242J178D01*
G02Y-216707I959J-707D01*
G03X-26642I-242J-178D01*
G37*
G36*
G01X46558Y-219507D02*
G02Y-218093I-958J707D01*
G03X47042I242J178D01*
G02Y-219507I958J-707D01*
G03X46558I-242J-178D01*
G37*
G36*
G01X-4242Y-220307D02*
G02X-5907Y-218642I-959J707D01*
G03Y-218158I-178J242D01*
G02Y-216242I707J958D01*
G03Y-215758I-178J242D01*
G02X-4242Y-214093I707J958D01*
G03X-3758I242J178D01*
G02X-1842I958J-707D01*
G03X-1359I242J178D01*
G02X558I959J-707D01*
G03X1042I242J178D01*
G02X2707Y-215758I959J-707D01*
G03Y-216242I178J-242D01*
G02X2958Y-216493I-707J-958D01*
G03X3442I242J178D01*
G02X5107Y-218158I958J-707D01*
G03Y-218642I178J-242D01*
G02X3442Y-220307I-707J-958D01*
G03X2958I-242J-178D01*
G02X1042I-958J707D01*
G03X558I-241J-178D01*
G02X-1359I-958J707D01*
G03X-1842I-241J-178D01*
G02X-3758I-958J707D01*
G03X-4242I-242J-178D01*
G37*
G36*
G01X127358Y-236707D02*
G02Y-235293I-958J707D01*
G03X127842I242J178D01*
G02X129758I958J-707D01*
G03X130242I242J178D01*
G02Y-236707I958J-707D01*
G03X129758I-242J-178D01*
G02X127842I-958J707D01*
G03X127358I-242J-178D01*
G37*
G36*
G01X-126893Y-239042D02*
G02X-128307I-707J-958D01*
G03Y-238559I-178J242D01*
G02X-126893I707J959D01*
G03Y-239042I178J-241D01*
G37*
G36*
G01X-126493Y-247442D02*
G02X-127907I-707J-958D01*
G03Y-246958I-178J242D01*
G02X-126493I707J958D01*
G03Y-247442I178J-242D01*
G37*
G36*
G01X-32242Y-255107D02*
G02X-33907Y-253442I-959J707D01*
G03Y-252958I-178J242D01*
G02X-34158Y-252707I707J958D01*
G03X-34642I-242J-178D01*
G02X-36307Y-251042I-958J707D01*
G03Y-250558I-178J242D01*
G02X-34642Y-248893I707J958D01*
G03X-34158I242J178D01*
G02X-32242I958J-707D01*
G03X-31758I242J178D01*
G02X-29842I959J-707D01*
G03X-29358I242J178D01*
G02X-27693Y-250558I958J-707D01*
G03Y-251042I178J-242D01*
G02Y-252958I-707J-958D01*
G03Y-253442I178J-242D01*
G02X-29358Y-255107I-707J-958D01*
G03X-29842I-242J-178D01*
G02X-31758I-958J707D01*
G03X-32242I-242J-178D01*
G37*
G54D41*
X187200Y-35300D03*
G54D42*
X187150Y-33300D03*
Y-29400D03*
Y-27400D03*
Y-23500D03*
Y-21500D03*
X187250Y-17600D03*
G54D40*
X187150Y-39250D03*
G54D32*
X72500Y-176200D03*
X74100D03*
X77200D03*
X78800D03*
X81900D03*
X83500D03*
X86700D03*
X88300D03*
G54D48*
X-90089Y21975D03*
X110698Y-56765D03*
G54D36*
X122550Y88850D03*
X119050D03*
Y96750D03*
X122550D03*
X122450Y94750D03*
X119050D03*
Y90850D03*
X122550D03*
X169850Y-18450D03*
X173350D03*
Y-20450D03*
X169850D03*
Y-24350D03*
X173350D03*
Y-26350D03*
X169850D03*
X170250Y-39150D03*
X173750D03*
X173650Y-37150D03*
X170250D03*
Y-33250D03*
X173650D03*
X173750Y-31250D03*
X170250D03*
X171050Y26050D03*
X174550D03*
X174450Y28050D03*
X171050D03*
Y31950D03*
X174550D03*
X174450Y33950D03*
X171050D03*
X168750Y41250D03*
X172050D03*
X172150Y43250D03*
X168650D03*
Y47250D03*
X172050Y47150D03*
Y49150D03*
X168650D03*
G54D51*
X184400Y-139300D03*
Y-94300D03*
G54D43*
X164250Y49500D03*
X162150D03*
X162050Y46700D03*
X164250D03*
X164450Y34400D03*
X166650D03*
X164550Y31600D03*
X166650D03*
G54D35*
X104500Y87600D03*
X108100D03*
X108200Y83600D03*
X104600D03*
X108100Y75900D03*
Y72000D03*
X104500D03*
Y76000D03*
X104600Y98000D03*
X108100D03*
Y94000D03*
X104600D03*
G54D37*
X189600Y44900D03*
Y42900D03*
Y37000D03*
Y35000D03*
G54D38*
Y38950D03*
Y33050D03*
Y27150D03*
G54D34*
X143250Y36300D03*
G54D33*
X143200Y43750D03*
X116500Y72250D03*
Y79750D03*
G54D39*
X189550Y29150D03*
G54D52*
X163857Y-192000D03*
X171731D03*
X179605D03*
G54D49*
X-120000Y32400D03*
G54D45*
X-197600Y-188800D03*
Y-192800D03*
X-195200Y-155200D03*
Y-158000D03*
Y-163600D03*
Y-166800D03*
Y-171600D03*
Y-174400D03*
Y-180400D03*
Y-183600D03*
X-200800Y-192800D03*
Y-188800D03*
X-198000Y-183600D03*
Y-180400D03*
Y-174400D03*
Y-171600D03*
Y-166800D03*
X-124800Y-254000D03*
X-198000Y-163600D03*
Y-158000D03*
Y-155200D03*
X-112800Y-186400D03*
X-115600D03*
X-143200Y-141600D03*
Y-144400D03*
Y-147200D03*
Y-150000D03*
Y-152800D03*
X-134800D03*
X-137600D03*
X-140400D03*
X-134800Y-150000D03*
X-137600D03*
X-140400D03*
Y-147200D03*
X-137600D03*
X-134800D03*
X-132000D03*
X-140400Y-144400D03*
X-137600D03*
X-134800D03*
X-132000D03*
Y-141600D03*
X-134800D03*
X-137600D03*
X-140400D03*
X-158000Y-93200D03*
X-110800Y12000D03*
X-126400Y42000D03*
X-187600Y-1600D03*
X-190800D03*
X-193600D03*
X-92800Y-14000D03*
X-95600Y74800D03*
X-126800Y138800D03*
X-98000Y115200D03*
Y118000D03*
X-95200D03*
X-89600D03*
X-92400D03*
X-89600Y115200D03*
X-92400D03*
X-95200D03*
X92000Y-174000D03*
X121800Y-206200D03*
X100800Y-168800D03*
X98000D03*
X56400Y-219600D03*
Y-222352D03*
X20400Y70400D03*
X137200Y-75600D03*
X118800Y62000D03*
X121600D03*
X38000Y83200D03*
X35200D03*
X195600Y-28000D03*
X148400Y54400D03*
Y57200D03*
X145600Y54400D03*
Y57200D03*
G54D47*
X-202139Y74050D03*
X-202200Y42554D03*
G54D54*
X197494Y45449D03*
Y42299D03*
Y39150D03*
X194739Y37575D03*
Y34425D03*
X197494Y32850D03*
Y29701D03*
Y26551D03*
G54D50*
X149400Y-139320D03*
X159400Y-134320D03*
X149400Y-129320D03*
X159400Y-124320D03*
X149400Y-119320D03*
X203691Y-142883D03*
Y-132883D03*
X159400Y-114320D03*
X149400Y-109320D03*
X159400Y-104320D03*
X149400Y-99320D03*
X159400Y-94320D03*
X203691Y-100717D03*
Y-90717D03*
G54D55*
X146220Y82457D03*
X156063D03*
X163937D03*
X175748Y89543D03*
X167874D03*
X152126D03*
X144252D03*
G54D44*
X-158000Y-243458D03*
G54D46*
X-189828Y-220972D03*
X-201600Y-135200D03*
X-205600Y-135600D03*
X-138800Y-205200D03*
X-124800Y-124400D03*
X-116000Y-130400D03*
X-85400Y-194800D03*
X-139200Y-198000D03*
X-86000Y-242000D03*
X-139200Y-207600D03*
X-111600Y-140400D03*
X-119600Y-135200D03*
X-113600Y-122400D03*
X-73600Y-125600D03*
X-71600Y-127200D03*
X-122400Y-202000D03*
X-130000Y-157600D03*
X-105600Y-165200D03*
X-74800Y-123600D03*
X-74000Y-248800D03*
X-132800Y-179600D03*
X-183920Y-135680D03*
X-136000Y-223200D03*
X-110800Y-231600D03*
X-124400Y-180800D03*
X-118800Y-225416D03*
X-127200Y-209200D03*
X-129569Y-220031D03*
X-116572Y-220228D03*
X-87600Y-232400D03*
X-86800Y-179200D03*
X-69600Y-136800D03*
X-70000Y-133200D03*
X-78800Y-228800D03*
X-133200Y-242800D03*
X-69600Y-128400D03*
X-138000Y-209600D03*
X-79600Y-239200D03*
X-95600Y-160000D03*
X-119200Y-139200D03*
X-148400Y-204800D03*
Y-200800D03*
Y-196400D03*
X-138500Y-185600D03*
X-148400Y-185200D03*
X-174000Y-133200D03*
X-144800Y-182400D03*
X-89200Y-241600D03*
X-165600Y-191600D03*
X-148400Y-178800D03*
X-160400Y-8000D03*
X-86000Y7600D03*
X-150500Y37100D03*
X-187200Y4000D03*
X-110000Y-39200D03*
X-112400Y-63200D03*
X-68800Y-55200D03*
Y56400D03*
X-104000Y74800D03*
X-76000Y-94000D03*
X-73772Y-85372D03*
X-192000Y36800D03*
X-193200Y-36800D03*
X-76400Y-88000D03*
X-150500Y46700D03*
Y41900D03*
X-150900Y71300D03*
Y66500D03*
X-123200Y58800D03*
X-149600Y60800D03*
X-154400Y-34400D03*
X-193200Y-16800D03*
X-106800Y-17600D03*
X-126800Y-62800D03*
X-102400Y-22000D03*
X-116800Y-62800D03*
X-104400Y-17600D03*
X-122000Y-62800D03*
X-116000Y-25600D03*
X-124800Y-14000D03*
X-187200Y48400D03*
Y38000D03*
X-103200Y-28800D03*
X-131200Y-62800D03*
X-96300Y51200D03*
X-91600Y53200D03*
X-142000Y70800D03*
X-93200Y69600D03*
X-114000Y-2000D03*
X-124800Y-9600D03*
X-121900D03*
X-117200Y-9500D03*
X-73100Y-37200D03*
X-99200Y-5700D03*
X-110000Y2000D03*
X-107300Y-500D03*
X-74400Y-33200D03*
X-164000Y-16400D03*
X-115800Y77400D03*
X-95600Y-68800D03*
X-137200Y-68400D03*
X-87200Y12400D03*
X-84000Y14000D03*
X-185600Y56400D03*
X-187200Y63200D03*
X-116400Y-19200D03*
X-127200Y10400D03*
X-106000Y-27600D03*
X-97200Y39600D03*
X-89500Y-25200D03*
X-112500Y-20400D03*
X-116000Y-28400D03*
X-164400Y-71600D03*
X-68800Y85300D03*
X-193200Y-101600D03*
X-135600Y-14400D03*
X-164800Y-100400D03*
X-137200Y-16400D03*
X-162400Y-101600D03*
X-186400Y14800D03*
X-164800Y-111600D03*
X-166000Y-106400D03*
X-192800Y-61600D03*
X-184800Y44000D03*
X-185200Y-101600D03*
X-182800Y-88000D03*
X-188000Y-90800D03*
X-183200Y24400D03*
X-193200Y-71600D03*
Y-81600D03*
X-170000Y-17200D03*
X-171600Y-26400D03*
X-180400Y-36800D03*
X-159200Y-105200D03*
X-154400Y-99200D03*
X-164000Y-31600D03*
X-130000Y19600D03*
X-111772Y51372D03*
X-94400Y32000D03*
X-143600Y24800D03*
X-156400Y-46000D03*
X-113200Y-84000D03*
X-90000Y41600D03*
X-82000Y-17700D03*
X-120800Y-39600D03*
X-108000Y-22000D03*
X-109200Y-17200D03*
X-115200Y-39200D03*
X-116490Y-31290D03*
X-139600Y-12000D03*
X-154800Y-43200D03*
X-134400Y-26400D03*
X-160400Y-35200D03*
X-110800Y-84000D03*
X-91600Y50400D03*
X-68800Y135200D03*
X-83900Y104800D03*
X-89200Y96400D03*
X-53200Y-243600D03*
X78000Y-202800D03*
X44000Y-204800D03*
X-36400Y-232800D03*
X38000Y-186400D03*
X48800Y-180400D03*
X65200Y-197600D03*
X42400Y-209600D03*
X49600D03*
X-62800Y-221600D03*
X-11600Y-238800D03*
X-9200Y-223600D03*
X-28000Y-200400D03*
X-32800Y-196400D03*
X119600Y-228000D03*
X122000Y-156400D03*
X-38588Y-198888D03*
X96853Y-122747D03*
X60400Y-154800D03*
X-61500Y-197200D03*
X-58000D03*
X-66000Y-195200D03*
X-63600Y-227600D03*
X-34000Y-232800D03*
X9200Y-234400D03*
X55276Y-234724D03*
X38400Y-178000D03*
X56000Y-188100D03*
X39200Y-201600D03*
X48800Y-203300D03*
X95600Y-179200D03*
X31600Y-180800D03*
Y-193600D03*
Y-185200D03*
X39600Y-182000D03*
X43200Y-175200D03*
X39200Y-172000D03*
X48400Y-190400D03*
X64000Y-195200D03*
X49200Y-178000D03*
X67600Y-200400D03*
X-27100Y-203800D03*
X106800Y-166000D03*
X110800D03*
X142000Y-232972D03*
X-18000Y-223200D03*
X37200Y-228800D03*
X-42000Y-197200D03*
X61400Y-181600D03*
X47600Y-172800D03*
X52400Y-181600D03*
X52800Y-187600D03*
X52400Y-203200D03*
Y-198800D03*
X94400Y-198000D03*
X96000Y-209600D03*
X78000D03*
X65200Y-182700D03*
X70400Y-210000D03*
X50000Y-172800D03*
X61200Y-208800D03*
X-66800Y-243200D03*
X122000Y-164400D03*
X71600Y-252400D03*
X-52400Y-233200D03*
X-50000Y-194400D03*
X-27600Y-225600D03*
X-15600Y-228400D03*
X-63600Y-225200D03*
X-62000Y-194800D03*
X-34300Y-194500D03*
X-29200Y-194000D03*
X-41800Y-194800D03*
X-58000D03*
X26228Y-219028D03*
X-57200Y-230400D03*
X31200Y-240800D03*
X-38500Y-194800D03*
X80400Y-248800D03*
X50400Y-250000D03*
X-67200Y-138800D03*
X50000Y-185600D03*
X61200Y-186400D03*
X92800Y-203200D03*
X75200Y-202300D03*
X89600Y-200000D03*
X76800Y-233200D03*
X-27200Y-223300D03*
X127600Y-162400D03*
X61600Y-203300D03*
X90400Y-204800D03*
X62000Y-177200D03*
X45372Y-191828D03*
X48800Y-199600D03*
X61600Y-198400D03*
X104642Y-203442D03*
X96400Y-192000D03*
X94000Y-184800D03*
X80400Y-173600D03*
X37200Y-200000D03*
X60000Y-188400D03*
X48000Y-193600D03*
X68000Y-203300D03*
X93937Y-191937D03*
X75663Y-173563D03*
X85112Y-173588D03*
X122000Y-228800D03*
X-56000Y-142800D03*
X-34800Y-198500D03*
X1200Y-250400D03*
X-5200Y-184400D03*
X8195Y29007D03*
X6386Y30817D03*
X2768Y23580D03*
X959Y25389D03*
X6386Y1770D03*
X8195Y-40D03*
Y-3558D03*
X6386Y-1749D03*
X8195Y-7177D03*
X10005Y-5367D03*
Y-8986D03*
X4577Y3679D03*
X2768Y5488D03*
X-851Y-16222D03*
X13623Y-23459D03*
X11814Y-25268D03*
X10005Y-23459D03*
X8189Y-21657D03*
X6380Y-19847D03*
X4600Y-18100D03*
X13623Y-19841D03*
X8195Y-18032D03*
X11814D03*
X10005Y-16222D03*
X11814Y-28887D03*
X116000Y-25600D03*
X29906Y3679D03*
X22669Y-43361D03*
X52800Y-97486D03*
X-27989Y-18032D03*
X-50737Y-85086D03*
X-26180Y-19841D03*
X-50737Y-82286D03*
X-22600Y-85286D03*
X-22561Y-23459D03*
X-22600Y-82086D03*
X-20752Y-25268D03*
X-11700Y-34286D03*
X-40400Y-85200D03*
X-9897Y-36124D03*
X-40800Y-82000D03*
X-17134Y-28887D03*
X-30238Y-85205D03*
X-15324Y-30696D03*
X-30238Y-82056D03*
X-50837Y-91486D03*
X-22600Y-19886D03*
X-17134Y-25268D03*
X-22637Y-94286D03*
X-42100Y-43600D03*
X-40550Y-91486D03*
X-8087Y-34315D03*
X-11706Y-30696D03*
X-30037Y-94486D03*
X-49600Y-72800D03*
X-45500Y-88286D03*
X-30800Y-60400D03*
X-30400Y-76800D03*
X-30800Y-56400D03*
X-30237Y-88286D03*
X-25200Y-52800D03*
X-27837Y-91286D03*
X-30800Y-52400D03*
X-30437Y-91486D03*
X-25200Y-56800D03*
X-62400Y-61200D03*
X-59200Y-62686D03*
X-53600Y-91600D03*
X-56000Y-63986D03*
X-53400Y-88486D03*
Y-85286D03*
X-56000Y-67900D03*
X-38700Y-41200D03*
X-22000Y-73600D03*
X-36900Y-56400D03*
X-19900Y-85286D03*
X-38800Y-45100D03*
X-19700Y-88386D03*
X-35600Y-43200D03*
X-19800Y-91486D03*
X-25500Y-48400D03*
X-25237Y-85286D03*
X-38600Y-49900D03*
X-17400Y-81886D03*
X76800Y-70000D03*
X76300Y-85600D03*
X-32400Y-42800D03*
X-17100Y-88386D03*
X81600Y-64400D03*
X76000Y-92000D03*
X-45600Y-64000D03*
X-47900Y-88286D03*
X-48900Y-63600D03*
X-48200Y-91486D03*
X-45200Y-69500D03*
X-45600Y-85486D03*
X-49300Y-67600D03*
X-45600Y-91486D03*
X-20800Y-50400D03*
X-25237Y-91486D03*
X-24937Y-88286D03*
X-20800Y-54800D03*
X28097Y-37933D03*
X42700Y-85486D03*
X29906Y-36124D03*
X42700Y-82286D03*
X33524Y-28887D03*
X71034Y-85600D03*
X35334Y-30696D03*
X44350Y-21625D03*
X46189Y-19841D03*
X38952Y-27078D03*
X40761Y-25258D03*
X60700Y-82286D03*
X26287Y-36124D03*
X42800Y-91686D03*
X53200Y-66400D03*
X31715Y-30696D03*
X68400Y-91686D03*
X42570Y-19841D03*
X50600Y-94586D03*
X37142Y-25268D03*
X63200Y-92186D03*
X70000Y-37600D03*
X48000Y-85286D03*
X71200Y-46400D03*
X50700Y-82500D03*
X65600Y-61600D03*
X65800Y-82400D03*
X62400Y-59800D03*
Y-54800D03*
X63600Y-88686D03*
X66100Y-91586D03*
X75200Y-60000D03*
X29600Y-71886D03*
X35200Y-58686D03*
X37550Y-88586D03*
X68800Y-60000D03*
X31200Y-51486D03*
Y-83286D03*
X30000Y-77286D03*
X40200Y-91686D03*
X35600Y-65086D03*
X40400Y-88686D03*
X38000Y-68686D03*
X40100Y-85586D03*
X77600Y-75200D03*
X73700Y-85600D03*
X81600Y-70000D03*
X73700Y-88786D03*
X71200Y-70800D03*
X73600Y-91686D03*
X68400Y-54800D03*
X71400Y-66400D03*
X76300Y-82386D03*
X-32400Y-38800D03*
X-17100Y-85186D03*
X76000Y-63600D03*
Y-88800D03*
X-30000Y-42800D03*
X-19800Y-94286D03*
X63600Y-38000D03*
X45400Y-91686D03*
X63600Y-42000D03*
X45200Y-88486D03*
X66800Y-42400D03*
X45400Y-85286D03*
X48000Y-82400D03*
X67200Y-46400D03*
X66800Y-38000D03*
X47800Y-91686D03*
X70000Y-41600D03*
X48000Y-88486D03*
X72000Y-58000D03*
X66000Y-88686D03*
X72555Y-53345D03*
X68400Y-88686D03*
X13623Y-63262D03*
X63297Y-107471D03*
X20860Y-37933D03*
X55600Y-113686D03*
X17241Y-45170D03*
X55700Y-110586D03*
X19051Y-46979D03*
X55637Y-107486D03*
X13623Y-48788D03*
X60738Y-107471D03*
X17241Y-59643D03*
X58237Y-110886D03*
X-2660Y-43361D03*
X-33600Y-97086D03*
X-30238Y-107253D03*
X6400Y-63286D03*
X-851Y-37933D03*
X-30800Y-115986D03*
X6386Y-48788D03*
X-32797Y-107253D03*
X6386Y-59643D03*
X-34200Y-115986D03*
X-37900Y-82286D03*
X2768Y-48788D03*
X-37940Y-113286D03*
X959Y-46979D03*
X-37940Y-110286D03*
X33524Y7297D03*
X35334Y9106D03*
X-8100Y1800D03*
X8800Y88400D03*
X35334Y5488D03*
X-35226Y-7177D03*
X37142Y7297D03*
X38952Y1870D03*
X53426Y-8986D03*
X40761Y3679D03*
Y60D03*
X-18942Y-12604D03*
X42570Y1870D03*
X44380Y-3558D03*
X-8087Y16343D03*
X-20752Y-14413D03*
X46189Y-1749D03*
X-26180Y-8986D03*
X-33416D03*
X40761Y-7177D03*
X47998Y-3558D03*
X31715Y5488D03*
X-51800Y20100D03*
X-22561Y5488D03*
X101600Y-19600D03*
X-22561Y1870D03*
X-26180Y-1749D03*
X-30000Y46800D03*
X67600Y84000D03*
X-15600Y21600D03*
X-15324Y-16222D03*
X2800Y19900D03*
X-52000Y-29200D03*
X-15324Y-19841D03*
X-6278Y14534D03*
X-13515Y-21651D03*
X-26800Y70800D03*
X-9897Y14534D03*
X40761Y-14413D03*
X55235D03*
X85600Y-19200D03*
X51616Y-14413D03*
X-11700Y23600D03*
X10400Y-43200D03*
X-2700Y-39800D03*
X54700Y-79086D03*
X89200Y-99086D03*
X86172Y-92458D03*
X78652Y-91723D03*
X58300Y-77086D03*
X43000Y-100786D03*
X42825Y-104322D03*
Y-107471D03*
X70974Y-101172D03*
Y-104322D03*
X70900Y-107048D03*
X60738Y-104322D03*
Y-101172D03*
X63297Y-104322D03*
X53000Y-104086D03*
X55620Y-101172D03*
X53061D03*
X63297Y-113771D03*
X50502D03*
X22670Y-25268D03*
X20860Y-23458D03*
X26287Y-18032D03*
X24478Y-23459D03*
X22669Y-21650D03*
X26287D03*
X24478Y-19841D03*
X20860Y-27078D03*
X19051Y-25268D03*
X17241Y-27078D03*
X19051Y-28887D03*
X15432D03*
X17241Y-30696D03*
X15432Y-32506D03*
X13623Y-34315D03*
X11814Y-32506D03*
X13623Y-30696D03*
X-14737Y-93086D03*
X-58637D03*
Y-89886D03*
X-14800Y-90400D03*
X-40474Y-104103D03*
X-37544Y-101030D03*
X-40400Y-101086D03*
X-43033Y-104103D03*
X-40474Y-110402D03*
X-44337Y-113386D03*
X-41700Y-113286D03*
X-31500D03*
X-28900D03*
X-22700Y-100386D03*
X-22561Y-104103D03*
Y-107253D03*
X-50711D03*
Y-104103D03*
Y-100953D03*
X-30238Y-104103D03*
X-32797D03*
X-32900Y-100386D03*
X4577Y-28887D03*
X2768Y-27078D03*
X959Y-28887D03*
X2768Y-30696D03*
X959Y-25268D03*
X-851Y-27078D03*
Y-23458D03*
X-2660Y-25267D03*
X-4469Y-23459D03*
X-6278Y-21650D03*
X-8087Y-19841D03*
X-2660Y-21650D03*
X-4469Y-19841D03*
X6386Y-30696D03*
X8195Y-32506D03*
X4577D03*
X6386Y-34315D03*
X38952Y-19841D03*
X-17700Y23700D03*
X46189Y-5367D03*
X17238Y-5338D03*
X19051Y-7177D03*
X28097Y-16222D03*
X26287Y-14413D03*
X13623Y-16224D03*
X15432Y-14413D03*
X17241Y-16222D03*
X19051Y-14413D03*
X24478Y-12604D03*
X20860D03*
X17241D03*
X19051Y-10795D03*
X20860Y-8986D03*
X17241D03*
X15432Y-3558D03*
Y-7178D03*
X13623Y-5367D03*
X131200Y-10800D03*
X-66400Y53200D03*
X-29100Y51600D03*
X96200Y9900D03*
X38952Y-12604D03*
X-6400Y-3600D03*
X-18600Y-9000D03*
X142000Y-48000D03*
X104500Y68400D03*
X11600Y60400D03*
X13623Y30817D03*
X136000Y37200D03*
X137600Y-13200D03*
X-67600Y-102686D03*
X-38037Y-104186D03*
X89200Y-95886D03*
X41600Y-79286D03*
X47837Y-77286D03*
X60800Y-94686D03*
X45700Y-94386D03*
X78900Y-82386D03*
X34000Y-83686D03*
X62000Y-78786D03*
X67500Y-78686D03*
X70400Y-77200D03*
X53200Y-94386D03*
X53137Y-91686D03*
X55637D03*
X55600Y-85386D03*
X-22600Y-76986D03*
X-14400Y-84586D03*
X-26400Y-94586D03*
X-41300Y-76100D03*
X-46900Y-79086D03*
X-50837Y-76886D03*
X-38000Y-90869D03*
X-39200Y-94286D03*
X-32837Y-94486D03*
X-37800Y-85286D03*
X11814Y29007D03*
X-53200Y-25200D03*
X-11706Y-12604D03*
X-9897Y-14413D03*
X-8087Y-8986D03*
X-6278Y-7177D03*
X-2660D03*
X-4469Y-8986D03*
X-6278Y-14413D03*
X-2660D03*
Y-10795D03*
X-4469Y-12604D03*
X-851D03*
Y-8986D03*
X-6278Y-10795D03*
X-11714Y-8914D03*
X13900Y58400D03*
X13600Y16300D03*
X5700Y46400D03*
X96400Y-13600D03*
X-18900Y53600D03*
X-11700Y1850D03*
X-28200Y42800D03*
X-9897Y3679D03*
X37142Y-18032D03*
X47998Y-14413D03*
X96800Y-21600D03*
X33500D03*
X24478Y-30696D03*
X49200Y86000D03*
X37142Y60D03*
X53426Y-16222D03*
X46189Y-12604D03*
X35384Y-19841D03*
X-2667Y18167D03*
X44380Y-14413D03*
X-851Y16343D03*
X-13538Y-3562D03*
X-30000Y8800D03*
X-4469Y19961D03*
X-8087Y12725D03*
X87600Y-20800D03*
X33524Y-18032D03*
X-6278Y-28888D03*
X-22400Y66000D03*
X-9897Y18152D03*
X-2660Y10915D03*
X-851Y-5367D03*
X959Y-3557D03*
Y-7177D03*
X2768Y-5366D03*
X-4369Y-1849D03*
X-2660Y61D03*
X38952Y-1749D03*
X-13512Y-7112D03*
X37134Y-10834D03*
X110400Y-28800D03*
X-53800Y50400D03*
X-54800Y38800D03*
X44380Y-7180D03*
X42570Y-8986D03*
X47998Y-7177D03*
X57029Y-5371D03*
X40761Y-10795D03*
X51616Y-7177D03*
X46189Y-8986D03*
X49807Y-12604D03*
X99600Y-20800D03*
X73200Y-9600D03*
X42570Y-12604D03*
X57044Y-8986D03*
X-14884Y-104103D03*
X34300Y-108286D03*
X-14300Y-87286D03*
X-58136Y-100729D03*
Y-104229D03*
X-58437Y-108786D03*
X-58537Y-86886D03*
X35600Y-100786D03*
X35148Y-104322D03*
X33500Y-86686D03*
X78652Y-101172D03*
Y-104422D03*
Y-110621D03*
Y-107471D03*
X-14800Y-100386D03*
X-14884Y-107253D03*
X81200Y-92400D03*
X60700Y-9000D03*
X42570Y-16222D03*
X17241Y23580D03*
X-17134Y10915D03*
X19051Y25389D03*
X-13515Y7297D03*
X108000Y-9600D03*
X-17074Y14534D03*
X-27989Y60D03*
X-39600Y8800D03*
X-20752Y-7177D03*
X-22500Y-5300D03*
X33524Y3679D03*
X-24361Y-3561D03*
X-26180Y-12604D03*
X-41200Y800D03*
X-33600Y10900D03*
X-31600Y-10800D03*
X-22561Y-12604D03*
X-29788Y-8986D03*
X-33416Y-12604D03*
X-8087Y9106D03*
X-27989Y-14413D03*
X11300Y50000D03*
X-17134Y-14413D03*
X58000Y-104286D03*
X81200Y-111086D03*
X-35226Y-14413D03*
X-22561Y-16222D03*
X-29804Y-12598D03*
X-22400Y75200D03*
X140800Y-33200D03*
X26287Y14534D03*
X12800Y82400D03*
X-31607Y-14413D03*
X7200Y79600D03*
X22669Y18152D03*
X-24370Y-14413D03*
X22669Y10915D03*
X50739Y68000D03*
X20860Y9106D03*
X48400Y68000D03*
X-900Y20000D03*
X-2660Y21771D03*
X4577Y25389D03*
X2768Y27198D03*
X11200Y47200D03*
X19051Y7297D03*
X-25964Y11600D03*
X131600Y-22400D03*
X-17134Y60D03*
X29906Y14534D03*
X28097Y12725D03*
X91772Y-20628D03*
X37142Y-21650D03*
X95600Y-32800D03*
X62400Y-21200D03*
X49807Y-8986D03*
X-11706Y5488D03*
X67600Y70800D03*
X2709Y-12609D03*
X13600Y-12600D03*
X131600Y-19200D03*
X-2660Y3679D03*
X135200Y-15600D03*
X28800Y77600D03*
X13623Y27198D03*
X-55600Y72800D03*
X-54000Y47200D03*
X-49353Y40047D03*
X67600Y68400D03*
X-54000Y54300D03*
X-29200Y40000D03*
X11814Y10915D03*
X952Y10948D03*
X-17100Y-10800D03*
X17241Y5488D03*
X28097Y16343D03*
X24478Y19961D03*
X6700Y67600D03*
X8400Y32400D03*
X-49600Y21700D03*
X-15500Y-1752D03*
X-27961Y-3561D03*
X-31607Y-7177D03*
X15432Y25389D03*
X-62000Y85600D03*
X-48300Y61800D03*
X-4469Y5488D03*
X-29798Y-1749D03*
X8195Y21771D03*
X10005Y19961D03*
X-28000Y-10800D03*
X-66000Y88800D03*
X-31607Y-3558D03*
X-35900Y88400D03*
X-22561Y-8986D03*
X-33416Y-5367D03*
X-26100Y-5400D03*
X-59200Y72800D03*
X17241Y27198D03*
X7200Y58000D03*
X-40400Y74400D03*
X-30400Y74000D03*
X-42400Y81600D03*
X-43100Y44000D03*
X-15324Y5488D03*
X58853Y-10795D03*
X-32100Y85300D03*
X-17134Y7297D03*
X142000Y-90800D03*
X-29600Y82600D03*
X-51200Y79600D03*
X-49200Y26800D03*
X-18942Y9106D03*
X-27700Y13200D03*
X53481Y-12600D03*
X-842Y-34323D03*
X20860Y-34315D03*
X-2660Y-28887D03*
X-56000Y-30400D03*
X24478Y-27077D03*
X18667Y14533D03*
X20800Y20000D03*
X17238Y9162D03*
X10800Y78400D03*
X14400Y67200D03*
X13600Y53600D03*
X11800Y32600D03*
X19043Y57D03*
X42800Y54400D03*
X11809Y3409D03*
X6386Y-8985D03*
X-904Y9104D03*
X-64000Y-38400D03*
X8191Y7290D03*
X45200Y56000D03*
X140000Y-12800D03*
X8972Y54172D03*
X10005Y9106D03*
Y16343D03*
X24476Y5124D03*
X2768Y12725D03*
X-2666Y7266D03*
X4577Y-10795D03*
X17200Y62400D03*
X25629Y82572D03*
X15428Y3672D03*
X-21200Y32800D03*
X-28800Y37600D03*
X-4469Y9106D03*
X-13515Y-18032D03*
X16800Y77600D03*
X33524Y-7177D03*
X26284Y-3562D03*
X26287Y-7177D03*
X37142Y-14413D03*
X-9897Y-18032D03*
X-15324Y-12604D03*
X-20000Y-3200D03*
X-18942Y1870D03*
X-20752Y3679D03*
X102800Y-97200D03*
X128800Y64000D03*
X134800Y128800D03*
X-52400Y118800D03*
X68800Y116800D03*
X6000Y102400D03*
X122000Y135200D03*
X135200Y122400D03*
X138000Y117200D03*
X110000Y102800D03*
X123600Y119600D03*
X-23900Y92500D03*
X102300Y115800D03*
X13200Y101300D03*
X38400Y102400D03*
X124200Y115800D03*
X-27100Y95600D03*
X58800Y122800D03*
X-35900Y115300D03*
X126800Y131200D03*
X-42400Y121500D03*
X-42700Y119200D03*
X94800Y127900D03*
X108300Y121200D03*
X109200Y124800D03*
X130400Y124000D03*
X107500Y110000D03*
X19200Y98000D03*
X76000Y130400D03*
X111600Y93200D03*
X108400Y133600D03*
X112800Y128500D03*
X128800Y127200D03*
X113300Y119900D03*
X115100Y110000D03*
X135600Y134800D03*
X-40300Y93200D03*
X-47200Y115200D03*
X79600Y105200D03*
X58400Y134400D03*
X-48400Y102000D03*
X66300Y118800D03*
X-32400Y106800D03*
X-22800Y123200D03*
X-53200Y122800D03*
X-49600Y122100D03*
X-38000Y91600D03*
X-59600Y110000D03*
X-60400Y105200D03*
X-68400Y139200D03*
X-48000Y132000D03*
X141600Y105700D03*
X-60500Y102400D03*
X-32400Y110000D03*
X-58200Y89700D03*
X-43600Y90000D03*
X-30000Y96000D03*
X-48800Y98800D03*
X-43200Y94000D03*
X-58800D03*
X-62000Y89600D03*
X-66000Y134400D03*
X-65200Y138400D03*
X-46800Y135200D03*
X26400Y98000D03*
X34000Y138400D03*
X47136Y140400D03*
X19200Y95200D03*
X98800Y115200D03*
X209021Y-200579D03*
X198611Y-198611D03*
X190800Y-186800D03*
X202800Y-39600D03*
X192000Y-57200D03*
X200324Y-43924D03*
X179065Y-51065D03*
X154000Y-34800D03*
X158800Y-42000D03*
X148400Y-31600D03*
X215750Y-39450D03*
X217600Y-36000D03*
Y-25200D03*
X212940Y-24260D03*
X214400Y-49600D03*
X207740Y-45740D03*
X203200Y-34400D03*
X205200Y70000D03*
Y78400D03*
X181828Y83828D03*
X208300Y-32000D03*
X184400Y34800D03*
Y37200D03*
X201200Y-31600D03*
X163000Y-47400D03*
X160400Y-79822D03*
X149200Y13600D03*
X202400Y-53200D03*
X208000Y-42800D03*
X198400Y81600D03*
X184628Y62972D03*
X152000Y-31600D03*
X157497Y19672D03*
X162800Y24000D03*
X145200Y13600D03*
X177109Y-36400D03*
X154000Y-44400D03*
X175568Y63168D03*
X181200Y14000D03*
X200800Y62400D03*
X186800Y38800D03*
X197200Y62000D03*
X186800Y33200D03*
X168400Y52400D03*
X143200Y-50400D03*
X201340Y77460D03*
X219359Y81041D03*
X180400Y51600D03*
X212000Y74000D03*
X182400Y57200D03*
X194628Y69828D03*
X182800Y54000D03*
X201600Y89200D03*
X157600Y132400D03*
X158000Y116400D03*
X151200Y138400D03*
X145600Y116400D03*
X150000Y124800D03*
X146000Y110400D03*
X155200Y136400D03*
X195200Y93200D03*
X155600Y120400D03*
X150000Y131200D03*
X151200Y117600D03*
X158400Y137200D03*
X184400Y89600D03*
X192800Y98800D03*
X161200Y105600D03*
X154400Y104800D03*
X211860Y93860D03*
G54D53*
X192180Y21827D03*
G54D31*
X-145402Y-219049D03*
%LPD*%
G75*
G54D10*
X-158000Y-219049D03*
X-178472D03*
G54D20*
X138937Y96669D03*
G54D11*
X-182016Y-247789D03*
X-143433D03*
G54D30*
G01X-152018Y151186D02*
G02X-148819Y154385I3199J0D01*
G01X15278D01*
Y141378D01*
G03X19215I1969J0D01*
G01Y154385D01*
X167819D01*
G02X170812Y151392I0J-2993D01*
G01Y129989D01*
X166562D01*
G03Y124067I0J-2961D01*
G01X170825D01*
Y109450D01*
X192150D01*
Y154246D01*
X228150D01*
Y-259750D01*
X-217450D01*
Y154254D01*
X-173050D01*
Y109450D01*
X-152003D01*
Y111050D01*
Y113450D01*
Y124067D01*
X-147621D01*
G03Y129989I0J2961D01*
G01X-152018D01*
Y151186D01*
G54D21*
X172392Y-147292D03*
X154683Y-181291D03*
X182085D03*
Y-202709D03*
X154526D03*
X172392Y-86308D03*
G54D12*
X-199600Y-244000D03*
Y130400D03*
X208800Y-244000D03*
Y130400D03*
G54D13*
X-157600Y-186085D03*
G54D22*
X155983Y-192000D03*
G54D23*
X159600Y-250000D03*
X179600Y-250062D03*
G54D14*
X-72000Y-134800D03*
X-130000Y-170800D03*
X-88000Y-218400D03*
Y-216800D03*
X-94400Y-214000D03*
X-96000D03*
X-101200Y-216400D03*
X-116000Y-139200D03*
X-130000Y-128000D03*
X-128000D03*
X-126000D03*
X-92800Y-215600D03*
X-101200Y-214800D03*
X-72400Y-235600D03*
X-181361Y-138239D03*
X-209600Y-135600D03*
X-162972Y-194172D03*
X-166869Y-188069D03*
X-144000Y-40800D03*
X-160000Y-107200D03*
X-164800Y-102800D03*
X-165600Y-81600D03*
Y-63200D03*
X-163600Y-21200D03*
X-164800Y-8800D03*
X-124400Y79200D03*
X-152000Y78000D03*
X-148000Y77200D03*
X-143200Y52000D03*
X-142400Y54800D03*
X-162000Y25200D03*
X-163600D03*
X-162000Y26800D03*
X-163600D03*
X-116800Y17600D03*
X-111600Y22800D03*
X-116800Y19200D03*
X-115200Y18400D03*
X-146000Y76400D03*
X-124400Y-6700D03*
X-114800Y-16800D03*
X-110400Y-20800D03*
X-117200Y-38400D03*
X-112400Y-39600D03*
X-75200Y-15600D03*
X-110400Y0D03*
X-78400Y-84400D03*
X-76800Y-82000D03*
X-74000Y-78400D03*
X-70000Y-75600D03*
X-130400Y48400D03*
X-143200Y34800D03*
X-143600Y40000D03*
X-138400Y46800D03*
X-120800Y67200D03*
X-138800Y70800D03*
X-137200D03*
Y69200D03*
X-138800D03*
X-140000Y70000D03*
X-145600Y70800D03*
Y66100D03*
X-143600Y53600D03*
X-187600Y-111600D03*
X-76400Y-91600D03*
X-75886Y-96286D03*
Y-100286D03*
X-76286Y-104286D03*
X-110900Y-8500D03*
X-106000Y-24800D03*
X-110000Y-41200D03*
X-128400Y71600D03*
X-70400Y-10800D03*
X-72000Y-38800D03*
X-73200Y-34800D03*
X-162400Y-111600D03*
X-177600Y-37200D03*
X-183600Y-97600D03*
X-187200Y-100000D03*
X-128800Y79200D03*
X-127200D03*
X-122400D03*
X-165200Y61200D03*
Y56000D03*
Y57600D03*
Y59600D03*
X-124000Y56800D03*
X-125200Y-12000D03*
X-116000Y-22900D03*
X-110400Y-26000D03*
X-108100Y-27600D03*
X-142572Y-25372D03*
X-147600Y-20000D03*
X-152172Y-35028D03*
X-99200Y-1600D03*
X-97200D03*
X-124400Y-29200D03*
X-124000Y-35600D03*
X-139600Y-5600D03*
X-188400Y-119600D03*
X-184172Y-119428D03*
X-115200Y136400D03*
X-206000Y92400D03*
X-94400Y102400D03*
X-82800Y140000D03*
X-87600Y139600D03*
X-133600D03*
X-99600D03*
X-126400Y141200D03*
X-93941Y139941D03*
X-76700Y140000D03*
X-70400Y139200D03*
X-101600D03*
X-62400Y-138400D03*
X24000Y-204000D03*
X-34400Y-242800D03*
X67600Y-227600D03*
X70800D03*
X66000D03*
X58800Y-240400D03*
X57200D03*
X32800Y-209600D03*
X30800D03*
X30000Y-200000D03*
X28400D03*
X24000Y-215600D03*
X22400D03*
X22800Y-210000D03*
X28800Y-204000D03*
X30800D03*
X4400Y-175600D03*
X83200Y-238400D03*
X99200Y-242400D03*
X97200D03*
X-62800Y-243200D03*
X-56000Y-244000D03*
X-30800Y-237600D03*
Y-239200D03*
X-24400D03*
X-34000Y-237200D03*
X-35600D03*
X46800Y-238000D03*
X51600Y-236000D03*
X43600Y-237600D03*
X65600Y-211200D03*
X138000Y-194800D03*
X60400Y-133600D03*
X63200Y-130800D03*
X66800Y-127200D03*
X70000Y-124000D03*
X35600Y-133600D03*
X53200Y-134000D03*
X42400D03*
X28800D03*
X22000Y-133600D03*
X17600Y-130000D03*
X13200Y-126400D03*
X10000Y-123600D03*
X4000Y-121600D03*
X0Y-124000D03*
X-2400Y-127200D03*
X-6800Y-131600D03*
X-13600D03*
X-22400D03*
X-28400D03*
X-32800D03*
X-36400Y-131200D03*
X-39600Y-130000D03*
X-43600Y-127600D03*
X-50400Y-126800D03*
X-54000Y-126400D03*
X-58400Y-124800D03*
X-61200Y-122000D03*
X55600Y-174800D03*
X-1200Y-196800D03*
X-10800Y-188400D03*
X-25600Y-202000D03*
X-27688Y-209688D03*
X-19600Y-201600D03*
X-27644Y-212444D03*
X94000Y-180800D03*
X96800Y-185600D03*
X98000Y-190400D03*
X103428Y-176628D03*
X104000Y-190800D03*
X112800Y-192400D03*
X118800Y-183200D03*
X111600Y-175600D03*
X33600Y-181600D03*
X134000Y-192800D03*
Y-186800D03*
X68000Y-211200D03*
X92400D03*
X88400D03*
X80400Y-211100D03*
X58000Y-188200D03*
X57600Y-192400D03*
X36000Y-177200D03*
X48400Y-211600D03*
X65600Y-200700D03*
X62400Y-200400D03*
X51600Y-208000D03*
X1523Y-188477D03*
X-27200Y-197600D03*
X-25600Y-182900D03*
X76000Y-239200D03*
X92000Y-239600D03*
X93600D03*
X46400Y-251200D03*
Y-248800D03*
Y-246800D03*
X52572Y-217428D03*
X-21028Y-223772D03*
X-50900Y-231600D03*
X-47600D03*
X-26800Y-220500D03*
X-60400Y-254400D03*
X27600Y-233600D03*
X43600Y88000D03*
X122800Y53500D03*
X131300Y54000D03*
X-1400Y-32400D03*
X-17100Y-3600D03*
X129600Y54000D03*
X34700Y-89700D03*
X38000Y-71586D03*
X43100Y-88600D03*
X68400Y-85600D03*
X62400Y-56800D03*
X76400Y-61600D03*
X68400Y-56800D03*
X70800Y-60000D03*
X74300Y-66400D03*
X53200Y-64400D03*
Y-58800D03*
X65600Y-59600D03*
X73900Y-71000D03*
X71000Y-88400D03*
X72400Y-55600D03*
X-33200Y-40400D03*
X-31000Y-44300D03*
X-30800Y-54400D03*
Y-58400D03*
X-25200Y-54800D03*
Y-50800D03*
X-20800Y-52400D03*
X-44800Y-50200D03*
X-47200Y-62400D03*
X-36900Y-54400D03*
X-38600Y-48100D03*
X-35600Y-45000D03*
X-38700Y-43200D03*
X-42000Y-45600D03*
X-62400Y-63200D03*
X-22300Y-88500D03*
X-49200Y-65600D03*
X-47000Y-69600D03*
X-49600Y-70800D03*
X-56000Y-69900D03*
Y-65900D03*
X-50700Y-87900D03*
X-59200Y-64800D03*
X45400Y-82700D03*
X70800Y-91600D03*
X77600Y-73200D03*
X79200Y-70000D03*
X70000Y-39600D03*
Y-43600D03*
X63600Y-40000D03*
X69200Y-46400D03*
X66800Y-40000D03*
X-28300Y-94900D03*
X-27600Y-88400D03*
X-56400D03*
X-17600Y-91600D03*
X-53200Y-94400D03*
X-36300Y-95600D03*
X-24500Y-94700D03*
X10053Y-45253D03*
X29900Y-79486D03*
X40000Y-94700D03*
X48000Y-94500D03*
X70800Y-94800D03*
X73600D03*
X81600Y-66800D03*
X87200Y7600D03*
X87600Y12400D03*
X83600Y8000D03*
X83800Y13500D03*
X76500Y13800D03*
X76400Y18800D03*
X70400Y16100D03*
Y19600D03*
X66800Y10700D03*
X66600Y7100D03*
X58400Y9100D03*
X58300Y12500D03*
X67300Y18300D03*
X67500Y21700D03*
X67900Y26000D03*
X102800Y-38800D03*
X-57600Y-38400D03*
X-52800Y-33200D03*
X-48400Y-28000D03*
X-45600Y-25600D03*
X136900Y-16400D03*
X95600Y15200D03*
X-19200Y60800D03*
X49600Y70000D03*
X39200Y50400D03*
X34400D03*
X23200Y49200D03*
Y43600D03*
X-32800Y29600D03*
X-43600Y17500D03*
X74000Y-119600D03*
X9200Y-71200D03*
Y-77200D03*
Y-82000D03*
Y-89600D03*
Y-95600D03*
Y-102800D03*
Y-112000D03*
Y-116000D03*
X-67600Y-73200D03*
X-66800Y-70000D03*
Y-65600D03*
Y-61200D03*
X-64000Y-57600D03*
X-60400Y-54800D03*
X-57600Y-51200D03*
X-56800Y-46800D03*
Y-43200D03*
X15432Y-18033D03*
X10005Y45290D03*
X135289Y51111D03*
X134800Y39200D03*
X116100Y38000D03*
X126400Y36000D03*
X117600Y66800D03*
X135600Y53060D03*
X124400Y54000D03*
X14100Y70400D03*
X28000Y84400D03*
X28800Y86400D03*
X27200D03*
X52000Y85600D03*
X6386Y-12604D03*
X19051Y-18032D03*
X20860Y-19841D03*
X24478Y-16222D03*
X22669Y-18032D03*
X20860Y-16222D03*
X19051Y-21651D03*
X13623Y-27078D03*
X6386Y-5367D03*
X2768Y-8986D03*
X959Y-10795D03*
X4577Y-7176D03*
X37900Y-79086D03*
X41600Y-77486D03*
X33700Y-92686D03*
X33600Y-95386D03*
Y-96986D03*
X58100Y-79286D03*
X70300Y-79086D03*
X76200Y-79186D03*
X61900Y-75786D03*
X47843Y-79125D03*
X53200Y-88286D03*
X50400Y-91486D03*
Y-88400D03*
X60400Y-88286D03*
X61200Y-91386D03*
X47943Y-107471D03*
X50502Y-107271D03*
X47943Y-104322D03*
X48000Y-100786D03*
X50500Y-100986D03*
X50502Y-110821D03*
X53061Y-113771D03*
X58237Y-113786D03*
Y-107386D03*
X73533Y-110621D03*
Y-104322D03*
Y-107471D03*
Y-101172D03*
X37707Y-104322D03*
X40337Y-104286D03*
X40300Y-100786D03*
Y-110586D03*
X37800Y-113486D03*
X40337Y-107486D03*
X42800Y-110486D03*
X66000Y-107486D03*
X63297Y-101172D03*
X68363Y-107124D03*
X66000Y-104286D03*
Y-101086D03*
X70974Y-110621D03*
X-2560Y-3658D03*
X2768Y-1749D03*
X-651Y-1748D03*
X959Y60D03*
X15432Y-54216D03*
X14000Y-56000D03*
X6086Y-56025D03*
X4577Y-54516D03*
X10000Y-19800D03*
X11814Y-21650D03*
X15432D03*
X17241Y-23459D03*
X15432Y-25268D03*
X10000Y-63200D03*
X104000Y-24000D03*
X107200D03*
X105600D03*
X100800Y-25600D03*
X129600Y-18800D03*
Y-17200D03*
Y-15600D03*
X127975Y-20400D03*
X126400D03*
X127975Y-18800D03*
X126400D03*
X127975Y-17200D03*
X126400D03*
X128000Y-15600D03*
X126400D03*
X130480Y-32480D03*
Y-30880D03*
Y-29280D03*
X128880Y-32480D03*
Y-30880D03*
Y-29280D03*
X127280Y-32480D03*
Y-30880D03*
Y-29280D03*
X126000Y-28000D03*
X-11706Y16343D03*
Y12725D03*
X-2660Y-18032D03*
X-6278D03*
X-4469Y-16222D03*
X-15600Y3600D03*
X-66400Y-108000D03*
X-62400Y-100800D03*
X-35600Y-82000D03*
X-17600Y-78886D03*
X-55829Y-78906D03*
X-50737Y-78886D03*
X-35200Y-68700D03*
X-37800Y-79086D03*
X-30437Y-78886D03*
X-17600Y-113286D03*
X-39800Y-113086D03*
X-43000Y-94286D03*
X-41000Y-94686D03*
X-63200Y-117086D03*
X-22600Y-79086D03*
X-44300D03*
X-32797Y-88355D03*
Y-85205D03*
X-17437Y-107286D03*
X-20002Y-104103D03*
X-20000Y-100386D03*
X-19900Y-107286D03*
X-34100Y-113286D03*
X-38037Y-107286D03*
X-53270Y-100953D03*
Y-104103D03*
X-42400Y-91486D03*
X-37800Y-88186D03*
X-40800Y-88286D03*
X-7900Y5600D03*
X-45593Y-104103D03*
X-43033Y-107253D03*
X-40437Y-107286D03*
X-45593Y-107253D03*
X-43033Y-100953D03*
X-45593D03*
X-53270Y-110402D03*
X-55829Y-113552D03*
X-50711Y-110402D03*
X-30200Y-100386D03*
X-27679Y-104103D03*
X-25037Y-104086D03*
Y-107286D03*
X-27600Y-100386D03*
X-8087Y-12604D03*
Y-16222D03*
X-11706Y-5367D03*
X-9904Y-3596D03*
X-11706Y-16222D03*
X-13515Y-14413D03*
X-6278Y60D03*
X-20752D03*
X-24370Y-7177D03*
X-27989D03*
X-59600Y-26800D03*
X-66000Y-45200D03*
X-32900Y9200D03*
X132800Y23600D03*
X44400Y39200D03*
X136400Y19600D03*
X67600Y42000D03*
X88400Y45600D03*
X67800Y46400D03*
X4400Y63900D03*
X-64400Y53600D03*
X69200Y-29200D03*
X-50000Y-7200D03*
X-56800Y-23200D03*
X-48400D03*
X-38500Y-19300D03*
X-44272Y-8986D03*
X-46400Y-10800D03*
X-35226Y-10795D03*
X-37035Y-12604D03*
X-38844Y-10795D03*
X-37035Y-8986D03*
X-26000Y18400D03*
X-30800Y84000D03*
X-42200Y62100D03*
X-43200Y800D03*
X-28800Y34800D03*
X-10900Y27600D03*
X-13400Y24400D03*
X-43200Y39600D03*
X-28100Y53200D03*
X-18800Y36800D03*
X-56500Y71200D03*
X-55900Y66000D03*
X-68400Y53200D03*
X-21600Y77600D03*
X-24400Y65600D03*
X-32000Y88000D03*
X-29200Y17600D03*
X-12800Y75600D03*
X-36800Y4300D03*
X-60000Y85700D03*
X-41200Y9600D03*
X-22200Y-400D03*
X30400Y72800D03*
X29200Y71600D03*
X28000Y70400D03*
X26800Y69200D03*
X79600Y-2900D03*
X72800D03*
X60800Y-1600D03*
X88000Y3600D03*
X67600Y30400D03*
X17200Y38000D03*
X94800Y13200D03*
X29900Y-14400D03*
X29904Y0D03*
X6386Y9107D03*
X19050Y-3558D03*
X20860Y-1748D03*
X22666Y100D03*
X4400Y48000D03*
Y62400D03*
X-851Y27198D03*
X19051Y29007D03*
X20860Y27198D03*
X6386Y34435D03*
X10005Y38054D03*
X11814Y36244D03*
X13623Y34435D03*
X8195Y36244D03*
X4577Y32626D03*
X15500Y32600D03*
X46189Y-23459D03*
X11500Y-50700D03*
X11600Y-54000D03*
X-900Y-48300D03*
X-2660Y-46979D03*
X-851Y-45170D03*
X2000Y-50800D03*
X4577Y-46979D03*
X8595D03*
X9900Y-52400D03*
X6386Y-52407D03*
X-4469Y-41552D03*
X-8087D03*
X-6278Y-43361D03*
X-4469Y-44770D03*
X1100Y-42800D03*
X-13466Y-36134D03*
X-8144Y-39569D03*
X-9905Y-39695D03*
X17600Y-50500D03*
X16300Y-49600D03*
X-18942Y-29057D03*
Y-30696D03*
X28097Y-39797D03*
X24478Y-45170D03*
Y-41552D03*
X25987Y-43361D03*
X28097Y-41552D03*
X33566Y-36134D03*
X31715Y-34315D03*
X35334Y-27078D03*
X40761Y-21650D03*
X38952Y-23459D03*
X-31607Y-18032D03*
X-33416Y-16222D03*
X-29798D03*
X44380Y-18032D03*
X46189Y-16222D03*
X-26180D03*
X-24370Y-18032D03*
Y-25268D03*
X-27989Y-21650D03*
X-20752D03*
X-18942Y-19841D03*
Y-23459D03*
X-17134Y-18032D03*
X19051Y-39842D03*
X29906Y-39742D03*
X37142Y-32506D03*
X33524D03*
X35334Y-34315D03*
X40761Y-28887D03*
X13623Y-45170D03*
X11814Y-46979D03*
X20860Y-45170D03*
X22569Y-46979D03*
X-11706Y-27078D03*
X-13515Y-28887D03*
X-9897Y-21650D03*
X-8087Y-23459D03*
X-6278Y-25268D03*
X-4470Y-27078D03*
X-11706Y-23459D03*
Y-19841D03*
X-9897Y-32504D03*
X-8089Y-30696D03*
X-4469D03*
X-26000Y-23500D03*
X-24400Y-22800D03*
X-18933Y-27108D03*
X-20752Y-28687D03*
X29906Y18152D03*
X31715Y16343D03*
X959Y18152D03*
X20860Y-5367D03*
X29906Y-7177D03*
X22669D03*
X24478Y-5367D03*
Y-8986D03*
X22669Y-10795D03*
X26287D03*
X29906D03*
X28097Y-8986D03*
X31715D03*
X33524Y-10795D03*
X31715Y-12604D03*
X28097D03*
X35334D03*
X29906Y-18032D03*
X28097Y-23459D03*
X26287Y-25268D03*
X28097Y-19841D03*
X31715Y-16222D03*
X33524Y-14413D03*
X22669Y-3558D03*
X29906D03*
X28097Y-5367D03*
X24478Y-1749D03*
X26287Y60D03*
X31715Y1870D03*
X6386Y19961D03*
Y27198D03*
Y23580D03*
X4577Y21771D03*
X8195Y18152D03*
X15432Y10915D03*
Y7397D03*
X42570Y-5367D03*
X26287Y10915D03*
X20857Y5443D03*
X22669Y7297D03*
Y3679D03*
X20860Y1870D03*
X17241D03*
X19051Y3679D03*
X24478Y12725D03*
Y9106D03*
X20860Y16343D03*
X44380Y3679D03*
X42570Y5488D03*
X38952Y9106D03*
X37142Y10915D03*
X24478Y23580D03*
X26287Y21771D03*
X37142Y-7177D03*
Y-3558D03*
X35334Y-1749D03*
Y-5367D03*
X4577Y7297D03*
X-851Y5488D03*
X959Y7297D03*
X-15324Y-34215D03*
X-13515Y-32506D03*
X43900Y-24900D03*
X42700Y-23600D03*
X15400Y-10800D03*
X10005Y5538D03*
X17241Y-1749D03*
X15432Y60D03*
X4577Y-36124D03*
X2768Y-34315D03*
Y-37933D03*
X10005Y-12603D03*
X11814Y-10796D03*
Y-7177D03*
X6386Y-16222D03*
X8195Y-14412D03*
X4577Y-14413D03*
X2768Y-16222D03*
X959Y-18032D03*
X10005Y-27078D03*
X959Y-21649D03*
X-851Y-19841D03*
X2768Y-23459D03*
X6386Y-27078D03*
X4577Y-25268D03*
X8195D03*
X6386Y-23459D03*
X8195Y-43361D03*
X6386Y-37933D03*
X8195Y-28887D03*
X10005Y-30696D03*
Y-34315D03*
X8195Y-36124D03*
X11814D03*
X15132D03*
X17241Y-34315D03*
X26291Y-28895D03*
X26287Y-32506D03*
X22669D03*
X20860Y-30696D03*
X22669Y-28887D03*
X19051Y-32506D03*
X13623Y-37933D03*
X17241Y-41552D03*
X10005Y-37933D03*
X8195Y-39742D03*
X6386Y-41552D03*
X4577Y-21650D03*
X2768Y-19840D03*
X959Y-14413D03*
X28097Y-34315D03*
X24478D03*
X11814Y-14412D03*
X13623Y-1749D03*
X10005D03*
Y1770D03*
X11814Y60D03*
Y-3558D03*
X13624Y-8986D03*
X8195Y-10793D03*
X28366Y-28466D03*
X10000Y-39742D03*
X8276Y3676D03*
X6386Y5388D03*
Y12725D03*
X15432Y14534D03*
X11814D03*
X13623Y12725D03*
X8195Y14534D03*
X15432Y21771D03*
X13623Y23580D03*
X13719Y19981D03*
X10000Y12723D03*
X47998Y-18032D03*
X49807Y-19841D03*
X53426Y-5367D03*
X55235Y-7177D03*
X47998Y60D03*
X49807Y-1749D03*
X-18400Y89200D03*
X-12000Y70000D03*
X-10800Y36800D03*
X67600Y86000D03*
X-9897Y21771D03*
X67600Y82000D03*
X-6278Y21771D03*
X93100Y78000D03*
X124000Y79200D03*
X57044Y-16222D03*
X64400Y-14800D03*
X91200Y-14400D03*
X68000D03*
X85200D03*
X98400Y-13600D03*
X65800Y-11000D03*
X5200Y58000D03*
X28000Y75600D03*
X133600Y62000D03*
X-38800Y56000D03*
X14000Y119600D03*
X32400Y117200D03*
X46000Y98800D03*
X50300Y98500D03*
X54800Y98400D03*
X59200D03*
X63200D03*
X63600Y95600D03*
X39200Y117600D03*
X30000Y122800D03*
X24000D03*
X16400Y124400D03*
X8800Y125100D03*
X27600Y92400D03*
X116500Y92800D03*
X131200Y106800D03*
X138400Y140700D03*
X133600Y140400D03*
X114400D03*
X102400D03*
X92400D03*
X87600Y140000D03*
X57200Y140400D03*
X-14900Y140000D03*
X-34400Y139200D03*
X123517Y117517D03*
X7600Y103600D03*
X9200D03*
X4400Y105200D03*
X6000D03*
X7600D03*
X9200D03*
X87300Y116800D03*
X23200Y137200D03*
X34011Y140411D03*
X28000Y140400D03*
X0Y128100D03*
X91300Y121400D03*
X27600Y102400D03*
X26000D03*
X14400Y113300D03*
X83600Y116800D03*
X-51619Y140019D03*
X136800Y123200D03*
X122000Y137200D03*
X124800Y134800D03*
X93200Y100700D03*
Y102300D03*
Y103900D03*
X-44400Y139200D03*
X-43200Y92000D03*
X-62000Y114800D03*
X-47200Y139200D03*
X-20500Y105400D03*
X-58000Y139200D03*
X-53200Y137600D03*
X-39808Y139600D03*
X-16400Y100400D03*
X-25200Y105300D03*
X23500Y120300D03*
X16400Y120800D03*
X8500D03*
X-100Y124700D03*
X67600Y95499D03*
X95200Y121500D03*
X15000Y133000D03*
X82400Y139600D03*
X87200Y136800D03*
X34400Y117200D03*
X12000Y119600D03*
X70800Y114000D03*
X-12000Y106000D03*
X-16400Y105400D03*
X-12000Y100800D03*
X86400Y124800D03*
X90800Y124600D03*
X82000Y124800D03*
X77900Y116800D03*
X-24400Y110000D03*
X-8400Y106000D03*
X-28700Y110500D03*
X106000Y134000D03*
X95400Y140500D03*
X-28700Y140000D03*
X-23200Y137600D03*
X-10000Y139600D03*
X-4000Y140000D03*
X2000D03*
X8000Y140500D03*
X39362Y140277D03*
X44500Y140500D03*
X50700Y139900D03*
X62800Y140000D03*
X69800D03*
X75350Y140550D03*
X108800Y140400D03*
X118400D03*
X-64400D03*
X46000Y90400D03*
X134800Y106800D03*
X132800D03*
X129600Y92400D03*
X171200Y-158800D03*
X171600Y-167200D03*
X175600Y57600D03*
X177600D03*
X175600Y-35200D03*
X167600Y-40700D03*
X154800Y-41200D03*
X194000Y-47200D03*
X162800Y-29600D03*
X142400Y-16000D03*
X194000Y-18400D03*
X198800Y-33600D03*
X185200Y-55600D03*
X193600Y-48800D03*
X167600Y-48000D03*
Y-22400D03*
X166800Y21600D03*
X180800Y41200D03*
X166200Y51800D03*
X192800Y26800D03*
X188400Y18800D03*
X173600Y57600D03*
X177600Y54000D03*
X175600D03*
X173600D03*
X180000Y-42000D03*
X160400Y-81600D03*
X164800Y11200D03*
X169600D03*
X154800Y18000D03*
X179200Y15600D03*
X166800Y16400D03*
X157200Y-34400D03*
X142400Y-11600D03*
X162400Y-41200D03*
X192000Y46000D03*
X188107Y49307D03*
X184000Y32000D03*
X175600Y-22400D03*
X166400Y-35200D03*
X176000Y-47200D03*
X193200Y-31200D03*
X194000Y-25200D03*
X168600Y29900D03*
X175200Y45200D03*
X190400Y62800D03*
X164400Y62400D03*
X153428Y57600D03*
X154800Y38800D03*
X210000Y62800D03*
X165600Y140400D03*
X149400D03*
X144000Y140500D03*
X147600Y130800D03*
X154700Y139800D03*
X145200Y108400D03*
G54D24*
X220526Y53598D03*
Y18402D03*
X197101Y52260D03*
Y19740D03*
G54D15*
X-77200Y-226900D03*
X-75000Y-226800D03*
X-77500Y-221700D03*
X-75100Y-221600D03*
X-157500Y-131600D03*
Y-129500D03*
Y-127400D03*
Y-123300D03*
X-181400Y-206400D03*
Y-204200D03*
X-181300Y-202000D03*
X-209100Y-192800D03*
X-209300Y-188900D03*
X-210700Y-184900D03*
X-210800Y-182600D03*
Y-180300D03*
X-210900Y-176200D03*
Y-173800D03*
Y-171400D03*
X-211000Y-167700D03*
Y-165400D03*
Y-163200D03*
Y-159400D03*
Y-157100D03*
Y-154800D03*
X-122000Y-231600D03*
X-124000D03*
X-94400Y-220000D03*
X-96800D03*
X-111200Y-218800D03*
X-206800Y-226800D03*
X-99200Y-220000D03*
X-132800Y-159600D03*
X-110800Y-226000D03*
X-113200Y-218800D03*
X-124400Y-234000D03*
X-122400D03*
X-120400D03*
X-194400Y-214800D03*
Y-226400D03*
X-204000Y-230000D03*
X-214000Y-190000D03*
Y-200000D03*
Y-210000D03*
Y-220000D03*
Y-230000D03*
Y-240000D03*
Y-250000D03*
X-198400Y-256400D03*
X-186000D03*
X-136800D03*
X-109600D03*
X-96000Y-255200D03*
X-86000D03*
X-76000D03*
X-214400Y-128400D03*
Y-138400D03*
Y-148400D03*
Y-158400D03*
Y-168400D03*
Y-178400D03*
X-96800Y-234000D03*
X-103200Y-231600D03*
X-96800D03*
X-113600Y-238400D03*
X-111200D03*
X-113600Y-240800D03*
X-111200D03*
X-113600Y-243200D03*
X-111200D03*
X-70400Y-177600D03*
X-72400D03*
X-99200Y-176800D03*
X-124800Y-153200D03*
X-122800D03*
X-125200Y-151200D03*
X-123200D03*
X-114000Y-140400D03*
X-109600Y-180400D03*
X-105200D03*
X-107200D03*
X-103200Y-178000D03*
X-105600D03*
X-107600D03*
X-115600Y-173200D03*
X-117600D03*
X-72000Y-203200D03*
X-70000D03*
X-115200Y-148800D03*
Y-151200D03*
X-117200Y-148800D03*
Y-151200D03*
X-113200Y-144400D03*
Y-146800D03*
X-115200Y-144400D03*
Y-146800D03*
X-117200Y-144400D03*
Y-146800D03*
X-119600D03*
Y-149200D03*
X-73200Y-195200D03*
X-70800D03*
X-72400Y-184800D03*
Y-187200D03*
Y-182400D03*
X-70000D03*
X-72400Y-180000D03*
X-70000D03*
X-113600Y-245600D03*
X-111200D03*
X-113600Y-248000D03*
X-111200D03*
X-113600Y-250400D03*
X-111200D03*
X-115200Y-253600D03*
X-95200Y-252800D03*
X-210800Y-256400D03*
X-96800Y-184400D03*
X-157500Y-121100D03*
Y-118900D03*
X-147200Y-112800D03*
Y-114800D03*
X-214400Y81600D03*
Y71600D03*
Y61600D03*
Y51600D03*
Y41600D03*
Y31600D03*
Y21600D03*
Y11600D03*
Y1600D03*
Y-8400D03*
Y-18400D03*
Y-28400D03*
Y-38400D03*
Y-48400D03*
Y-58400D03*
Y-68400D03*
Y-78400D03*
Y-88400D03*
Y-98400D03*
Y-108400D03*
Y-118400D03*
X-163600Y8000D03*
Y10400D03*
X-163200Y12800D03*
Y15200D03*
X-161200Y8800D03*
Y10800D03*
X-114000Y-120000D03*
Y-117600D03*
X-111600Y-120000D03*
Y-117600D03*
X-114000Y-114400D03*
Y-112000D03*
X-111600Y-114400D03*
Y-112000D03*
X-114000Y-108400D03*
Y-106000D03*
X-111600Y-108400D03*
Y-106000D03*
X-114000Y-102800D03*
Y-100400D03*
X-111600Y-102800D03*
Y-100400D03*
X-109200D03*
Y-102800D03*
Y-106000D03*
Y-108400D03*
Y-112000D03*
Y-114400D03*
Y-117600D03*
Y-120000D03*
X-152400Y-15600D03*
X-154800D03*
X-157200D03*
X-152400Y-13200D03*
X-154800D03*
X-157200D03*
X-162400Y400D03*
Y-2000D03*
X-163600Y5200D03*
Y2800D03*
X-164800Y400D03*
Y-2000D03*
X-162400Y-6800D03*
Y-4400D03*
X-164800Y-6800D03*
Y-4400D03*
X-151200Y106400D03*
X-164000D03*
X-176800Y106000D03*
X-184400D03*
X-194400D03*
X-186800Y126000D03*
Y136000D03*
X-176800D03*
Y126000D03*
X-204400Y116000D03*
X-194400D03*
X-184400D03*
X-176800D03*
X-204000Y145800D03*
X-194000D03*
X-184000D03*
X-176400D03*
Y150800D03*
X-184000D03*
X-194000D03*
X-204000D03*
X-214000D03*
X-214400Y141600D03*
Y131600D03*
Y121600D03*
Y111600D03*
Y101600D03*
Y91600D03*
X-94400Y104400D03*
X-121200D03*
Y102300D03*
X-113600Y104400D03*
Y102300D03*
X-111200D03*
Y104400D03*
X-102400Y102000D03*
Y104000D03*
X-89200Y102000D03*
X-86000Y105200D03*
X-133600Y107500D03*
Y105100D03*
X135100Y-225300D03*
X130300Y-225200D03*
X-32200Y-236300D03*
X-38000Y-236800D03*
X-51600Y-207700D03*
X-48600D03*
X-45600D03*
X-42600D03*
X-39600D03*
X-36600D03*
Y-210700D03*
X-39600D03*
X-42600D03*
X-45600D03*
X-48600D03*
X-51600D03*
X-36600Y-213700D03*
X-39600D03*
X-42600D03*
X-45600D03*
X-48600D03*
X-51600D03*
X-36600Y-216700D03*
X-39600D03*
X-42600D03*
X-45600D03*
X-48600D03*
X-51600D03*
X-36600Y-219700D03*
X-39600D03*
X-42600D03*
X-45600D03*
X-48600D03*
X-51600D03*
X-36600Y-222700D03*
X-39600D03*
X-42600D03*
X-45600D03*
X-48600D03*
X-51600D03*
X128000Y-157200D03*
X135200Y-147200D03*
X134400Y-244400D03*
X124000Y-245200D03*
X104000D03*
X132800Y-224400D03*
X128000Y-203600D03*
X131200D03*
X135600Y-204000D03*
X-35600Y-254400D03*
X-66000Y-255200D03*
X-56000D03*
X-46000D03*
X-26000D03*
X-16000D03*
X-6000D03*
X24000D03*
X34000D03*
X44000D03*
X74000D03*
X104000D03*
X124000D03*
X134000D03*
X-16400Y-183200D03*
X-18400D03*
X-65600Y-202400D03*
X-67600Y-203200D03*
Y-200800D03*
X-68400Y-195200D03*
X85400Y-186600D03*
X80400D03*
X75400D03*
X85800Y-191000D03*
X80800D03*
X75800D03*
X85800Y-195400D03*
X80800D03*
X75800D03*
X800Y-199200D03*
X3200D03*
X5600D03*
X800Y-201600D03*
X3200D03*
X5600D03*
X-13200Y-186000D03*
X-13600Y-199200D03*
X-67600Y-182400D03*
X-65200Y-184800D03*
X-59200D03*
X-53200D03*
X-46800D03*
X-40800D03*
X-34800D03*
X-28400D03*
X-28600Y-187900D03*
X-20400Y-183200D03*
X-3200Y-232400D03*
X0D03*
X2400D03*
X4400D03*
Y-234800D03*
X2400D03*
X0D03*
X-3200D03*
X-7200Y-232400D03*
X-5200D03*
Y-234800D03*
X-7200D03*
X135600Y60800D03*
X125200Y-98800D03*
X122000D03*
X137600Y-7600D03*
X138800Y-5600D03*
X136400D03*
X134000D03*
X132000D03*
X129600D03*
X139200Y-2800D03*
X136800D03*
X134400D03*
X132000D03*
X129600D03*
X136400Y-400D03*
X134000D03*
X131600D03*
X129200D03*
X134000Y2000D03*
X131600D03*
X129200D03*
X131600Y4400D03*
X129200D03*
X214000Y-125200D03*
Y-135200D03*
Y-145200D03*
X194000Y-225200D03*
X184000D03*
X174000D03*
X164000D03*
X154000D03*
X212800Y-221600D03*
X202800D03*
X212800Y-211600D03*
Y-201600D03*
Y-191600D03*
Y-181600D03*
Y-171600D03*
Y-161600D03*
X202800D03*
X214000Y-225200D03*
X144000Y-235200D03*
X154000D03*
X164000D03*
X174000D03*
X184000D03*
X194000D03*
Y-245200D03*
X184000D03*
X174000D03*
X164000D03*
X154000D03*
X144000D03*
Y-223200D03*
X146000Y-204400D03*
Y-202000D03*
X143600Y-158800D03*
X147600Y-166000D03*
X146400Y-181600D03*
X159600Y-171600D03*
X156400Y-140400D03*
X164400Y-153600D03*
X184000Y-122800D03*
X192400Y-125200D03*
X144000Y-255200D03*
X154000D03*
X164000D03*
X174000D03*
X184000D03*
X194000D03*
X204000D03*
X214000D03*
X224000D03*
Y-245200D03*
Y-235200D03*
Y-225200D03*
Y-215200D03*
Y-205200D03*
Y-195200D03*
Y-185200D03*
Y-175200D03*
Y-165200D03*
Y-155200D03*
Y-145200D03*
Y-135200D03*
Y-125200D03*
X214000Y44800D03*
Y34800D03*
Y24800D03*
Y-95200D03*
Y-105200D03*
Y-115200D03*
X176000Y67200D03*
X173600D03*
X165600D03*
X148000Y62000D03*
X145600D03*
X199600Y36000D03*
X158000Y-54800D03*
X156000D03*
X164400Y-52800D03*
X166000Y-98800D03*
X166400Y-106800D03*
X177600Y-113200D03*
X166400Y-116400D03*
X184000Y-112800D03*
X192400Y-110000D03*
X193600Y-88400D03*
X212400Y-57200D03*
X185200Y-70800D03*
X194000Y-69600D03*
X194800Y-80800D03*
X204400D03*
X214400Y-70800D03*
Y-80800D03*
X224000Y-115200D03*
Y-105200D03*
Y-95200D03*
Y-85200D03*
Y-75200D03*
Y-65200D03*
Y-55200D03*
Y-45200D03*
Y-35200D03*
Y-25200D03*
Y-15200D03*
Y-5200D03*
Y4800D03*
Y14800D03*
Y24800D03*
Y34800D03*
Y44800D03*
Y54800D03*
Y64800D03*
Y74800D03*
Y84800D03*
X144800Y24000D03*
X146800D03*
X148800D03*
X150800D03*
X152800D03*
X154800D03*
X163200Y-71600D03*
X160800D03*
X158400D03*
X163200Y-69600D03*
X160800D03*
X158400D03*
X160000Y-52400D03*
X158000D03*
X156000D03*
X160000Y-47600D03*
X158000D03*
X156000D03*
Y-50000D03*
X158000D03*
X160000D03*
X195600Y10000D03*
X198000Y12400D03*
Y10000D03*
X195600Y7600D03*
X198000D03*
X195600Y5200D03*
X198000D03*
X195600Y2800D03*
X198000D03*
X195600Y400D03*
X198000D03*
X158000Y-12000D03*
X195600Y12400D03*
X224000Y94800D03*
X204000Y115600D03*
Y104800D03*
X214000Y115600D03*
Y104800D03*
X224000D03*
Y115600D03*
X224400Y125200D03*
Y134400D03*
X216800Y143600D03*
X208400D03*
X224400Y144800D03*
X224000Y151200D03*
X216400D03*
X208400D03*
X200800D03*
X196000Y144800D03*
Y132000D03*
Y120000D03*
X194800Y106400D03*
X182400D03*
X171600D03*
X167600Y134000D03*
X167200Y110000D03*
Y120000D03*
G54D16*
X-114400Y-126400D03*
Y-124800D03*
X-118400Y-128000D03*
Y-130000D03*
Y-132000D03*
X-120400Y-142400D03*
X-122400D03*
X-120400Y-144400D03*
X-122400D03*
X-120400Y-128000D03*
Y-130000D03*
Y-132000D03*
X-124400Y-144400D03*
Y-142400D03*
Y-128000D03*
Y-130000D03*
Y-132000D03*
Y-140400D03*
X-122400Y-132000D03*
Y-128000D03*
Y-130000D03*
X35600Y-62500D03*
X60000Y-71886D03*
X34000Y-55886D03*
X29600Y-74286D03*
X31600Y-53486D03*
X99500Y-86400D03*
X31200Y-102086D03*
X33000Y-113486D03*
X67200Y-74400D03*
X55200Y-72400D03*
X63028Y-94814D03*
X57200Y-95486D03*
X73600Y-113686D03*
X90400Y-112000D03*
X-14400Y-81886D03*
X81600Y-47200D03*
X81200Y-42000D03*
X88000Y-86000D03*
Y-83200D03*
Y-80000D03*
Y-76800D03*
Y-73600D03*
Y-70400D03*
Y-67200D03*
X87200Y-61600D03*
X84000Y-58000D03*
X81600Y-53600D03*
Y-50400D03*
X75200Y-35200D03*
X76400Y-36800D03*
X79500Y-39200D03*
X-41700Y-21086D03*
X-44000Y-23486D03*
X71200Y-30800D03*
X67100Y-26800D03*
X59600Y-20200D03*
X46400Y23600D03*
X41600Y18800D03*
G54D25*
X194739Y47024D03*
Y24976D03*
G54D17*
X-202139Y74050D03*
X-202200Y42554D03*
G54D26*
X190192Y-63860D03*
Y-6773D03*
G54D18*
X-112126Y32400D03*
G54D27*
X213657Y-6773D03*
Y-63860D03*
G54D19*
X138937Y75331D03*
X181063Y96669D03*
G54D28*
X173780Y82457D03*
X160000Y89543D03*
G54D29*
X181063Y75331D03*
M02*
