G04 ================== begin FILE IDENTIFICATION RECORD ==================*
G04 Layout Name:  RK_SAPPHIRE_SOCBOARD_RK3399_LPDDR3D178P232SD8_V12_20161110_final_lint.brd*
G04 Film Name:    L3*
G04 File Format:  Gerber RS274X*
G04 File Origin:  Cadence Allegro 16.6-S050*
G04 Origin Date:  Fri Nov 11 15:52:05 2016*
G04 *
G04 Layer:  BOARD GEOMETRY/OUTLINE*
G04 Layer:  ETCH/POWER1*
G04 Layer:  PIN/POWER1*
G04 Layer:  VIA CLASS/POWER1*
G04 *
G04 Offset:    (0.000 0.000)*
G04 Mirror:    No*
G04 Mode:      Positive*
G04 Rotation:  0*
G04 FullContactRelief:  No*
G04 UndefLineWidth:     5.000*
G04 ================== end FILE IDENTIFICATION RECORD ====================*
%FSLAX25Y25*MOIN*%
%IR0*IPPOS*OFA0.00000B0.00000*MIA0B0*SFA1.00000B1.00000*%
%ADD26O,.098429X.059059*%
%ADD12C,.11811*%
%ADD11O,.05906X.1378*%
%ADD10O,.07087X.1378*%
%ADD28O,.106299X.055118*%
%ADD25O,.137799X.059059*%
%ADD21C,.06*%
%ADD27C,.043311*%
%ADD15C,.01378*%
%ADD24C,.025591*%
%ADD22C,.07087*%
%ADD16C,.035429*%
%ADD20C,.086614*%
%ADD14C,.015748*%
%ADD17C,.057087*%
%ADD18O,.07874X.055118*%
%ADD19O,.098425X.047244*%
%ADD13C,.019689*%
%ADD23O,.059059X.035429*%
%ADD29C,.004*%
%ADD30C,.02*%
%ADD31C,.005*%
%ADD39C,.134052*%
%ADD43O,.118302X.047432*%
%ADD36C,.145862*%
%ADD37C,.0435*%
%ADD42C,.04547*%
%ADD33C,.023816*%
%ADD41C,.047434*%
%ADD46C,.027752*%
%ADD35C,.047438*%
%ADD38C,.039564*%
%ADD32C,.098614*%
%ADD34C,.019874*%
%ADD45C,.037596*%
%ADD40O,.043494X.090744*%
%ADD44O,.078932X.047432*%
G75*
%LPD*%
G75*
G36*
G01X-215450Y-257750D02*
Y152254D01*
X-175050D01*
Y107450D01*
X-150003D01*
Y122067D01*
X-147621D01*
G03Y131989I0J4961D01*
G01X-150018D01*
Y142000D01*
X13278D01*
Y141378D01*
G03X21215I3969J0D01*
G01Y142000D01*
X168812D01*
Y131989D01*
X166562D01*
G03Y122067I0J-4961D01*
G01X168825D01*
Y107450D01*
X194150D01*
Y152246D01*
X226150D01*
Y-257750D01*
X-215450D01*
G37*
%LPC*%
G75*
G36*
G01X98801Y139517D02*
G03X98399I-201J-222D01*
G02Y141283I-799J883D01*
G03X98801I201J222D01*
G02Y139517I799J-883D01*
G37*
G36*
G01X122741Y138954D02*
G03X122307Y138947I-213J-211D01*
G02X122285Y140321I-729J675D01*
G03X122718Y140328I213J211D01*
G02X122741Y138954I729J-675D01*
G37*
G36*
G01X-129817Y138001D02*
G03Y137599I222J-201D01*
G02X-131583I-883J-799D01*
G03Y138001I-222J201D01*
G02X-129817I883J799D01*
G37*
G36*
G01X140870Y134926D02*
G03X140430I-220J-204D01*
G02Y136274I-730J675D01*
G03X140870I220J204D01*
G02Y134926I730J-674D01*
G37*
G36*
G01X125670Y124926D02*
G03X125230I-220J-204D01*
G02Y126274I-730J674D01*
G03X125670I220J204D01*
G02Y124926I730J-675D01*
G37*
G36*
G01X89084Y122363D02*
G03X88672I-206J-218D01*
G02Y123807I-683J722D01*
G03X89084I206J218D01*
G02Y122363I683J-722D01*
G37*
G36*
G01X84595D02*
G03X84183I-206J-218D01*
G02Y123807I-683J722D01*
G03X84595I206J218D01*
G02Y122363I683J-722D01*
G37*
G36*
G01X93395Y122163D02*
G03X92983I-206J-218D01*
G02Y123607I-683J722D01*
G03X93395I206J218D01*
G02Y122163I683J-722D01*
G37*
G36*
G01X85717Y114478D02*
G03X85305I-206J-218D01*
G02Y115922I-683J722D01*
G03X85717I206J218D01*
G02Y114478I683J-722D01*
G37*
G36*
G01X116611Y115206D02*
G03X116634Y114765I215J-210D01*
G02X115289Y114694I-634J-765D01*
G03X115266Y115135I-215J210D01*
G02X116611Y115206I634J765D01*
G37*
G36*
G01X131610Y113305D02*
G03Y113095I107J-105D01*
G02X130190I-710J-695D01*
G03Y113305I-107J105D01*
G02X131610I710J695D01*
G37*
G36*
G01X64549Y-186693D02*
G03X64735Y-187064I287J-89D01*
G02X63451Y-187707I-335J-936D01*
G03X63265Y-187336I-287J89D01*
G02X64549Y-186693I335J936D01*
G37*
G36*
G01X64689Y-190702D02*
G03X65051Y-190966I299J29D01*
G02X64274Y-192035I212J-971D01*
G03X63912Y-191771I-299J-29D01*
G02X64689Y-190702I-212J971D01*
G37*
G36*
G01X-32242Y-255107D02*
G02X-33907Y-253442I-959J707D01*
G03Y-252958I-178J242D01*
G02X-34158Y-252707I707J958D01*
G03X-34642I-242J-178D01*
G02X-36307Y-251042I-958J707D01*
G03Y-250558I-178J242D01*
G02X-34642Y-248893I707J958D01*
G03X-34158I242J178D01*
G02X-32242I958J-707D01*
G03X-31758I242J178D01*
G02X-29842I959J-707D01*
G03X-29358I242J178D01*
G02X-27693Y-250558I958J-707D01*
G03Y-251042I178J-242D01*
G02Y-252958I-707J-958D01*
G03Y-253442I178J-242D01*
G02X-29358Y-255107I-707J-958D01*
G03X-29842I-242J-178D01*
G02X-31758I-958J707D01*
G03X-32242I-242J-178D01*
G37*
G36*
G01X-126493Y-247442D02*
G02X-127907I-707J-958D01*
G03Y-246958I-178J242D01*
G02X-126493I707J958D01*
G03Y-247442I178J-242D01*
G37*
G36*
G01X46558Y-219507D02*
G02Y-218093I-958J707D01*
G03X47042I242J178D01*
G02Y-219507I958J-707D01*
G03X46558I-242J-178D01*
G37*
G36*
G01X82918Y-204139D02*
G02X82572Y-203082I-955J273D01*
G03X83045Y-202927I184J237D01*
G02X83390Y-203984I955J-273D01*
G03X82918Y-204139I-184J-237D01*
G37*
G36*
G01X71568Y-203430D02*
G02Y-202170I-768J630D01*
G03X72032I232J190D01*
G02Y-203430I768J-630D01*
G03X71568I-232J-190D01*
G37*
G36*
G01X110558Y-201507D02*
G02X108893Y-199842I-958J707D01*
G03Y-199359I-178J242D01*
G02X110558Y-197693I707J959D01*
G03X111042I242J178D01*
G02X112707Y-199359I959J-707D01*
G03Y-199842I178J-241D01*
G02X111042Y-201507I-707J-958D01*
G03X110558I-241J-178D01*
G37*
G36*
G01X194230Y-184432D02*
G02X192970I-630J-768D01*
G03Y-183968I-190J232D01*
G02Y-182432I630J768D01*
G03Y-181968I-190J232D01*
G02X194230I630J768D01*
G03Y-182432I190J-232D01*
G02Y-183968I-630J-768D01*
G03Y-184432I190J-232D01*
G37*
G36*
G01X193830Y-174832D02*
G02X192570I-630J-768D01*
G03Y-174368I-190J232D01*
G02X193830I630J768D01*
G03Y-174832I190J-232D01*
G37*
G36*
G01X172559Y-67507D02*
G02X170893Y-65842I-959J707D01*
G03Y-65359I-178J241D01*
G02Y-63441I707J959D01*
G03Y-62959I-178J241D01*
G02X172559Y-61293I707J959D01*
G03X173042I241J178D01*
G02X174959I958J-707D01*
G03X175442I241J178D01*
G02X177107Y-62959I958J-707D01*
G03Y-63441I178J-241D01*
G02Y-65359I-707J-959D01*
G03Y-65842I178J-241D01*
G02X175442Y-67507I-707J-959D01*
G03X174959I-242J-178D01*
G02X173042I-959J707D01*
G03X172559I-242J-178D01*
G37*
G36*
G01X107733Y103343D02*
G02X106912Y103794I-832J-543D01*
G03X107168Y104257I4J300D01*
G02X107051Y105093I832J543D01*
G03X106865Y105464I-287J89D01*
G02X108149Y106107I335J936D01*
G03X108335Y105736I287J-89D01*
G02X107988Y103806I-335J-936D01*
G03X107733Y103343I-4J-300D01*
G37*
G36*
G01X112774Y105423D02*
G02X111917Y105790I-774J-623D01*
G03X112126Y106277I-25J299D01*
G02X112983Y105910I774J623D01*
G03X112774Y105423I25J-299D01*
G37*
G36*
G01X150230Y112368D02*
G02X148970I-630J-768D01*
G03Y112832I-190J232D01*
G02Y114368I630J768D01*
G03Y114832I-190J232D01*
G02X150230I630J768D01*
G03Y114368I190J-232D01*
G02Y112832I-630J-768D01*
G03Y112368I190J-232D01*
G37*
G36*
G01X141430Y113168D02*
G02X140170I-630J-768D01*
G03Y113632I-190J232D01*
G02X141430I630J768D01*
G03Y113168I190J-232D01*
G37*
G36*
G01X-121693Y116959D02*
G02X-123107I-707J-959D01*
G03Y117442I-178J241D01*
G02X-121693I707J958D01*
G03Y116959I178J-242D01*
G37*
G36*
G01X102149Y120693D02*
G02X100865Y121336I-949J-293D01*
G03X101051Y121707I-101J282D01*
G02X101410Y122800I949J293D01*
G03X101433Y123263I-178J241D01*
G02X102690Y123201I667J737D01*
G03X102667Y122737I178J-241D01*
G02X102335Y121064I-667J-737D01*
G03X102149Y120693I101J-282D01*
G37*
G36*
G01X24573Y134196D02*
G02X24164Y135218I-973J204D01*
G03X24627Y135404I170J247D01*
G02X26368Y135830I973J-204D01*
G03X26832I232J190D01*
G02Y134570I768J-630D01*
G03X26368I-232J-190D01*
G02X25036Y134382I-768J630D01*
G03X24573Y134196I-170J-247D01*
G37*
G36*
G01X148768Y134970D02*
G02Y136230I-768J630D01*
G03X149232I232J190D01*
G02Y134970I768J-630D01*
G03X148768I-232J-190D01*
G37*
G36*
G01X74152Y136753D02*
G02X73912Y135554I648J-753D01*
G03X73448Y135647I-268J-135D01*
G02X72119Y135677I-648J753D01*
G03X71645Y135594I-206J-218D01*
G02X71440Y136765I-887J448D01*
G03X71913Y136848I206J218D01*
G02X73688Y136846I887J-448D01*
G03X74152Y136753I268J135D01*
G37*
G36*
G01X127495Y138490D02*
G02Y139910I-695J710D01*
G03X127705I105J107D01*
G02X129168Y139830I695J-710D01*
G03X129632I232J190D01*
G02X131095Y139910I768J-630D01*
G03X131305I105J107D01*
G02Y138490I695J-710D01*
G03X131095I-105J-107D01*
G02X129632Y138570I-695J710D01*
G03X129168I-232J-190D01*
G02X127705Y138490I-768J630D01*
G03X127495I-105J-107D01*
G37*
G36*
G01X23132Y-251600D02*
X-15532D01*
X-24732Y-242400D01*
X-52271D01*
G03X-52486Y-242909I0J-300D01*
G02X-53914I-714J-691D01*
G03X-54130Y-242400I-216J209D01*
G01X-65607D01*
G03X-65884Y-242816I0J-300D01*
G02X-67716I-916J-384D01*
G03X-67993Y-242400I-277J116D01*
G01X-85086D01*
X-85129Y-242478D01*
G02X-86871I-871J478D01*
G01X-86914Y-242400D01*
X-88611D01*
G02X-89789I-589J800D01*
G01X-131910D01*
G03X-132209Y-242723I0J-300D01*
G02X-133962Y-242163I-991J-77D01*
G01X-133874Y-242057D01*
X-194536Y-181395D01*
X-194635Y-181448D01*
G02X-196248Y-179835I-565J1048D01*
G01X-196195Y-179736D01*
X-208800Y-167132D01*
Y81532D01*
X-200732Y89600D01*
X-155932D01*
X-144400Y101132D01*
Y116332D01*
X-143132Y117600D01*
X-133657D01*
G03X-133200Y117856I157J256D01*
G01Y117932D01*
X-131532Y119600D01*
X-126468D01*
X-124400Y117532D01*
Y109056D01*
G03X-123888Y108844I300J0D01*
G01X-117600Y115132D01*
Y123532D01*
X-117244Y123888D01*
G03X-117456Y124400I-212J212D01*
G01X-120732D01*
X-125207Y128876D01*
G03X-125681Y129051I-293J-64D01*
G02X-125693Y129042I-722J947D01*
G03Y128558I178J-242D01*
G02Y126642I-707J-958D01*
G03Y126158I178J-242D01*
G02X-127358Y124493I-707J-958D01*
G03X-127842I-242J-178D01*
G02X-129507Y126158I-958J707D01*
G03Y126642I-178J242D01*
G02Y128558I707J958D01*
G03Y129042I-178J242D01*
G02Y130958I707J958D01*
G03Y131442I-178J242D01*
G02Y133358I707J959D01*
G03Y133842I-178J242D01*
G02X-127842Y135507I707J959D01*
G03X-127358I242J178D01*
G02X-125681Y135749I958J-707D01*
G03X-125200Y135989I181J239D01*
G01Y136732D01*
X-122732Y139200D01*
X-69402D01*
X-69385Y139330D01*
G02X-67415I985J-130D01*
G01X-67398Y139200D01*
X-65789D01*
G02X-64611I589J-800D01*
G01X-22868D01*
X-1312Y117644D01*
G03X-800Y117856I212J212D01*
G01Y125532D01*
X651Y126983D01*
X632Y127064D01*
G02X1825Y128257I968J225D01*
G01X1906Y128238D01*
X5268Y131600D01*
X63932D01*
X78554Y116977D01*
G03X79052Y117099I212J212D01*
G02X80683Y117522I948J-299D01*
G03X81095I206J218D01*
G02Y116078I683J-722D01*
G03X80683I-206J-218D01*
G02X80299Y115852I-683J722D01*
G03X80177Y115354I90J-286D01*
G01X80400Y115132D01*
Y109532D01*
X117932Y72000D01*
X211532D01*
X220000Y63532D01*
Y-53132D01*
X217132Y-56000D01*
X200468D01*
X197400Y-52932D01*
X193932Y-56400D01*
X193193D01*
G03X192916Y-56816I0J-300D01*
G02X191084I-917J-384D01*
G03X190807Y-56400I-277J116D01*
G01X167932D01*
X167600Y-56732D01*
Y-73132D01*
X161313Y-79419D01*
X161342Y-79507D01*
G02X160085Y-80764I-942J-315D01*
G01X159997Y-80735D01*
X146000Y-94732D01*
Y-107932D01*
X138400Y-115532D01*
Y-191512D01*
G03X138672Y-191811I300J0D01*
G02Y-193789I-94J-989D01*
G03X138400Y-194088I28J-299D01*
G01Y-228500D01*
X141779D01*
X154179Y-216100D01*
X200179D01*
X207521Y-208758D01*
Y-200579D01*
G02X210521I1500J0D01*
G01Y-210001D01*
X201421Y-219100D01*
X155421D01*
X143021Y-231500D01*
X138400D01*
Y-234332D01*
X132732Y-240000D01*
X125268D01*
X123600Y-238332D01*
Y-114868D01*
X135600Y-102868D01*
Y-101056D01*
G03X135088Y-100844I-300J0D01*
G01X70444Y-165488D01*
G03X70656Y-166000I212J-212D01*
G01X101932D01*
X103600Y-167668D01*
Y-173132D01*
X97600Y-179132D01*
Y-184068D01*
X107200Y-193668D01*
Y-204332D01*
X105932Y-205600D01*
X102868D01*
X95722Y-198453D01*
G03X95252Y-198511I-212J-212D01*
G02X94878Y-198871I-852J511D01*
G01X94800Y-198914D01*
Y-208670D01*
G03X95309Y-208886I300J0D01*
G02Y-210314I691J-714D01*
G03X94800Y-210530I-209J-216D01*
G01Y-213532D01*
X87532Y-220800D01*
X62732D01*
X58732Y-224800D01*
X54868D01*
X53600Y-223532D01*
Y-216468D01*
X58468Y-211600D01*
X84068D01*
X87600Y-208068D01*
Y-200332D01*
X72000Y-184732D01*
Y-176256D01*
G03X71488Y-176044I-300J0D01*
G01X69932Y-177600D01*
X62914D01*
X62871Y-177678D01*
G02X61129I-871J478D01*
G01X61086Y-177600D01*
X50490D01*
G03X50191Y-177923I0J-300D01*
G02X48563Y-178762I-991J-77D01*
G03X48360Y-178771I-96J-115D01*
G01X45130Y-182002D01*
G03X45124Y-182419I212J-212D01*
G02X45168Y-182470I-724J-680D01*
G03X45632I232J190D01*
G02Y-183730I768J-630D01*
G03X45168I-232J-190D01*
G02X43719Y-183824I-768J630D01*
G03X43302Y-183830I-205J-219D01*
G01X42000Y-185132D01*
Y-203132D01*
X40332Y-204800D01*
X34457D01*
G03X34000Y-205056I-157J-256D01*
G01Y-225532D01*
X33800Y-225732D01*
Y-240932D01*
X23132Y-251600D01*
G37*
G54D36*
X184400Y-139300D03*
Y-94300D03*
G54D37*
X163857Y-192000D03*
X171731D03*
X179605D03*
G54D33*
X-197600Y-188800D03*
Y-192800D03*
X-195200Y-183600D03*
X-200800Y-192800D03*
Y-188800D03*
X-198000Y-183600D03*
Y-180400D03*
X-124800Y-254000D03*
X-126800Y138800D03*
X121800Y-206200D03*
G54D35*
X149400Y-139320D03*
X159400Y-134320D03*
X149400Y-129320D03*
X159400Y-124320D03*
X149400Y-119320D03*
X203691Y-142883D03*
Y-132883D03*
X159400Y-114320D03*
X149400Y-109320D03*
X159400Y-104320D03*
X149400Y-99320D03*
X159400Y-94320D03*
X203691Y-100717D03*
Y-90717D03*
G54D38*
X146220Y82457D03*
X156063D03*
X163937D03*
X175748Y89543D03*
X167874D03*
X152126D03*
X144252D03*
G54D32*
X-158000Y-243458D03*
G54D34*
X-189828Y-220972D03*
X-74000Y-248800D03*
X78000Y-202800D03*
X44000Y-204800D03*
X48800Y-180400D03*
X65200Y-197600D03*
X42400Y-209600D03*
X49600D03*
X119600Y-228000D03*
X122000Y-156400D03*
X55276Y-234724D03*
X56000Y-188100D03*
X48800Y-203300D03*
X48400Y-190400D03*
X64000Y-195200D03*
X67600Y-200400D03*
X106800Y-166000D03*
X110800D03*
X142000Y-232972D03*
X37200Y-228800D03*
X61400Y-181600D03*
X52400D03*
X52800Y-187600D03*
X52400Y-203200D03*
Y-198800D03*
X78000Y-209600D03*
X65200Y-182700D03*
X70400Y-210000D03*
X61200Y-208800D03*
X122000Y-164400D03*
X71600Y-252400D03*
X80400Y-248800D03*
X50400Y-250000D03*
X50000Y-185600D03*
X61200Y-186400D03*
X75200Y-202300D03*
X76800Y-233200D03*
X61600Y-203300D03*
X45372Y-191828D03*
X48800Y-199600D03*
X61600Y-198400D03*
X60000Y-188400D03*
X48000Y-193600D03*
X68000Y-203300D03*
X122000Y-228800D03*
X134800Y128800D03*
X122000Y135200D03*
X135200Y122400D03*
X138000Y117200D03*
X110000Y102800D03*
X123600Y119600D03*
X102300Y115800D03*
X124200D03*
X126800Y131200D03*
X94800Y127900D03*
X108300Y121200D03*
X109200Y124800D03*
X130400Y124000D03*
X107500Y110000D03*
X76000Y130400D03*
X111600Y93200D03*
X108400Y133600D03*
X112800Y128500D03*
X128800Y127200D03*
X113300Y119900D03*
X115100Y110000D03*
X135600Y134800D03*
X58400Y134400D03*
X141600Y105700D03*
X34000Y138400D03*
X47136Y140400D03*
X98800Y115200D03*
X198611Y-198611D03*
X190800Y-186800D03*
X205200Y78400D03*
X181828Y83828D03*
X198400Y81600D03*
X201340Y77460D03*
X219359Y81041D03*
X212000Y74000D03*
X201600Y89200D03*
X157600Y132400D03*
X158000Y116400D03*
X151200Y138400D03*
X145600Y116400D03*
X150000Y124800D03*
X146000Y110400D03*
X155200Y136400D03*
X195200Y93200D03*
X155600Y120400D03*
X150000Y131200D03*
X151200Y117600D03*
X158400Y137200D03*
X184400Y89600D03*
X192800Y98800D03*
X161200Y105600D03*
X154400Y104800D03*
X211860Y93860D03*
%LPD*%
G75*
G36*
G01X-98400Y-83715D02*
Y-123932D01*
X-65932Y-156400D01*
X-51532D01*
X-27600Y-180332D01*
Y-189744D01*
G02X-28112Y-189956I-300J0D01*
G01X-29269Y-188800D01*
X-64732D01*
X-70732Y-194800D01*
X-74144D01*
G02X-74356Y-194288I0J300D01*
G01X-73600Y-193532D01*
Y-154468D01*
X-106468Y-121600D01*
X-112720D01*
G03X-114340Y-121469I-880J-800D01*
G01X-115300Y-120510D01*
Y-99890D01*
X-98912Y-83503D01*
G02X-98400Y-83715I212J-212D01*
G37*
G36*
G01X-120256Y-150212D02*
X-120500Y-149968D01*
Y-149310D01*
X-131697Y-138112D01*
G02X-131485Y-137600I212J212D01*
G01X-125532D01*
X-120000Y-143132D01*
Y-150106D01*
G02X-120256Y-150212I-150J0D01*
G37*
G36*
G01X-9600Y-221600D02*
X-16400Y-214800D01*
Y-201200D01*
X-26800Y-190800D01*
Y-183829D01*
G02X-26291Y-183614I300J0D01*
G03Y-182186I691J714D01*
G02X-26800Y-181971I-209J216D01*
G01Y-180000D01*
X-51200Y-155600D01*
X-65600D01*
X-97600Y-123600D01*
Y-83200D01*
X-70095Y-55695D01*
G02X-69632Y-55743I212J-212D01*
G03X-68257Y-54368I832J543D01*
G02X-68305Y-53905I164J251D01*
G01X-58095Y-43695D01*
G02X-57632Y-43743I212J-212D01*
G03X-56257Y-42368I832J543D01*
G02X-56305Y-41905I164J251D01*
G01X-34800Y-20400D01*
X-28866D01*
G02X-28663Y-20920I0J-300D01*
G03X-27314I674J-730D01*
G02X-27111Y-20400I204J220D01*
G01X-27004D01*
X-26959Y-20457D01*
G03X-25187Y-19886I780J616D01*
G02X-24887Y-19600I300J-14D01*
G01X-23894D01*
G02X-23594Y-19897I0J-300D01*
G03X-21606I994J11D01*
G02X-21306Y-19600I300J-3D01*
G01X-20235D01*
G02X-19935Y-19886I0J-300D01*
G03X-17986Y-20110I993J45D01*
G01X-17955Y-20000D01*
X-16311D01*
X-16281Y-20110D01*
G03X-14367I957J269D01*
G01X-14337Y-20000D01*
X-12693D01*
X-12663Y-20110D01*
G03X-10890Y-20409I957J269D01*
G02X-10432Y-20368I246J-171D01*
G01X-10400Y-20400D01*
X-10058D01*
Y-20663D01*
X-10167Y-20694D01*
G03X-9222Y-20920I271J-956D01*
G02X-9019Y-20400I204J220D01*
G01X-6400D01*
X-4128Y-18128D01*
G02X-3625Y-18269I212J-212D01*
G03X-2564Y-19021I965J237D01*
G02X-2400Y-19170I14J-149D01*
G01Y-19200D01*
X-1843Y-19757D01*
X-1844Y-19821D01*
G03X-831Y-20834I994J-20D01*
G01X-767Y-20833D01*
X-34Y-21566D01*
X-35Y-21630D01*
G03X978Y-22643I993J-19D01*
G01X1042Y-22642D01*
X1776Y-23376D01*
X1774Y-23439D01*
G03X2788Y-24453I993J-20D01*
G01X2852Y-24452D01*
X3585Y-25185D01*
X3584Y-25249D01*
G03X4597Y-26262I993J-20D01*
G01X4661Y-26261D01*
X5394Y-26994D01*
X5393Y-27058D01*
G03X6406Y-28072I993J-20D01*
G01X6470Y-28070D01*
X7203Y-28803D01*
X7202Y-28867D01*
G03X9188Y-28942I993J-20D01*
G01X9195Y-28800D01*
X10814D01*
X10822Y-28942D01*
G03X12754Y-28565I992J55D01*
G01X12724Y-28476D01*
X13212Y-27988D01*
X13301Y-28018D01*
G03X14563Y-26756I322J940D01*
G01X14532Y-26668D01*
X15022Y-26178D01*
X15110Y-26209D01*
G03X16372Y-24947I322J940D01*
G01X16342Y-24858D01*
X16831Y-24369D01*
X16919Y-24400D01*
G03X18181Y-23137I322J940D01*
G01X18151Y-23049D01*
X18639Y-22561D01*
X18728Y-22591D01*
G03X19991Y-21328I323J940D01*
G01X19960Y-21240D01*
X20449Y-20751D01*
X20538Y-20781D01*
G03X21800Y-19519I322J940D01*
G01X21770Y-19430D01*
X22258Y-18942D01*
X22347Y-18972D01*
G03X23555Y-18482I322J940D01*
G01X23596Y-18400D01*
X24800D01*
X25600Y-19200D01*
X26849D01*
G02X27138Y-19579I0J-300D01*
G03X28929Y-20384I959J-262D01*
G01X28937Y-20371D01*
X29054Y-20254D01*
X29200Y-20400D01*
X32571D01*
G02X32786Y-20909I0J-300D01*
G03X34214I714J-691D01*
G02X34429Y-20400I216J209D01*
G01X34559D01*
X34604Y-20457D01*
G03X36205Y-20400I780J616D01*
G01X36981D01*
Y-20663D01*
X36872Y-20694D01*
G03X37817Y-20920I271J-956D01*
G02X38020Y-20400I204J220D01*
G01X38127D01*
X38172Y-20457D01*
G03X39945Y-19886I780J616D01*
G02X40244Y-19600I300J-14D01*
G01X41278D01*
G02X41578Y-19886I0J-300D01*
G03X43392Y-20400I993J45D01*
G01X44108D01*
Y-20655D01*
X44010Y-20691D01*
G03X45045Y-20914I340J-934D01*
G02X45255Y-20400I210J214D01*
G01X45364D01*
X45409Y-20457D01*
G03X47147Y-19579I780J616D01*
G02X47437Y-19200I289J79D01*
G01X48559D01*
G02X48848Y-19579I0J-300D01*
G03X50766I959J-262D01*
G02X51055Y-19200I289J79D01*
G01X58512D01*
G02X58764Y-19662I0J-300D01*
G03X60436I836J-538D01*
G02X60688Y-19200I252J162D01*
G01X61200D01*
X61905Y-19905D01*
G02X61857Y-20368I-212J-212D01*
G03X63232Y-21743I543J-832D01*
G02X63695Y-21695I251J-164D01*
G01X67294Y-25294D01*
G02X67086Y-25806I-212J-212D01*
G03X68094Y-26814I14J-994D01*
G02X68606Y-26606I300J-4D01*
G01X71299Y-29299D01*
G02X71113Y-29810I-212J-212D01*
G03X72190Y-30887I87J-990D01*
G02X72701Y-30701I299J-26D01*
G01X79694Y-37694D01*
G02X79486Y-38206I-212J-212D01*
G03X80494Y-39214I14J-994D01*
G02X81006Y-39006I300J-4D01*
G01X96000Y-54000D01*
Y-97600D01*
X90400Y-103200D01*
Y-108400D01*
X87200Y-111600D01*
X82476D01*
G02X82180Y-111250I0J300D01*
G03X80533Y-111822I-980J165D01*
G02X80543Y-112257I-201J-222D01*
G01X74800Y-118000D01*
Y-118407D01*
G02X74384Y-118684I-300J0D01*
G03X73662Y-120534I-384J-916D01*
G02X73772Y-121028I-102J-282D01*
G01X71295Y-123505D01*
G02X70832Y-123457I-212J212D01*
G03X69457Y-124832I-832J-543D01*
G02X69505Y-125295I-164J-251D01*
G01X68095Y-126705D01*
G02X67632Y-126657I-212J212D01*
G03X66257Y-128032I-832J-543D01*
G02X66305Y-128495I-164J-251D01*
G01X64495Y-130305D01*
G02X64032Y-130257I-212J212D01*
G03X62657Y-131632I-832J-543D01*
G02X62705Y-132095I-164J-251D01*
G01X61695Y-133105D01*
G02X61232Y-133057I-212J212D01*
G03X59857Y-134432I-832J-543D01*
G02X59905Y-134895I-164J-251D01*
G01X57600Y-137200D01*
X25200D01*
X8400Y-154000D01*
Y-219600D01*
X6400Y-221600D01*
X-9600D01*
G37*
G36*
G01X-84400Y-194400D02*
X-92800Y-186000D01*
X-104800D01*
X-106800Y-184000D01*
X-116000D01*
X-119200Y-180800D01*
Y-150326D01*
X-119111Y-150286D01*
G03X-118528Y-149719I-488J1086D01*
G02X-118045Y-149639I270J-131D01*
G03X-117907Y-149759I845J839D01*
G02Y-150242I-178J-241D01*
G03X-116401Y-152083I707J-959D01*
G02X-115999I201J-222D01*
G03X-114493Y-150242I799J883D01*
G02Y-149759I178J242D01*
G03X-114407Y-147912I-707J958D01*
G02Y-147688I100J112D01*
G03X-114401Y-147683I-781J899D01*
G02X-113999I201J-222D01*
G03X-112493Y-145842I799J883D01*
G02Y-145358I178J242D01*
G03X-113999Y-143517I-707J959D01*
G02X-114401I-201J222D01*
G03X-115999I-799J-883D01*
G02X-116401I-201J222D01*
G03X-117907Y-145358I-799J-883D01*
G02Y-145842I-178J-241D01*
G03X-118159Y-146093I707J-958D01*
G02X-118642I-241J178D01*
G03X-119111Y-145714I-959J-707D01*
G01X-119200Y-145674D01*
Y-144868D01*
X-119191Y-144843D01*
G03Y-143957I-1209J443D01*
G01X-119200Y-143932D01*
Y-142800D01*
X-119420Y-142580D01*
X-119412Y-142508D01*
G03X-120508Y-141412I-988J108D01*
G01X-120580Y-141420D01*
X-125200Y-136800D01*
X-165200D01*
X-174800Y-127200D01*
Y-46800D01*
X-148715Y-20715D01*
G02X-148293Y-20712I212J-212D01*
G03X-146888Y-19307I693J712D01*
G02X-146885Y-18885I215J209D01*
G01X-140715Y-12715D01*
G02X-140293Y-12712I212J-212D01*
G03X-138888Y-11307I693J712D01*
G02X-138885Y-10885I215J209D01*
G01X-112400Y15600D01*
Y21607D01*
G02X-111984Y21884I300J0D01*
G03X-112165Y23618I384J916D01*
G02X-112400Y23741I-85J123D01*
G01Y24000D01*
X-106000Y30400D01*
Y35600D01*
X-93600Y48000D01*
X-55193D01*
G02X-54916Y47584I0J-300D01*
G03X-53084I916J-384D01*
G02X-52807Y48000I277J116D01*
G01X-30929D01*
G02X-30714Y47491I0J-300D01*
G03X-29286I714J-691D01*
G02X-29071Y48000I216J209D01*
G01X-21200D01*
X-11295Y38095D01*
G02X-11343Y37632I-212J-212D01*
G03X-10609Y35825I543J-832D01*
G02X-10261Y35454I58J-294D01*
G03X-9435Y34216I961J-254D01*
G02X-9226Y33752I-41J-297D01*
G03X-8265Y34184I826J-552D01*
G02X-8474Y34648I41J297D01*
G03X-8439Y34704I-826J552D01*
G02X-7967Y34767I260J-150D01*
G01X-1539Y28339D01*
G02X-1543Y27912I-212J-212D01*
G03X-137Y26507I692J-713D01*
G02X290Y26510I215J-209D01*
G01X491Y26309D01*
X377Y26195D01*
X368Y26188D01*
G03X690Y24432I591J-799D01*
G01X800Y24402D01*
Y19140D01*
X690Y19109D01*
G03Y17196I268J-957D01*
G01X800Y17165D01*
Y11936D01*
X690Y11906D01*
G03Y9989I263J-958D01*
G01X800Y9959D01*
Y8285D01*
X690Y8254D01*
G03Y6340I268J-957D01*
G01X800Y6310D01*
Y4000D01*
X4400Y400D01*
Y-6192D01*
X4293Y-6223D01*
G03X3626Y-7462I284J-952D01*
G01X3652Y-7548D01*
X3140Y-8060D01*
X3054Y-8034D01*
G03X1965Y-8400I-286J-952D01*
G01X800D01*
X-2471Y-5129D01*
G02X-2329Y-4625I212J212D01*
G03X-3526Y-3427I-231J966D01*
G02X-4030Y-3570I-292J70D01*
G01X-6190Y-1410D01*
G02X-6047Y-906I212J212D01*
G03X-7245Y291I-231J967D01*
G02X-7749Y149I-292J70D01*
G01X-7947Y347D01*
G02X-7819Y847I212J212D01*
G03X-9053Y2081I-281J953D01*
G02X-9553Y1953I-288J85D01*
G01X-9808Y2208D01*
G02X-9666Y2712I212J212D01*
G03X-10863Y3909I-231J966D01*
G02X-11367Y3767I-292J70D01*
G01X-11617Y4017D01*
G02X-11475Y4521I212J212D01*
G03X-12672Y5719I-231J966D01*
G02X-13176Y5576I-292J70D01*
G01X-13427Y5827D01*
G02X-13284Y6331I212J212D01*
G03X-14482Y7528I-231J966D01*
G02X-14985Y7386I-292J70D01*
G01X-17045Y9445D01*
G02X-16903Y9949I212J212D01*
G03X-18100Y11146I-231J966D01*
G02X-18604Y11004I-292J70D01*
G01X-21391Y13791D01*
X-21311Y13896D01*
G03X-22108Y15494I-789J604D01*
G02X-22410Y15818I-3J300D01*
G03X-24345Y15593I-990J82D01*
G02X-24630Y15200I-285J-93D01*
G01X-38598D01*
X-38615Y15330D01*
G03X-40368Y15830I-985J-130D01*
G02X-40832I-232J190D01*
G03X-42368I-768J-630D01*
G02X-42832I-232J190D01*
G03X-44368I-768J-630D01*
G02X-44832I-232J190D01*
G03X-46585Y15330I-768J-630D01*
G01X-46602Y15200D01*
X-78000D01*
X-84885Y8315D01*
G02X-85307Y8312I-212J212D01*
G03X-86712Y6907I-693J-712D01*
G02X-86715Y6485I-215J-209D01*
G01X-98137Y-4937D01*
G02X-98547Y-4951I-212J212D01*
G03X-99949Y-6353I-653J-749D01*
G02X-99963Y-6763I-226J-197D01*
G01X-109433Y-16233D01*
X-109471Y-16244D01*
G03X-110156Y-16929I271J-956D01*
G01X-110167Y-16967D01*
X-112611Y-19411D01*
X-112659Y-19419D01*
G03X-113481Y-20241I159J-981D01*
G01X-113489Y-20289D01*
X-115344Y-22144D01*
X-115446Y-22075D01*
G03X-116825Y-23454I-554J-825D01*
G01X-116756Y-23556D01*
X-153200Y-60000D01*
Y-98271D01*
G02X-153709Y-98486I-300J0D01*
G03Y-99914I-691J-714D01*
G02X-153200Y-100129I209J-216D01*
G01Y-104271D01*
G02X-153709Y-104486I-300J0D01*
G03X-155030Y-105968I-691J-714D01*
G02Y-106432I-190J-232D01*
G03X-153709Y-107914I630J-768D01*
G02X-153200Y-108129I209J-216D01*
G01Y-109600D01*
X-148343Y-114457D01*
X-148362Y-114537D01*
G03X-146937Y-115962I1162J-263D01*
G01X-146857Y-115943D01*
X-140400Y-122400D01*
X-140332D01*
X-118868Y-122400D01*
X-115390Y-122400D01*
X-114690Y-123100D01*
X-114564D01*
X-114519Y-123155D01*
G03X-112418Y-122533I919J755D01*
G01X-112403Y-122400D01*
X-106800D01*
X-74400Y-154800D01*
Y-193200D01*
X-75600Y-194400D01*
X-84400D01*
G37*
G36*
G01X-15200Y-250800D02*
X-24400Y-241600D01*
X-85086D01*
X-85129Y-241522D01*
G03X-86871I-871J-478D01*
G01X-86914Y-241600D01*
X-88198D01*
X-88215Y-241470D01*
G03X-90185I-985J-130D01*
G01X-90202Y-241600D01*
X-109796D01*
G02X-110078Y-241199I0J300D01*
G03X-110493Y-239842I-1122J399D01*
G02Y-239359I178J242D01*
G03X-112158Y-237693I-707J959D01*
G02X-112642I-242J178D01*
G03X-114307Y-239359I-959J-707D01*
G02Y-239842I-178J-241D01*
G03X-114722Y-241199I707J-958D01*
G02X-115004Y-241600I-283J-101D01*
G01X-133200D01*
X-153856Y-220944D01*
Y-215702D01*
G03X-161227Y-213103I-4144J0D01*
G02X-161673Y-213127I-234J188D01*
G01X-194057Y-180743D01*
X-194038Y-180663D01*
G03X-195463Y-179238I-1161J263D01*
G01X-195543Y-179257D01*
X-208000Y-166800D01*
Y81200D01*
X-200400Y88800D01*
X-155600D01*
X-143600Y100800D01*
Y116000D01*
X-142800Y116800D01*
X-134000D01*
X-132800Y115600D01*
Y108904D01*
G02X-133201Y108622I-300J0D01*
G03X-134307Y106542I-399J-1122D01*
G02Y106059I-178J-242D01*
G03X-133201Y103978I707J-958D01*
G02X-132800Y103696I101J-283D01*
G01Y84000D01*
X-142000Y74800D01*
X-170800D01*
X-176000Y69600D01*
Y-5600D01*
X-164967Y-16633D01*
X-164956Y-16671D01*
G03X-164271Y-17356I956J271D01*
G01X-164233Y-17367D01*
X-158000Y-23600D01*
Y-26400D01*
X-162705Y-31105D01*
G02X-163168Y-31057I-212J212D01*
G03X-164543Y-32432I-832J-543D01*
G02X-164495Y-32895I-164J-251D01*
G01X-176000Y-44400D01*
Y-45410D01*
X-176300Y-45710D01*
Y-128290D01*
X-176000Y-128590D01*
Y-128800D01*
X-166000Y-138800D01*
X-132990D01*
X-121900Y-149890D01*
Y-150094D01*
G02X-122401Y-150317I-300J0D01*
G03X-123999Y-150317I-799J-883D01*
G02X-124401I-201J222D01*
G03X-125892Y-152169I-799J-883D01*
G02X-125812Y-152572I-174J-244D01*
G03X-124001Y-154083I1011J-628D01*
G02X-123599I201J-222D01*
G03X-122108Y-152231I799J883D01*
G02X-122189Y-151828I174J244D01*
G03X-122012Y-151281I-1012J628D01*
G02X-121501Y-151090I299J-21D01*
G01X-120800Y-151790D01*
Y-181200D01*
X-120700Y-181300D01*
Y-181490D01*
X-116690Y-185500D01*
X-108900D01*
X-108800Y-185600D01*
X-107790D01*
X-105490Y-187900D01*
X-93090D01*
X-86540Y-194451D01*
X-86558Y-194532D01*
G03X-84520Y-195600I1159J-268D01*
G01X-74326D01*
X-74286Y-195688D01*
G03X-72242Y-195907I1086J488D01*
G02X-71758I242J-178D01*
G03X-69842I959J707D01*
G02X-69358I241J-178D01*
G03X-67350Y-195762I959J707D01*
G02X-66834Y-195740I264J-142D01*
G03Y-194660I834J540D01*
G02X-67350Y-194638I-252J163D01*
G03X-68171Y-194032I-1050J-562D01*
G02X-68325Y-193525I58J294D01*
G01X-64400Y-189600D01*
X-29600D01*
X-17200Y-202000D01*
Y-215132D01*
X-10019Y-222313D01*
G02X-10023Y-222742I-212J-212D01*
G03X-8017Y-223484I823J-858D01*
G01X-8023Y-223414D01*
X-7710Y-223100D01*
X7090D01*
X9900Y-220290D01*
Y-154900D01*
X26000Y-138800D01*
X56800D01*
X56900Y-138700D01*
X58690D01*
X76300Y-121090D01*
Y-119300D01*
X82400Y-113200D01*
X89600D01*
X89923Y-112877D01*
X90016Y-112916D01*
G03X91316Y-111616I384J916D01*
G01X91277Y-111523D01*
X92000Y-110800D01*
Y-104800D01*
X97600Y-99200D01*
Y-43200D01*
X101505Y-39295D01*
G02X101968Y-39343I212J-212D01*
G03X103343Y-37968I832J543D01*
G02X103295Y-37505I164J251D01*
G01X108000Y-32800D01*
X126334D01*
X126374Y-32888D01*
G03X127975Y-33190I906J408D01*
G02X128185I105J-107D01*
G03X129575I695J710D01*
G02X129785I105J-107D01*
G03X131386Y-32888I695J710D01*
G01X131426Y-32800D01*
X139510D01*
G02X139809Y-33123I0J-300D01*
G03X141493Y-33912I991J-77D01*
G02X141915Y-33915I209J-215D01*
G01X148000Y-40000D01*
Y-71200D01*
X134800Y-84400D01*
Y-100000D01*
X64800Y-170000D01*
X43200D01*
X36709Y-176491D01*
X36604Y-176411D01*
G03X35211Y-177804I-604J-789D01*
G01X35291Y-177909D01*
X33200Y-180000D01*
Y-180686D01*
X33122Y-180729D01*
G03X33036Y-180782I478J-871D01*
G02X32573Y-180596I-170J247D01*
G03X32164Y-181618I-973J-204D01*
G02X32627Y-181804I170J-247D01*
G03X33122Y-182471I973J204D01*
G01X33200Y-182514D01*
Y-208310D01*
G02X32877Y-208609I-300J0D01*
G03X32032Y-208970I-77J-991D01*
G02X31568I-232J190D01*
G03Y-210230I-768J-630D01*
G02X32032I232J-190D01*
G03X32877Y-210591I768J630D01*
G02X33200Y-210890I23J-299D01*
G01Y-225200D01*
X33000Y-225400D01*
Y-240600D01*
X22800Y-250800D01*
X2490D01*
G02X2191Y-250477I0J300D01*
G03X209I-991J77D01*
G02X-90Y-250800I-299J-23D01*
G01X-15200D01*
G37*
G36*
G01X-156688Y-26097D02*
G02X-157200Y-25885I-212J212D01*
G01Y-23268D01*
X-163326Y-17143D01*
X-163238Y-17037D01*
G03X-164637Y-15638I-762J637D01*
G01X-164743Y-15726D01*
X-175200Y-5268D01*
Y69268D01*
X-170468Y74000D01*
X-141668D01*
X-133712Y81956D01*
G02X-133200Y81744I212J-212D01*
G01Y81532D01*
X-142000Y72732D01*
Y71802D01*
X-142130Y71785D01*
G03Y69815I131J-985D01*
G01X-142000Y69798D01*
Y11404D01*
G02X-142401Y11122I-300J0D01*
G03X-143758Y10707I-399J-1122D01*
G02X-144242I-241J178D01*
G03X-146158I-958J-707D01*
G02X-146642I-241J178D01*
G03X-148559I-958J-707D01*
G02X-149042I-241J178D01*
G03X-150959I-958J-707D01*
G02X-151442I-241J178D01*
G03Y9293I-958J-707D01*
G02X-150959I242J-178D01*
G03X-149042I959J707D01*
G02X-148559I242J-178D01*
G03X-146642I959J707D01*
G02X-146158I242J-178D01*
G03X-144242I959J707D01*
G02X-143758I242J-178D01*
G03X-142024Y9097I958J707D01*
G01X-141919Y9187D01*
X-139532Y6800D01*
X-128069D01*
X-124400Y10468D01*
Y57870D01*
G02X-123891Y58086I300J0D01*
G03Y59514I691J714D01*
G02X-124400Y59730I-209J216D01*
G01Y86944D01*
G02X-123888Y87156I300J0D01*
G01X-123132Y86400D01*
X-69816D01*
G02X-69581Y85915I0J-300D01*
G03X-68019I781J-615D01*
G02X-67784Y86400I236J186D01*
G01X-63193D01*
G02X-62916Y85984I0J-300D01*
G03X-61084I916J-384D01*
G02X-60807Y86400I277J116D01*
G01X-33117D01*
G02X-32881Y85915I0J-300D01*
G03X-31319I781J-615D01*
G02X-31083Y86400I236J186D01*
G01X39268D01*
X54068Y71600D01*
X65668D01*
X66616Y70652D01*
X66625Y70607D01*
G03X67407Y69825I975J193D01*
G01X67452Y69816D01*
X67728Y69541D01*
X67582Y69395D01*
X67527Y69391D01*
G03X68548Y68101I73J-991D01*
G02X69046Y68223I286J-90D01*
G01X91668Y45600D01*
X114068D01*
X120400Y39268D01*
Y39094D01*
G02X120144Y38988I-150J0D01*
G01X113932Y45200D01*
X46868D01*
X29669Y28000D01*
X28869D01*
X21640Y20771D01*
G02X21437Y20762I-106J106D01*
G03X20038Y19363I-637J-762D01*
G01X20126Y19257D01*
X12507Y11639D01*
X12403Y11715D01*
G03X11096Y10228I-589J-800D01*
G01X10692Y9824D01*
G03X9205Y8517I-687J-718D01*
G01X9281Y8413D01*
X8883Y8015D01*
X8779Y8091D01*
G03X7390Y6702I-589J-800D01*
G01X7466Y6598D01*
X5270Y4402D01*
X5167Y4479D01*
G03X3630Y3980I-589J-800D01*
G02X3132Y3858I-286J91D01*
G01X2948Y4043D01*
G02X3069Y4541I212J212D01*
G03X3187Y6389I-301J947D01*
G01X3100Y6429D01*
Y8290D01*
X2300Y9090D01*
Y9310D01*
X2900Y9910D01*
Y11733D01*
X3013Y11762D01*
G03X2562Y13697I-245J963D01*
G02X2200Y13990I-62J294D01*
G01Y15610D01*
X3100Y16510D01*
Y18948D01*
X3191Y18986D01*
G03X2570Y20867I-391J913D01*
G02X2200Y21159I-69J292D01*
G01Y22314D01*
G02X2562Y22608I300J0D01*
G03X3080Y24523I205J972D01*
G01X2977Y24557D01*
Y26221D01*
X3080Y26255D01*
G03X1943Y27753I-312J943D01*
G02X1482Y27708I-249J167D01*
G01X-20310Y49500D01*
X-34442D01*
G02X-34734Y49870I0J300D01*
G03X-36391Y50814I-967J230D01*
G02X-36809I-209J215D01*
G03X-38467Y49870I-691J-714D01*
G02X-38758Y49500I-292J-69D01*
G01X-52654D01*
G02X-52920Y49939I0J300D01*
G03X-54680I-880J461D01*
G02X-54946Y49500I-266J-139D01*
G01X-90454D01*
G02X-90720Y49939I0J300D01*
G03X-92480I-880J461D01*
G02X-92746Y49500I-266J-139D01*
G01X-94290D01*
X-105698Y38092D01*
G02X-106209Y38327I-212J212D01*
G03X-106570Y39168I-991J73D01*
G02Y39632I190J232D01*
G03X-107830I-630J768D01*
G02Y39168I-190J-232D01*
G03X-107127Y37409I630J-768D01*
G02X-106892Y36898I22J-299D01*
G01X-107500Y36290D01*
Y31090D01*
X-113900Y24690D01*
Y16690D01*
X-156688Y-26097D01*
G37*
G36*
G01X-140000Y-121600D02*
X-146179Y-115421D01*
X-146131Y-115325D01*
G03X-146317Y-114001I-1069J525D01*
G02Y-113599I222J201D01*
G03X-148368Y-112571I-883J799D01*
G02X-148875Y-112725I-294J58D01*
G01X-151600Y-110000D01*
Y-61600D01*
X-125501Y-35501D01*
G02X-124990Y-35687I212J-212D01*
G03X-123913Y-34610I990J87D01*
G02X-124099Y-34099I26J299D01*
G01X-116477Y-26477D01*
X-116384Y-26516D01*
G03X-115084Y-25216I385J916D01*
G01X-115123Y-25123D01*
X-111515Y-21515D01*
G02X-111093Y-21512I212J-212D01*
G03X-109688Y-20107I693J712D01*
G02X-109685Y-19685I215J209D01*
G01X-108095Y-18095D01*
G02X-107632Y-18143I212J-212D01*
G03X-106257Y-16768I832J543D01*
G02X-106305Y-16305I164J251D01*
G01X-76400Y13600D01*
X-28990D01*
G02X-28691Y13277I0J-300D01*
G03X-26709I991J-77D01*
G02X-26410Y13600I299J23D01*
G01X-22522D01*
X-22494Y13588D01*
G03X-22371Y13544I394J912D01*
G01X-22333Y13533D01*
X-19286Y10486D01*
G02X-19370Y10004I-212J-212D01*
G03X-18045Y8679I427J-897D01*
G02X-17562Y8762I271J-129D01*
G01X-17477Y8677D01*
G02X-17561Y8194I-212J-212D01*
G03X-16236Y6870I427J-897D01*
G02X-15753Y6953I271J-129D01*
G01X-15668Y6868D01*
G02X-15751Y6385I-212J-212D01*
G03X-16094Y4860I427J-897D01*
G02X-16158Y4422I-232J-190D01*
G03X-15630Y2607I558J-822D01*
G02X-15383Y2151I-9J-300D01*
G03X-13725Y2211I849J-517D01*
G02X-13489Y2685I244J174D01*
G03X-12618Y3252I-26J993D01*
G02X-12135Y3335I271J-129D01*
G01X-12035Y3235D01*
G02X-12120Y2751I-212J-212D01*
G03X-10799Y1430I420J-901D01*
G02X-10315Y1515I272J-127D01*
G01X-6628Y-2172D01*
G02X-6738Y-2666I-212J-212D01*
G03X-5466Y-3938I338J-934D01*
G02X-4972Y-3828I282J-102D01*
G01X-400Y-8400D01*
Y-13010D01*
X-2407Y-15017D01*
X-2893D01*
X-3710Y-14200D01*
X-5190D01*
X-6763Y-15773D01*
G02X-7233Y-15714I-212J212D01*
G03X-8595Y-17076I-854J-508D01*
G02X-8537Y-17546I-153J-258D01*
G01X-8573Y-17582D01*
G02X-9043Y-17524I-212J212D01*
G03X-10860Y-17787I-854J-508D01*
G01X-10888Y-17900D01*
X-12523D01*
X-12552Y-17787D01*
G03X-14478I-963J-245D01*
G01X-14507Y-17900D01*
X-16142D01*
X-16171Y-17787D01*
G03X-18096I-963J-245D01*
G01X-18125Y-17900D01*
X-21710D01*
X-22082Y-17528D01*
G02X-22030Y-17062I212J212D01*
G03X-23500Y-15899I-531J840D01*
G01X-23535Y-16000D01*
X-25205D01*
X-25240Y-15899D01*
G03X-26738Y-17044I-939J-324D01*
G02X-26695Y-17504I-169J-248D01*
G01X-26707Y-17516D01*
G02X-27167Y-17473I-212J212D01*
G03X-28981Y-18084I-822J-559D01*
G02X-29281Y-18400I-300J-16D01*
G01X-30315D01*
G02X-30615Y-18084I0J300D01*
G03X-32601Y-18045I-992J52D01*
G01X-32600Y-18108D01*
X-32751Y-18259D01*
X-32910Y-18100D01*
X-35490D01*
X-36998Y-19608D01*
G02X-37509Y-19373I-212J212D01*
G03X-38427Y-20291I-991J73D01*
G02X-38192Y-20802I22J-299D01*
G01X-56098Y-38708D01*
G02X-56609Y-38473I-212J212D01*
G03X-57527Y-39391I-991J73D01*
G02X-57292Y-39902I22J-299D01*
G01X-116700Y-99310D01*
Y-99500D01*
X-116800Y-99600D01*
Y-119200D01*
X-119200Y-121600D01*
X-140000D01*
G37*
G36*
G01X125600Y-239200D02*
X124400Y-238000D01*
Y-115200D01*
X136400Y-103200D01*
Y-86000D01*
X150000Y-72400D01*
Y-39200D01*
X142000Y-31200D01*
X131774D01*
G02X131474Y-30895I0J300D01*
G03X131190Y-30185I-994J15D01*
G02Y-29975I107J105D01*
G03X129785Y-28570I-710J695D01*
G02X129575I-105J107D01*
G03X128185I-695J-710D01*
G02X127975I-105J107D01*
G03X127290Y-28287I-695J-710D01*
G02X126994Y-27990I3J300D01*
G03X125990Y-28994I-994J-10D01*
G02X126287Y-29290I-3J-300D01*
G03X126570Y-29975I994J10D01*
G02Y-30185I-107J-105D01*
G03X126297Y-31028I710J-695D01*
G01X126299Y-31039D01*
Y-31200D01*
X126000D01*
X121900Y-27100D01*
Y-26290D01*
X124690Y-23500D01*
X128290D01*
X131414Y-20377D01*
X131484Y-20384D01*
G03X130845Y-18282I116J1184D01*
G02X130410Y-18224I-191J232D01*
G03X130310Y-18105I-809J-576D01*
G02Y-17895I107J105D01*
G03Y-16505I-710J695D01*
G02Y-16295I107J105D01*
G03X128905Y-14890I-710J695D01*
G02X128695I-105J107D01*
G03X127305I-695J-710D01*
G02X127095I-105J107D01*
G03X125690Y-16295I-695J-710D01*
G02Y-16505I-107J-105D01*
G03Y-17895I710J-695D01*
G02Y-18105I-107J-105D01*
G03Y-19495I710J-695D01*
G02Y-19705I-107J-105D01*
G03X127084Y-21121I710J-695D01*
G02X127291I103J-109D01*
G03X127777Y-21374I684J721D01*
G02X127930Y-21880I-60J-294D01*
G01X127710Y-22100D01*
X124110D01*
X121712Y-24497D01*
G02X121200Y-24285I-212J212D01*
G01Y37932D01*
X121200Y39600D01*
X114400Y46400D01*
X92000D01*
X68303Y70097D01*
G03X66897Y71503I-703J703D01*
G01X66000Y72400D01*
X54400D01*
X39600Y87200D01*
X29680D01*
G03X28000Y87280I-880J-800D01*
G03X26320Y87200I-800J-880D01*
G01X9730D01*
G02X9514Y87709I0J300D01*
G03X8086I-714J691D01*
G02X7870Y87200I-216J-209D01*
G01X-30807D01*
G02X-31083Y87616I0J300D01*
G03X-32917I-917J384D01*
G02X-33193Y87200I-277J-116D01*
G01X-34970D01*
G02X-35186Y87709I0J300D01*
G03X-36614I-714J691D01*
G02X-36830Y87200I-216J-209D01*
G01X-122800D01*
X-124800Y89200D01*
Y106800D01*
X-116800Y114800D01*
Y123200D01*
X-115600Y124400D01*
X-23729D01*
G02X-23514Y123891I0J-300D01*
G03X-22086I714J-691D01*
G02X-21871Y124400I216J209D01*
G01X-18400D01*
X3000Y103000D01*
X4742D01*
G02X5033Y102630I0J-300D01*
G03X6993Y102356I967J-231D01*
G02X7364Y102635I300J-13D01*
G03X8295Y102890I236J965D01*
G02X8505I105J-107D01*
G03X9992Y103000I695J710D01*
G01X24742D01*
G02X25033Y102630I0J-300D01*
G03X26695Y101690I967J-230D01*
G02X26905I105J-107D01*
G03X28567Y102630I695J710D01*
G02X28858Y103000I292J70D01*
G01X37142D01*
G02X37433Y102630I0J-300D01*
G03X39367I967J-230D01*
G02X39658Y103000I292J70D01*
G01X59800D01*
X61637Y101163D01*
G02X61600Y100707I-212J-212D01*
G03X61495Y100621I579J-808D01*
G02X61083I-206J218D01*
G03X59419Y99740I-683J-722D01*
G02X59141Y99392I-296J-48D01*
G03X59088Y99387I59J-992D01*
G02X58758Y99735I-34J298D01*
G03X57095Y100621I-980J164D01*
G02X56683I-206J218D01*
G03X55019Y99740I-683J-722D01*
G02X54741Y99392I-296J-48D01*
G03X53806Y98389I59J-992D01*
G02X53477Y98088I-300J-3D01*
G03X52695Y97821I-99J-989D01*
G02X52283I-206J218D01*
G03X51592Y98093I-683J-722D01*
G02X51290Y98418I-2J300D01*
G03X49310Y98413I-990J82D01*
G02X48983Y98088I-299J-26D01*
G03X48206Y97821I-94J-989D01*
G02X47794I-206J218D01*
G03X47200Y98089I-683J-722D01*
G02X46942Y98483I27J299D01*
G03X45912Y97810I-942J317D01*
G02X46169Y97416I-27J-299D01*
G03X47794Y96377I942J-317D01*
G02X48206I206J-218D01*
G03X49879Y97186I683J722D01*
G02X50206Y97511I299J26D01*
G03X50308Y97506I94J989D01*
G02X50610Y97181I2J-300D01*
G03X52283Y96377I990J-82D01*
G02X52695I206J-218D01*
G03X54372Y97110I683J722D01*
G02X54701Y97411I300J3D01*
G03X55781Y98559I99J989D01*
G02X56059Y98907I296J48D01*
G03X56683Y99177I-59J992D01*
G02X57095I206J-218D01*
G03X57890Y98912I683J722D01*
G02X58220Y98564I34J-298D01*
G03X60181Y98559I980J-164D01*
G02X60459Y98907I296J48D01*
G03X61083Y99177I-59J992D01*
G02X61495I206J-218D01*
G03X61985Y98924I683J722D01*
G02X62222Y98576I-58J-294D01*
G03X64134Y98062I978J-176D01*
G02X64628Y98172I282J-102D01*
G01X66760Y96040D01*
X66711Y95944D01*
G03X66638Y95248I889J-445D01*
G02X66402Y94877I-290J-76D01*
G03X65895Y94621I177J-978D01*
G02X65483I-206J218D01*
G03X64821Y94892I-683J-722D01*
G02X64543Y95287I6J300D01*
G03X63579Y94606I-943J313D01*
G02X63857Y94212I-6J-300D01*
G03X65483Y93177I943J-313D01*
G02X65895I206J-218D01*
G03X67540Y94150I683J722D01*
G02X67776Y94521I290J76D01*
G03X68045Y94610I-176J978D01*
G01X68141Y94659D01*
X106400Y56400D01*
X144718D01*
G03X146482I882J800D01*
G01X147518D01*
G03X149282I882J800D01*
G01X171600D01*
X172800Y55200D01*
Y54589D01*
G03Y53411I800J-589D01*
G01Y32800D01*
X187340Y18260D01*
X187351Y18240D01*
G03X187840Y17751I1049J560D01*
G01X187860Y17740D01*
X194753Y10847D01*
X194669Y10742D01*
G03X194893Y9042I931J-743D01*
G02Y8558I-178J-242D01*
G03Y6642I707J-958D01*
G02Y6158I-178J-242D01*
G03Y4242I707J-958D01*
G02Y3758I-178J-242D01*
G03Y1842I707J-958D01*
G02Y1359I-178J-242D01*
G03X196319Y-549I707J-958D01*
G02X196800Y-788I181J-239D01*
G01Y-26812D01*
G02X196319Y-27051I-300J0D01*
G03Y-28949I-719J-949D01*
G02X196800Y-29188I181J-239D01*
G01Y-52400D01*
X193600Y-55600D01*
X186202D01*
X186185Y-55470D01*
G03X184215I-985J-130D01*
G01X184198Y-55600D01*
X167600D01*
X166800Y-56400D01*
Y-72800D01*
X160722Y-78878D01*
X160640Y-78858D01*
G03X159436Y-80062I-240J-964D01*
G01X159456Y-80144D01*
X145200Y-94400D01*
Y-107600D01*
X137600Y-115200D01*
Y-191607D01*
G02X137184Y-191884I-300J0D01*
G03X137365Y-193618I-384J-916D01*
G02X137600Y-193741I85J-123D01*
G01Y-193886D01*
X137522Y-193929D01*
G03Y-195671I478J-871D01*
G01X137600Y-195714D01*
Y-234000D01*
X132400Y-239200D01*
X125600D01*
G37*
G36*
G01X-139200Y7600D02*
X-141200Y9600D01*
Y69071D01*
G02X-140691Y69286I300J0D01*
G03X-139906Y69011I691J714D01*
G02X-139749Y68906I14J-149D01*
G03X-138105Y68490I949J294D01*
G02X-137895I105J-107D01*
G03X-136490Y69895I695J710D01*
G02Y70105I107J105D01*
G03X-137895Y71510I-710J695D01*
G02X-138105I-105J107D01*
G03X-139749Y71094I-695J-710D01*
G02X-139906Y70989I-143J44D01*
G03X-140564Y70818I-94J-989D01*
G02X-141027Y71004I-170J247D01*
G03X-141200Y71389I-973J-204D01*
G01Y72400D01*
X-132400Y81200D01*
Y83268D01*
X-132000Y83668D01*
Y115932D01*
X-132400Y116332D01*
Y117600D01*
X-131200Y118800D01*
X-126800D01*
X-125200Y117200D01*
Y107532D01*
X-125600Y107132D01*
Y88868D01*
X-125200Y88468D01*
Y79789D01*
G03Y78611I800J-589D01*
G01Y10800D01*
X-128400Y7600D01*
X-139200D01*
G37*
G36*
G01X11000Y103800D02*
X10800Y104000D01*
X10114D01*
X10071Y104078D01*
G03X9910Y104295I-871J-478D01*
G02Y104505I107J105D01*
G03X8505Y105910I-710J695D01*
G02X8295I-105J107D01*
G03X6905I-695J-710D01*
G02X6695I-105J107D01*
G03X5305I-695J-710D01*
G02X5095I-105J107D01*
G03X3686Y104509I-695J-710D01*
G02X3471Y104000I-216J-209D01*
G01X3132D01*
X-18068Y125200D01*
X-115932D01*
X-120400Y125200D01*
X-124400Y129200D01*
Y136400D01*
X-122400Y138400D01*
X-102189D01*
G03X-101011I589J800D01*
G01X-70989D01*
G03X-69811I589J800D01*
G01X-68989D01*
G03X-67811I589J800D01*
G01X-66202D01*
X-66185Y138270D01*
G03X-64215I985J130D01*
G01X-64198Y138400D01*
X-58589D01*
G03X-57411I589J800D01*
G01X-54393D01*
G02X-54116Y137984I0J-300D01*
G03X-52284I916J-384D01*
G02X-52007Y138400I277J116D01*
G01X-47789D01*
G03X-46611I589J800D01*
G01X-44989D01*
G03X-43811I589J800D01*
G01X-34989D01*
G03X-33811I589J800D01*
G01X-24393D01*
G02X-24116Y137984I0J-300D01*
G03X-22368Y137057I916J-384D01*
G02X-21905Y137105I251J-164D01*
G01X2400Y112800D01*
X13200D01*
X17600Y108400D01*
Y104400D01*
X17000Y103800D01*
X11000D01*
G37*
G36*
G01X103200Y-204800D02*
X95600Y-197200D01*
Y-191200D01*
X90400Y-186000D01*
Y-184800D01*
X87200Y-181600D01*
Y-172400D01*
X86400Y-171600D01*
X82400D01*
X81600Y-172400D01*
Y-174800D01*
X81200Y-175200D01*
X79600D01*
X78400Y-174000D01*
Y-172400D01*
X77600Y-171600D01*
X74800D01*
X69600Y-176800D01*
X62914D01*
X62871Y-176722D01*
G03X61129I-871J-478D01*
G01X61086Y-176800D01*
X49200D01*
X48967Y-177033D01*
X48929Y-177044D01*
G03X48244Y-177729I271J-956D01*
G01X48233Y-177767D01*
X41200Y-184800D01*
Y-202800D01*
X40000Y-204000D01*
X34800D01*
X34000Y-203200D01*
Y-182514D01*
X34078Y-182471D01*
G03Y-180729I-478J871D01*
G01X34000Y-180686D01*
Y-180400D01*
X36233Y-178167D01*
X36271Y-178156D01*
G03X36956Y-177471I-271J956D01*
G01X36967Y-177433D01*
X43600Y-170800D01*
X65132D01*
X65200Y-170800D01*
X69200Y-166800D01*
X101600D01*
X102800Y-168000D01*
Y-172800D01*
X96800Y-178800D01*
Y-178897D01*
X96551D01*
X96512Y-178806D01*
G03X94645Y-179474I-912J-394D01*
G02X94274Y-179845I-288J-83D01*
G03X94955Y-180526I-274J-955D01*
G02X95326Y-180155I288J83D01*
G03X96291Y-179914I274J955D01*
G02X96800Y-180129I209J-216D01*
G01Y-184598D01*
X96670Y-184615D01*
G03X97734Y-185938I130J-985D01*
G02X98228Y-185829I282J-102D01*
G01X103020Y-190620D01*
X103012Y-190692D01*
G03X104108Y-191788I988J-108D01*
G01X104180Y-191780D01*
X106400Y-194000D01*
Y-204000D01*
X105600Y-204800D01*
X103200D01*
G37*
G36*
G01X55200Y-224000D02*
X54400Y-223200D01*
Y-216800D01*
X58800Y-212400D01*
X84400D01*
X88400Y-208400D01*
Y-200929D01*
G02X88909Y-200714I300J0D01*
G03X88666Y-199662I691J714D01*
G02X88172Y-199772I-282J102D01*
G01X85500Y-197100D01*
G02X85730Y-196589I212J212D01*
G03X84611Y-195470I70J1189D01*
G02X84100Y-195700I-299J-18D01*
G01X81035Y-192634D01*
G02X81157Y-192136I212J212D01*
G03X79664Y-190643I-357J1136D01*
G02X79166Y-190766I-286J90D01*
G01X76254Y-187854D01*
G02X76252Y-187432I212J212D01*
G03X74568Y-185748I-852J832D01*
G02X74146Y-185746I-210J215D01*
G01X72800Y-184400D01*
Y-174800D01*
X75200Y-172400D01*
X76800D01*
X77600Y-173200D01*
Y-174332D01*
X77600Y-175200D01*
X78400Y-176000D01*
X79268D01*
X81532Y-176000D01*
X82400Y-175132D01*
Y-174800D01*
X82800Y-174400D01*
Y-172800D01*
X83200Y-172400D01*
X85600D01*
X86400Y-173200D01*
Y-181932D01*
X86400Y-182000D01*
X89600Y-185200D01*
Y-186332D01*
X89600Y-186400D01*
X94800Y-191600D01*
Y-196400D01*
X94167Y-197033D01*
X94129Y-197044D01*
G03X93922Y-198871I271J-956D01*
G01X94000Y-198914D01*
Y-202271D01*
G02X93491Y-202486I-300J0D01*
G03Y-203914I-691J-714D01*
G02X94000Y-204129I209J-216D01*
G01Y-213200D01*
X87200Y-220000D01*
X62400D01*
X58400Y-224000D01*
X55200D01*
G37*
G36*
G01X83790Y-38400D02*
X80620Y-35230D01*
G02X80764Y-34726I212J212D01*
G03X80503Y-32765I-226J968D01*
G02X80192Y-32450I-11J300D01*
G03X78230Y-32186I-992J50D01*
G02X77724Y-32334I-293J64D01*
G01X62340Y-16950D01*
X58265D01*
G02X57982Y-16551I0J300D01*
G03X56106I-938J328D01*
G02X55823Y-16950I-283J-99D01*
G01X54647D01*
G02X54364Y-16551I0J300D01*
G03X52488I-938J328D01*
G02X52204Y-16950I-283J-99D01*
G01X51540D01*
X49790Y-15200D01*
X49197D01*
G02X48919Y-14787I0J300D01*
G03X47056Y-14097I-921J374D01*
G01X47022Y-14200D01*
X45356D01*
X45322Y-14097D01*
G03X43844Y-15250I-942J-316D01*
G02X43894Y-15715I-162J-253D01*
G01X43872Y-15737D01*
G02X43408Y-15687I-212J212D01*
G03X41620Y-16512I-837J-535D01*
G02X41333Y-16900I-287J-88D01*
G01X39490D01*
X38290Y-15700D01*
X37980D01*
G02X37785Y-15171I0J300D01*
G03X36500I-643J758D01*
G02X36305Y-15700I-194J-229D01*
G01X34362D01*
G02X34167Y-15171I0J300D01*
G03X33412Y-15401I-643J758D01*
G01X33545Y-15416D01*
Y-15700D01*
X33010D01*
X32999Y-15710D01*
G02X32538Y-15666I-212J212D01*
G03X30798Y-15840I-824J-556D01*
G01X30759Y-15933D01*
X29177D01*
X28210Y-16900D01*
X27990D01*
X27140Y-16050D01*
X25463D01*
X25432Y-15942D01*
G03X23539Y-15899I-953J-280D01*
G01X23504Y-16000D01*
X21834D01*
X21799Y-15899D01*
G03X20329Y-17063I-940J-324D01*
G02X20381Y-17528I-160J-254D01*
G01X20357Y-17553D01*
G02X19891Y-17501I-212J212D01*
G03X18520Y-18872I-840J-531D01*
G02X18572Y-19338I-160J-254D01*
G01X16738Y-21172D01*
G02X16272Y-21120I-212J212D01*
G03X14603Y-21103I-840J-531D01*
G02X14140Y-21150I-250J165D01*
G01X14123Y-21133D01*
G02X14170Y-20670I212J212D01*
G03X12793Y-19294I-547J829D01*
G02X12331Y-19341I-250J165D01*
G01X12314Y-19324D01*
G02X12361Y-18861I212J212D01*
G03X10984Y-17485I-547J829D01*
G02X10522Y-17532I-250J165D01*
G01X10505Y-17515D01*
G02X10552Y-17052I212J212D01*
G03X10531Y-15379I-547J830D01*
G02X10478Y-14913I159J254D01*
G01X10505Y-14886D01*
G02X10971Y-14939I212J-212D01*
G03X12351Y-13576I843J527D01*
G01X12282Y-13532D01*
Y-13300D01*
X12636D01*
X12681Y-13355D01*
G03Y-11845I919J755D01*
G01X12636Y-11900D01*
X12295D01*
Y-11669D01*
X12362Y-11625D01*
G03X11270Y-11628I-548J829D01*
G02X11318Y-12091I-164J-251D01*
G01X11301Y-12109D01*
G02X10837Y-12061I-212J212D01*
G03X9462Y-13436I-833J-543D01*
G02X9511Y-13899I-164J-251D01*
G01X9492Y-13918D01*
G02X9028Y-13870I-212J212D01*
G03X7895Y-15360I-833J-542D01*
G01X8000Y-15393D01*
Y-17052D01*
X7895Y-17085D01*
G03X9041Y-18554I300J-947D01*
G02X9509Y-18499I255J-157D01*
G01X9511Y-18501D01*
G02X9461Y-18965I-212J-212D01*
G03X10835Y-20339I539J-835D01*
G02X11299Y-20289I252J-163D01*
G01X11347Y-20337D01*
G02X11292Y-20805I-212J-212D01*
G03X12660Y-22172I522J-846D01*
G02X13127Y-22117I255J-157D01*
G01X13156Y-22146D01*
G02X13101Y-22614I-212J-212D01*
G03X14567Y-23770I522J-846D01*
G01X14600Y-23667D01*
X15608D01*
G02X15821Y-24180I0J-300D01*
G01X15694Y-24306D01*
X15616Y-24292D01*
G03X14456Y-25452I-183J-977D01*
G01X14470Y-25530D01*
X13884Y-26116D01*
X13806Y-26101D01*
G03X12646Y-27261I-183J-977D01*
G01X12661Y-27339D01*
X12075Y-27925D01*
X11997Y-27910D01*
G03X11395Y-27986I-183J-977D01*
G01X11365Y-28000D01*
X11139D01*
G02X10876Y-27556I0J300D01*
G03X9133I-871J478D01*
G02X8870Y-28000I-263J-144D01*
G01X8644D01*
X8614Y-27986D01*
G03X7777I-419J-901D01*
G01X7747Y-28000D01*
X7531D01*
X7196Y-27665D01*
X7252Y-27566D01*
G03X5899Y-26212I-866J488D01*
G01X5800Y-26268D01*
X5387Y-25855D01*
X5443Y-25756D01*
G03X4090Y-24403I-866J488D01*
G01X3990Y-24459D01*
X3578Y-24046D01*
X3634Y-23947D01*
G03X2280Y-22594I-866J487D01*
G01X2181Y-22649D01*
X1768Y-22237D01*
X1824Y-22137D01*
G03X470Y-20784I-866J488D01*
G01X371Y-20840D01*
X-41Y-20428D01*
X15Y-20328D01*
G03X-1338Y-18975I-866J487D01*
G01X-1438Y-19031D01*
X-1600Y-18869D01*
Y-18068D01*
X-1665Y-18003D01*
X-1670Y-17949D01*
G03X-1956Y-17330I-990J-83D01*
G01X-2000Y-17286D01*
Y-17198D01*
G02X-1503Y-16972I300J0D01*
G03X-299Y-15396I652J750D01*
G02X-344Y-14934I167J249D01*
G01X-329Y-14920D01*
G02X132Y-14965I212J-212D01*
G03X1507Y-13585I826J552D01*
G01X1440Y-13540D01*
Y-13310D01*
X1746D01*
X1791Y-13364D01*
G03Y-11854I919J755D01*
G01X1746Y-11909D01*
X1424D01*
Y-11677D01*
X1493Y-11633D01*
G03X1676Y-10108I-534J838D01*
G02X1893Y-9600I217J208D01*
G01X1984D01*
X2028Y-9650D01*
G03X3756Y-9091I739J664D01*
G01X3761Y-9039D01*
X4631Y-8169D01*
X4683Y-8164D01*
G03X5565Y-7282I-106J988D01*
G01X5571Y-7229D01*
X6000Y-6800D01*
Y-6658D01*
G02X6320Y-6359I300J0D01*
G03Y-4376I66J992D01*
G02X6000Y-4077I-20J299D01*
G01Y-3040D01*
G02X6320Y-2740I300J0D01*
G03Y-757I66J992D01*
G02X6000Y-458I-20J299D01*
G01Y479D01*
G02X6320Y778I300J0D01*
G03Y2761I66J992D01*
G02X6000Y3060I-20J299D01*
G01Y4000D01*
X6392Y4392D01*
X6449Y4396D01*
G03X7378Y5325I-63J992D01*
G01X7382Y5382D01*
X8302Y6302D01*
X8350Y6310D01*
G03X9171Y7131I-159J981D01*
G01X9179Y7179D01*
X10118Y8118D01*
X10166Y8126D01*
G03X10985Y8946I-161J981D01*
G01X10993Y8993D01*
X11927Y9927D01*
X11975Y9935D01*
G03X12794Y10755I-161J981D01*
G01X12802Y10802D01*
X13736Y11736D01*
X13784Y11744D01*
G03X14603Y12564I-161J980D01*
G01X14611Y12611D01*
X15546Y13546D01*
X15593Y13553D01*
G03X16413Y14373I-161J981D01*
G01X16421Y14421D01*
X21033Y19033D01*
X21071Y19044D01*
G03X21756Y19729I-271J956D01*
G01X21767Y19767D01*
X24592Y22592D01*
X24639Y22599D01*
G03X25459Y23419I-161J981D01*
G01X25467Y23467D01*
X29200Y27200D01*
X30000D01*
X47200Y44400D01*
X49607D01*
G02X49884Y43984I0J-300D01*
G03X51494Y42889I916J-384D01*
G02X51935Y42866I210J-215D01*
G03X53580Y43961I765J634D01*
G02X53846Y44400I266J139D01*
G01X113600D01*
X120137Y37863D01*
X120128Y37790D01*
G03X120400Y36726I1473J-190D01*
G01Y-28400D01*
X118000Y-30800D01*
X106800D01*
X99200Y-38400D01*
X83790D01*
G37*
G36*
G01X200800Y-55200D02*
X198000Y-52400D01*
Y-34793D01*
G02X198416Y-34517I300J0D01*
G03Y-32684I384J917D01*
G02X198000Y-32407I-116J277D01*
G01Y-798D01*
X198133Y-783D01*
G03X199162Y663I-133J1183D01*
G01X199143Y743D01*
X205200Y6800D01*
Y50000D01*
X197600Y57600D01*
X183314D01*
X183271Y57678D01*
G03X181529I-871J-478D01*
G01X181486Y57600D01*
X178602D01*
X178585Y57730D01*
G03X176832Y58230I-985J-130D01*
G02X176368I-232J190D01*
G03X174832I-768J-630D01*
G02X174368I-232J190D01*
G03X172615Y57730I-768J-630D01*
G01X172598Y57600D01*
X154430D01*
X154413Y57730D01*
G03X152443I-985J-130D01*
G01X152426Y57600D01*
X149526D01*
X149486Y57688D01*
G03X147314I-1086J-488D01*
G01X147274Y57600D01*
X146726D01*
X146686Y57688D01*
G03X144514I-1086J-488D01*
G01X144474Y57600D01*
X107600D01*
X58000Y107200D01*
X25200D01*
X17600Y114800D01*
X1600D01*
X0Y116400D01*
Y123704D01*
X117Y123730D01*
G03X846Y124397I-217J970D01*
G02X1240Y124585I286J-92D01*
G03X2322Y126194I359J926D01*
G02Y126606I218J206D01*
G03X2538Y127618I-722J683D01*
G01X2507Y127707D01*
X5600Y130800D01*
X55871D01*
G02X56086Y130291I0J-300D01*
G03X57568Y128970I714J-691D01*
G02X58032I232J-190D01*
G03X59568I768J630D01*
G02X60032I232J-190D01*
G03X61514Y130291I768J630D01*
G02X61729Y130800I216J209D01*
G01X63600D01*
X77059Y117341D01*
X77011Y117244D01*
G03X78344Y115911I889J-444D01*
G01X78441Y115959D01*
X79600Y114800D01*
Y109200D01*
X117600Y71200D01*
X211200D01*
X219200Y63200D01*
Y55969D01*
X219068Y55953D01*
G03Y51243I277J-2355D01*
G01X219200Y51227D01*
Y20773D01*
X219068Y20757D01*
G03Y16047I277J-2355D01*
G01X219200Y16031D01*
Y-52800D01*
X216800Y-55200D01*
X200800D01*
G37*
G36*
G01X24868Y106400D02*
X57668D01*
X59756Y104312D01*
G02X59544Y103800I-212J-212D01*
G01X18494D01*
G02X18388Y104056I0J150D01*
G01X18400Y104068D01*
Y108732D01*
X13531Y113600D01*
X2732D01*
X2588Y113744D01*
G02X2694Y114000I106J106D01*
G01X17268D01*
X24868Y106400D01*
G37*
G36*
G01X198112Y844D02*
G02X197600Y1056I-212J212D01*
G01Y9132D01*
X173600Y33132D01*
Y55532D01*
X172844Y56288D01*
G02X173056Y56800I212J212D01*
G01X181486D01*
X181529Y56722D01*
G03X183271I871J478D01*
G01X183314Y56800D01*
X197268D01*
X204400Y49668D01*
Y7132D01*
X198112Y844D01*
G37*
%LPC*%
G75*
G36*
G01X-24721Y-23741D02*
G03X-25092Y-23903I-97J-284D01*
G02X-25679Y-22559I-908J403D01*
G03X-25308Y-22397I97J284D01*
G02X-23474Y-22440I908J-403D01*
G03X-23047Y-22593I280J109D01*
G02X-23487Y-23819I486J-867D01*
G03X-23914Y-23666I-280J-109D01*
G02X-24721Y-23741I-486J866D01*
G37*
G36*
G01X43694Y-23607D02*
G03X43972Y-23909I300J-2D01*
G02X42906Y-24893I-72J-991D01*
G03X42628Y-24591I-300J2D01*
G02X43694Y-23607I72J991D01*
G37*
G36*
G01X-19848Y-28274D02*
G03X-19611Y-28322I136J62D01*
G02X-19592Y-28305I670J-734D01*
G03X-19590Y-27853I-196J227D01*
G02X-18284Y-27860I657J746D01*
G03X-18286Y-28312I196J-227D01*
G02X-18213Y-28382I-657J-745D01*
G03X-17976Y-28360I110J102D01*
G02X-17762Y-29657I842J-527D01*
G03X-18181Y-29696I-190J-232D01*
G02X-18249Y-29769I-761J639D01*
G03Y-29984I105J-107D01*
G02X-19712Y-30067I-693J-712D01*
G03Y-29687I-232J190D01*
G02X-19777Y-29597I769J629D01*
G03X-20197Y-29511I-252J-163D01*
G02X-19848Y-28274I-555J824D01*
G37*
G36*
G01X8979Y-39132D02*
G03X9216I118J92D01*
G02X9291Y-39046I784J-611D01*
G03X9292Y-38626I-214J210D01*
G02X10713Y-38630I712J693D01*
G03X10712Y-39049I214J-210D01*
G02X9307Y-40454I-712J-693D01*
G03X8888I-209J-215D01*
G02X8979Y-39132I-693J712D01*
G37*
G36*
G01X-32065Y-39736D02*
G03X-32251Y-40107I101J-282D01*
G02X-33535Y-39464I-949J-293D01*
G03X-33349Y-39093I-101J282D01*
G02X-32065Y-39736I949J293D01*
G37*
G36*
G01X28734Y-40559D02*
G03Y-40789I96J-115D01*
G02X27367Y-40878I-637J-762D01*
G03Y-40471I-220J203D01*
G02X27408Y-39081I730J674D01*
G03Y-38649I-208J216D01*
G02X28786I689J716D01*
G03Y-39081I208J-216D01*
G02X28864Y-39166I-689J-716D01*
G03X29102Y-39158I116J95D01*
G02X29233Y-40473I804J-584D01*
G03X28813Y-40486I-203J-221D01*
G02X28734Y-40559I-716J689D01*
G37*
G36*
G01X-8747Y-40808D02*
G03X-8760Y-40348I-199J224D01*
G02X-8768Y-40342I615J780D01*
G03X-9177Y-40371I-189J-233D01*
G02X-9281Y-38922I-728J676D01*
G03X-8872Y-38893I189J233D01*
G02X-7484Y-40312I728J-676D01*
G03X-7471Y-40772I199J-224D01*
G02X-8747Y-40808I-616J-780D01*
G37*
G36*
G01X-34886Y-43891D02*
G03Y-44309I216J-209D01*
G02X-36314I-714J-691D01*
G03Y-43891I-216J209D01*
G02X-34886I714J691D01*
G37*
G36*
G01X-37886Y-48791D02*
G03Y-49209I216J-209D01*
G02X-39314I-714J-691D01*
G03Y-48791I-216J209D01*
G02X-37886I714J691D01*
G37*
G36*
G01X17274Y-49401D02*
G03X17444Y-49519I147J30D01*
G02X16626Y-50699I156J-981D01*
G03X16456Y-50581I-147J-30D01*
G02X17274Y-49401I-156J981D01*
G37*
G36*
G01X-45852Y-70250D02*
G03X-46269Y-70273I-197J-226D01*
G02X-46348Y-68850I-731J673D01*
G03X-45931Y-68827I197J226D01*
G02X-45852Y-70250I731J-673D01*
G37*
G36*
G01X71040Y-77960D02*
G03X71017Y-78398I193J-230D01*
G02X69660Y-78326I-717J-688D01*
G03X69683Y-77888I-193J230D01*
G02X71040Y-77960I717J688D01*
G37*
G36*
G01X48538Y-77990D02*
G03X48540Y-78416I212J-213D01*
G02X47142Y-78421I-697J-709D01*
G03X47140Y-77995I-212J213D01*
G02X48538Y-77990I697J709D01*
G37*
G36*
G01X42314Y-78177D02*
G03Y-78595I216J-209D01*
G02X40886I-714J-691D01*
G03Y-78177I-216J209D01*
G02X42314I714J691D01*
G37*
G36*
G01X-41260Y-92180D02*
G03X-41690I-215J-210D01*
G02Y-90791I-710J695D01*
G03X-41260I215J210D01*
G02Y-92180I710J-695D01*
G37*
G36*
G01X66448Y-95636D02*
G03X66252I-98J-113D01*
G02Y-94136I-652J750D01*
G03X66448I98J113D01*
G02Y-95636I652J-750D01*
G37*
G36*
G01X-27021Y-95361D02*
G03X-27462Y-95434I-188J-234D01*
G02X-29134Y-95440I-838J534D01*
G03X-29537Y-95344I-252J-163D01*
G02X-29203Y-93945I-500J859D01*
G03X-28800Y-94041I252J163D01*
G02X-27679Y-94125I500J-859D01*
G03X-27238Y-94052I188J234D01*
G02X-25630Y-93958I838J-534D01*
G03X-25189Y-93984I233J190D01*
G02X-23930Y-93886I689J-716D01*
G03X-23498Y-93790I172J246D01*
G02X-23207Y-95100I861J-496D01*
G03X-23639Y-95196I-172J-246D01*
G02X-25270Y-95328I-861J496D01*
G03X-25711Y-95302I-233J-190D01*
G02X-27021Y-95361I-689J716D01*
G37*
G36*
G01X34310Y-96081D02*
G03Y-96291I107J-105D01*
G02X32890I-710J-695D01*
G03Y-96081I-107J105D01*
G02X34310I710J695D01*
G37*
G36*
G01X-39012Y-112480D02*
G03X-38581Y-112527I238J183D01*
G02X-38728Y-113891I641J-759D01*
G03X-39159Y-113845I-238J-183D01*
G02X-39012Y-112480I-641J759D01*
G37*
G36*
G01X-19601Y-182317D02*
G03X-19199I201J222D01*
G02X-17601I799J-883D01*
G03X-17199I201J222D01*
G02Y-184083I799J-883D01*
G03X-17601I-201J-222D01*
G02X-19199I-799J883D01*
G03X-19601I-201J-222D01*
G02Y-182317I-799J883D01*
G37*
G36*
G01X27203Y-29289D02*
G02X26972Y-28172I-912J394D01*
G03X27453Y-28072I206J218D01*
G02X27684Y-29189I912J-394D01*
G03X27203Y-29289I-206J-218D01*
G37*
G36*
G01X-452Y-33409D02*
G02X-1660Y-33760I-390J-914D01*
G03X-1790Y-33314I-247J170D01*
G02X-581Y-32963I390J914D01*
G03X-452Y-33409I247J-170D01*
G37*
G36*
G01X76444Y-35807D02*
G02X75435Y-36564I-44J-993D01*
G03X75156Y-36193I-291J71D01*
G02X76165Y-35436I44J993D01*
G03X76444Y-35807I291J-71D01*
G37*
G36*
G01X67430Y-39232D02*
G02X66170I-630J-768D01*
G03Y-38768I-190J232D01*
G02X67430I630J768D01*
G03Y-39232I190J-232D01*
G37*
G36*
G01X64230Y-41232D02*
G02X62970I-630J-768D01*
G03Y-40768I-190J232D01*
G02Y-39232I630J768D01*
G03Y-38768I-190J232D01*
G02X64230I630J768D01*
G03Y-39232I190J-232D01*
G02Y-40768I-630J-768D01*
G03Y-41232I190J-232D01*
G37*
G36*
G01X70630Y-42832D02*
G02X69370I-630J-768D01*
G03Y-42368I-190J232D01*
G02Y-40832I630J768D01*
G03Y-40368I-190J232D01*
G02Y-38832I630J768D01*
G03Y-38368I-190J232D01*
G02X70630I630J768D01*
G03Y-38832I190J-232D01*
G02Y-40368I-630J-768D01*
G03Y-40832I190J-232D01*
G02Y-42368I-630J-768D01*
G03Y-42832I190J-232D01*
G37*
G36*
G01X-30023Y-44119D02*
G02X-31980Y-44137I-977J-181D01*
G03X-32305Y-43789I-296J49D01*
G02X-31471Y-43152I-95J989D01*
G03X-31287Y-43349I140J-53D01*
G02X-31209Y-43328I288J-951D01*
G03X-30977Y-42981I-63J293D01*
G02X-29791Y-43772I977J181D01*
G03X-30023Y-44119I63J-293D01*
G37*
G36*
G01X-38089Y-44406D02*
G02X-39434Y-44335I-711J-694D01*
G03X-39411Y-43894I-191J231D01*
G02X-39330Y-42432I711J694D01*
G03Y-41968I-190J232D01*
G02X-38070I630J768D01*
G03Y-42432I190J-232D01*
G02X-38066Y-43965I-630J-768D01*
G03X-38089Y-44406I191J-231D01*
G37*
G36*
G01X67968Y-47030D02*
G02Y-45770I-768J630D01*
G03X68432I232J190D01*
G02X69968I768J-630D01*
G03X70432I232J190D01*
G02Y-47030I768J-630D01*
G03X69968I-232J-190D01*
G02X68432I-768J630D01*
G03X67968I-232J-190D01*
G37*
G36*
G01X9525Y-46629D02*
G02X8785Y-46004I-930J-350D01*
G03X9123Y-45604I57J294D01*
G02X9863Y-46229I930J350D01*
G03X9525Y-46629I-57J-294D01*
G37*
G36*
G01X-43717Y-48322D02*
G02Y-46878I-683J722D01*
G03X-43305I206J218D01*
G02X-42940Y-46659I683J-722D01*
G03X-42796Y-46195I-96J284D01*
G02X-42667Y-44863I796J595D01*
G03X-42690Y-44400I-201J222D01*
G02X-41433Y-44337I590J799D01*
G03X-41410Y-44800I201J-222D01*
G02X-41682Y-46541I-590J-800D01*
G03X-41826Y-47005I96J-284D01*
G02X-43305Y-48322I-796J-595D01*
G03X-43717I-206J-218D01*
G37*
G36*
G01X86Y-48176D02*
G02X-1890Y-48211I-986J-124D01*
G03X-2298Y-47904I-299J27D01*
G02X-1670Y-47068I-362J925D01*
G03X-1262Y-47375I299J-27D01*
G02X-458Y-47410I362J-925D01*
G03X-27Y-47104I133J269D01*
G02X517Y-47869I986J125D01*
G03X86Y-48176I-133J-269D01*
G37*
G36*
G01X2810Y-50224D02*
G02X1780Y-49831I-810J-576D01*
G03X1958Y-49364I-66J293D01*
G02X2988Y-49757I810J576D01*
G03X2810Y-50224I66J-293D01*
G37*
G36*
G01X-20170Y-51632D02*
G02X-21430I-630J-768D01*
G03Y-51168I-190J232D01*
G02X-20170I630J768D01*
G03Y-51632I190J-232D01*
G37*
G36*
G01X32046Y-52598D02*
G02X30847Y-52838I-446J-888D01*
G03X30754Y-52374I-227J196D01*
G02X31953Y-52134I446J888D01*
G03X32046Y-52598I227J-196D01*
G37*
G36*
G01X72942Y-54767D02*
G02X71977Y-54701I-542J-833D01*
G03X72013Y-54178I-128J271D01*
G02X72978Y-54244I542J833D01*
G03X72942Y-54767I128J-271D01*
G37*
G36*
G01X5904Y-55048D02*
G02X5109Y-55843I182J-977D01*
G03X4760Y-55492I-295J55D01*
G02X5554Y-54698I-182J977D01*
G03X5904Y-55048I295J-55D01*
G37*
G36*
G01X-36270Y-55632D02*
G02X-37530I-630J-768D01*
G03Y-55168I-190J232D01*
G02X-36270I630J768D01*
G03Y-55632I190J-232D01*
G37*
G36*
G01X69030Y-56032D02*
G02X67770I-630J-768D01*
G03Y-55568I-190J232D01*
G02X69030I630J768D01*
G03Y-56032I190J-232D01*
G37*
G36*
G01X63030D02*
G02X61770I-630J-768D01*
G03Y-55568I-190J232D01*
G02X63030I630J768D01*
G03Y-56032I190J-232D01*
G37*
G36*
G01X-24570D02*
G02X-25830I-630J-768D01*
G03Y-55568I-190J232D01*
G02Y-54032I630J768D01*
G03Y-53568I-190J232D01*
G02Y-52032I630J768D01*
G03Y-51568I-190J232D01*
G02X-24570I630J768D01*
G03Y-52032I190J-232D01*
G02Y-53568I-630J-768D01*
G03Y-54032I190J-232D01*
G02Y-55568I-630J-768D01*
G03Y-56032I190J-232D01*
G37*
G36*
G01X69568Y-60630D02*
G02Y-59370I-768J630D01*
G03X70032I232J190D01*
G02Y-60630I768J-630D01*
G03X69568I-232J-190D01*
G37*
G36*
G01X-30170Y-59632D02*
G02X-31430I-630J-768D01*
G03Y-59168I-190J232D01*
G02Y-57632I630J768D01*
G03Y-57168I-190J232D01*
G02Y-55632I630J768D01*
G03Y-55168I-190J232D01*
G02Y-53632I630J768D01*
G03Y-53168I-190J232D01*
G02X-30170I630J768D01*
G03Y-53632I190J-232D01*
G02Y-55168I-630J-768D01*
G03Y-55632I190J-232D01*
G02Y-57168I-630J-768D01*
G03Y-57632I190J-232D01*
G02Y-59168I-630J-768D01*
G03Y-59632I190J-232D01*
G37*
G36*
G01X66230Y-60832D02*
G02X64970I-630J-768D01*
G03Y-60368I-190J232D01*
G02X66230I630J768D01*
G03Y-60832I190J-232D01*
G37*
G36*
G01X-61770Y-62432D02*
G02X-63030I-630J-768D01*
G03Y-61968I-190J232D01*
G02X-61770I630J768D01*
G03Y-62432I190J-232D01*
G37*
G36*
G01X76753Y-62952D02*
G02X75554Y-62712I-753J-648D01*
G03X75647Y-62248I-135J268D01*
G02X75435Y-61364I753J648D01*
G03X75156Y-60993I-291J71D01*
G02X76165Y-60236I44J993D01*
G03X76444Y-60607I291J-71D01*
G02X76846Y-62488I-44J-993D01*
G03X76753Y-62952I135J-268D01*
G37*
G36*
G01X-58627Y-63988D02*
G02X-59773I-573J-812D01*
G03Y-63498I-173J245D01*
G02X-58627I573J812D01*
G03Y-63988I173J-245D01*
G37*
G36*
G01X53830Y-65632D02*
G02X52570I-630J-768D01*
G03Y-65168I-190J232D01*
G02Y-63632I630J768D01*
G03Y-63168I-190J232D01*
G02X52478Y-61717I630J768D01*
G03Y-61305I-218J206D01*
G02X52495Y-59922I722J683D01*
G03Y-59500I-213J211D01*
G02X53905I705J700D01*
G03Y-59922I213J-211D01*
G02X53922Y-61305I-706J-700D01*
G03Y-61717I218J-206D01*
G02X53830Y-63168I-722J-683D01*
G03Y-63632I190J-232D01*
G02Y-65168I-630J-768D01*
G03Y-65632I190J-232D01*
G37*
G36*
G01X-48633Y-66863D02*
G02X-49890Y-66800I-667J-737D01*
G03X-49867Y-66337I-178J241D01*
G02X-49698Y-64740I667J737D01*
G03X-49628Y-64276I-150J260D01*
G02X-48588Y-62657I728J676D01*
G03X-48194Y-62378I94J285D01*
G02X-46245Y-62674I993J-22D01*
G03X-45874Y-63045I288J-83D01*
G02X-46555Y-63726I274J-955D01*
G03X-46926Y-63355I-288J83D01*
G02X-47512Y-63343I-274J955D01*
G03X-47906Y-63622I-94J-285D01*
G02X-48402Y-64460I-993J22D01*
G03X-48472Y-64924I150J-260D01*
G02X-48610Y-66400I-728J-676D01*
G03X-48633Y-66863I178J-241D01*
G37*
G36*
G01X-55370Y-69132D02*
G02X-56630I-630J-768D01*
G03Y-68668I-190J232D01*
G02Y-67132I630J768D01*
G03Y-66668I-190J232D01*
G02X-56669Y-65165I630J768D01*
G03Y-64721I-202J222D01*
G02X-55331I669J735D01*
G03Y-65165I202J-222D01*
G02X-55370Y-66668I-669J-735D01*
G03Y-67132I190J-232D01*
G02Y-68668I-630J-768D01*
G03Y-69132I190J-232D01*
G37*
G36*
G01X-48970Y-72032D02*
G02X-50230I-630J-768D01*
G03Y-71568I-190J232D01*
G02X-48970I630J768D01*
G03Y-72032I190J-232D01*
G37*
G36*
G01X78230Y-74432D02*
G02X76970I-630J-768D01*
G03Y-73968I-190J232D01*
G02X78230I630J768D01*
G03Y-74432I190J-232D01*
G37*
G36*
G01X-25968Y-77346D02*
G02X-27032I-532J-839D01*
G03Y-76840I-161J253D01*
G02X-25968I532J840D01*
G03Y-77346I161J-253D01*
G37*
G36*
G01X-29835Y-78095D02*
G02X-31011Y-78074I-602J-791D01*
G03X-31002Y-77591I-173J245D01*
G02X-29826Y-77612I602J791D01*
G03X-29835Y-78095I173J-245D01*
G37*
G36*
G01X-50147Y-78086D02*
G02X-51404Y-78149I-590J-799D01*
G03X-51427Y-77685I-201J222D01*
G02X-50170Y-77622I590J799D01*
G03X-50147Y-78086I201J-222D01*
G37*
G36*
G01X-22020Y-78279D02*
G02X-23180I-581J-806D01*
G03Y-77792I-175J244D01*
G02X-22020I581J807D01*
G03Y-78279I175J-243D01*
G37*
G36*
G01X30460Y-78665D02*
G02X29417Y-78617I-560J-821D01*
G03X29440Y-78107I-146J262D01*
G02X30483Y-78154I560J821D01*
G03X30460Y-78665I146J-262D01*
G37*
G36*
G01X69236Y-83037D02*
G02Y-81963I-836J537D01*
G03X69741I252J162D01*
G02Y-83037I836J-537D01*
G03X69236I-252J-162D01*
G37*
G36*
G01X-60214Y-84925D02*
G02X-60650Y-83973I-986J125D01*
G03X-60186Y-83761I166J250D01*
G02X-59750Y-84713I986J-125D01*
G03X-60214Y-84925I-166J-250D01*
G37*
G36*
G01X64561Y-85982D02*
G02X64452Y-84836I-861J496D01*
G03X64939Y-84790I227J196D01*
G02X65048Y-85935I861J-496D01*
G03X64561Y-85982I-227J-196D01*
G37*
G36*
G01X59168Y-86116D02*
G02Y-84855I-768J630D01*
G03X59632I232J190D01*
G02Y-86116I768J-630D01*
G03X59168I-232J-190D01*
G37*
G36*
G01X51568Y-86230D02*
G02Y-84970I-768J630D01*
G03X52032I232J190D01*
G02Y-86230I768J-630D01*
G03X51568I-232J-190D01*
G37*
G36*
G01X43938Y-89134D02*
G02X43875Y-87978I-838J534D01*
G03X44362Y-87952I234J188D01*
G02X44425Y-89108I838J-534D01*
G03X43938Y-89134I-234J-188D01*
G37*
G36*
G01X-18418Y-91036D02*
G02X-18472Y-92077I818J-564D01*
G03X-18982Y-92050I-263J-144D01*
G02X-18928Y-91009I-818J564D01*
G03X-18418Y-91036I263J144D01*
G37*
G36*
G01X62636Y-91367D02*
G02X62227Y-92390I564J-818D01*
G03X61764Y-92204I-294J-62D01*
G02X62173Y-91182I-564J818D01*
G03X62636Y-91367I294J62D01*
G37*
G36*
G01X-40158Y-95213D02*
G02X-41888Y-95132I-842J527D01*
G03X-42352Y-95039I-268J-135D01*
G02X-42112Y-93840I-648J753D01*
G03X-41648Y-93933I268J135D01*
G02X-40460Y-93852I648J-753D01*
G03X-40042Y-93759I163J252D01*
G02X-39740Y-95120I843J-527D01*
G03X-40158Y-95213I-163J-252D01*
G37*
G36*
G01X-49232Y-95316D02*
G02Y-94055I-768J630D01*
G03X-48768I232J190D01*
G02X-47232I768J-630D01*
G03X-46768I232J190D01*
G02Y-95316I768J-630D01*
G03X-47232I-232J-190D01*
G02X-48768I-768J630D01*
G03X-49232I-232J-190D01*
G37*
G36*
G01X62201Y-94263D02*
G02X62143Y-95267I827J-551D01*
G03X61627Y-95237I-267J-137D01*
G02X61685Y-94233I-827J551D01*
G03X62201Y-94263I267J137D01*
G37*
G36*
G01X-32642Y-147107D02*
G02X-34307Y-145442I-959J707D01*
G03Y-144958I-178J242D01*
G02X-32642Y-143293I707J959D01*
G03X-32158I242J178D01*
G02X-30242I959J-707D01*
G03X-29758I242J178D01*
G02X-27842I958J-707D01*
G03X-27358I242J178D01*
G02X-25442I958J-707D01*
G03X-24958I242J178D01*
G02X-23042I959J-707D01*
G03X-22558I242J178D01*
G02X-20893Y-144958I959J-707D01*
G03Y-145442I178J-241D01*
G02X-22558Y-147107I-707J-958D01*
G03X-23042I-242J-178D01*
G02X-24958I-958J707D01*
G03X-25442I-242J-178D01*
G02X-27358I-959J707D01*
G03X-27842I-242J-178D01*
G02X-29758I-959J707D01*
G03X-30242I-242J-178D01*
G02X-32158I-958J707D01*
G03X-32642I-242J-178D01*
G37*
G36*
G01X1758Y-202307D02*
G02X93Y-200642I-958J707D01*
G03Y-200158I-178J242D01*
G02X1758Y-198493I707J958D01*
G03X2242I242J178D01*
G02X4158I958J-707D01*
G03X4642I241J178D01*
G02X6307Y-200158I959J-707D01*
G03Y-200642I178J-242D01*
G02X4642Y-202307I-707J-958D01*
G03X4158I-242J-178D01*
G02X2242I-959J707D01*
G03X1758I-242J-178D01*
G37*
G36*
G01Y-211107D02*
G02X93Y-209442I-958J707D01*
G03Y-208958I-178J242D01*
G02Y-207042I707J958D01*
G03Y-206558I-178J242D01*
G02X1758Y-204893I707J958D01*
G03X2242I242J178D01*
G02X3907Y-206558I958J-707D01*
G03Y-207042I178J-242D01*
G02Y-208958I-707J-958D01*
G03Y-209442I178J-242D01*
G02X2242Y-211107I-707J-958D01*
G03X1758I-242J-178D01*
G37*
G36*
G01X-12456Y24711D02*
G03X-12062Y24525I285J94D01*
G02X-12644Y23289I362J-925D01*
G03X-13038Y23475I-285J-94D01*
G02X-12456Y24711I-362J925D01*
G37*
G36*
G01X-21864Y24335D02*
G03X-21493Y24149I282J101D01*
G02X-22136Y22865I293J-949D01*
G03X-22507Y23051I-282J-101D01*
G02X-21864Y24335I-293J949D01*
G37*
G36*
G01X-18706Y20495D02*
G03X-18405Y20194I300J-1D01*
G02X-19394Y19205I5J-994D01*
G03X-19695Y19506I-300J1D01*
G02X-18706Y20495I-5J994D01*
G37*
G36*
G01X-113685Y-5890D02*
G03X-114010Y-6215I-26J-299D01*
G02X-114915Y-5310I-990J-85D01*
G03X-114590Y-4985I26J299D01*
G02X-113685Y-5890I990J85D01*
G37*
G36*
G01X-156696Y-121979D02*
G03Y-122421I203J-221D01*
G02X-158304I-804J-879D01*
G03Y-121979I-203J221D01*
G02Y-120221I804J879D01*
G03Y-119779I-203J221D01*
G02X-156696I804J879D01*
G03Y-120221I203J-221D01*
G02Y-121979I-804J-879D01*
G37*
G36*
G01X-113690Y-125495D02*
G03Y-125705I107J-105D01*
G02X-115110I-710J-695D01*
G03Y-125495I-107J105D01*
G02X-113690I710J695D01*
G37*
G36*
G01X-156655Y-130339D02*
G03Y-130761I213J-211D01*
G02X-158345I-845J-839D01*
G03Y-130339I-213J211D01*
G02Y-128661I845J839D01*
G03Y-128239I-213J211D01*
G02X-156655I845J839D01*
G03Y-128661I213J-211D01*
G02Y-130339I-845J-839D01*
G37*
G36*
G01X-116399Y-174083D02*
G03X-116801I-201J-222D01*
G02Y-172317I-799J883D01*
G03X-116399I201J222D01*
G02Y-174083I799J-883D01*
G37*
G36*
G01X-54170Y24368D02*
G02X-55430I-630J-768D01*
G03Y24832I-190J232D01*
G02X-54170I630J768D01*
G03Y24368I190J-232D01*
G37*
G36*
G01X-109647Y648D02*
G02X-110846Y888I-753J-648D01*
G03X-110753Y1352I-135J268D01*
G02X-109554Y1112I753J648D01*
G03X-109647Y648I135J-268D01*
G37*
G36*
G01X-98432Y-2230D02*
G02Y-970I-768J630D01*
G03X-97968I232J190D01*
G02Y-2230I768J-630D01*
G03X-98432I-232J-190D01*
G37*
G36*
G01X-124354Y-13112D02*
G02X-125553Y-13352I-446J-888D01*
G03X-125646Y-12888I-227J196D01*
G02X-124447Y-12648I446J888D01*
G03X-124354Y-13112I227J-196D01*
G37*
G36*
G01X-159182Y-106636D02*
G02X-160204Y-106227I-818J-564D01*
G03X-160018Y-105764I-62J294D01*
G02X-158996Y-106173I818J564D01*
G03X-159182Y-106636I62J-294D01*
G37*
G36*
G01X-171442Y-127107D02*
G02X-173107Y-125442I-958J707D01*
G03Y-124959I-178J242D01*
G02Y-123042I707J959D01*
G03Y-122559I-178J242D01*
G02X-171442Y-120893I707J959D01*
G03X-170958I242J178D01*
G02X-169293Y-122559I959J-707D01*
G03Y-123042I178J-241D01*
G02Y-124959I-707J-958D01*
G03Y-125442I178J-241D01*
G02X-169241Y-125483I-707J-959D01*
G03X-168758Y-125322I191J231D01*
G02X-166642Y-124893I1158J-278D01*
G03X-166158I241J178D01*
G02Y-126307I958J-707D01*
G03X-166642I-242J-178D01*
G02X-168359Y-126517I-959J707D01*
G03X-168842Y-126678I-191J-231D01*
G02X-170958Y-127107I-1158J278D01*
G03X-171442I-241J-178D01*
G37*
G36*
G01X-123632Y-132630D02*
G02X-125030Y-131232I-768J630D01*
G03Y-130768I-190J232D01*
G02Y-129232I630J768D01*
G03Y-128768I-190J232D01*
G02X-125095Y-128710I630J768D01*
G03X-125305I-105J-107D01*
G02X-126768Y-128630I-695J710D01*
G03X-127232I-232J-190D01*
G02X-128768I-768J630D01*
G03X-129232I-232J-190D01*
G02Y-127370I-768J630D01*
G03X-128768I232J190D01*
G02X-127232I768J-630D01*
G03X-126768I232J190D01*
G02X-125305Y-127290I768J-630D01*
G03X-125095I105J107D01*
G02X-123632Y-127370I695J-710D01*
G03X-123168I232J190D01*
G02X-121632I768J-630D01*
G03X-121168I232J190D01*
G02X-119632I768J-630D01*
G03X-119168I232J190D01*
G02X-117770Y-128768I768J-630D01*
G03Y-129232I190J-232D01*
G02Y-130768I-630J-768D01*
G03Y-131232I190J-232D01*
G02X-119168Y-132630I-630J-768D01*
G03X-119632I-232J-190D01*
G02X-121168I-768J630D01*
G03X-121632I-232J-190D01*
G02X-123168I-768J630D01*
G03X-123632I-232J-190D01*
G37*
G36*
G01X-112950Y-140962D02*
G02X-115191Y-140391I-1050J562D01*
G03X-115609Y-140114I-300J2D01*
G02X-115010Y-139115I-391J913D01*
G03X-114568Y-139353I299J26D01*
G02X-112950Y-139838I568J-1047D01*
G03X-112434Y-139860I264J142D01*
G02Y-140940I834J-540D01*
G03X-112950Y-140962I-252J-163D01*
G37*
G36*
G01X-109035Y-146164D02*
G02X-110044Y-145407I-965J-236D01*
G03X-109765Y-145036I-13J300D01*
G02X-108757Y-145793I965J236D01*
G03X-109035Y-146164I13J-300D01*
G37*
G36*
G01X-108641Y-181107D02*
G02Y-179693I-959J707D01*
G03X-108158I241J178D01*
G02X-108039Y-179555I959J-706D01*
G03X-108119Y-179072I-211J213D01*
G02X-106801Y-177117I519J1072D01*
G03X-106399I201J222D01*
G02X-104642Y-177293I799J-883D01*
G03X-104158I242J178D01*
G02Y-178707I958J-707D01*
G03X-104642I-242J-178D01*
G02X-104761Y-178845I-959J706D01*
G03X-104681Y-179328I211J-213D01*
G02X-105999Y-181283I-519J-1072D01*
G03X-106401I-201J-222D01*
G02X-108158Y-181107I-799J883D01*
G03X-108641I-242J-178D01*
G37*
G36*
G01X-158978Y-148890D02*
G02Y-144540I0J2175D01*
G01X-156222D01*
G02Y-148890I0J-2175D01*
G01X-158978D01*
G37*
G36*
G01Y-168575D02*
G02Y-164225I0J2175D01*
G01X-156222D01*
G02Y-168575I0J-2175D01*
G01X-158978D01*
G37*
G36*
G01Y-188260D02*
G02Y-183910I0J2175D01*
G01X-156222D01*
G02Y-188260I0J-2175D01*
G01X-158978D01*
G37*
G36*
G01X29095Y-199290D02*
G03X29305I105J107D01*
G02Y-200710I695J-710D01*
G03X29095I-105J-107D01*
G02Y-199290I-695J710D01*
G37*
G36*
G01X23095Y-214890D02*
G03X23305I105J107D01*
G02Y-216310I695J-710D01*
G03X23095I-105J-107D01*
G02Y-214890I-695J710D01*
G37*
G36*
G01X-100490Y-215495D02*
G03Y-215705I107J-105D01*
G02X-101910I-710J-695D01*
G03Y-215495I-107J105D01*
G02X-100490I710J695D01*
G37*
G36*
G01X-87290Y-217495D02*
G03Y-217705I107J-105D01*
G02X-88710I-710J-695D01*
G03Y-217495I-107J105D01*
G02X-87290I710J695D01*
G37*
G36*
G01X-111999Y-219683D02*
G03X-112401I-201J-222D01*
G02Y-217917I-799J883D01*
G03X-111999I201J222D01*
G02Y-219683I799J-883D01*
G37*
G36*
G01X-55494Y-232251D02*
G03X-55389Y-232094I-44J143D01*
G02X-54106Y-232949I989J94D01*
G03X-54211Y-233107I44J-143D01*
G02X-55494Y-232251I-989J-94D01*
G37*
G36*
G01X-146564Y77218D02*
G02X-146973Y76196I564J-818D01*
G03X-147436Y76382I-294J-62D01*
G02X-147027Y77404I-564J818D01*
G03X-146564Y77218I294J62D01*
G37*
G36*
G01X-190032Y6970D02*
G02Y8230I-768J630D01*
G03X-189568I232J190D01*
G02Y6970I768J-630D01*
G03X-190032I-232J-190D01*
G37*
G36*
G01X-48555Y-198123D02*
G02Y-197077I-845J523D01*
G03X-48045I255J158D01*
G02Y-198123I845J-523D01*
G03X-48555I-255J-158D01*
G37*
G36*
G01X-71201Y-204083D02*
G02Y-202317I-799J883D01*
G03X-70799I201J222D01*
G02X-69042Y-202493I799J-883D01*
G03X-68558I241J178D01*
G02X-68307Y-202242I958J-707D01*
G03Y-201758I-178J242D01*
G02X-66420Y-200963I707J958D01*
G03X-66018Y-201285I297J-41D01*
G02X-66093Y-203484I418J-1115D01*
G03X-66496Y-203645I-124J-273D01*
G02X-68558Y-203907I-1105J445D01*
G03X-69042I-242J-178D01*
G02X-70799Y-204083I-959J707D01*
G03X-71201I-201J-222D01*
G37*
G36*
G01X29568Y-204630D02*
G02Y-203370I-768J630D01*
G03X30032I232J190D01*
G02Y-204630I768J-630D01*
G03X29568I-232J-190D01*
G37*
G36*
G01X-63632Y-207030D02*
G02Y-205770I-768J630D01*
G03X-63168I232J190D01*
G02X-61632I768J-630D01*
G03X-61168I232J190D01*
G02Y-207030I768J-630D01*
G03X-61632I-232J-190D01*
G02X-63168I-768J630D01*
G03X-63632I-232J-190D01*
G37*
G36*
G01X14959Y-210307D02*
G02X13293Y-208642I-959J707D01*
G03Y-208158I-178J242D01*
G02X14959Y-206493I707J958D01*
G03X15442I241J178D01*
G02X17107Y-208158I959J-707D01*
G03Y-208642I178J-242D01*
G02X15442Y-210307I-707J-958D01*
G03X14959I-242J-178D01*
G37*
G36*
G01X-93074Y-214645D02*
G02X-93755Y-215326I274J-955D01*
G03X-94126Y-214955I-288J83D01*
G02X-95095Y-214710I-274J955D01*
G03X-95305I-105J-107D01*
G02Y-213290I-695J710D01*
G03X-95095I105J107D01*
G02X-93445Y-214274I695J-710D01*
G03X-93074Y-214645I288J-83D01*
G37*
G36*
G01X-98242Y-220707D02*
G02Y-219293I-958J707D01*
G03X-97758I242J178D01*
G02X-95842I959J-707D01*
G03X-95358I241J178D01*
G02Y-220707I958J-707D01*
G03X-95842I-242J-178D01*
G02X-97758I-958J707D01*
G03X-98242I-241J-178D01*
G37*
G36*
G01X-76512Y-222365D02*
G02X-76571Y-220955I-988J665D01*
G03X-76088Y-220935I234J188D01*
G02X-76029Y-222345I988J-665D01*
G03X-76512Y-222365I-234J-188D01*
G37*
G36*
G01X-77872Y-228446D02*
G02X-78609Y-227825I-928J-355D01*
G03X-78279Y-227404I58J294D01*
G02X-76358Y-226058I1079J504D01*
G03X-75915Y-226038I212J212D01*
G02X-75842Y-227642I915J-762D01*
G03X-76285Y-227662I-212J-212D01*
G02X-77513Y-228049I-915J762D01*
G03X-77872Y-228446I-79J-289D01*
G37*
G36*
G01X-51439Y-232946D02*
G02X-52209Y-232225I-961J-254D01*
G03X-51861Y-231854I58J294D01*
G02X-51091Y-232575I961J254D01*
G03X-51439Y-232946I-58J-294D01*
G37*
G36*
G01X-96093Y-233042D02*
G02X-97507I-707J-958D01*
G03Y-232559I-178J242D01*
G02X-96093I707J959D01*
G03Y-233042I178J-241D01*
G37*
G36*
G01X-123601Y-234883D02*
G02X-124919Y-232928I-799J883D01*
G03X-124839Y-232445I-131J270D01*
G02X-123201Y-230717I839J845D01*
G03X-122799I201J222D01*
G02X-121684Y-232748I799J-883D01*
G03X-121729Y-233016I40J-145D01*
G02X-121601Y-233117I-671J-984D01*
G03X-121199I201J222D01*
G02Y-234883I799J-883D01*
G03X-121601I-201J-222D01*
G02X-123199I-799J883D01*
G03X-123601I-201J-222D01*
G37*
G36*
G01X959Y-235507D02*
G02X-707Y-233842I-959J707D01*
G03Y-233359I-178J242D01*
G02X959Y-231693I707J959D01*
G03X1442I241J178D01*
G02X3199Y-231517I959J-707D01*
G03X3601I201J222D01*
G02X5107Y-233359I799J-883D01*
G03Y-233842I178J-241D01*
G02X3601Y-235683I-707J-959D01*
G03X3199I-201J-222D01*
G02X1442Y-235507I-799J883D01*
G03X959I-241J-178D01*
G37*
G36*
G01X-6401Y-235683D02*
G02X-7907Y-233842I-799J883D01*
G03Y-233359I-178J242D01*
G02X-6401Y-231517I707J959D01*
G03X-5999I201J222D01*
G02X-4401I799J-883D01*
G03X-3999I201J222D01*
G02X-2493Y-233359I799J-883D01*
G03Y-233842I178J-241D01*
G02X-3999Y-235683I-707J-959D01*
G03X-4401I-201J-222D01*
G02X-5999I-799J883D01*
G03X-6401I-201J-222D01*
G37*
G36*
G01X-30090Y-238505D02*
G02X-31510I-710J-695D01*
G03Y-238295I-107J105D01*
G02X-31783Y-237743I710J695D01*
G03X-32104Y-237487I-297J-43D01*
G02X-32674Y-237392I-95J1187D01*
G03X-33073Y-237559I-119J-275D01*
G02X-34695Y-237910I-927J359D01*
G03X-34905I-105J-107D01*
G02X-36521Y-237572I-695J710D01*
G03X-37041Y-237506I-278J-112D01*
G02X-36864Y-236443I-959J706D01*
G03X-36351Y-236549I286J90D01*
G02X-34905Y-236490I751J-651D01*
G03X-34695I105J107D01*
G02X-33731Y-236243I695J-710D01*
G03X-33358Y-236024I81J289D01*
G02X-31009Y-236308I1158J-276D01*
G03X-30730Y-236609I300J-2D01*
G02X-30090Y-238295I-70J-991D01*
G03Y-238505I107J-105D01*
G37*
G36*
G01X-126893Y-239042D02*
G02X-128307I-707J-958D01*
G03Y-238559I-178J242D01*
G02X-126893I707J959D01*
G03Y-239042I178J-241D01*
G37*
G36*
G01X15895Y84710D02*
G03X16105I105J107D01*
G02Y83290I695J-710D01*
G03X15895I-105J-107D01*
G02Y84710I-695J710D01*
G37*
G36*
G01X-57678Y68517D02*
G03Y68105I218J-206D01*
G02X-59122I-722J-683D01*
G03Y68517I-218J206D01*
G02X-57678I722J683D01*
G37*
G36*
G01X-29286Y56909D02*
G03Y56491I216J-209D01*
G02X-30714I-714J-691D01*
G03Y56909I-216J209D01*
G02X-29286I714J691D01*
G37*
G36*
G01X36917Y48340D02*
G03X36505I-206J-218D01*
G02Y49784I-683J722D01*
G03X36917I206J218D01*
G02Y48340I683J-722D01*
G37*
G36*
G01X23922Y46695D02*
G03Y46283I218J-206D01*
G02X22478I-722J-683D01*
G03Y46695I-218J206D01*
G02X23922I722J683D01*
G37*
G36*
G01X-14636Y80565D02*
G02X-15393Y79557I236J-965D01*
G03X-15764Y79835I-300J-13D01*
G02X-16965Y81036I-236J965D01*
G03X-17244Y81407I-291J71D01*
G02X-18165Y82636I44J993D01*
G03X-18444Y83007I-291J71D01*
G02X-17435Y83764I44J993D01*
G03X-17156Y83393I291J-71D01*
G02X-16235Y82164I-44J-993D01*
G03X-15957Y81793I291J-71D01*
G02X-15007Y80844I-43J-993D01*
G03X-14636Y80565I300J13D01*
G37*
G36*
G01X-20432Y72170D02*
G02Y73430I-768J630D01*
G03X-19968I232J190D01*
G02Y72170I768J-630D01*
G03X-20432I-232J-190D01*
G37*
G36*
G01X-19454Y69361D02*
G02X-20175Y68591I254J-961D01*
G03X-20546Y68939I-294J58D01*
G02X-19825Y69709I-254J961D01*
G03X-19454Y69361I294J-58D01*
G37*
G36*
G01X-18570Y63968D02*
G02X-19830I-630J-768D01*
G03Y64432I-190J232D01*
G02X-18570I630J768D01*
G03Y63968I190J-232D01*
G37*
G36*
G01X-148642Y57293D02*
G02Y58707I-958J707D01*
G03X-148159I242J178D01*
G02Y57293I959J-707D01*
G03X-148642I-241J-178D01*
G37*
G36*
G01X-102493Y54159D02*
G02X-103907I-707J-959D01*
G03Y54642I-178J241D01*
G02X-102493I707J959D01*
G03Y54159I178J-241D01*
G37*
G36*
G01X-151442Y6493D02*
G02Y7907I-958J707D01*
G03X-150959I242J178D01*
G02X-149042I959J-707D01*
G03X-148559I242J178D01*
G02X-146642I959J-707D01*
G03X-146158I242J178D01*
G02X-144242I959J-707D01*
G03X-143758I242J178D01*
G02Y6493I959J-707D01*
G03X-144242I-241J-178D01*
G02X-146158I-958J707D01*
G03X-146642I-241J-178D01*
G02X-148559I-958J707D01*
G03X-149042I-241J-178D01*
G02X-150959I-958J707D01*
G03X-151442I-241J-178D01*
G37*
G36*
G01X-33815Y9587D02*
G03X-33978Y9981I-276J117D01*
G02X-32685Y10513I378J919D01*
G03X-32522Y10119I276J-117D01*
G02X-33815Y9587I-378J-919D01*
G37*
G36*
G01X-40264Y9935D02*
G03X-39893Y9749I282J101D01*
G02X-40536Y8465I293J-949D01*
G03X-40907Y8651I-282J-101D01*
G02X-40264Y9935I-293J949D01*
G37*
G36*
G01X-23941Y2782D02*
G03X-24087Y2393I130J-271D01*
G02X-25429Y2896I-913J-393D01*
G03X-25283Y3286I-130J271D01*
G02X-23941Y2782I913J393D01*
G37*
G36*
G01X-21156Y-848D02*
G03X-21346Y-908I-61J-137D01*
G02X-21796Y508I-854J508D01*
G03X-21606Y568I61J137D01*
G02X-21156Y-848I854J-508D01*
G37*
G36*
G01X-42432Y170D02*
G02Y1430I-768J630D01*
G03X-41968I232J190D01*
G02Y170I768J-630D01*
G03X-42432I-232J-190D01*
G37*
G36*
G01X-10711Y-2008D02*
G02X-12635Y-1764I-989J-92D01*
G03X-12983Y-1370I-282J101D01*
G02X-12265Y-736I-217J970D01*
G03X-11917Y-1130I282J-101D01*
G02X-11844Y-1117I217J-970D01*
G03X-11589Y-792I-44J297D01*
G02X-10456Y-1683I989J92D01*
G03X-10711Y-2008I44J-297D01*
G37*
G36*
G01X-107294Y-28181D02*
G02Y-27020I-806J581D01*
G03X-106806I243J175D01*
G02Y-28181I806J-581D01*
G03X-107294I-243J-175D01*
G37*
G36*
G01X-112832Y-31030D02*
G02Y-29770I-768J630D01*
G03X-112368I232J190D01*
G02Y-31030I768J-630D01*
G03X-112832I-232J-190D01*
G37*
G36*
G01X-73156Y-33807D02*
G02X-74165Y-34564I-44J-993D01*
G03X-74444Y-34193I-291J71D01*
G02X-73435Y-33436I44J993D01*
G03X-73156Y-33807I291J-71D01*
G37*
G36*
G01X-115764Y-38382D02*
G02X-116173Y-39404I564J-818D01*
G03X-116636Y-39218I-294J-62D01*
G02X-116227Y-38196I-564J818D01*
G03X-115764Y-38382I294J62D01*
G37*
G36*
G01X-69370Y-40432D02*
G02X-70630I-630J-768D01*
G03Y-39968I-190J232D01*
G02X-70888Y-39646I630J768D01*
G03X-71352Y-39553I-268J-135D01*
G02X-72964Y-38558I-648J753D01*
G03X-73219Y-38187I-291J73D01*
G02X-72136Y-37442I119J987D01*
G03X-71881Y-37813I291J-73D01*
G02X-71112Y-38354I-119J-987D01*
G03X-70648Y-38447I268J135D01*
G02X-70630Y-38432I647J-754D01*
G03Y-37968I-190J232D01*
G02X-69370I630J768D01*
G03Y-38432I190J-232D01*
G02Y-39968I-630J-768D01*
G03Y-40432I190J-232D01*
G37*
G36*
G01X-109370D02*
G02X-110630I-630J-768D01*
G03Y-39968I-190J232D01*
G02X-109370I630J768D01*
G03Y-40432I190J-232D01*
G37*
G36*
G01X-28735Y109167D02*
G03X-28949Y109538I-289J81D01*
G02X-27743Y110233I249J962D01*
G03X-27529Y109862I289J-81D01*
G02X-27095Y109622I-249J-962D01*
G03X-26683I206J218D01*
G02X-25758Y109864I683J-722D01*
G03X-25387Y110119I73J291D01*
G02X-24642Y109036I987J-119D01*
G03X-25013Y108781I-73J-291D01*
G02X-26683Y108178I-987J119D01*
G03X-27095I-206J-218D01*
G02X-28735Y109167I-683J722D01*
G37*
G36*
G01X-84928Y105718D02*
G03X-84482Y105605I270J130D01*
G02X-84737Y104265I582J-805D01*
G03X-85193Y104324I-253J-162D01*
G02X-84928Y105718I-807J876D01*
G37*
G36*
G01X-9535Y105336D02*
G03X-9349Y105707I-101J282D01*
G02X-8065Y105064I949J293D01*
G03X-8251Y104693I101J-282D01*
G02X-9883Y103678I-949J-293D01*
G03X-10295I-206J-218D01*
G02X-11940Y104651I-683J722D01*
G03X-12176Y105022I-290J76D01*
G02X-11039Y105749I177J978D01*
G03X-10802Y105378I290J-76D01*
G02X-10295Y105122I-177J-978D01*
G03X-9883I206J218D01*
G02X-9535Y105336I683J-722D01*
G37*
G36*
G01X-93630Y103492D02*
G03X-93660Y103063I194J-229D01*
G02X-95140I-740J-663D01*
G03X-95170Y103492I-224J200D01*
G02X-93630I770J908D01*
G37*
G36*
G01X-120355Y103561D02*
G03Y103139I213J-211D01*
G02X-122045I-845J-839D01*
G03Y103561I-213J211D01*
G02X-120355I845J839D01*
G37*
G36*
G01X-101517Y103201D02*
G03Y102799I222J-201D01*
G02X-103283I-883J-799D01*
G03Y103201I-222J201D01*
G02X-101517I883J799D01*
G37*
G36*
G01X130647Y53251D02*
G03X130253I-197J-226D01*
G02Y54749I-653J749D01*
G03X130647I197J226D01*
G02Y53251I653J-749D01*
G37*
G36*
G01X124011Y53086D02*
G03X123640Y52970I-117J-276D01*
G02X123189Y54414I-840J530D01*
G03X123560Y54530I117J276D01*
G02X124011Y53086I840J-530D01*
G37*
G36*
G01X136115Y52210D02*
G03X136043Y51758I155J-257D01*
G02X134774Y51961I-754J-647D01*
G03X134846Y52413I-155J257D01*
G02X136115Y52210I754J647D01*
G37*
G36*
G01X146001Y23117D02*
G03X145599I-201J-222D01*
G02Y24883I-799J883D01*
G03X146001I201J222D01*
G02X147599I799J-883D01*
G03X148001I201J222D01*
G02X149599I799J-883D01*
G03X150001I201J222D01*
G02X151599I799J-883D01*
G03X152001I201J222D01*
G02X153599I799J-883D01*
G03X154001I201J222D01*
G02Y23117I799J-883D01*
G03X153599I-201J-222D01*
G02X152001I-799J883D01*
G03X151599I-201J-222D01*
G02X150001I-799J883D01*
G03X149599I-201J-222D01*
G02X148001I-799J883D01*
G03X147599I-201J-222D01*
G02X146001I-799J883D01*
G37*
G36*
G01X176001Y21917D02*
G03X175599I-201J-222D01*
G02Y23683I-799J883D01*
G03X176001I201J222D01*
G02X177599I799J-883D01*
G03X178001I201J222D01*
G02Y21917I799J-883D01*
G03X177599I-201J-222D01*
G02X176001I-799J883D01*
G37*
G36*
G01X155231Y5547D02*
G03X155271Y5084I209J-215D01*
G02X153769Y4953I-671J-984D01*
G03X153729Y5416I-209J215D01*
G02X153213Y6491I671J984D01*
G03X152891Y6813I-299J23D01*
G02X153987Y7909I-91J1187D01*
G03X154309Y7587I299J-23D01*
G02X155231Y5547I91J-1187D01*
G37*
G36*
G01X136144Y-15289D02*
G03X136538Y-15475I285J94D01*
G02X135956Y-16711I362J-925D01*
G03X135562Y-16525I-285J-94D01*
G02X136144Y-15289I-362J925D01*
G37*
G36*
G01X176592Y-35142D02*
G03X176942Y-35420I299J18D01*
G02X176117Y-36458I167J-980D01*
G03X175767Y-36180I-299J-18D01*
G02X176592Y-35142I-167J980D01*
G37*
G36*
G01X166587Y-46382D02*
G03X166170Y-46429I-185J-236D01*
G02X166013Y-45018I-770J629D01*
G03X166430Y-44972I185J236D01*
G02X166587Y-46382I770J-629D01*
G37*
G36*
G01X194589Y-48000D02*
G03X194496Y-48371I178J-242D01*
G02X193011Y-48000I-896J-429D01*
G03X193104Y-47629I-178J242D01*
G02X194589Y-48000I896J429D01*
G37*
G36*
G01X128801Y-218083D02*
G03X128399I-201J-222D01*
G02Y-216317I-799J883D01*
G03X128801I201J222D01*
G02Y-218083I799J-883D01*
G37*
G36*
G01X-22695Y103278D02*
G02X-24367Y104094I-683J722D01*
G03X-24790Y104395I-299J28D01*
G02X-24211Y105206I-410J905D01*
G03X-23788Y104905I299J-28D01*
G02X-22695Y104722I410J-905D01*
G03X-22283I206J218D01*
G02X-21744Y104983I683J-722D01*
G03X-21489Y105308I-44J297D01*
G02X-19510Y105310I989J92D01*
G03X-19250Y104985I299J-27D01*
G02X-18695Y104722I-128J-985D01*
G03X-18283I206J218D01*
G02X-17668Y104991I683J-722D01*
G03X-17390Y105316I-21J299D01*
G02X-16332Y104409I990J84D01*
G03X-16610Y104084I21J-299D01*
G02X-18283Y103278I-990J-84D01*
G03X-18695I-206J-218D01*
G02X-20231Y103491I-683J722D01*
G03X-20747I-258J-154D01*
G02X-22283Y103278I-853J509D01*
G03X-22695I-206J-218D01*
G37*
G36*
G01X-112642Y101593D02*
G02X-114445Y103139I-959J707D01*
G03Y103561I-213J211D01*
G02X-112642Y105107I845J839D01*
G03X-112158I241J178D01*
G02X-110355Y103561I959J-707D01*
G03Y103139I213J-211D01*
G02X-112158Y101593I-845J-839D01*
G03X-112642I-242J-178D01*
G37*
G36*
G01X-32170Y102768D02*
G02X-33430I-630J-768D01*
G03Y103232I-190J232D01*
G02X-32170I630J768D01*
G03Y102768I190J-232D01*
G37*
G36*
G01X-15438Y100651D02*
G02X-16576Y101378I-961J-251D01*
G03X-16340Y101749I-53J295D01*
G02X-14695Y102722I961J251D01*
G03X-14283I206J218D01*
G02X-12607Y102044I683J-722D01*
G03X-12236Y101765I300J13D01*
G02X-12993Y100756I236J-965D01*
G03X-13364Y101035I-300J-13D01*
G02X-14283Y101278I-236J965D01*
G03X-14695I-206J-218D01*
G02X-15201Y101022I-683J722D01*
G03X-15438Y100651I53J-295D01*
G37*
G36*
G01X39355Y98674D02*
G02X38674Y99355I-955J-274D01*
G03X39045Y99726I83J288D01*
G02X39726Y99045I955J274D01*
G03X39355Y98674I-83J-288D01*
G37*
G36*
G01X38158Y94493D02*
G02Y95907I-959J707D01*
G03X38642I242J178D01*
G02Y94493I959J-707D01*
G03X38158I-242J-178D01*
G37*
G36*
G01X-42847Y90648D02*
G02X-44046Y90888I-753J-648D01*
G03X-43953Y91352I-135J268D01*
G02X-43830Y92768I753J648D01*
G03Y93232I-190J232D01*
G02X-42570I630J768D01*
G03Y92768I190J-232D01*
G02X-42754Y91112I-630J-768D01*
G03X-42847Y90648I135J-268D01*
G37*
G36*
G01X68230Y82768D02*
G02X66970I-630J-768D01*
G03Y83232I-190J232D01*
G02Y84768I630J768D01*
G03Y85232I-190J232D01*
G02X68230I630J768D01*
G03Y84768I190J-232D01*
G02Y83232I-630J-768D01*
G03Y82768I190J-232D01*
G37*
G36*
G01X167168Y51578D02*
G02X166921Y52483I-968J222D01*
G03X167432Y52623I218J206D01*
G02X167679Y51717I968J-222D01*
G03X167168Y51578I-218J-206D01*
G37*
G36*
G01X167074Y17355D02*
G02X165911Y16844I-274J-955D01*
G03X165726Y17267I-268J134D01*
G02X165278Y18905I274J955D01*
G03Y19317I-218J206D01*
G02X165665Y20936I722J683D01*
G03X165851Y21307I-101J282D01*
G02X167135Y20664I949J293D01*
G03X166949Y20293I101J-282D01*
G02X166722Y19317I-949J-293D01*
G03Y18905I218J-206D01*
G02X166889Y17778I-722J-683D01*
G03X167074Y17355I268J-134D01*
G37*
G36*
G01X130558Y-3507D02*
G02X128761Y-1955I-958J707D01*
G03X128681Y-1472I-211J213D01*
G02X128493Y558I519J1072D01*
G03Y1042I-178J242D01*
G02Y2958I707J959D01*
G03Y3442I-178J242D01*
G02X130158Y5107I707J958D01*
G03X130641I242J178D01*
G02X132307Y3442I959J-707D01*
G03Y2958I178J-242D01*
G02X132558Y2707I-707J-958D01*
G03X133042I242J178D01*
G02X134707Y1042I959J-707D01*
G03Y558I178J-241D01*
G02X134958Y307I-707J-958D01*
G03X135442I242J178D01*
G02X137239Y-1245I958J-707D01*
G03X137319Y-1728I211J-213D01*
G02X137758Y-2093I-519J-1072D01*
G03X138242I242J178D01*
G02Y-3507I959J-707D01*
G03X137758I-241J-178D01*
G02X135842I-958J707D01*
G03X135358I-241J-178D01*
G02X133442I-958J707D01*
G03X132958I-241J-178D01*
G02X131041I-958J707D01*
G03X130558I-241J-178D01*
G37*
G36*
G01X138715Y-7183D02*
G02X136485I-1115J-417D01*
G03X136243Y-6780I-281J105D01*
G02X135442Y-6307I157J1180D01*
G03X134958I-241J-178D01*
G02X133201Y-6483I-959J707D01*
G03X132799I-201J-222D01*
G02X131041Y-6307I-799J883D01*
G03X130558I-241J-178D01*
G02Y-4893I-958J707D01*
G03X131041I242J178D01*
G02X132799Y-4717I959J-707D01*
G03X133201I201J222D01*
G02X134958Y-4893I799J-883D01*
G03X135442I242J178D01*
G02X137358I959J-707D01*
G03X137842I242J178D01*
G02X138957Y-6780I959J-707D01*
G03X138715Y-7183I40J-297D01*
G37*
G36*
G01X133830Y-28832D02*
G02X132570I-630J-768D01*
G03Y-28368I-190J232D01*
G02X133830I630J768D01*
G03Y-28832I190J-232D01*
G37*
G36*
G01X156799Y-55683D02*
G02X155293Y-53842I-799J883D01*
G03Y-53359I-178J241D01*
G02Y-51441I707J959D01*
G03Y-50958I-178J241D01*
G02Y-49042I707J958D01*
G03Y-48558I-178J242D01*
G02X156799Y-46717I707J959D01*
G03X157201I201J222D01*
G02X158799I799J-883D01*
G03X159201I201J222D01*
G02X160707Y-48558I799J-883D01*
G03Y-49042I178J-242D01*
G02Y-50958I-707J-958D01*
G03Y-51441I178J-242D01*
G02X159201Y-53283I-707J-959D01*
G03X158799I-201J-222D01*
G02X158707Y-53359I-798J884D01*
G03Y-53842I178J-241D01*
G02X157201Y-55683I-707J-959D01*
G03X156799I-201J-222D01*
G37*
G36*
G01X159358Y-72307D02*
G02X157517Y-70801I-959J707D01*
G03Y-70399I-222J201D01*
G02X159358Y-68893I883J799D01*
G03X159842I242J178D01*
G02X161758I959J-707D01*
G03X162242I242J178D01*
G02X164083Y-70399I959J-707D01*
G03Y-70801I222J-201D01*
G02X162242Y-72307I-883J-799D01*
G03X161758I-241J-178D01*
G02X159842I-958J707D01*
G03X159358I-241J-178D01*
G37*
G36*
G01X134424Y-224319D02*
G02X133938Y-225562I675J-981D01*
G03X133476Y-225381I-293J-66D01*
G02X131974Y-225257I-675J981D01*
G03X131471Y-225418I-208J-216D01*
G02X131126Y-224343I-1171J218D01*
G03X131629Y-224182I208J216D01*
G02X133962Y-224138I1171J-218D01*
G03X134424Y-224319I293J66D01*
G37*
G36*
G01X-127895Y78490D02*
G03X-128105I-105J-107D01*
G02Y79910I-695J710D01*
G03X-127895I105J107D01*
G02Y78490I695J-710D01*
G37*
G36*
G01X-36970Y132368D02*
G02X-38230I-630J-768D01*
G03Y132832I-190J232D01*
G02X-36970I630J768D01*
G03Y132368I190J-232D01*
G37*
G36*
G01X-52032Y128570D02*
G02Y129830I-768J630D01*
G03X-51568I232J190D01*
G02Y128570I768J-630D01*
G03X-52032I-232J-190D01*
G37*
G36*
G01X38488Y-190846D02*
G02X38248Y-189647I-888J446D01*
G03X38712Y-189554I196J227D01*
G02X38952Y-190753I888J-446D01*
G03X38488Y-190846I-196J-227D01*
G37*
G36*
G01X71733Y16065D02*
G03X71362Y15851I-81J-289D01*
G02X70667Y17057I-962J249D01*
G03X71038Y17271I81J289D01*
G02X71278Y17705I962J-249D01*
G03Y18117I-218J206D01*
G02X71064Y18465I722J683D01*
G03X70693Y18651I-282J-101D01*
G02X71336Y19935I-293J949D01*
G03X71707Y19749I282J101D01*
G02X72722Y18117I293J-949D01*
G03Y17705I218J-206D01*
G02X71733Y16065I-722J-683D01*
G37*
G36*
G01X74878Y16105D02*
G03Y16517I-218J206D01*
G02X75265Y18136I722J683D01*
G03X75451Y18507I-101J282D01*
G02X76735Y17864I949J293D01*
G03X76549Y17493I101J-282D01*
G02X76322Y16517I-949J-293D01*
G03Y16105I218J-206D01*
G02X76551Y15135I-722J-683D01*
G03X76760Y14759I287J-87D01*
G02X75549Y14087I-260J-959D01*
G03X75340Y14463I-287J87D01*
G02X74878Y16105I260J959D01*
G37*
G36*
G01X59731Y9054D02*
G03X59360Y8843I-81J-289D01*
G02X58669Y10057I-960J257D01*
G03X59040Y10268I81J289D01*
G02X59278Y10694I960J-257D01*
G03Y11106I-218J206D01*
G02X59078Y11418I722J683D01*
G03X58684Y11583I-278J-112D01*
G02X59222Y12871I-384J917D01*
G03X59616Y12706I278J112D01*
G02X60722Y11106I384J-917D01*
G03Y10694I218J-206D01*
G02X59731Y9054I-722J-683D01*
G37*
G36*
G01X84270Y9177D02*
G03Y8734I202J-222D01*
G02X82930I-670J-734D01*
G03Y9177I-202J222D01*
G02X82878Y10594I670J734D01*
G03Y11006I-218J206D01*
G02X82976Y12462I722J683D01*
G03X83022Y12882I-189J233D01*
G02X84424Y12727I778J618D01*
G03X84378Y12307I189J-233D01*
G02X84322Y11006I-778J-618D01*
G03Y10594I218J-206D01*
G02X84270Y9177I-722J-683D01*
G37*
G36*
G01X67954Y6934D02*
G03X67536Y6767I-135J-268D01*
G02X67046Y7988I-936J333D01*
G03X67464Y8155I135J268D01*
G02X67678Y8505I936J-333D01*
G03Y8917I-218J206D01*
G02X67413Y9481I722J683D01*
G03X67042Y9736I-298J-36D01*
G02X67787Y10819I-242J964D01*
G03X68158Y10564I298J36D01*
G02X69122Y8917I242J-964D01*
G03Y8505I218J-206D01*
G02X67954Y6934I-722J-683D01*
G37*
G36*
G01X104905Y-24710D02*
G03X104695I-105J-107D01*
G02Y-23290I-695J710D01*
G03X104905I105J107D01*
G02X106295I695J-710D01*
G03X106505I105J107D01*
G02Y-24710I695J-710D01*
G03X106295I-105J-107D01*
G02X104905I-695J710D01*
G37*
G36*
G01X66958Y19233D02*
G02X66336Y18058I342J-933D01*
G03X65942Y18267I-291J-73D01*
G02X64878Y19883I-342J933D01*
G03Y20295I-218J206D01*
G02X65466Y21963I722J683D01*
G03X65652Y22457I-40J297D01*
G02X65678Y23794I748J654D01*
G03Y24206I-218J206D01*
G02X65838Y25708I722J683D01*
G03Y26203I-170J247D01*
G02X65678Y27705I563J819D01*
G03Y28117I-218J206D01*
G02X66356Y29793I722J683D01*
G03X66635Y30164I-13J300D01*
G02X67644Y29407I965J236D01*
G03X67365Y29036I13J-300D01*
G02X67122Y28117I-965J-236D01*
G03Y27705I218J-206D01*
G02X67375Y27215I-722J-683D01*
G03X67723Y26978I294J58D01*
G02X67734Y25020I177J-978D01*
G03X67386Y24763I-50J-296D01*
G02X67122Y24206I-986J126D01*
G03Y23794I218J-206D01*
G02X67389Y23010I-722J-683D01*
G03X67644Y22683I298J-30D01*
G02X66989Y20848I-144J-983D01*
G03X66548Y20680I-154J-257D01*
G02X66322Y20295I-948J298D01*
G03Y19883I218J-206D01*
G02X66564Y19442I-722J-683D01*
G03X66958Y19233I291J73D01*
G37*
G36*
G01X95618Y13764D02*
G02X94596Y14173I-818J-564D01*
G03X94782Y14636I-62J294D01*
G02X95804Y14227I818J564D01*
G03X95618Y13764I62J-294D01*
G37*
G36*
G01X88989Y3701D02*
G02X87933Y4591I-989J-101D01*
G03X88211Y4921I-20J299D01*
G02X88478Y5705I989J101D01*
G03Y6117I-218J206D01*
G02X88227Y6596I722J683D01*
G03X87764Y6782I-294J-62D01*
G02X87133Y8591I-564J818D01*
G03X87411Y8921I-20J299D01*
G02X87678Y9705I989J101D01*
G03Y10117I-218J206D01*
G02X87451Y11093I722J683D01*
G03X87265Y11464I-287J89D01*
G02X88549Y12107I335J936D01*
G03X88735Y11736I287J-89D01*
G02X89122Y10117I-335J-936D01*
G03Y9705I218J-206D01*
G02X88467Y8031I-722J-683D01*
G03X88189Y7701I20J-299D01*
G02X88193Y7563I-989J-101D01*
G03X88455Y7458I150J-6D01*
G02X89922Y6117I745J-658D01*
G03Y5705I218J-206D01*
G02X89267Y4031I-722J-683D01*
G03X88989Y3701I20J-299D01*
G37*
G36*
G01X97168Y-14230D02*
G02Y-12970I-768J630D01*
G03X97632I232J190D01*
G02Y-14230I768J-630D01*
G03X97168I-232J-190D01*
G37*
G36*
G01X85968Y-15030D02*
G02Y-13770I-768J630D01*
G03X86432I232J190D01*
G02X87968I768J-630D01*
G03X88432I232J190D01*
G02X89968I768J-630D01*
G03X90432I232J190D01*
G02Y-15030I768J-630D01*
G03X89968I-232J-190D01*
G02X88432I-768J630D01*
G03X87968I-232J-190D01*
G02X86432I-768J630D01*
G03X85968I-232J-190D01*
G37*
G36*
G01X79757Y-20969D02*
G02X79380Y-19893I-956J269D01*
G03X79844Y-19731I175J244D01*
G02X81568Y-19370I956J-269D01*
G03X82032I232J190D01*
G02Y-20630I768J-630D01*
G03X81568I-232J-190D01*
G02X80220Y-20807I-768J630D01*
G03X79757Y-20969I-175J-244D01*
G37*
G36*
G01X9823Y120844D02*
G03X9475Y120607I-54J-295D01*
G02X8677Y121778I-975J193D01*
G03X9025Y122015I54J295D01*
G02X9278Y122505I975J-193D01*
G03Y122917I-218J206D01*
G02X9019Y123760I722J683D01*
G03X8741Y124108I-296J48D01*
G02X9781Y124940I59J992D01*
G03X10059Y124592I296J-48D01*
G02X10722Y122917I-59J-992D01*
G03Y122505I218J-206D01*
G02X9823Y120844I-722J-683D01*
G37*
G36*
G01X75818Y111413D02*
G03X75772Y111830I-236J185D01*
G02X77182Y111987I629J770D01*
G03X77228Y111570I236J-185D01*
G02X75818Y111413I-629J-770D01*
G37*
G36*
G01X61168Y124570D02*
G02Y125830I-768J630D01*
G03X61632I232J190D01*
G02X63168I768J-630D01*
G03X63632I232J190D01*
G02Y124570I768J-630D01*
G03X63168I-232J-190D01*
G02X61632I-768J630D01*
G03X61168I-232J-190D01*
G37*
G36*
G01X24768Y122170D02*
G02Y123430I-768J630D01*
G03X25232I232J190D01*
G02X26768I768J-630D01*
G03X27232I232J190D01*
G02X28768I768J-630D01*
G03X29232I232J190D01*
G02Y122170I768J-630D01*
G03X28768I-232J-190D01*
G02X27232I-768J630D01*
G03X26768I-232J-190D01*
G02X25232I-768J630D01*
G03X24768I-232J-190D01*
G37*
G36*
G01X17351Y120512D02*
G02X16815Y121703I-951J289D01*
G03X17227Y121888I125J273D01*
G02X17456Y122283I951J-289D01*
G03Y122695I-218J206D01*
G02X17193Y123245I722J683D01*
G03X16781Y123482I-297J-40D01*
G02X17385Y124533I-381J918D01*
G03X17797Y124296I297J40D01*
G02X18900Y122695I381J-918D01*
G03Y122283I218J-206D01*
G02X17763Y120697I-722J-683D01*
G03X17351Y120512I-125J-273D01*
G37*
G36*
G01X12768Y118970D02*
G02Y120230I-768J630D01*
G03X13232I232J190D01*
G02Y118970I768J-630D01*
G03X12768I-232J-190D01*
G37*
G36*
G01X60894Y119299D02*
G02X60770Y118054I706J-699D01*
G03X60306Y118101I-251J-165D01*
G02X58832Y118170I-706J699D01*
G03X58368I-232J-190D01*
G02Y119430I-768J630D01*
G03X58832I232J190D01*
G02X60430Y119346I768J-630D01*
G03X60894Y119299I251J165D01*
G37*
G36*
G01X22368Y117670D02*
G02Y118930I-768J630D01*
G03X22832I232J190D01*
G02X22933Y119037I768J-630D01*
G03X22910Y119501I-201J222D01*
G02X24167Y119563I590J799D01*
G03X24190Y119100I201J-222D01*
G02X22832Y117670I-590J-800D01*
G03X22368I-232J-190D01*
G37*
G36*
G01X33168Y116570D02*
G02Y117830I-768J630D01*
G03X33632I232J190D01*
G02X34356Y118193I768J-630D01*
G03X34635Y118564I-13J300D01*
G02X36368Y119430I965J236D01*
G03X36832I232J190D01*
G02X38593Y118843I768J-630D01*
G03X38964Y118565I300J13D01*
G02X38207Y117556I236J-965D01*
G03X37836Y117835I-300J-13D01*
G02X36832Y118170I-236J965D01*
G03X36368I-232J-190D01*
G02X35644Y117807I-768J630D01*
G03X35365Y117436I13J-300D01*
G02X33632Y116570I-965J-236D01*
G03X33168I-232J-190D01*
G37*
G36*
G01X72630Y117568D02*
G02X71370I-630J-768D01*
G03Y118032I-190J232D01*
G02X72630I630J768D01*
G03Y117568I190J-232D01*
G37*
G36*
G01X97030Y75568D02*
G02X95770I-630J-768D01*
G03Y76032I-190J232D01*
G02X95810Y77600I630J768D01*
G03X95833Y78063I-178J241D01*
G02X97090Y78000I667J737D01*
G03X97067Y77537I178J-241D01*
G02X97030Y76032I-667J-737D01*
G03Y75568I190J-232D01*
G37*
G36*
G01X174559Y66493D02*
G02Y67907I-959J707D01*
G03X175042I241J178D01*
G02Y66493I958J-707D01*
G03X174559I-242J-178D01*
G37*
G36*
G01X146158Y66093D02*
G02Y67507I-959J707D01*
G03X146642I241J178D01*
G02Y66093I958J-707D01*
G03X146158I-242J-178D01*
G37*
G36*
G01X146558Y61293D02*
G02Y62707I-959J707D01*
G03X147042I241J178D01*
G02Y61293I958J-707D01*
G03X146558I-242J-178D01*
G37*
G36*
G01X135032Y61847D02*
G02X134409Y60809I568J-1047D01*
G03X133991Y61086I-300J2D01*
G02X134590Y62085I-391J913D01*
G03X135032Y61847I299J26D01*
G37*
G36*
G01X194060Y49582D02*
G02X190300I-1880J0D01*
G01Y50764D01*
G02X194060I1880J0D01*
G01Y49582D01*
G37*
G36*
G01X193165Y41555D02*
G03X193635Y41565I231J191D01*
G02X193510Y40080I1104J-841D01*
G03X193048Y40168I-266J-139D01*
G02X193165Y41555I-648J753D01*
G37*
G36*
G01X193048Y31832D02*
G03X193510Y31920I196J227D01*
G02X193635Y30435I1229J-644D01*
G03X193165Y30445I-239J-182D01*
G02X193048Y31832I-765J634D01*
G37*
G36*
G01X177358Y38893D02*
G02Y40307I-958J707D01*
G03X177842I242J178D01*
G02Y38893I958J-707D01*
G03X177358I-242J-178D01*
G37*
G54D39*
X-90089Y21975D03*
X110698Y-56765D03*
G54D43*
X190192Y-6773D03*
G54D42*
X-120000Y32400D03*
G54D33*
X-13200Y-186000D03*
X-13600Y-199200D03*
X-99200Y-176800D03*
X-96800Y-184400D03*
X-158000Y-93200D03*
X-195200Y-155200D03*
Y-158000D03*
Y-163600D03*
Y-166800D03*
Y-171600D03*
Y-174400D03*
X-198000D03*
Y-171600D03*
Y-166800D03*
Y-163600D03*
Y-158000D03*
Y-155200D03*
X-132800Y-159600D03*
X-110800Y-226000D03*
X-103200Y-231600D03*
X-51600Y-207700D03*
X-48600D03*
X-45600D03*
X-42600D03*
X-39600D03*
X-36600D03*
Y-210700D03*
X-39600D03*
X-42600D03*
X-45600D03*
X-48600D03*
X-51600D03*
X-36600Y-213700D03*
X-39600D03*
X-42600D03*
X-45600D03*
X-48600D03*
X-51600D03*
X-36600Y-216700D03*
X-39600D03*
X-42600D03*
X-45600D03*
X-48600D03*
X-51600D03*
X-36600Y-219700D03*
X-39600D03*
X-42600D03*
X-45600D03*
X-48600D03*
X-51600D03*
X-36600Y-222700D03*
X-39600D03*
X-42600D03*
X-45600D03*
X-48600D03*
X-51600D03*
X125200Y-98800D03*
X122000D03*
X137200Y-75600D03*
X-95600Y74800D03*
X20400Y70400D03*
X38000Y83200D03*
X35200D03*
X-92800Y-14000D03*
X-89200Y102000D03*
X-98000Y115200D03*
Y118000D03*
X-95200D03*
X-89600D03*
X-92400D03*
X-89600Y115200D03*
X-92400D03*
X-95200D03*
X128000Y-157200D03*
X135200Y-147200D03*
X128000Y-203600D03*
X131200D03*
X135600Y-204000D03*
X164400Y-52800D03*
X158000Y-12000D03*
X148400Y54400D03*
X145600D03*
X92000Y-174000D03*
X85400Y-186600D03*
X80400D03*
X85800Y-191000D03*
X118800Y62000D03*
X121600D03*
X214000Y44800D03*
Y34800D03*
Y24800D03*
X165600Y67200D03*
G54D41*
X-202139Y74050D03*
X-202200Y42554D03*
G54D46*
X197494Y45449D03*
Y42299D03*
Y39150D03*
X194739Y37575D03*
Y34425D03*
X197494Y32850D03*
Y29701D03*
Y26551D03*
G54D34*
X-72000Y-134800D03*
X-73600Y-125600D03*
X-71600Y-127200D03*
X-74800Y-123600D03*
X-69600Y-136800D03*
X-70000Y-133200D03*
X-69600Y-128400D03*
X-78400Y-84400D03*
X-76800Y-82000D03*
X-74000Y-78400D03*
X-70000Y-75600D03*
X-76400Y-91600D03*
X-75886Y-96286D03*
Y-100286D03*
X-76286Y-104286D03*
X-76400Y-88000D03*
X-62400Y-138400D03*
X4400Y-175600D03*
X35600Y-133600D03*
X53200Y-134000D03*
X42400D03*
X28800D03*
X22000Y-133600D03*
X17600Y-130000D03*
X13200Y-126400D03*
X10000Y-123600D03*
X4000Y-121600D03*
X0Y-124000D03*
X-2400Y-127200D03*
X-6800Y-131600D03*
X-13600D03*
X-22400D03*
X-28400D03*
X-32800D03*
X-36400Y-131200D03*
X-39600Y-130000D03*
X-43600Y-127600D03*
X-50400Y-126800D03*
X-54000Y-126400D03*
X-58400Y-124800D03*
X-61200Y-122000D03*
X-1200Y-196800D03*
X-10800Y-188400D03*
X1523Y-188477D03*
X-67200Y-138800D03*
X-56000Y-142800D03*
X-5200Y-184400D03*
X22669Y-43361D03*
X52800Y-97486D03*
X-50737Y-85086D03*
Y-82286D03*
X-22600Y-85286D03*
Y-82086D03*
X-20752Y-25268D03*
X-11700Y-34286D03*
X-40400Y-85200D03*
X-9897Y-36124D03*
X-40800Y-82000D03*
X-30238Y-85205D03*
X-15324Y-30696D03*
X-30238Y-82056D03*
X-50837Y-91486D03*
X-17134Y-25268D03*
X-8087Y-34315D03*
X-11706Y-30696D03*
X-45500Y-88286D03*
X-30237D03*
X-27837Y-91286D03*
X-30437Y-91486D03*
X-53600Y-91600D03*
X-53400Y-88486D03*
Y-85286D03*
X-22000Y-73600D03*
X-19900Y-85286D03*
X-19700Y-88386D03*
X-25500Y-48400D03*
X-25237Y-85286D03*
X-17400Y-81886D03*
X76800Y-70000D03*
X76300Y-85600D03*
X-17100Y-88386D03*
X81600Y-64400D03*
X76000Y-92000D03*
X-47900Y-88286D03*
X-48200Y-91486D03*
X-45600Y-85486D03*
Y-91486D03*
X-25237D03*
X-24937Y-88286D03*
X-20800Y-54800D03*
X42700Y-85486D03*
X29906Y-36124D03*
X42700Y-82286D03*
X33524Y-28887D03*
X71034Y-85600D03*
X35334Y-30696D03*
X38952Y-27078D03*
X40761Y-25258D03*
X60700Y-82286D03*
X26287Y-36124D03*
X42800Y-91686D03*
X31715Y-30696D03*
X68400Y-91686D03*
X50600Y-94586D03*
X37142Y-25268D03*
X48000Y-85286D03*
X50700Y-82500D03*
X65800Y-82400D03*
X62400Y-59800D03*
X63600Y-88686D03*
X66100Y-91586D03*
X29600Y-71886D03*
X37800Y-91886D03*
X35200Y-58686D03*
X37550Y-88586D03*
X31200Y-83286D03*
X40200Y-91686D03*
X35600Y-65086D03*
X40400Y-88686D03*
X38000Y-68686D03*
X40100Y-85586D03*
X73700Y-85600D03*
X81600Y-70000D03*
X73700Y-88786D03*
X71200Y-70800D03*
X73600Y-91686D03*
X71400Y-66400D03*
X76300Y-82386D03*
X-17100Y-85186D03*
X76000Y-88800D03*
X-19800Y-94286D03*
X45400Y-91686D03*
X66800Y-42400D03*
X45400Y-85286D03*
X48000Y-82400D03*
X47800Y-91686D03*
X48000Y-88486D03*
X72000Y-58000D03*
X66000Y-88686D03*
X68400D03*
X13623Y-63262D03*
X63297Y-107471D03*
X20860Y-37933D03*
X55600Y-113686D03*
X17241Y-45170D03*
X55700Y-110586D03*
X19051Y-46979D03*
X55637Y-107486D03*
X13623Y-48788D03*
X60738Y-107471D03*
X17241Y-59643D03*
X58237Y-110886D03*
X-2660Y-43361D03*
X-33600Y-97086D03*
X-30238Y-107253D03*
X6400Y-63286D03*
X-851Y-37933D03*
X-30800Y-115986D03*
X6386Y-48788D03*
X-32797Y-107253D03*
X6386Y-59643D03*
X-34200Y-115986D03*
X-37900Y-82286D03*
X34700Y-89700D03*
X35600Y-62500D03*
X38000Y-71586D03*
X68400Y-85600D03*
X74300Y-66400D03*
X73900Y-71000D03*
X60000Y-71886D03*
X71000Y-88400D03*
X-44800Y-50200D03*
X-22300Y-88500D03*
X-50700Y-87900D03*
X45400Y-82700D03*
X70800Y-91600D03*
X79200Y-70000D03*
X-27600Y-88400D03*
X-56400D03*
X-53200Y-94400D03*
X-36300Y-95600D03*
X34000Y-55886D03*
X29600Y-74286D03*
X40000Y-94700D03*
X48000Y-94500D03*
X70800Y-94800D03*
X73600D03*
X81600Y-66800D03*
X9200Y-71200D03*
Y-77200D03*
Y-82000D03*
Y-89600D03*
Y-95600D03*
Y-102800D03*
Y-112000D03*
Y-116000D03*
X-67600Y-73200D03*
X-66800Y-70000D03*
Y-65600D03*
Y-61200D03*
X-64000Y-57600D03*
X-60400Y-54800D03*
X-57600Y-51200D03*
X-56800Y-46800D03*
X37900Y-79086D03*
X33700Y-92686D03*
X31200Y-102086D03*
X33000Y-113486D03*
X67200Y-74400D03*
X55200Y-72400D03*
X58100Y-79286D03*
X57200Y-95486D03*
X76200Y-79186D03*
X61900Y-75786D03*
X53200Y-88286D03*
X50400Y-91486D03*
Y-88400D03*
X60400Y-88286D03*
X47943Y-107471D03*
X50502Y-107271D03*
X47943Y-104322D03*
X48000Y-100786D03*
X50500Y-100986D03*
X50502Y-110821D03*
X53061Y-113771D03*
X58237Y-113786D03*
Y-107386D03*
X73533Y-110621D03*
Y-104322D03*
Y-107471D03*
X73600Y-113686D03*
X73533Y-101172D03*
X37707Y-104322D03*
X40337Y-104286D03*
X40300Y-100786D03*
Y-110586D03*
X37800Y-113486D03*
X40337Y-107486D03*
X42800Y-110486D03*
X66000Y-107486D03*
X63297Y-101172D03*
X68363Y-107124D03*
X66000Y-104286D03*
Y-101086D03*
X70974Y-110621D03*
X15432Y-54216D03*
X14000Y-56000D03*
X10000Y-63200D03*
X-66400Y-108000D03*
X-62400Y-100800D03*
X-35600Y-82000D03*
X-17600Y-78886D03*
X-55829Y-78906D03*
X-35200Y-68700D03*
X-37800Y-79086D03*
X-14400Y-81886D03*
X-17600Y-113286D03*
X-63200Y-117086D03*
X-44300Y-79086D03*
X-32797Y-88355D03*
Y-85205D03*
X-17437Y-107286D03*
X-20002Y-104103D03*
X-20000Y-100386D03*
X-19900Y-107286D03*
X-34100Y-113286D03*
X-38037Y-107286D03*
X-53270Y-100953D03*
Y-104103D03*
X-37800Y-88186D03*
X-40800Y-88286D03*
X-45593Y-104103D03*
X-43033Y-107253D03*
X-40437Y-107286D03*
X-45593Y-107253D03*
X-43033Y-100953D03*
X-45593D03*
X-53270Y-110402D03*
X-55829Y-113552D03*
X-50711Y-110402D03*
X-30200Y-100386D03*
X-27679Y-104103D03*
X-25037Y-104086D03*
Y-107286D03*
X-27600Y-100386D03*
X81600Y-47200D03*
X69200Y-29200D03*
X81200Y-42000D03*
X88000Y-86000D03*
Y-83200D03*
Y-80000D03*
Y-76800D03*
Y-73600D03*
Y-70400D03*
Y-67200D03*
X87200Y-61600D03*
X84000Y-58000D03*
X81600Y-53600D03*
Y-50400D03*
X46189Y-23459D03*
X11500Y-50700D03*
X11600Y-54000D03*
X-851Y-45170D03*
X4577Y-46979D03*
X9900Y-52400D03*
X6386Y-52407D03*
X-4469Y-41552D03*
X-6278Y-43361D03*
X-4469Y-44770D03*
X1100Y-42800D03*
X-13466Y-36134D03*
X24478Y-45170D03*
Y-41552D03*
X25987Y-43361D03*
X33566Y-36134D03*
X31715Y-34315D03*
X35334Y-27078D03*
X40761Y-21650D03*
X38952Y-23459D03*
X-24370Y-25268D03*
X-20752Y-21650D03*
X-18942Y-23459D03*
X19051Y-39842D03*
X37142Y-32506D03*
X33524D03*
X35334Y-34315D03*
X40761Y-28887D03*
X13623Y-45170D03*
X11814Y-46979D03*
X20860Y-45170D03*
X22569Y-46979D03*
X-11706Y-27078D03*
X-13515Y-28887D03*
X-8087Y-23459D03*
X-6278Y-25268D03*
X-4470Y-27078D03*
X-11706Y-23459D03*
X-9897Y-32504D03*
X-8089Y-30696D03*
X-4469D03*
X28097Y-23459D03*
X26287Y-25268D03*
X-15324Y-34215D03*
X-13515Y-32506D03*
X4577Y-36124D03*
X2768Y-34315D03*
Y-37933D03*
X8195Y-43361D03*
X6386Y-37933D03*
X10005Y-30696D03*
Y-34315D03*
X8195Y-36124D03*
X11814D03*
X15132D03*
X17241Y-34315D03*
X26287Y-32506D03*
X22669D03*
X20860Y-30696D03*
X22669Y-28887D03*
X19051Y-32506D03*
X13623Y-37933D03*
X17241Y-41552D03*
X6386D03*
X28097Y-34315D03*
X24478D03*
X-37940Y-110286D03*
X-13515Y-21651D03*
X-67600Y-102686D03*
X-38037Y-104186D03*
X89200Y-95886D03*
X45700Y-94386D03*
X78900Y-82386D03*
X34000Y-83686D03*
X62000Y-78786D03*
X67500Y-78686D03*
X53200Y-94386D03*
X53137Y-91686D03*
X55637D03*
X55600Y-85386D03*
X-14400Y-84586D03*
X-41300Y-76100D03*
X-46900Y-79086D03*
X-38000Y-90869D03*
X-32837Y-94486D03*
X-37800Y-85286D03*
X-34200Y-77186D03*
X24478Y-30696D03*
X-6278Y-28888D03*
X-14884Y-104103D03*
X34300Y-108286D03*
X-14300Y-87286D03*
X-58136Y-100729D03*
Y-104229D03*
X-58437Y-108786D03*
X-58537Y-86886D03*
X35600Y-100786D03*
X35148Y-104322D03*
X33500Y-86686D03*
X78652Y-101172D03*
Y-104422D03*
Y-110621D03*
Y-107471D03*
X-14800Y-100386D03*
X-14884Y-107253D03*
X81200Y-92400D03*
X58000Y-104286D03*
X20860Y-34315D03*
X-2660Y-28887D03*
X24478Y-27077D03*
X-124800Y-124400D03*
X-116000Y-130400D03*
X-119600Y-135200D03*
X-105600Y-165200D03*
X-86800Y-179200D03*
X-95600Y-160000D03*
X-119200Y-139200D03*
X-144000Y-40800D03*
X-164800Y-102800D03*
X-165600Y-81600D03*
Y-63200D03*
X-124400Y-6700D03*
X-114800Y-16800D03*
X-110900Y-8500D03*
X-162400Y-111600D03*
X-142572Y-25372D03*
X-152172Y-35028D03*
X-124400Y-29200D03*
X-154400Y-34400D03*
X-114000Y-2000D03*
X-124800Y-9600D03*
X-121900D03*
X-117200Y-9500D03*
X-107300Y-500D03*
X-87200Y12400D03*
X-84000Y14000D03*
X-116400Y-19200D03*
X-97200Y39600D03*
X-164400Y-71600D03*
X-135600Y-14400D03*
X-164800Y-100400D03*
X-137200Y-16400D03*
X-162400Y-101600D03*
X-164800Y-111600D03*
X-166000Y-106400D03*
X-94400Y32000D03*
X-156400Y-46000D03*
X-90000Y41600D03*
X-154800Y-43200D03*
X-134400Y-26400D03*
X-160400Y-35200D03*
X-32800Y29600D03*
X-43600Y17500D03*
X2768Y-1749D03*
X-651Y-1748D03*
X959Y60D03*
X-11706Y16343D03*
Y12725D03*
X-7900Y5600D03*
X-26000Y18400D03*
X-28800Y34800D03*
X-10900Y27600D03*
X-43200Y39600D03*
X-18800Y36800D03*
X-29200Y17600D03*
X-851Y5488D03*
X-9897Y21771D03*
X-6278D03*
X-8087Y16343D03*
X-51800Y20100D03*
X-15600Y21600D03*
X-6278Y14534D03*
X-9897D03*
X-17700Y23700D03*
X-28200Y42800D03*
X-2667Y18167D03*
X-851Y16343D03*
X-4469Y19961D03*
X-8087Y12725D03*
X-9897Y18152D03*
X-2660Y10915D03*
X-54800Y38800D03*
X-17074Y14534D03*
X-8087Y9106D03*
X-900Y20000D03*
X-2660Y21771D03*
Y3679D03*
X-49353Y40047D03*
X-29200Y40000D03*
X-49600Y21700D03*
X-4469Y5488D03*
X-43100Y44000D03*
X-49200Y26800D03*
X-904Y9104D03*
X-2666Y7266D03*
X-21200Y32800D03*
X-28800Y37600D03*
X-4469Y9106D03*
X-201600Y-135200D03*
X-205600Y-135600D03*
X-130000Y-170800D03*
X-72400Y-235600D03*
X-181361Y-138239D03*
X-162972Y-194172D03*
X-166869Y-188069D03*
X-138800Y-205200D03*
X-139200Y-198000D03*
Y-207600D03*
X-122400Y-202000D03*
X-130000Y-157600D03*
X-132800Y-179600D03*
X-183920Y-135680D03*
X-136000Y-223200D03*
X-110800Y-231600D03*
X-127200Y-209200D03*
X-129569Y-220031D03*
X-116572Y-220228D03*
X-87600Y-232400D03*
X-138000Y-209600D03*
X-79600Y-239200D03*
X-148400Y-204800D03*
Y-200800D03*
Y-196400D03*
X-138500Y-185600D03*
X-148400Y-185200D03*
X-174000Y-133200D03*
X-144800Y-182400D03*
X-165600Y-191600D03*
X-148400Y-178800D03*
X-163600Y-21200D03*
X-152000Y78000D03*
X-187600Y-111600D03*
X-177600Y-37200D03*
X-183600Y-97600D03*
X-187200Y-100000D03*
X-188400Y-119600D03*
X-184172Y-119428D03*
X-187200Y4000D03*
X-192000Y36800D03*
X-193200Y-36800D03*
Y-16800D03*
X-187200Y48400D03*
Y38000D03*
X-185600Y56400D03*
X-187200Y63200D03*
X-193200Y-101600D03*
X-186400Y14800D03*
X-192800Y-61600D03*
X-184800Y44000D03*
X-185200Y-101600D03*
X-182800Y-88000D03*
X-188000Y-90800D03*
X-183200Y24400D03*
X-193200Y-71600D03*
Y-81600D03*
X-170000Y-17200D03*
X-171600Y-26400D03*
X-180400Y-36800D03*
X24000Y-204000D03*
X22800Y-210000D03*
X-24400Y-239200D03*
X-25600Y-202000D03*
X-27688Y-209688D03*
X-19600Y-201600D03*
X-27644Y-212444D03*
X-27200Y-197600D03*
X-21028Y-223772D03*
X-47600Y-231600D03*
X-26800Y-220500D03*
X27600Y-233600D03*
X-36400Y-232800D03*
X-62800Y-221600D03*
X-11600Y-238800D03*
X-28000Y-200400D03*
X-32800Y-196400D03*
X-38588Y-198888D03*
X96853Y-122747D03*
X60400Y-154800D03*
X-61500Y-197200D03*
X-58000D03*
X-63600Y-227600D03*
X-34000Y-232800D03*
X9200Y-234400D03*
X31600Y-193600D03*
Y-185200D03*
X39200Y-172000D03*
X-27100Y-203800D03*
X-18000Y-223200D03*
X-42000Y-197200D03*
X-54800Y-196600D03*
X-50000Y-194400D03*
X-27600Y-225600D03*
X-15600Y-228400D03*
X-38500Y-194800D03*
X-27200Y-223300D03*
X-34800Y-198500D03*
X99500Y-86400D03*
X142000Y-48000D03*
X102800Y-97200D03*
X143200Y-50400D03*
X-160400Y-8000D03*
X-150500Y37100D03*
X-68800Y56400D03*
X-104000Y74800D03*
X-150500Y46700D03*
Y41900D03*
X-150900Y71300D03*
Y66500D03*
X-149600Y60800D03*
X-96300Y51200D03*
X-91600Y53200D03*
X-93200Y69600D03*
X-115800Y77400D03*
X-111772Y51372D03*
X-143600Y24800D03*
X8195Y29007D03*
X6386Y30817D03*
X-26800Y70800D03*
X-66400Y53200D03*
X-29100Y51600D03*
X11600Y60400D03*
X13623Y30817D03*
X11814Y29007D03*
X13900Y58400D03*
X13600Y16300D03*
X5700Y46400D03*
X-18900Y53600D03*
X-22400Y66000D03*
X17241Y23580D03*
X19051Y25389D03*
X11300Y50000D03*
X-22400Y75200D03*
X12800Y82400D03*
X7200Y79600D03*
X50739Y68000D03*
X48400D03*
X4577Y25389D03*
X11200Y47200D03*
X28800Y77600D03*
X13623Y27198D03*
X-55600Y72800D03*
X-54000Y54300D03*
X6700Y67600D03*
X8400Y32400D03*
X15432Y25389D03*
X-48300Y61800D03*
X8195Y21771D03*
X10005Y19961D03*
X-59200Y72800D03*
X17241Y27198D03*
X7200Y58000D03*
X-40400Y74400D03*
X-30400Y74000D03*
X-42400Y81600D03*
X-29600Y82600D03*
X-51200Y79600D03*
X10800Y78400D03*
X14400Y67200D03*
X13600Y53600D03*
X11800Y32600D03*
X42800Y54400D03*
X45200Y56000D03*
X8972Y54172D03*
X10005Y16343D03*
X17200Y62400D03*
X25629Y82572D03*
X16800Y77600D03*
X-112400Y-39600D03*
X-75200Y-15600D03*
X-106000Y-24800D03*
X-70400Y-10800D03*
X-110400Y-26000D03*
X-112400Y-63200D03*
X-126800Y-62800D03*
X-102400Y-22000D03*
X-116800Y-62800D03*
X-104400Y-17600D03*
X-122000Y-62800D03*
X-103200Y-28800D03*
X-131200Y-62800D03*
X-95600Y-68800D03*
X-137200Y-68400D03*
X-89500Y-25200D03*
X-116000Y-28400D03*
X-113200Y-84000D03*
X-82000Y-17700D03*
X-120800Y-39600D03*
X-108000Y-22000D03*
X-116490Y-31290D03*
X-110800Y-84000D03*
X-17100Y-3600D03*
X-52800Y-33200D03*
X-48400Y-28000D03*
X-45600Y-25600D03*
X-8087Y-12604D03*
X-11706Y-5367D03*
X-9904Y-3596D03*
X-11706Y-16222D03*
X-13515Y-14413D03*
X-24370Y-7177D03*
X-27989D03*
X-59600Y-26800D03*
X-66000Y-45200D03*
X-50000Y-7200D03*
X-56800Y-23200D03*
X-48400D03*
X-41700Y-21086D03*
X-44000Y-23486D03*
X-44272Y-8986D03*
X-46400Y-10800D03*
X-35226Y-10795D03*
X-37035Y-12604D03*
X-38844Y-10795D03*
X-37035Y-8986D03*
X-36800Y4300D03*
X-33416Y-16222D03*
X-29798D03*
X-35226Y-7177D03*
X-18942Y-12604D03*
X-20752Y-14413D03*
X-26180Y-8986D03*
X-33416D03*
X-22561Y5488D03*
Y1870D03*
X-26180Y-1749D03*
X-15324Y-16222D03*
X-52000Y-29200D03*
X-18600Y-9000D03*
X-13538Y-3562D03*
X-30000Y8800D03*
X-13512Y-7112D03*
X-27989Y60D03*
X-20752Y-7177D03*
X-22500Y-5300D03*
X-24361Y-3561D03*
X-26180Y-12604D03*
X-31600Y-10800D03*
X-22561Y-12604D03*
X-29788Y-8986D03*
X-33416Y-12604D03*
X-27989Y-14413D03*
X-17134D03*
X-35226D03*
X-29804Y-12598D03*
X-31607Y-14413D03*
X-24370D03*
X-25964Y11600D03*
X-17134Y60D03*
X-17100Y-10800D03*
X-15500Y-1752D03*
X-27961Y-3561D03*
X-31607Y-7177D03*
X-29798Y-1749D03*
X-28000Y-10800D03*
X-31607Y-3558D03*
X-22561Y-8986D03*
X-33416Y-5367D03*
X-26100Y-5400D03*
X-56000Y-30400D03*
X-64000Y-38400D03*
X-15324Y-12604D03*
X-20000Y-3200D03*
X-18942Y1870D03*
X-20752Y3679D03*
X-89200Y96400D03*
X134000Y-192800D03*
Y-186800D03*
X127600Y-162400D03*
X43600Y88000D03*
X134800Y39200D03*
X126400Y36000D03*
X52000Y85600D03*
X132800Y23600D03*
X136400Y19600D03*
X-18400Y89200D03*
X131200Y-10800D03*
X136000Y37200D03*
X137600Y-13200D03*
X49200Y86000D03*
X131600Y-22400D03*
X-66000Y88800D03*
X142000Y-90800D03*
X140000Y-12800D03*
X27600Y92400D03*
X-62000Y114800D03*
X46000Y90400D03*
X-52400Y118800D03*
X-23900Y92500D03*
X13200Y101300D03*
X-27100Y95600D03*
X-35900Y115300D03*
X-42400Y121500D03*
X-42700Y119200D03*
X19200Y98000D03*
X-40300Y93200D03*
X-47200Y115200D03*
X-48400Y102000D03*
X-32400Y106800D03*
X-53200Y122800D03*
X-49600Y122100D03*
X-38000Y91600D03*
X-59600Y110000D03*
X-60400Y105200D03*
X-60500Y102400D03*
X-32400Y110000D03*
X-58200Y89700D03*
X-30000Y96000D03*
X-48800Y98800D03*
X-58800Y94000D03*
X-62000Y89600D03*
X26400Y98000D03*
X19200Y95200D03*
X167600Y-40700D03*
X154800Y-41200D03*
X162800Y-29600D03*
X142400Y-16000D03*
X194000Y-18400D03*
X167600Y-48000D03*
Y-22400D03*
X180000Y-42000D03*
X164800Y11200D03*
X169600D03*
X154800Y18000D03*
X179200Y15600D03*
X157200Y-34400D03*
X142400Y-11600D03*
X162400Y-41200D03*
X175600Y-22400D03*
X166400Y-35200D03*
X176000Y-47200D03*
X193200Y-31200D03*
X194000Y-25200D03*
X168600Y29900D03*
X154800Y38800D03*
X179065Y-51065D03*
X154000Y-34800D03*
X148400Y-31600D03*
X163000Y-47400D03*
X149200Y13600D03*
X152000Y-31600D03*
X157497Y19672D03*
X162800Y24000D03*
X145200Y13600D03*
X154000Y-44400D03*
X181200Y14000D03*
X172400Y17600D03*
Y20400D03*
X-130400Y48400D03*
X-138400Y46800D03*
X-128400Y71600D03*
X-130000Y19600D03*
X-115200Y136400D03*
X-68800Y135200D03*
X-48000Y132000D03*
X-66000Y134400D03*
X-46800Y135200D03*
X55600Y-174800D03*
X98000Y-190400D03*
X38000Y-186400D03*
X38400Y-178000D03*
X39200Y-201600D03*
X39600Y-182000D03*
X43200Y-175200D03*
X47600Y-172800D03*
X50000D03*
X92400Y-211200D03*
X88400D03*
X90400Y-204800D03*
X8195Y-40D03*
Y-3558D03*
Y-7177D03*
X10005Y-5367D03*
Y-8986D03*
X11814Y-25268D03*
X10005Y-23459D03*
X8189Y-21657D03*
X6380Y-19847D03*
X4600Y-18100D03*
X116000Y-25600D03*
X29906Y3679D03*
X15432Y-18033D03*
X116100Y38000D03*
X6386Y-12604D03*
X100800Y-25600D03*
X44400Y39200D03*
X67600Y42000D03*
X79600Y-2900D03*
X72800D03*
X60800Y-1600D03*
X29900Y-14400D03*
X29904Y0D03*
X19050Y-3558D03*
X20860Y-1748D03*
X22666Y100D03*
X29906Y18152D03*
X31715Y16343D03*
X46400Y23600D03*
X41600Y18800D03*
X20860Y-5367D03*
X29906Y-7177D03*
X22669D03*
X24478Y-5367D03*
Y-8986D03*
X22669Y-10795D03*
X26287D03*
X29906D03*
X28097Y-8986D03*
X31715D03*
X33524Y-10795D03*
X31715Y-12604D03*
X28097D03*
X35334D03*
X22669Y-3558D03*
X29906D03*
X28097Y-5367D03*
X24478Y-1749D03*
X26287Y60D03*
X31715Y1870D03*
X15432Y10915D03*
Y7397D03*
X42570Y-5367D03*
X26287Y10915D03*
X20857Y5443D03*
X22669Y7297D03*
Y3679D03*
X20860Y1870D03*
X17241D03*
X19051Y3679D03*
X24478Y12725D03*
Y9106D03*
X20860Y16343D03*
X44380Y3679D03*
X42570Y5488D03*
X38952Y9106D03*
X37142Y10915D03*
X26287Y21771D03*
X37142Y-7177D03*
Y-3558D03*
X35334Y-1749D03*
Y-5367D03*
X15400Y-10800D03*
X10005Y5538D03*
X17241Y-1749D03*
X15432Y60D03*
X11814Y-7177D03*
X6386Y-16222D03*
X4577Y-14413D03*
X2768Y-16222D03*
X959Y-18032D03*
X8195Y-25268D03*
X6386Y-23459D03*
X4577Y-21650D03*
X2768Y-19840D03*
X13623Y-1749D03*
X10005D03*
Y1770D03*
X11814Y60D03*
Y-3558D03*
X13624Y-8986D03*
X8195Y-10793D03*
X8276Y3676D03*
X53426Y-5367D03*
X55235Y-7177D03*
X47998Y60D03*
X49807Y-1749D03*
X64400Y-14800D03*
X68000Y-14400D03*
X65800Y-11000D03*
X33524Y7297D03*
X35334Y9106D03*
Y5488D03*
X37142Y7297D03*
X38952Y1870D03*
X53426Y-8986D03*
X40761Y3679D03*
Y60D03*
X42570Y1870D03*
X44380Y-3558D03*
X46189Y-1749D03*
X40761Y-7177D03*
X47998Y-3558D03*
X31715Y5488D03*
X101600Y-19600D03*
X40761Y-14413D03*
X55235D03*
X85600Y-19200D03*
X51616Y-14413D03*
X46189Y-5367D03*
X96200Y9900D03*
X38952Y-12604D03*
X96800Y-21600D03*
X37142Y60D03*
X46189Y-12604D03*
X87600Y-20800D03*
X38952Y-1749D03*
X37134Y-10834D03*
X110400Y-28800D03*
X44380Y-7180D03*
X42570Y-8986D03*
X47998Y-7177D03*
X57029Y-5371D03*
X40761Y-10795D03*
X51616Y-7177D03*
X46189Y-8986D03*
X49807Y-12604D03*
X99600Y-20800D03*
X73200Y-9600D03*
X42570Y-12604D03*
X57044Y-8986D03*
X60700Y-9000D03*
X108000Y-9600D03*
X33524Y3679D03*
X26287Y14534D03*
X22669Y18152D03*
Y10915D03*
X20860Y9106D03*
X19051Y7297D03*
X29906Y14534D03*
X28097Y12725D03*
X91772Y-20628D03*
X95600Y-32800D03*
X49807Y-8986D03*
X17241Y5488D03*
X28097Y16343D03*
X24478Y19961D03*
X58853Y-10795D03*
X53481Y-12600D03*
X18667Y14533D03*
X17238Y9162D03*
X19043Y57D03*
X11809Y3409D03*
X6386Y-8985D03*
X24476Y5124D03*
X4577Y-10795D03*
X15428Y3672D03*
X33524Y-7177D03*
X26284Y-3562D03*
X26287Y-7177D03*
X117600Y66800D03*
X93100Y78000D03*
X104500Y68400D03*
X128800Y64000D03*
X70800Y114000D03*
X68800Y116800D03*
X58800Y122800D03*
X79600Y105200D03*
X66300Y118800D03*
X202800Y-39600D03*
X190400Y62800D03*
X164400Y62400D03*
X210000Y62800D03*
X200324Y-43924D03*
X208300Y-32000D03*
X201200Y-31600D03*
X202400Y-53200D03*
X208000Y-42800D03*
X184628Y62972D03*
X175568Y63168D03*
X200800Y62400D03*
X197200Y62000D03*
X194628Y69828D03*
X184400Y34800D03*
Y37200D03*
X186800Y38800D03*
Y33200D03*
X180400Y51600D03*
X182800Y54000D03*
G54D45*
X192180Y21827D03*
G54D40*
X-145402Y-219049D03*
G54D44*
X213657Y-6773D03*
%LPD*%
G75*
G54D10*
X-158000Y-219049D03*
X-178472D03*
G54D20*
X172392Y-147292D03*
X154683Y-181291D03*
X182085D03*
Y-202709D03*
X154526D03*
X172392Y-86308D03*
G54D11*
X-182016Y-247789D03*
X-143433D03*
G54D30*
G01X136400Y-230000D02*
X142400D01*
X154800Y-217600D01*
X200800D01*
X209021Y-209379D01*
Y-200579D01*
G54D21*
X155983Y-192000D03*
G54D12*
X-199600Y-244000D03*
Y130400D03*
X208800Y-244000D03*
Y130400D03*
G54D31*
G01X-152018Y151186D02*
G02X-148819Y154385I3199J0D01*
G01X15278D01*
Y141378D01*
G03X19215I1969J0D01*
G01Y154385D01*
X167819D01*
G02X170812Y151392I0J-2993D01*
G01Y129989D01*
X166562D01*
G03Y124067I0J-2961D01*
G01X170825D01*
Y109450D01*
X192150D01*
Y154246D01*
X228150D01*
Y-259750D01*
X-217450D01*
Y154254D01*
X-173050D01*
Y109450D01*
X-152003D01*
Y111050D01*
Y113450D01*
Y124067D01*
X-147621D01*
G03Y129989I0J2961D01*
G01X-152018D01*
Y151186D01*
G54D13*
X-181400Y-206400D03*
Y-204200D03*
X-181300Y-202000D03*
X-209100Y-192800D03*
X-209300Y-188900D03*
X-210700Y-184900D03*
X-210800Y-182600D03*
Y-180300D03*
X-210900Y-176200D03*
Y-173800D03*
Y-171400D03*
X-211000Y-167700D03*
Y-165400D03*
Y-163200D03*
Y-159400D03*
Y-157100D03*
Y-154800D03*
X-206800Y-226800D03*
X-194400Y-214800D03*
Y-226400D03*
X-204000Y-230000D03*
X-214000Y-190000D03*
Y-200000D03*
Y-210000D03*
Y-220000D03*
Y-230000D03*
Y-240000D03*
Y-250000D03*
X-198400Y-256400D03*
X-186000D03*
X-136800D03*
X-109600D03*
X-96000Y-255200D03*
X-86000D03*
X-76000D03*
X-214400Y-128400D03*
Y-138400D03*
Y-148400D03*
Y-158400D03*
Y-168400D03*
Y-178400D03*
X-113600Y-243200D03*
X-111200D03*
X-70400Y-177600D03*
X-72400D03*
Y-184800D03*
Y-187200D03*
Y-182400D03*
X-70000D03*
X-72400Y-180000D03*
X-70000D03*
X-113600Y-245600D03*
X-111200D03*
X-113600Y-248000D03*
X-111200D03*
X-113600Y-250400D03*
X-111200D03*
X-115200Y-253600D03*
X-95200Y-252800D03*
X-210800Y-256400D03*
X-86000Y-182400D03*
X-83600D03*
X-81200D03*
X-79200D03*
X-77200D03*
X-86000Y-184800D03*
X-83600D03*
X-81200D03*
X-79200D03*
X-77200D03*
X-86000Y-189600D03*
X-83600D03*
Y-192000D03*
X-81200D03*
Y-189600D03*
X-86000Y-187200D03*
X-83600D03*
X-81200D03*
X-79200D03*
X-77200D03*
X-91200Y-193600D03*
X-93600D03*
X-96000D03*
X-98400D03*
X-100800D03*
X-103200D03*
X-105600D03*
X-91200Y-196400D03*
X-93600D03*
X-96000D03*
X-98400D03*
X-100800D03*
X-103200D03*
X-105600D03*
X-91200Y-199200D03*
X-93600D03*
X-96000D03*
X-98400D03*
X-100800D03*
X-103200D03*
X-105600D03*
Y-202000D03*
X-103200D03*
X-100800D03*
X-98400D03*
X-96000D03*
X-93600D03*
X-91200D03*
X-112800Y-186400D03*
X-115600D03*
X-118400D03*
X-120800D03*
X-143200Y-141600D03*
Y-144400D03*
Y-147200D03*
Y-150000D03*
Y-152800D03*
X-134800D03*
X-137600D03*
X-140400D03*
X-134800Y-150000D03*
X-137600D03*
X-140400D03*
Y-147200D03*
X-137600D03*
X-134800D03*
X-132000D03*
X-140400Y-144400D03*
X-137600D03*
X-134800D03*
X-132000D03*
Y-141600D03*
X-134800D03*
X-137600D03*
X-140400D03*
X-214400Y81600D03*
Y71600D03*
Y61600D03*
Y51600D03*
Y41600D03*
Y31600D03*
Y21600D03*
Y11600D03*
Y1600D03*
Y-8400D03*
Y-18400D03*
Y-28400D03*
Y-38400D03*
Y-48400D03*
Y-58400D03*
Y-68400D03*
Y-78400D03*
Y-88400D03*
Y-98400D03*
Y-108400D03*
Y-118400D03*
X-163600Y8000D03*
Y10400D03*
X-163200Y12800D03*
Y15200D03*
X-161200Y8800D03*
Y10800D03*
X-114000Y-120000D03*
Y-117600D03*
X-111600Y-120000D03*
Y-117600D03*
X-114000Y-114400D03*
Y-112000D03*
X-111600Y-114400D03*
Y-112000D03*
X-114000Y-108400D03*
Y-106000D03*
X-111600Y-108400D03*
Y-106000D03*
X-114000Y-102800D03*
Y-100400D03*
X-111600Y-102800D03*
Y-100400D03*
X-109200D03*
Y-102800D03*
Y-106000D03*
Y-108400D03*
Y-112000D03*
Y-114400D03*
Y-117600D03*
Y-120000D03*
X-152400Y-15600D03*
X-154800D03*
X-157200D03*
X-152400Y-13200D03*
X-154800D03*
X-157200D03*
X-162400Y400D03*
Y-2000D03*
X-163600Y5200D03*
Y2800D03*
X-164800Y400D03*
Y-2000D03*
X-162400Y-6800D03*
Y-4400D03*
X-164800Y-6800D03*
Y-4400D03*
X-137600Y-104400D03*
X-135200D03*
X-132800D03*
X-130400D03*
X-128000D03*
X-137600Y-107200D03*
X-135200D03*
X-132800D03*
X-130400D03*
X-128000D03*
X-137600Y-110000D03*
X-135200D03*
X-132800D03*
X-130400D03*
X-128000D03*
X-137600Y-112800D03*
X-135200D03*
X-132800D03*
X-130400D03*
X-128000D03*
X-137600Y-115600D03*
X-135200D03*
X-132800D03*
X-130400D03*
X-128000D03*
Y-118400D03*
X-130400D03*
X-132800D03*
X-135200D03*
X-137600D03*
X-108000Y12000D03*
X-106000Y13600D03*
X-104000Y15200D03*
X-102000Y16800D03*
X-110800Y12000D03*
X-108400Y14400D03*
X-106800Y16000D03*
X-104800Y17600D03*
X-102800Y19200D03*
X-126400Y42000D03*
X-164400Y-27200D03*
X-162000D03*
X-159600D03*
X-158800Y-24800D03*
X-161200D03*
X-163600D03*
X-188400Y79200D03*
X-190800D03*
X-193200D03*
X-143600Y78800D03*
X-141200D03*
X-187600Y-1600D03*
X-190800D03*
X-193600D03*
X-151200Y106400D03*
X-164000D03*
X-176800Y106000D03*
X-184400D03*
X-194400D03*
X-186800Y126000D03*
Y136000D03*
X-176800D03*
Y126000D03*
X-204400Y116000D03*
X-194400D03*
X-184400D03*
X-176800D03*
X-204000Y145800D03*
X-194000D03*
X-184000D03*
X-176400D03*
Y150800D03*
X-184000D03*
X-194000D03*
X-204000D03*
X-214000D03*
X-214400Y141600D03*
Y131600D03*
Y121600D03*
Y111600D03*
Y101600D03*
Y91600D03*
X-123600Y96000D03*
X-121200D03*
X-118800D03*
X-116400D03*
X-113200Y120400D03*
X-110800D03*
X-108400D03*
X-113200Y118000D03*
X-110800D03*
X-108400D03*
Y115600D03*
X-110800D03*
X-113200D03*
X-121600Y131200D03*
Y133600D03*
Y136000D03*
X-130400Y114400D03*
X-128000D03*
X-130400Y116800D03*
X-128000D03*
X-137200Y114800D03*
Y112500D03*
X-139600D03*
Y114800D03*
X134400Y-244400D03*
X124000Y-245200D03*
X104000D03*
X-35600Y-254400D03*
X-66000Y-255200D03*
X-56000D03*
X-46000D03*
X-26000D03*
X-16000D03*
X-6000D03*
X24000D03*
X34000D03*
X44000D03*
X74000D03*
X104000D03*
X124000D03*
X134000D03*
X75800Y-191000D03*
X80800Y-195400D03*
X75800D03*
X-67600Y-182400D03*
X-65200Y-184800D03*
X-59200D03*
X-53200D03*
X-46800D03*
X-40800D03*
X-34800D03*
X-28400D03*
X-28600Y-187900D03*
X-5200Y-219600D03*
X-2800D03*
X-400D03*
X2000D03*
X4400D03*
Y-217200D03*
X2000D03*
X-400D03*
X-2800D03*
X-5200D03*
Y-214800D03*
X-2800D03*
X-400D03*
X2000D03*
X131200Y-236000D03*
X128800D03*
X126400D03*
X-62400Y-210000D03*
X-60800Y-211600D03*
X-41200Y-234000D03*
X-42400Y-232000D03*
X-25200Y-216000D03*
X-27600D03*
X100800Y-168800D03*
X98000D03*
X56400Y-219600D03*
Y-222352D03*
X116400Y4800D03*
Y2400D03*
X116000Y0D03*
Y-2400D03*
X118400Y0D03*
Y-2400D03*
Y-7200D03*
Y-4800D03*
X116000Y-7200D03*
Y-4800D03*
X118400Y-12000D03*
Y-9600D03*
X116000Y-12000D03*
Y-9600D03*
X113600D03*
Y-12000D03*
Y-4800D03*
Y-7200D03*
X111200Y-9600D03*
Y-12000D03*
Y-7200D03*
X118800Y2400D03*
Y4800D03*
X123600Y37600D03*
X121600D03*
X122000Y-43600D03*
X124400D03*
X119600Y-41200D03*
X122000D03*
X124400D03*
X119600Y-38800D03*
X122000D03*
X124400D03*
X3600Y116400D03*
X6800D03*
X5200Y118000D03*
X12400Y105600D03*
X14400D03*
X214000Y-125200D03*
Y-135200D03*
Y-145200D03*
X194000Y-225200D03*
X184000D03*
X174000D03*
X164000D03*
X154000D03*
X212800Y-221600D03*
X202800D03*
X212800Y-211600D03*
Y-201600D03*
Y-191600D03*
Y-181600D03*
Y-171600D03*
Y-161600D03*
X202800D03*
X214000Y-225200D03*
X144000Y-235200D03*
X154000D03*
X164000D03*
X174000D03*
X184000D03*
X194000D03*
Y-245200D03*
X184000D03*
X174000D03*
X164000D03*
X154000D03*
X144000D03*
Y-223200D03*
X146000Y-204400D03*
Y-202000D03*
X143600Y-158800D03*
X147600Y-166000D03*
X146400Y-181600D03*
X159600Y-171600D03*
X156400Y-140400D03*
X164400Y-153600D03*
X184000Y-122800D03*
X192400Y-125200D03*
X144000Y-255200D03*
X154000D03*
X164000D03*
X174000D03*
X184000D03*
X194000D03*
X204000D03*
X214000D03*
X224000D03*
Y-245200D03*
Y-235200D03*
Y-225200D03*
Y-215200D03*
Y-205200D03*
Y-195200D03*
Y-185200D03*
Y-175200D03*
Y-165200D03*
Y-155200D03*
Y-145200D03*
Y-135200D03*
Y-125200D03*
X214000Y-95200D03*
Y-105200D03*
Y-115200D03*
X199600Y36000D03*
X166000Y-98800D03*
X166400Y-106800D03*
X177600Y-113200D03*
X166400Y-116400D03*
X184000Y-112800D03*
X192400Y-110000D03*
X193600Y-88400D03*
X212400Y-57200D03*
X185200Y-70800D03*
X194000Y-69600D03*
X194800Y-80800D03*
X204400D03*
X214400Y-70800D03*
Y-80800D03*
X224000Y-115200D03*
Y-105200D03*
Y-95200D03*
Y-85200D03*
Y-75200D03*
Y-65200D03*
Y-55200D03*
Y-45200D03*
Y-35200D03*
Y-25200D03*
Y-15200D03*
Y-5200D03*
Y4800D03*
Y14800D03*
Y24800D03*
Y34800D03*
Y44800D03*
Y54800D03*
Y64800D03*
Y74800D03*
Y84800D03*
X198000Y12400D03*
Y10000D03*
Y7600D03*
Y5200D03*
Y2800D03*
X195600Y12400D03*
X180400Y8400D03*
X182400Y9600D03*
Y7200D03*
Y-800D03*
Y1200D03*
Y3200D03*
X160400Y54800D03*
X162800D03*
X165200D03*
X167600D03*
X224000Y94800D03*
X204000Y115600D03*
Y104800D03*
X214000Y115600D03*
Y104800D03*
X224000D03*
Y115600D03*
X224400Y125200D03*
Y134400D03*
X216800Y143600D03*
X208400D03*
X224400Y144800D03*
X224000Y151200D03*
X216400D03*
X208400D03*
X200800D03*
X196000Y144800D03*
Y132000D03*
Y120000D03*
X194800Y106400D03*
X182400D03*
X171600D03*
X167600Y134000D03*
X167200Y110000D03*
Y120000D03*
G54D22*
X159600Y-250000D03*
X179600Y-250062D03*
G54D23*
X220526Y53598D03*
Y18402D03*
X197101Y52260D03*
Y19740D03*
G54D14*
X-122400Y-142400D03*
X-120400Y-144400D03*
X-122400D03*
X-124400D03*
Y-142400D03*
Y-140400D03*
X89200Y-99086D03*
X86172Y-92458D03*
X209021Y-200579D03*
G54D24*
X194739Y47024D03*
Y24976D03*
G54D15*
X-209600Y-135600D03*
X-85400Y-194800D03*
X-113600Y-122400D03*
X-124400Y-180800D03*
X-118800Y-225416D03*
X-164800Y-8800D03*
X-143200Y52000D03*
X-142400Y54800D03*
X-162000Y25200D03*
X-163600D03*
X-162000Y26800D03*
X-163600D03*
X-116800Y17600D03*
Y19200D03*
X-115200Y18400D03*
X-143200Y34800D03*
X-143600Y40000D03*
X-120800Y67200D03*
X-145600Y70800D03*
Y66100D03*
X-143600Y53600D03*
X-122400Y79200D03*
X-165200Y61200D03*
Y56000D03*
Y57600D03*
Y59600D03*
X-124000Y56800D03*
X-139600Y-5600D03*
X-76000Y-94000D03*
X-73772Y-85372D03*
X-127200Y10400D03*
X-206000Y92400D03*
X-82800Y140000D03*
X-87600Y139600D03*
X-133600D03*
X-99600D03*
X-126400Y141200D03*
X-93941Y139941D03*
X-76700Y140000D03*
X-34400Y-242800D03*
X67600Y-227600D03*
X70800D03*
X66000D03*
X58800Y-240400D03*
X57200D03*
X83200Y-238400D03*
X99200Y-242400D03*
X97200D03*
X-62800Y-243200D03*
X-56000Y-244000D03*
X46800Y-238000D03*
X51600Y-236000D03*
X43600Y-237600D03*
X65600Y-211200D03*
X103428Y-176628D03*
X112800Y-192400D03*
X118800Y-183200D03*
X111600Y-175600D03*
X68000Y-211200D03*
X80400Y-211100D03*
X58000Y-188200D03*
X57600Y-192400D03*
X48400Y-211600D03*
X65600Y-200700D03*
X62400Y-200400D03*
X51600Y-208000D03*
X76000Y-239200D03*
X92000Y-239600D03*
X93600D03*
X46400Y-251200D03*
Y-248800D03*
Y-246800D03*
X52572Y-217428D03*
X-60400Y-254400D03*
X-9200Y-223600D03*
X-63600Y-225200D03*
X-62000Y-194800D03*
X-34300Y-194500D03*
X-54800Y-194400D03*
X-29200Y-194000D03*
X-41800Y-194800D03*
X-58000D03*
X26228Y-219028D03*
X-57200Y-230400D03*
X31200Y-240800D03*
X104642Y-203442D03*
X96400Y-192000D03*
X94000Y-184800D03*
X80400Y-173600D03*
X37200Y-200000D03*
X93937Y-191937D03*
X75663Y-173563D03*
X85112Y-173588D03*
X-19200Y60800D03*
X49600Y70000D03*
X39200Y50400D03*
X34400D03*
X23200Y49200D03*
Y43600D03*
X10005Y45290D03*
X14100Y70400D03*
X28000Y84400D03*
X28800Y86400D03*
X27200D03*
X88400Y45600D03*
X67800Y46400D03*
X4400Y63900D03*
X-64400Y53600D03*
X-30800Y84000D03*
X-42200Y62100D03*
X-28100Y53200D03*
X-56500Y71200D03*
X-55900Y66000D03*
X-68400Y53200D03*
X-21600Y77600D03*
X-24400Y65600D03*
X-12800Y75600D03*
X-60000Y85700D03*
X30400Y72800D03*
X29200Y71600D03*
X28000Y70400D03*
X26800Y69200D03*
X17200Y38000D03*
X6386Y9107D03*
X4400Y48000D03*
Y62400D03*
X19051Y29007D03*
X20860Y27198D03*
X6386Y34435D03*
X10005Y38054D03*
X11814Y36244D03*
X13623Y34435D03*
X8195Y36244D03*
X4577Y32626D03*
X15500Y32600D03*
X6386Y19961D03*
Y27198D03*
Y23580D03*
X4577Y21771D03*
X8195Y18152D03*
X4577Y7297D03*
X6386Y12725D03*
X11814Y14534D03*
X8195D03*
X15432Y21771D03*
X13623Y23580D03*
X13719Y19981D03*
X10000Y12723D03*
X-12000Y70000D03*
X124000Y79200D03*
X5200Y58000D03*
X28000Y75600D03*
X-38800Y56000D03*
X10400Y-43200D03*
X-2700Y-39800D03*
X54700Y-79086D03*
X78652Y-91723D03*
X35600Y-92470D03*
X58300Y-77086D03*
X43000Y-100786D03*
X42825Y-104322D03*
Y-107471D03*
X70974Y-101172D03*
Y-104322D03*
X70900Y-107048D03*
X60738Y-104322D03*
Y-101172D03*
X63297Y-104322D03*
X53000Y-104086D03*
X55620Y-101172D03*
X53061D03*
X63297Y-113771D03*
X50502D03*
X22670Y-25268D03*
X20860Y-23458D03*
X26287Y-18032D03*
X24478Y-23459D03*
X22669Y-21650D03*
X26287D03*
X24478Y-19841D03*
X20860Y-27078D03*
X19051Y-25268D03*
X17241Y-27078D03*
X19051Y-28887D03*
X15432D03*
X17241Y-30696D03*
X15432Y-32506D03*
X13623Y-34315D03*
X11814Y-32506D03*
X13623Y-30696D03*
X-14737Y-93086D03*
X-36400Y-77200D03*
X-58637Y-93086D03*
Y-89886D03*
X-14800Y-90400D03*
X-40474Y-104103D03*
X-37544Y-101030D03*
X-40400Y-101086D03*
X-43033Y-104103D03*
X-40474Y-110402D03*
X-44337Y-113386D03*
X-41700Y-113286D03*
X-31500D03*
X-28900D03*
X-22700Y-100386D03*
X-22561Y-104103D03*
Y-107253D03*
X-50711D03*
Y-104103D03*
Y-100953D03*
X-30238Y-104103D03*
X-32797D03*
X-32900Y-100386D03*
X4577Y-28887D03*
X2768Y-27078D03*
X959Y-28887D03*
X2768Y-30696D03*
X959Y-25268D03*
X-851Y-27078D03*
Y-23458D03*
X-2660Y-25267D03*
X-4469Y-23459D03*
X-6278Y-21650D03*
X-2660D03*
X-4469Y-19841D03*
X6386Y-30696D03*
X8195Y-32506D03*
X4577D03*
X6386Y-34315D03*
X17238Y-5338D03*
X19051Y-7177D03*
X28097Y-16222D03*
X26287Y-14413D03*
X13623Y-16224D03*
X15432Y-14413D03*
X17241Y-16222D03*
X19051Y-14413D03*
X24478Y-12604D03*
X20860D03*
X17241D03*
X19051Y-10795D03*
X20860Y-8986D03*
X17241D03*
X15432Y-3558D03*
Y-7178D03*
X13623Y-5367D03*
X-53200Y-25200D03*
X-11706Y-12604D03*
X-9897Y-14413D03*
X-8087Y-8986D03*
X-6278Y-7177D03*
X-2660D03*
X-4469Y-8986D03*
X-6278Y-14413D03*
X-2660D03*
Y-10795D03*
X-4469Y-12604D03*
X-851D03*
Y-8986D03*
X-6278Y-10795D03*
X-11714Y-8914D03*
X-851Y-5367D03*
X959Y-3557D03*
Y-7177D03*
X2768Y-5366D03*
X-4369Y-1849D03*
X-2660Y61D03*
X2709Y-12609D03*
X13600Y-12600D03*
X131600Y-19200D03*
X116500Y92800D03*
X131200Y106800D03*
X138400Y140700D03*
X133600Y140400D03*
X114400D03*
X102400D03*
X92400D03*
X87600Y140000D03*
X57200Y140400D03*
X-14900Y140000D03*
X123517Y117517D03*
X87300Y116800D03*
X23200Y137200D03*
X34011Y140411D03*
X28000Y140400D03*
X0Y128100D03*
X91300Y121400D03*
X14400Y113300D03*
X83600Y116800D03*
X-51619Y140019D03*
X136800Y123200D03*
X122000Y137200D03*
X124800Y134800D03*
X93200Y100700D03*
Y102300D03*
Y103900D03*
X-39808Y139600D03*
X95200Y121500D03*
X15000Y133000D03*
X82400Y139600D03*
X87200Y136800D03*
X86400Y124800D03*
X90800Y124600D03*
X82000Y124800D03*
X106000Y134000D03*
X95400Y140500D03*
X-28700Y140000D03*
X-10000Y139600D03*
X-4000Y140000D03*
X2000D03*
X8000Y140500D03*
X39362Y140277D03*
X44500Y140500D03*
X50700Y139900D03*
X62800Y140000D03*
X69800D03*
X75350Y140550D03*
X108800Y140400D03*
X118400D03*
X-64400D03*
X134800Y106800D03*
X132800D03*
X129600Y92400D03*
X171200Y-158800D03*
X171600Y-167200D03*
X180800Y41200D03*
X192800Y26800D03*
X188400Y18800D03*
X177600Y54000D03*
X175600D03*
X160400Y-81600D03*
X192000Y46000D03*
X188107Y49307D03*
X184000Y32000D03*
X175200Y45200D03*
X182800Y5200D03*
X158800Y-42000D03*
X215750Y-39450D03*
X217600Y-36000D03*
Y-25200D03*
X212940Y-24260D03*
X214400Y-49600D03*
X207740Y-45740D03*
X203200Y-34400D03*
X205200Y70000D03*
X165600Y140400D03*
X149400D03*
X144000Y140500D03*
X147600Y130800D03*
X154700Y139800D03*
X145200Y108400D03*
G54D16*
X-202139Y74050D03*
X-202200Y42554D03*
G54D25*
X190192Y-63860D03*
G54D17*
X-112126Y32400D03*
G54D26*
X213657Y-63860D03*
G54D18*
X138937Y75331D03*
X181063Y96669D03*
G54D27*
X173780Y82457D03*
X160000Y89543D03*
G54D19*
X138937Y96669D03*
G54D28*
X181063Y75331D03*
G54D29*
G01X4000Y-5600D02*
X5100Y-4500D01*
Y900D01*
X1500Y4500D01*
Y6000D01*
X2400Y6900D01*
Y8000D01*
X1600Y8800D01*
Y9600D01*
X2200Y10200D01*
Y11500D01*
X1500Y12200D01*
Y15900D01*
X2400Y16800D01*
Y18500D01*
X1500Y19400D01*
Y24100D01*
X2277Y24877D01*
Y25923D01*
X-20600Y48800D01*
X-94000D01*
X-106800Y36000D01*
Y30800D01*
X-113200Y24400D01*
Y16400D01*
X-175600Y-46000D01*
Y-128000D01*
X-165600Y-138000D01*
X-132800D01*
X-121200Y-149600D01*
Y-150400D01*
X-120000Y-151600D01*
Y-181200D01*
X-116400Y-184800D01*
X-107600D01*
X-105200Y-187200D01*
X-92800D01*
X-85400Y-194600D01*
Y-194800D01*
G01X-113600Y-122400D02*
X-114400D01*
X-116000Y-120800D01*
Y-99600D01*
X-35200Y-18800D01*
X-33200D01*
X-32400Y-19600D01*
X-27800D01*
X-24900Y-16700D01*
X-23900D01*
X-22000Y-18600D01*
X-18400D01*
X-17700Y-19300D01*
X-16600D01*
X-15900Y-18600D01*
X-14700D01*
X-14000Y-19300D01*
X-13000D01*
X-12300Y-18600D01*
X-11100D01*
X-10400Y-19300D01*
X-9300D01*
X-4900Y-14900D01*
X-4000D01*
X-3183Y-15717D01*
X-2117D01*
X991Y-12609D01*
X2709D01*
G01X-9200Y-223600D02*
X-8000Y-222400D01*
X6800D01*
X9200Y-220000D01*
Y-154400D01*
X25600Y-138000D01*
X58400D01*
X75600Y-120800D01*
Y-118800D01*
X82000Y-112400D01*
X87600D01*
X91200Y-108800D01*
Y-103600D01*
X96800Y-98000D01*
Y-53600D01*
X61700Y-18500D01*
X50900D01*
X49100Y-16700D01*
X47500D01*
X44900Y-19300D01*
X43800D01*
X42900Y-18400D01*
X38600D01*
X37700Y-19300D01*
X36600D01*
X35900Y-18600D01*
X34800D01*
X34100Y-19300D01*
X29400D01*
X28500Y-18400D01*
X26656D01*
X26287Y-18032D01*
G01X131600Y-19200D02*
X128000Y-22800D01*
X124400D01*
X121200Y-26000D01*
Y-29200D01*
X118800Y-31600D01*
X107600D01*
X100000Y-39200D01*
X83600D01*
X62050Y-17650D01*
X51250D01*
X49500Y-15900D01*
X47700D01*
X46700Y-14900D01*
X45700D01*
X43000Y-17600D01*
X39200D01*
X38000Y-16400D01*
X33300D01*
X32183Y-17517D01*
X31217D01*
X30333Y-16633D01*
X29467D01*
X28500Y-17600D01*
X27700D01*
X26850Y-16750D01*
X25750D01*
X25000Y-17500D01*
X23900D01*
X23100Y-16700D01*
X22200D01*
X15933Y-22967D01*
X14967D01*
X8700Y-16700D01*
Y-15700D01*
X11800Y-12600D01*
X13600D01*
M02*
