G04 ================== begin FILE IDENTIFICATION RECORD ==================*
G04 Layout Name:  RK_SAPPHIRE_SOCBOARD_RK3399_LPDDR3D178P232SD8_V12_20161110_final_lint.brd*
G04 Film Name:    L4*
G04 File Format:  Gerber RS274X*
G04 File Origin:  Cadence Allegro 16.6-S050*
G04 Origin Date:  Fri Nov 11 15:52:06 2016*
G04 *
G04 Layer:  BOARD GEOMETRY/OUTLINE*
G04 Layer:  ETCH/POWER2*
G04 Layer:  PIN/POWER2*
G04 Layer:  VIA CLASS/POWER2*
G04 *
G04 Offset:    (0.000 0.000)*
G04 Mirror:    No*
G04 Mode:      Positive*
G04 Rotation:  0*
G04 FullContactRelief:  No*
G04 UndefLineWidth:     5.000*
G04 ================== end FILE IDENTIFICATION RECORD ====================*
%FSLAX25Y25*MOIN*%
%IR0*IPPOS*OFA0.00000B0.00000*MIA0B0*SFA1.00000B1.00000*%
%ADD26O,.098429X.059059*%
%ADD12C,.11811*%
%ADD11O,.05906X.1378*%
%ADD10O,.07087X.1378*%
%ADD28O,.106299X.055118*%
%ADD25O,.137799X.059059*%
%ADD21C,.06*%
%ADD27C,.043311*%
%ADD15C,.01378*%
%ADD24C,.025591*%
%ADD22C,.07087*%
%ADD17C,.035429*%
%ADD20C,.086614*%
%ADD16C,.015748*%
%ADD18O,.07874X.055118*%
%ADD19O,.098425X.047244*%
%ADD14C,.019689*%
%ADD23O,.059059X.035429*%
%ADD13O,.098425X.070866*%
%ADD29C,.004*%
%ADD30C,.01*%
%ADD31C,.02*%
%ADD32C,.012*%
%ADD33C,.03*%
%ADD34C,.04*%
%ADD35C,.015*%
%ADD36C,.005*%
%ADD42C,.134052*%
%ADD45C,.145862*%
%ADD46C,.0435*%
%ADD43C,.04547*%
%ADD39C,.023816*%
%ADD38C,.047434*%
%ADD49C,.027752*%
%ADD44C,.047438*%
%ADD47C,.039564*%
%ADD41C,.098614*%
%ADD37C,.019874*%
%ADD48C,.037596*%
%ADD40O,.043494X.090744*%
G75*
%LPD*%
G75*
G36*
G01X-200400Y-202000D02*
X-208000Y-194400D01*
Y-193797D01*
G03Y-191803I-1100J997D01*
G01Y-189617D01*
G03Y-188183I-1300J717D01*
G01Y84800D01*
X-188000Y104800D01*
X-185274D01*
G03X-183526I874J1200D01*
G01X-177674D01*
G03X-175926I874J1200D01*
G01X-166000D01*
X-165600Y104400D01*
X-149200D01*
X-148000Y105600D01*
Y116000D01*
X-140400Y123600D01*
Y130000D01*
X-137600Y132800D01*
Y139600D01*
X-137200Y140000D01*
X-134890D01*
G02X-134591Y139677I0J-300D01*
G03X-132609I991J-77D01*
G02X-132310Y140000I299J23D01*
G01X-131888D01*
G02X-131649Y139519I0J-300D01*
G03X-131583Y138001I949J-719D01*
G02Y137599I-222J-201D01*
G03X-129817I883J-799D01*
G02Y138001I222J201D01*
G03X-129751Y139519I-883J799D01*
G02X-129512Y140000I239J181D01*
G01X-128359D01*
G02X-128099Y139550I0J-300D01*
G03X-126800Y137300I1299J-750D01*
G01X-124800D01*
Y96800D01*
X-129699Y91901D01*
X-130221D01*
X-135021Y87100D01*
X-160221D01*
X-160522Y86800D01*
X-160800D01*
Y86522D01*
X-181100Y66221D01*
Y66100D01*
X-181200Y66000D01*
Y-36211D01*
G03Y-37389I800J-589D01*
G01Y-121600D01*
X-168400Y-134400D01*
Y-196800D01*
X-173600Y-202000D01*
X-180102D01*
X-180117Y-201867D01*
G03X-182483I-1183J-133D01*
G01X-182498Y-202000D01*
X-200400D01*
G37*
G36*
G01X-215450Y-257750D02*
Y152254D01*
X-175050D01*
Y107450D01*
X-150003D01*
Y122067D01*
X-147621D01*
G03Y131989I0J4961D01*
G01X-150018D01*
Y142000D01*
X13278D01*
Y141378D01*
G03X21215I3969J0D01*
G01Y142000D01*
X45183D01*
G02X45395Y141488I0J-300D01*
G01X45136Y141228D01*
Y138364D01*
X41200Y134429D01*
Y100832D01*
X40932Y100738D01*
G03X40700Y100961I-932J-738D01*
G01Y104290D01*
X37890Y107100D01*
X22110D01*
X14510Y99500D01*
X-19940D01*
X-23140Y102700D01*
X-24910D01*
X-31317Y109107D01*
G02X-31520Y109539I63J293D01*
G03X-33280I-880J461D01*
G02X-33546Y109100I-266J-139D01*
G01X-51360D01*
X-57360Y103100D01*
X-59539D01*
G03X-61503Y101761I-961J-700D01*
G02X-61756Y101300I-253J-161D01*
G01X-75528D01*
X-82428Y94400D01*
X-107954D01*
G02X-108166Y94912I0J300D01*
G01X-107779Y95300D01*
X-100579D01*
X-97700Y98179D01*
Y110221D01*
X-100979Y113500D01*
X-101379D01*
X-102500Y114621D01*
Y129021D01*
X-113779Y140300D01*
X-126368D01*
X-126868Y140800D01*
X-137532D01*
X-138400Y139932D01*
Y133132D01*
X-141200Y130332D01*
Y123932D01*
X-148800Y116332D01*
Y105932D01*
X-149532Y105200D01*
X-165268D01*
X-165668Y105600D01*
X-188332D01*
X-208800Y85132D01*
Y-194732D01*
X-200732Y-202800D01*
X-173268D01*
X-167600Y-197132D01*
Y-134068D01*
X-180400Y-121268D01*
Y-37802D01*
X-180270Y-37785D01*
G03Y-35815I-131J985D01*
G01X-180400Y-35798D01*
Y-34046D01*
G02X-179888Y-33834I300J0D01*
G01X-158621Y-55100D01*
X-152621D01*
X-138261Y-69461D01*
G03X-136367Y-69648I1061J1061D01*
G02X-135900Y-69897I167J-249D01*
G01Y-89379D01*
X-145900Y-99379D01*
Y-128979D01*
X-150700Y-133779D01*
Y-151421D01*
X-136700Y-165421D01*
Y-197821D01*
X-118072Y-216449D01*
Y-220228D01*
G03X-115072I1500J0D01*
G01Y-215207D01*
X-133700Y-196579D01*
Y-180746D01*
G02X-133261Y-180480I300J0D01*
G03Y-178720I461J880D01*
G02X-133700Y-178454I-139J266D01*
G01Y-164179D01*
X-143376Y-154502D01*
G02X-143171Y-153990I212J212D01*
G03X-144390Y-152771I-29J1190D01*
G02X-144903Y-152976I-300J7D01*
G01X-147700Y-150179D01*
Y-135021D01*
X-142900Y-130221D01*
Y-100621D01*
X-133762Y-91484D01*
G02X-133250Y-91696I212J-212D01*
G01Y-92682D01*
X-141650Y-101082D01*
Y-127718D01*
X-129650Y-139718D01*
Y-153482D01*
X-131250Y-155082D01*
Y-160518D01*
X-129650Y-162118D01*
Y-168918D01*
X-128850Y-169718D01*
Y-174282D01*
X-129650Y-175082D01*
Y-196518D01*
X-123284Y-202884D01*
G03X-121516Y-201116I884J884D01*
G01X-127150Y-195482D01*
Y-176118D01*
X-126350Y-175318D01*
Y-168682D01*
X-127150Y-167882D01*
Y-161082D01*
X-128750Y-159482D01*
Y-156118D01*
X-127150Y-154518D01*
Y-138682D01*
X-139150Y-126682D01*
Y-102118D01*
X-130750Y-93718D01*
Y-65482D01*
X-133150Y-63082D01*
Y-41318D01*
X-129950Y-38118D01*
Y-8918D01*
X-126350Y-5318D01*
Y-918D01*
X-100750Y24682D01*
Y37882D01*
X-99177Y39455D01*
G02X-98670Y39303I212J-212D01*
G03X-96139Y38539I1470J297D01*
G01X-91379Y43300D01*
X-87421D01*
X-78684Y34562D01*
G02X-78896Y34050I-212J-212D01*
G01X-80682D01*
X-89116Y42484D01*
G03X-90884Y40716I-884J-884D01*
G01X-81718Y31550D01*
X-33082D01*
X-27916Y36716D01*
G03X-28027Y38583I-884J884D01*
G02X-28068Y39015I185J236D01*
G03X-29200Y41500I-1132J985D01*
G01X-30621D01*
X-35021Y37100D01*
X-76979D01*
X-81716Y41838D01*
G02X-81504Y42350I212J212D01*
G01X-52682D01*
X-47250Y47782D01*
Y61122D01*
G03X-47116Y62202I-1050J678D01*
G01X-47124Y62225D01*
Y62400D01*
X-46732D01*
X-35878Y51546D01*
G02X-35999Y51048I-212J-212D01*
G03X-36391Y50814I299J-948D01*
G02X-36809I-209J215D01*
G03Y49386I-691J-714D01*
G02X-36391I209J-215D01*
G03X-34752Y49801I691J714D01*
G02X-34254Y49923I286J-90D01*
G01X-30984Y46652D01*
X-30975Y46607D01*
G03X-30193Y45825I975J193D01*
G01X-30148Y45816D01*
X-28522Y44190D01*
G02X-28610Y43705I-212J-212D01*
G03X-27295Y42390I410J-905D01*
G02X-26810Y42478I273J-124D01*
G01X-15200Y30868D01*
Y22890D01*
G02X-15523Y22591I-300J0D01*
G03Y20609I-77J-991D01*
G02X-15200Y20310I23J-299D01*
G01Y13739D01*
G02X-15712Y13527I-300J0D01*
G01X-15986Y13800D01*
X-16091D01*
G02X-16220Y14027I0J150D01*
G03X-18010Y14201I-854J508D01*
G02X-18293Y13800I-283J-101D01*
G01X-20870D01*
G02X-21155Y14193I0J300D01*
G03X-22108Y15494I-945J307D01*
G02X-22410Y15818I-3J300D01*
G03X-23392Y14906I-990J82D01*
G02X-23090Y14582I3J-300D01*
G03X-23045Y14193I990J-82D01*
G02X-23330Y13800I-285J-93D01*
G01X-23586D01*
X-25586Y15800D01*
X-29682D01*
G03X-29739Y15861I-1118J-1000D01*
G01X-36179Y22300D01*
X-45821D01*
X-70221Y-2100D01*
X-73821D01*
X-95100Y-23379D01*
Y-58979D01*
X-99900Y-63779D01*
Y-133821D01*
X-57500Y-176221D01*
Y-189421D01*
X-53600Y-193321D01*
Y-193470D01*
G02X-54109Y-193686I-300J0D01*
G03X-55323Y-195245I-691J-714D01*
G02Y-195755I-158J-255D01*
G03X-53922Y-197064I523J-845D01*
G02X-53397Y-197054I265J-140D01*
G03X-52439Y-197762I1297J754D01*
G01X-52397Y-197771D01*
X-51318Y-198850D01*
X-49400D01*
G03X-48666Y-198612I0J1250D01*
G02X-48275Y-198646I176J-243D01*
G03X-45700Y-197600I1075J1046D01*
G01Y-197146D01*
G02X-45188Y-196934I300J0D01*
G01X-43500Y-198621D01*
Y-200621D01*
X-41021Y-203100D01*
X-37421D01*
X-32700Y-207821D01*
Y-216621D01*
X-29421Y-219900D01*
X-23421D01*
X-19061Y-224260D01*
G03X-16940Y-222139I1061J1061D01*
G01X-22179Y-216900D01*
X-23835D01*
G02X-24110Y-216479I0J300D01*
G03X-26158Y-215293I-1090J479D01*
G02X-26642I-242J178D01*
G03X-28750Y-215692I-958J-707D01*
G02X-29252Y-215826I-290J78D01*
G01X-29700Y-215379D01*
Y-206579D01*
X-36179Y-200100D01*
X-37670D01*
G02X-37883Y-199588I0J300D01*
G03X-39293I-705J700D01*
G02X-39506Y-200100I-213J-211D01*
G01X-39779D01*
X-40500Y-199379D01*
Y-197200D01*
G03X-41106Y-195996I-1500J0D01*
G02X-41129Y-195533I179J241D01*
G03X-42749Y-194507I-671J733D01*
G02X-43248Y-194630I-287J89D01*
G01X-43300Y-194578D01*
Y-188621D01*
X-42500Y-187821D01*
Y-178179D01*
X-88500Y-132179D01*
Y-26321D01*
X-86879Y-24700D01*
X-78179D01*
X-50579Y2900D01*
X-40179D01*
X-37793Y5286D01*
X-36207D01*
X-33434Y2512D01*
G02X-33646Y2000I-212J-212D01*
G01X-37132D01*
X-38000Y1132D01*
Y-100D01*
X-40054D01*
G02X-40320Y339I0J300D01*
G03X-42080I-880J461D01*
G02X-42346Y-100I-266J-139D01*
G01X-52221D01*
X-87900Y-35779D01*
Y-132221D01*
X-38421Y-181700D01*
X-36021D01*
X-33500Y-184221D01*
Y-193307D01*
G02X-33916Y-193584I-300J0D01*
G03X-34446Y-195483I-384J-916D01*
G02X-34208Y-195883I-44J-297D01*
G03X-34221Y-196882I1408J-517D01*
G02X-34562Y-197273I-284J-96D01*
G03X-35684Y-199384I-238J-1227D01*
G01X-34618Y-200450D01*
X-31082D01*
X-22350Y-191718D01*
Y-174682D01*
X-55116Y-141916D01*
G03X-56884Y-143684I-884J-884D01*
G01X-24850Y-175718D01*
Y-190682D01*
X-27821Y-193653D01*
G02X-28304Y-193571I-212J212D01*
G03X-29629Y-194896I-896J-429D01*
G02X-29547Y-195379I-130J-271D01*
G01X-29988Y-195820D01*
G02X-30500Y-195608I-212J212D01*
G01Y-182979D01*
X-34779Y-178700D01*
X-37179D01*
X-84900Y-130979D01*
Y-37021D01*
X-50979Y-3100D01*
X-35232D01*
X-34105Y-4227D01*
G02X-34108Y-4654I-212J-212D01*
G03X-32703Y-6059I692J-713D01*
G02X-32276Y-6056I215J-209D01*
G01X-32075Y-6257D01*
X-32189Y-6371D01*
X-32198Y-6378D01*
G03X-30894Y-7869I591J-799D01*
G02X-30466Y-7865I215J-209D01*
G01X-30261Y-8070D01*
X-30375Y-8184D01*
X-30383Y-8190D01*
G03X-29078Y-9682I596J-795D01*
G02X-28652Y-9680I214J-210D01*
G01X-28458Y-9873D01*
X-28573Y-9988D01*
X-28582Y-9995D01*
G03X-27281Y-11486I583J-805D01*
G02X-26851Y-11480I217J-207D01*
G01X-26647Y-11684D01*
X-26761Y-11798D01*
X-26770Y-11805D01*
G03X-25214Y-12371I591J-799D01*
G02X-24922Y-12000I292J71D01*
G01X-23818D01*
G02X-23527Y-12371I0J-300D01*
G03X-21595I966J-234D01*
G02X-21304Y-12000I292J71D01*
G01X-20200D01*
G02X-19908Y-12371I0J-300D01*
G03X-18680Y-11646I966J-234D01*
G02X-18813Y-11144I79J289D01*
G01X-18726Y-11057D01*
G02X-18229Y-11175I212J-212D01*
G03X-15990Y-10374I1129J375D01*
G01X-16000Y-10348D01*
Y-7986D01*
X-19496Y-4490D01*
G02X-19450Y-4028I212J212D01*
G03X-20828Y-2650I-550J828D01*
G02X-21290Y-2696I-250J166D01*
G01X-24478Y492D01*
G02X-24414Y965I212J212D01*
G03X-23966Y1413I-586J1035D01*
G02X-23440Y1405I261J-148D01*
G03X-23385Y2425I879J464D01*
G02X-23909Y2473I-249J168D01*
G03X-23915Y2487I-1088J-480D01*
G02X-23810Y2858I274J123D01*
G03X-25281Y4075I-560J821D01*
G02X-25768Y3983I-275J120D01*
G01X-27986Y6200D01*
X-30786D01*
X-36786Y12200D01*
X-47682D01*
G03X-48800Y12700I-1118J-1000D01*
G01X-50621D01*
X-69421Y-6100D01*
X-72521D01*
X-83061Y-16639D01*
G03X-80939Y-18761I1061J-1061D01*
G01X-71279Y-9100D01*
X-68179D01*
X-49379Y9700D01*
X-48800D01*
G03X-47682Y10200I0J1500D01*
G01X-37614D01*
X-36212Y8798D01*
G02X-36425Y8286I-212J-212D01*
G01X-38324D01*
G02X-38620Y8636I0J300D01*
G03X-40005Y7893I-980J165D01*
G02X-39915Y7407I-122J-274D01*
G01X-41421Y5900D01*
X-51821D01*
X-79421Y-21700D01*
X-88121D01*
X-91500Y-25079D01*
Y-132854D01*
G02X-92012Y-133066I-300J0D01*
G01X-93300Y-131779D01*
Y-68979D01*
X-94539Y-67739D01*
G03X-96433Y-67552I-1061J-1061D01*
G02X-96900Y-67303I-167J249D01*
G01Y-65021D01*
X-92100Y-60221D01*
Y-24621D01*
X-72579Y-5100D01*
X-68979D01*
X-44579Y19300D01*
X-37421D01*
X-31861Y13739D01*
G03X-29682Y13800I1061J1061D01*
G01X-28958D01*
G02X-28667Y13430I0J-300D01*
G03X-26786Y13591I967J-230D01*
G01X-26799Y13619D01*
Y13800D01*
X-26414D01*
X-25720Y13105D01*
G02X-25940Y12593I-212J-212D01*
G03X-24971Y11625I-25J-993D01*
G02X-24459Y11844I300J7D01*
G01X-24414Y11800D01*
X-18288D01*
G02X-18020Y11364I0J-300D01*
G03X-16199Y10579I886J-449D01*
G02X-15704Y10690I282J-102D01*
G01X-13741Y8727D01*
G02X-13852Y8232I-212J-212D01*
G03X-12580Y6961I337J-935D01*
G02X-12086Y7071I282J-102D01*
G01X-11932Y6917D01*
G02X-12042Y6423I-212J-212D01*
G03X-12005Y4540I336J-935D01*
G01X-11900Y4507D01*
Y2829D01*
X-12004Y2796D01*
G03X-10741Y1589I304J-946D01*
G01X-10711Y1700D01*
X-9096D01*
X-9070Y1583D01*
G03X-7229Y2278I970J217D01*
G01X-7247Y2311D01*
Y2500D01*
X-6989D01*
X-6810Y2678D01*
X-5010D01*
X-3438Y1106D01*
G02X-3420Y701I-212J-212D01*
G03X-2020Y-699I761J-639D01*
G02X-1615Y-717I193J-230D01*
G01X181Y-2512D01*
G02X198Y-2918I-212J-212D01*
G03X1598Y-4318I761J-639D01*
G02X2004Y-4335I193J-230D01*
G01X2199Y-4530D01*
X2091Y-4638D01*
X2089Y-4640D01*
G03X3407Y-6127I678J-726D01*
G02X3812Y-6144I193J-230D01*
G01X5608Y-7940D01*
G02X5626Y-8345I-212J-212D01*
G03X5861Y-9828I761J-640D01*
G02X5915Y-10295I-159J-255D01*
G01X5887Y-10323D01*
G02X5420Y-10269I-212J212D01*
G03X4052Y-11638I-843J-526D01*
G02X4105Y-12105I-159J-255D01*
G01X4039Y-12170D01*
G02X3568Y-12109I-212J212D01*
G03X2209Y-13468I-859J-500D01*
G02X2270Y-13939I-151J-259D01*
G01X1210Y-15000D01*
X-618D01*
X-664Y-15046D01*
X-735Y-15039D01*
G03X-696Y-17402I-116J-1184D01*
G01X-686Y-17400D01*
X1110D01*
X2010Y-18300D01*
X2400D01*
Y-19132D01*
X10468Y-27200D01*
X13932D01*
X14271Y-26861D01*
X14827Y-27417D01*
X16073D01*
X16185Y-27305D01*
X16312Y-27432D01*
X16324Y-27460D01*
G03X17771Y-26237I918J382D01*
G02X17719Y-25771I160J254D01*
G01X17744Y-25746D01*
G02X18210Y-25798I212J-212D01*
G03X19581Y-24428I841J530D01*
G02X19528Y-23962I160J254D01*
G01X19554Y-23937D01*
G02X20020Y-23989I212J-212D01*
G03X21390Y-22618I840J530D01*
G02X21338Y-22152I160J254D01*
G01X21362Y-22128D01*
G02X21828Y-22180I212J-212D01*
G03X23199Y-20810I841J530D01*
G02X23146Y-20344I160J254D01*
G01X23172Y-20318D01*
G02X23638Y-20371I212J-212D01*
G03X25435Y-20110I841J530D01*
G01X25466Y-20000D01*
X27090D01*
X27807Y-19283D01*
X28393D01*
X29110Y-20000D01*
X34396D01*
X34427Y-20110D01*
G03X36340I957J269D01*
G01X36371Y-20000D01*
X37965D01*
X37995Y-20110D01*
G03X39886Y-19502I957J269D01*
G02X40168Y-19100I282J102D01*
G01X41354D01*
G02X41636Y-19502I0J-300D01*
G03X43527Y-20110I934J-338D01*
G01X43558Y-20000D01*
X45201D01*
X45232Y-20110D01*
G03X47145I957J269D01*
G01X47176Y-20000D01*
X48790D01*
X50490Y-18300D01*
X84454D01*
G02X84720Y-18739I0J-300D01*
G03X86591Y-19127I880J-461D01*
G02X87102Y-18892I299J22D01*
G01X87534Y-19324D01*
G02X87386Y-19830I-212J-212D01*
G03X88571Y-21014I213J-971D01*
G02X89076Y-20866I293J-64D01*
G01X118100Y-49890D01*
Y-60910D01*
X105700Y-73310D01*
Y-100110D01*
X67710Y-138100D01*
X63756D01*
G02X63544Y-137588I0J300D01*
G01X90800Y-110332D01*
Y-78868D01*
X82453Y-70521D01*
X82498Y-70426D01*
G03X81174Y-69102I-898J425D01*
G01X81079Y-69147D01*
X80332Y-68400D01*
X38957D01*
X38919Y-68307D01*
G03X37081I-919J-379D01*
G01X37043Y-68400D01*
X-48107D01*
G02X-48384Y-67984I0J300D01*
G03X-50217I-916J384D01*
G02X-50493Y-68400I-277J-116D01*
G01X-54722D01*
G02X-55018Y-68054I0J300D01*
G03X-56982I-982J153D01*
G02X-57278Y-68400I-296J-46D01*
G01X-61532D01*
X-77600Y-84468D01*
Y-113132D01*
X-41132Y-149600D01*
X2468D01*
X9600Y-156732D01*
Y-208332D01*
X12868Y-211600D01*
X17932D01*
X18388Y-211144D01*
G02X18900Y-211356I212J-212D01*
G01Y-226510D01*
X10702Y-234708D01*
G02X10191Y-234474I-212J212D01*
G03X9273Y-235391I-991J73D01*
G02X9507Y-235903I22J-299D01*
G01X5310Y-240100D01*
X-48690D01*
X-51490Y-242900D01*
X-52239D01*
G03Y-244300I-961J-700D01*
G01X-50910D01*
X-49712Y-243103D01*
G02X-49200Y-243315I212J-212D01*
G01Y-251932D01*
X-43894Y-257238D01*
G02X-44106Y-257750I-212J-212D01*
G01X-215450D01*
G37*
G36*
G01X8400Y-9600D02*
X7155Y-8355D01*
G03X7016Y-8216I-769J-630D01*
G01X5744Y-6944D01*
X5735Y-6903D01*
G03X4850Y-6018I-1158J-273D01*
G01X4808Y-6008D01*
X3537Y-4737D01*
X3532Y-4731D01*
G03X3402Y-4602I-765J-635D01*
G01X3397Y-4597D01*
X1728Y-2928D01*
X1723Y-2922D01*
G03X1594Y-2793I-765J-635D01*
G01X1588Y-2788D01*
X540Y-1740D01*
X537Y-1682D01*
G03X460Y-1322I-1187J-65D01*
G02X790Y-919I280J107D01*
G03X5Y-220I168J979D01*
G02X-357Y-596I-288J-85D01*
G03X-585Y-561I-294J-1152D01*
G01X-643Y-557D01*
X-1891Y691D01*
X-1895Y696D01*
G03X-2025Y826I-764J-635D01*
G01X-2030Y830D01*
X-3622Y2422D01*
G02X-3516Y2678I106J106D01*
G01X-3304D01*
X-3269Y2657D01*
G03Y4700I609J1021D01*
G01X-3304Y4679D01*
X-3534D01*
G02X-3657Y4915I0J150D01*
G03X-5383Y5097I-812J572D01*
G02X-5658Y4679I-276J-118D01*
G01X-5879D01*
X-6911Y5711D01*
X-6919Y5759D01*
G03X-7741Y6581I-981J-159D01*
G01X-7789Y6589D01*
X-14400Y13200D01*
Y23312D01*
G02X-13938Y23564I300J0D01*
G03X-13038Y23475I538J836D01*
G02X-12644Y23289I109J-279D01*
G03X-12062Y24525I944J311D01*
G02X-12456Y24711I-109J279D01*
G03X-13938Y25236I-944J-311D01*
G02X-14400Y25488I-162J252D01*
G01Y31200D01*
X-18572Y35372D01*
G02X-18462Y35866I212J212D01*
G03X-19734Y37138I-338J934D01*
G02X-20228Y37028I-282J102D01*
G01X-29291Y46091D01*
X-29211Y46196D01*
G03X-30604Y47589I-789J604D01*
G01X-30709Y47509D01*
X-38085Y54885D01*
G02X-38088Y55307I212J212D01*
G03X-39493Y56712I-712J693D01*
G02X-39915Y56715I-209J215D01*
G01X-46400Y63200D01*
X-85200D01*
X-91150Y57250D01*
X-95718D01*
X-102850Y50118D01*
Y45550D01*
X-103200Y45200D01*
Y42168D01*
X-105650Y39718D01*
Y26350D01*
X-113699Y18301D01*
G02X-114210Y18487I-212J212D01*
G03X-115493Y19349I-990J-87D01*
G02X-115864Y19535I-89J287D01*
G03X-117510Y18505I-936J-335D01*
G02Y18295I-107J-105D01*
G03X-115864Y17265I710J-695D01*
G02X-115493Y17451I282J-101D01*
G03X-115287Y17410I293J949D01*
G02X-115101Y16899I-26J-299D01*
G01X-135600Y-3600D01*
X-155600D01*
X-157600Y-1600D01*
Y31600D01*
X-152001Y37199D01*
G02X-151490Y37013I212J-212D01*
G03X-150413Y38090I990J87D01*
G02X-150599Y38601I26J299D01*
G01X-122228Y66972D01*
G02X-121734Y66862I212J-212D01*
G03X-120462Y68134I934J338D01*
G02X-120571Y68628I102J282D01*
G01X-107200Y82000D01*
X-43690D01*
G02X-43391Y81677I0J-300D01*
G03X-41409I991J-77D01*
G02X-41110Y82000I299J23D01*
G01X-36000D01*
X-19909Y65909D01*
X-19989Y65804D01*
G03X-19830Y64432I789J-604D01*
G02Y63968I-190J-232D01*
G03X-18718Y64069I630J-768D01*
G02Y64331I73J131D01*
G03X-18596Y64411I-482J869D01*
G01X-18491Y64491D01*
X400Y45600D01*
Y28076D01*
G02X-121Y27872I-300J0D01*
G03Y26525I-730J-674D01*
G02X400Y26321I220J-203D01*
G01Y26214D01*
X343Y26169D01*
G03X1375Y24487I616J-780D01*
G01X1470Y24530D01*
X1909Y24091D01*
X1865Y23996D01*
G03X3184Y22678I902J-416D01*
G01X3279Y22721D01*
X3718Y22282D01*
X3675Y22187D01*
G03X4993Y20868I902J-416D01*
G01X5088Y20912D01*
X5528Y20472D01*
X5484Y20378D01*
G03X6802Y19059I902J-416D01*
G01X6897Y19103D01*
X7337Y18663D01*
X7293Y18568D01*
G03X8611Y17250I902J-416D01*
G01X8706Y17294D01*
X9146Y16854D01*
X9102Y16759D01*
G03X10421Y15441I902J-416D01*
G01X10516Y15484D01*
X10955Y15045D01*
X10911Y14950D01*
G03X12230Y13632I902J-416D01*
G01X12325Y13675D01*
X12764Y13236D01*
X12720Y13141D01*
G03X13682Y11733I902J-416D01*
G02X14000Y11433I18J-299D01*
G01Y-457D01*
G02X13682Y-757I-300J0D01*
G03Y-2741I-59J-992D01*
G02X14000Y-3040I18J-299D01*
G01Y-4076D01*
G02X13682Y-4375I-300J0D01*
G03X13453Y-6346I-59J-992D01*
G02X13614Y-6854I-51J-296D01*
G01X13301Y-7168D01*
G02X12793Y-7007I-212J212D01*
G03X11644Y-8156I-979J-170D01*
G02X11805Y-8664I-51J-296D01*
G01X10868Y-9600D01*
X8400D01*
G37*
G36*
G01X-134221Y64700D02*
X-153421D01*
X-174788Y43334D01*
G02X-175300Y43546I-212J212D01*
G01Y62979D01*
X-156579Y81700D01*
X-133853D01*
G02X-133641Y81188I0J-300D01*
G01X-134029Y80800D01*
X-141200D01*
G03X-142864Y79910I0J-2000D01*
G02X-143057Y79860I-125J83D01*
G03Y77740I-543J-1060D01*
G02X-142864Y77690I68J-134D01*
G03X-141200Y76800I1664J1110D01*
G01X-132372D01*
X-127572Y81600D01*
X-118046D01*
G02X-117834Y81088I0J-300D01*
G01X-134221Y64700D01*
G37*
G36*
G01X-76666Y84412D02*
X-70679Y90400D01*
X-63193D01*
G02X-62916Y89984I0J-300D01*
G03X-61084I916J-384D01*
G02X-60807Y90400I277J116D01*
G01X-59430D01*
G02X-59145Y90007I0J-300D01*
G03X-57255I945J-307D01*
G02X-56970Y90400I285J93D01*
G01X-55721D01*
X-49821Y84500D01*
X-36621D01*
X-36534Y84412D01*
G02X-36746Y83900I-212J-212D01*
G01X-76454D01*
G02X-76666Y84412I0J300D01*
G37*
G36*
G01X-135650Y-63104D02*
G02X-136162Y-63316I-300J0D01*
G01X-150179Y-49300D01*
X-156579D01*
X-157866Y-48012D01*
G02X-157654Y-47500I212J212D01*
G01X-156400D01*
G03Y-44500I0J1500D01*
G01X-157779D01*
X-169293Y-32985D01*
G02X-169261Y-32533I212J212D01*
G03X-169100Y-32212I-239J320D01*
G01Y-18284D01*
G03X-169210Y-18009I-400J0D01*
G02X-169218Y-17814I109J103D01*
G03Y-16586I-782J614D01*
G02X-169210Y-16391I118J93D01*
G03X-169100Y-16116I-291J275D01*
G01Y-13821D01*
X-170700Y-12221D01*
Y-11834D01*
G02X-170188Y-11622I300J0D01*
G01X-165500Y-16310D01*
Y-16400D01*
G03X-162500I1500J0D01*
G01Y-15067D01*
X-167700Y-9867D01*
Y34179D01*
X-149779Y52100D01*
X-146579D01*
X-140979Y57700D01*
X-134515D01*
G02X-134303Y57188I0J-300D01*
G01X-149163Y42327D01*
G02X-149636Y42391I-212J212D01*
G03X-150991Y41036I-864J-491D01*
G02X-150927Y40563I-148J-261D01*
G01X-159500Y31990D01*
Y-5710D01*
X-160621Y-6831D01*
X-160663Y-6840D01*
G03X-159282Y-7594I263J-1160D01*
G01X-159315Y-7505D01*
X-158100Y-6290D01*
Y-2956D01*
G02X-157588Y-2744I300J0D01*
G01X-155932Y-4400D01*
X-136892D01*
G02X-136680Y-4912I0J-300D01*
G01X-139318Y-7550D01*
X-141318D01*
X-153650Y-19882D01*
Y-31882D01*
X-155284Y-33516D01*
G03X-153516Y-35284I884J-884D01*
G01X-151150Y-32918D01*
Y-20918D01*
X-140282Y-10050D01*
X-138282D01*
X-129362Y-1130D01*
G02X-128850Y-1343I212J-212D01*
G01Y-4282D01*
X-132450Y-7882D01*
Y-37082D01*
X-135650Y-40282D01*
Y-63104D01*
G37*
G36*
G01X-81082Y44850D02*
X-84682Y48450D01*
X-93756D01*
G02X-93862Y48706I0J150D01*
G01X-93718Y48850D01*
X-90518D01*
X-84618Y54750D01*
X-84118D01*
X-78518Y49150D01*
X-53800D01*
G03Y51650I0J1250D01*
G01X-77482D01*
X-82600Y56768D01*
X-77851Y61517D01*
G03X-77773Y61971I-283J283D01*
G02X-77502Y62400I271J129D01*
G01X-49830D01*
G02X-49724Y62144I0J-150D01*
G01X-49750Y62118D01*
Y48818D01*
X-53718Y44850D01*
X-81082D01*
G37*
G36*
G01X13200Y-210800D02*
X10400Y-208000D01*
Y-156400D01*
X2800Y-148800D01*
X-40800D01*
X-76800Y-112800D01*
Y-105562D01*
G02X-76450Y-105266I300J0D01*
G03Y-103306I165J980D01*
G02X-76800Y-103010I-50J296D01*
G01Y-101424D01*
G02X-76358Y-101160I300J0D01*
G03Y-99411I472J875D01*
G02X-76800Y-99147I-142J264D01*
G01Y-97424D01*
G02X-76358Y-97160I300J0D01*
G03Y-95411I472J875D01*
G02X-76800Y-95147I-142J264D01*
G01Y-94941D01*
G02X-76565Y-94818I150J0D01*
G03X-76384Y-93084I565J818D01*
G02X-76800Y-92807I-116J277D01*
G01Y-92566D01*
X-76633D01*
X-76617Y-92570D01*
G03X-76477Y-90609I217J970D01*
G02X-76800Y-90310I-23J299D01*
G01Y-84800D01*
X-61200Y-69200D01*
X-57230D01*
G02X-56945Y-69593I0J-300D01*
G03X-55055I945J-307D01*
G02X-54770Y-69200I285J93D01*
G01X-48290D01*
G02X-47991Y-69523I0J-300D01*
G03X-46269Y-70273I991J-77D01*
G02X-45852Y-70250I221J-203D01*
G03X-44206Y-69500I652J750D01*
G02X-43906Y-69200I300J0D01*
G01X-36059D01*
G03X-34341I859J500D01*
G01X37150D01*
G03X38850I850J514D01*
G01X75607D01*
G02X75884Y-69616I0J-300D01*
G03X77716I916J-384D01*
G02X77993Y-69200I277J116D01*
G01X78007D01*
G02X78284Y-69616I0J-300D01*
G03X80164Y-69758I917J-384D01*
G01X80143Y-69675D01*
X80309Y-69509D01*
X80620Y-69820D01*
X80612Y-69892D01*
G03X81708Y-70988I988J-108D01*
G01X81780Y-70980D01*
X87123Y-76323D01*
X87084Y-76416D01*
G03X88384Y-77716I916J-384D01*
G01X88477Y-77677D01*
X90000Y-79200D01*
Y-97893D01*
G02X89584Y-98169I-300J0D01*
G03Y-100002I-384J-916D01*
G02X90000Y-100279I116J-277D01*
G01Y-110000D01*
X62800Y-137200D01*
X31600D01*
X18400Y-150400D01*
Y-210000D01*
X17600Y-210800D01*
X13200D01*
G37*
G36*
G01X-114748Y96174D02*
G02X-115250Y96308I-212J212D01*
G03X-117359Y96707I-1150J-308D01*
G02X-117842I-241J178D01*
G03X-119759I-958J-707D01*
G02X-120242I-241J178D01*
G03X-122159I-958J-707D01*
G02X-122642I-241J178D01*
G03X-123680Y97188I-958J-707D01*
G02X-124000Y97488I-20J299D01*
G01Y137300D01*
X-123097D01*
G02X-122848Y136833I0J-300D01*
G03X-123100Y136000I1248J-833D01*
G01Y131200D01*
G03X-122661Y130139I1500J0D01*
G01X-119500Y126979D01*
Y115779D01*
X-110300Y106579D01*
Y100621D01*
X-114748Y96174D01*
G37*
G36*
G01X-107654Y98300D02*
G02X-107866Y98812I0J300D01*
G01X-107300Y99379D01*
Y107821D01*
X-113376Y113897D01*
G02X-113171Y114410I212J212D01*
G03X-112242Y114893I-29J1190D01*
G02X-111758I241J-178D01*
G03X-109841I958J707D01*
G02X-109358I241J-178D01*
G03X-107693Y116559I958J707D01*
G02Y117042I178J241D01*
G03Y118959I-707J958D01*
G02Y119442I178J241D01*
G03X-109358Y121107I-707J958D01*
G02X-109841I-242J178D01*
G03X-111758I-959J-707D01*
G02X-112242I-242J178D01*
G03X-113907Y119442I-959J-707D01*
G02Y118959I-178J-242D01*
G03Y117042I707J-959D01*
G02Y116559I-178J-242D01*
G03X-114390Y115629I707J-958D01*
G02X-114903Y115424I-300J7D01*
G01X-116500Y117021D01*
Y128221D01*
X-120100Y131821D01*
Y136000D01*
G03X-120352Y136833I-1500J0D01*
G02X-120103Y137300I249J167D01*
G01X-115021D01*
X-105500Y127779D01*
Y113379D01*
X-102621Y110500D01*
X-102221D01*
X-100700Y108979D01*
Y99421D01*
X-101821Y98300D01*
X-107654D01*
G37*
G36*
G01X-42800Y-257200D02*
X-44537Y-255463D01*
X-44528Y-255390D01*
G03X-46190Y-253728I-1473J190D01*
G01X-46263Y-253737D01*
X-48400Y-251600D01*
Y-242000D01*
X-48000Y-241600D01*
X-35329D01*
G02X-35114Y-242109I0J-300D01*
G03X-33686I714J-691D01*
G02X-33471Y-241600I216J209D01*
G01X6000D01*
X20400Y-227200D01*
Y-152400D01*
X32800Y-140000D01*
X68400D01*
X107600Y-100800D01*
Y-74800D01*
X120000Y-62400D01*
Y-48800D01*
X92508Y-21308D01*
X92581Y-21204D01*
G03X91196Y-19819I-809J576D01*
G01X91092Y-19892D01*
X87600Y-16400D01*
X58332D01*
G02X58033Y-16128I0J300D01*
G03X56055I-989J-94D01*
G02X55756Y-16400I-299J28D01*
G01X54714D01*
G02X54415Y-16128I0J300D01*
G03X52436I-989J-94D01*
G02X52138Y-16400I-299J28D01*
G01X47476D01*
G02X47178Y-16128I0J300D01*
G03X45199I-989J-94D01*
G02X44901Y-16400I-299J28D01*
G01X43858D01*
G02X43560Y-16128I0J300D01*
G03X41581I-989J-94D01*
G02X41283Y-16400I-299J28D01*
G01X33003D01*
G02X32704Y-16128I0J300D01*
G03X30726I-989J-94D01*
G02X30427Y-16400I-299J28D01*
G01X29385D01*
G02X29086Y-16128I0J300D01*
G03X27108I-989J-94D01*
G02X26809Y-16400I-299J28D01*
G01X25766D01*
G02X25468Y-16128I0J300D01*
G03X23502Y-16406I-989J-94D01*
G01X23516Y-16484D01*
X22930Y-17070D01*
X22852Y-17055D01*
G03X21692Y-18215I-183J-977D01*
G01X21707Y-18293D01*
X21121Y-18879D01*
X21043Y-18864D01*
G03X19883Y-20024I-184J-977D01*
G01X19898Y-20102D01*
X19311Y-20689D01*
X19233Y-20674D01*
G03X18074Y-21834I-182J-977D01*
G01X18088Y-21912D01*
X17503Y-22497D01*
X17425Y-22483D01*
G03X16265Y-23643I-183J-977D01*
G01X16279Y-23721D01*
X15694Y-24306D01*
X15616Y-24292D01*
G03X14456Y-25452I-183J-977D01*
G01X14470Y-25530D01*
X13884Y-26116D01*
X13806Y-26101D01*
G03X12896Y-26400I-183J-977D01*
G01X10982D01*
G03X10370Y-25946I-977J-678D01*
G01X10335Y-25935D01*
X9338Y-24938D01*
X9327Y-24904D01*
G03X8560Y-24137I-1132J-365D01*
G01X8526Y-24126D01*
X7529Y-23129D01*
X7518Y-23095D01*
G03X6751Y-22328I-1132J-365D01*
G01X6716Y-22316D01*
X5720Y-21320D01*
X5709Y-21286D01*
G03X4942Y-20518I-1132J-365D01*
G01X4907Y-20507D01*
X3911Y-19511D01*
X3900Y-19477D01*
G03X3285Y-18769I-1132J-363D01*
G01X3200Y-18728D01*
Y-18400D01*
X3300Y-18300D01*
X3490D01*
X5084Y-16706D01*
G02X5549Y-16757I212J-212D01*
G03X6921Y-15384I837J535D01*
G02X6871Y-14920I162J253D01*
G01X6893Y-14897D01*
G02X7358Y-14948I212J-212D01*
G03X8731Y-13575I837J535D01*
G02X8680Y-13110I162J253D01*
G01X8702Y-13088D01*
G02X9167Y-13138I212J-212D01*
G03X10540Y-11766I837J535D01*
G02X10489Y-11301I162J253D01*
G01X10511Y-11279D01*
G02X10976Y-11330I212J-212D01*
G03X12255Y-9906I838J534D01*
G02X12176Y-9425I133J269D01*
G01X12252Y-9348D01*
G02X12733Y-9427I212J-212D01*
G03X14065Y-8095I891J441D01*
G02X13986Y-7614I133J269D01*
G01X14061Y-7539D01*
G02X14542Y-7618I212J-212D01*
G03X15873Y-6287I891J441D01*
G02X15794Y-5806I133J269D01*
G01X15878Y-5722D01*
G02X16356Y-5796I212J-212D01*
G03X17696Y-4456I882J458D01*
G02X17622Y-3978I138J266D01*
G01X17679Y-3921D01*
G02X18160Y-4000I212J-212D01*
G03X19492Y-2668I890J442D01*
G02X19413Y-2187I133J269D01*
G01X19489Y-2111D01*
G02X19970Y-2190I212J-212D01*
G03X21302Y-858I890J442D01*
G02X21223Y-377I133J269D01*
G01X21310Y-290D01*
G02X21787Y-363I212J-212D01*
G03X23129Y979I879J463D01*
G02X23057Y1457I140J265D01*
G01X31200Y9600D01*
X34054D01*
G02X34351Y9255I0J-300D01*
G03X36316I983J-149D01*
G02X36613Y9600I297J45D01*
G01X37673D01*
G02X37970Y9255I0J-300D01*
G03X39935I982J-149D01*
G02X40231Y9600I297J45D01*
G01X57122D01*
G02X57418Y9254I0J-300D01*
G03X59360Y8843I982J-154D01*
G02X59731Y9054I290J-78D01*
G03X60866Y9524I269J957D01*
G01X60909Y9600D01*
X66347D01*
X66373Y9590D01*
G03X67082Y9545I427J1110D01*
G02X67443Y9334I71J-291D01*
G03X67678Y8917I957J266D01*
G02Y8505I-218J-206D01*
G03X67464Y8155I722J-683D01*
G02X67046Y7988I-283J101D01*
G03X67536Y6767I-446J-888D01*
G02X67954Y6934I283J-101D01*
G03X69122Y8505I446J888D01*
G02Y8917I218J206D01*
G03X69385Y9470I-722J683D01*
G01X69402Y9600D01*
X82651D01*
X82691Y9510D01*
G03X82930Y9177I909J401D01*
G02Y8734I-202J-222D01*
G03X84270I670J-734D01*
G02Y9177I202J222D01*
G03X84509Y9510I-670J734D01*
G01X84549Y9600D01*
X87136D01*
G02X87430Y9236I0J-300D01*
G03X87411Y8921I970J-214D01*
G02X87133Y8591I-298J-30D01*
G03X87764Y6782I67J-991D01*
G02X88227Y6596I170J-247D01*
G03X88478Y6117I973J204D01*
G02Y5705I-218J-206D01*
G03X88211Y4921I722J-683D01*
G02X87933Y4591I-298J-30D01*
G03X88989Y3701I67J-991D01*
G02X89267Y4031I298J30D01*
G03X89922Y5705I-67J991D01*
G02Y6117I218J206D01*
G03X88455Y7458I-722J683D01*
G02X88193Y7563I-112J99D01*
G03X88189Y7701I-993J37D01*
G02X88467Y8031I298J30D01*
G03X89371Y9236I-67J991D01*
G02X89664Y9600I293J65D01*
G01X95200D01*
X95282Y9518D01*
X95294Y9492D01*
G03X95792Y8994I906J408D01*
G01X95818Y8982D01*
X110563Y-5763D01*
G02X110521Y-6221I-212J-212D01*
G03X110493Y-8158I678J-979D01*
G02Y-8642I-178J-242D01*
G03Y-10558I707J-958D01*
G02Y-11042I-178J-242D01*
G03X112158Y-12707I707J-958D01*
G02X112642I242J-178D01*
G03X114559I959J707D01*
G02X115042I242J-178D01*
G03X117062Y-12540I959J707D01*
G01X117072Y-12518D01*
X117195Y-12395D01*
X117337Y-12537D01*
G03X117843Y-13053I1063J537D01*
G01X117863Y-13063D01*
X125210Y-20410D01*
X125213Y-20467D01*
G03X126333Y-21587I1187J67D01*
G01X126390Y-21590D01*
X132220Y-27420D01*
X132212Y-27492D01*
G03X132570Y-28368I988J-108D01*
G02Y-28832I-190J-232D01*
G03X134134Y-29938I630J-768D01*
G02X134629Y-29829I282J-102D01*
G01X138000Y-33200D01*
Y-68800D01*
X132400Y-74400D01*
Y-122400D01*
X93200Y-161600D01*
X53600D01*
X50400Y-164800D01*
Y-171510D01*
G02X50077Y-171809I-300J0D01*
G03Y-173791I-77J-991D01*
G02X50400Y-174090I23J-299D01*
G01Y-177071D01*
G02X49891Y-177286I-300J0D01*
G03Y-178714I-691J-714D01*
G02X50400Y-178929I209J-216D01*
G01Y-184310D01*
G02X50077Y-184609I-300J0D01*
G03Y-186591I-77J-991D01*
G02X50400Y-186890I23J-299D01*
G01Y-208407D01*
G02X49984Y-208684I-300J0D01*
G03X49201Y-210510I-384J-916D01*
G01X49227Y-210521D01*
X49353Y-210647D01*
X49109Y-210891D01*
X49004Y-210811D01*
G03X47611Y-212204I-604J-789D01*
G01X47691Y-212309D01*
X42800Y-217200D01*
Y-226800D01*
X12400Y-257200D01*
X-42800D01*
G37*
G36*
G01X-49400Y-196350D02*
X-50282D01*
X-50600Y-196032D01*
Y-195658D01*
G02X-50230Y-195367I300J0D01*
G03Y-193433I230J967D01*
G02X-50600Y-193142I-69J292D01*
G01Y-192079D01*
X-54500Y-188179D01*
Y-175546D01*
G02X-53988Y-175334I300J0D01*
G01X-51500Y-177821D01*
Y-189821D01*
X-48700Y-192621D01*
Y-196102D01*
G02X-49078Y-196392I-300J0D01*
G03X-49400Y-196350I-322J-1208D01*
G37*
G36*
G01X-46300Y-190054D02*
G02X-46812Y-190266I-300J0D01*
G01X-48500Y-188579D01*
Y-177146D01*
G02X-47988Y-176934I300J0D01*
G01X-45500Y-179421D01*
Y-186579D01*
X-46300Y-187379D01*
Y-190054D01*
G37*
G36*
G01X13706Y-257750D02*
G02X13494Y-257238I0J300D01*
G01X29754Y-240977D01*
G02X30252Y-241099I212J-212D01*
G03X31499Y-239852I948J299D01*
G02X31377Y-239354I90J286D01*
G01X43200Y-227532D01*
X46068Y-230400D01*
X89668D01*
X91668Y-232400D01*
X140735D01*
G02X141028Y-232763I0J-300D01*
G03X142971I971J-209D01*
G02X143265Y-232400I293J63D01*
G01X199532D01*
X219200Y-212732D01*
Y-88468D01*
X212732Y-82000D01*
X198868D01*
X195200Y-85668D01*
Y-204868D01*
X188068Y-212000D01*
X111132D01*
X105600Y-206468D01*
Y-203707D01*
X105605Y-203688D01*
G03Y-203196I-963J246D01*
G01X105600Y-203178D01*
Y-179668D01*
X95932Y-170000D01*
X53668D01*
X51712Y-171956D01*
G02X51200Y-171744I-212J212D01*
G01Y-165132D01*
X53932Y-162400D01*
X93532D01*
X109088Y-146844D01*
G02X109600Y-147056I212J-212D01*
G01Y-168732D01*
X119600Y-178732D01*
Y-191668D01*
X116468Y-194800D01*
X108868D01*
X106000Y-197668D01*
Y-203932D01*
X108468Y-206400D01*
X120620D01*
X120651Y-206511D01*
G03X122624Y-205341I1149J311D01*
G02X122620Y-204912I208J217D01*
G01X130400Y-197132D01*
Y-174468D01*
X122400Y-166468D01*
Y-165850D01*
X122500Y-165814D01*
G03X123061Y-163339I-500J1414D01*
G01X122400Y-162679D01*
Y-157850D01*
X122500Y-157814D01*
G03X123500Y-156400I-500J1414D01*
G01Y-154221D01*
X145900Y-131821D01*
Y-95821D01*
X150500Y-91221D01*
Y-33579D01*
X149900Y-32979D01*
Y-32356D01*
X150146D01*
X150186Y-32443D01*
G03X152000Y-33600I1814J843D01*
G01X152274D01*
Y-33789D01*
X152254Y-33823D01*
G03X152000Y-34800I1746J-977D01*
G01Y-35828D01*
X156172Y-40000D01*
X169372D01*
X171200Y-41828D01*
Y-48894D01*
X175372Y-53065D01*
X178236D01*
X179172Y-54000D01*
X196428D01*
X202324Y-48104D01*
Y-43924D01*
G03X198324I-2000J0D01*
G01Y-46448D01*
X194772Y-50000D01*
X180828D01*
X180479Y-49651D01*
G03X179065Y-49065I-1414J-1414D01*
G01X177028D01*
X175200Y-47236D01*
Y-40172D01*
X171028Y-36000D01*
X157829D01*
X155837Y-34008D01*
X155826Y-33983D01*
G03X154572Y-32883I-1826J-817D01*
G02X154445Y-32384I86J287D01*
G01X159229Y-27600D01*
X184372D01*
X186772Y-30000D01*
X195600D01*
G03Y-26000I0J2000D01*
G01X188429D01*
X186029Y-23600D01*
X157572D01*
X157412Y-23759D01*
G02X156900Y-23547I-212J212D01*
G01Y421D01*
X154851Y2471D01*
G02X154970Y2968I212J212D01*
G03X155271Y5084I-370J1132D01*
G02X155231Y5547I169J248D01*
G03X154309Y7587I-831J853D01*
G02X153987Y7909I-23J299D01*
G03X152891Y6813I-1187J91D01*
G02X153213Y6491I23J-299D01*
G03X153729Y5416I1187J-91D01*
G02X153769Y4953I-169J-248D01*
G03X153468Y4470I831J-853D01*
G02X152971Y4351I-285J93D01*
G01X145208Y12113D01*
G02X145370Y12621I212J212D01*
G03X144221Y13769I-170J979D01*
G02X143713Y13609I-296J51D01*
G01X142700Y14621D01*
Y29421D01*
X136315Y35806D01*
G02X136405Y36293I212J212D01*
G03X135093Y37605I-405J907D01*
G02X134606Y37515I-274J122D01*
G01X113500Y58621D01*
Y78179D01*
X135900Y100579D01*
Y102179D01*
X142300Y108579D01*
Y114400D01*
G03X139300I-1500J0D01*
G01Y109821D01*
X132900Y103421D01*
Y101821D01*
X130012Y98934D01*
G02X129500Y99146I-212J212D01*
G01Y108879D01*
X131961Y111339D01*
G03X132400Y112400I-1061J1061D01*
G01Y114000D01*
G03X131899Y115119I-1500J0D01*
G02X131887Y115555I200J224D01*
G01X136400Y120068D01*
Y132868D01*
X136800Y133268D01*
Y140732D01*
X136044Y141488D01*
G02X136256Y142000I212J212D01*
G01X168812D01*
Y131989D01*
X166562D01*
G03Y122067I0J-4961D01*
G01X168825D01*
Y107450D01*
X194150D01*
Y152246D01*
X226150D01*
Y-257750D01*
X13706D01*
G37*
G36*
G01X108800Y-205600D02*
X106800Y-203600D01*
Y-198000D01*
X109200Y-195600D01*
X116800D01*
X120400Y-192000D01*
Y-178400D01*
X110400Y-168400D01*
Y-167290D01*
G02X110723Y-166991I300J0D01*
G03Y-165009I77J991D01*
G02X110400Y-164710I-23J299D01*
G01Y-145532D01*
X133200Y-122732D01*
Y-74800D01*
X138800Y-69200D01*
Y-69132D01*
X138800Y-32868D01*
X138800Y-13729D01*
G02X139309Y-13514I300J0D01*
G03Y-12086I691J714D01*
G02X138800Y-11871I-209J216D01*
G01Y-8474D01*
G03X139001Y-7109I-1200J874D01*
G02X139187Y-6726I283J99D01*
G03X138933Y-4417I-387J1126D01*
G01X138800Y-4402D01*
Y-3967D01*
X138964D01*
X138978Y-3970D01*
G03X138402Y-1916I222J1170D01*
G02X137965Y-1880I-201J223D01*
G03X137500Y-1490I-1165J-920D01*
G01X137480Y-1480D01*
X137247Y-1247D01*
X137331Y-1142D01*
G03X135658Y531I-931J743D01*
G01X135553Y447D01*
X134847Y1153D01*
X134931Y1258D01*
G03X133258Y2931I-931J743D01*
G01X133153Y2847D01*
X132447Y3553D01*
X132531Y3658D01*
G03X130858Y5331I-931J743D01*
G01X130753Y5247D01*
X96400Y39600D01*
Y73798D01*
X96530Y73815D01*
G03X97030Y75568I-130J985D01*
G02Y76032I190J232D01*
G03X97067Y77537I-630J768D01*
G02X97090Y78000I201J222D01*
G03X96543Y79793I-590J800D01*
G02X96400Y79943I7J150D01*
G01Y93200D01*
X107200Y104000D01*
X107409D01*
X107447Y103975D01*
G03X108384Y103884I553J825D01*
G01X108477Y103923D01*
X108800Y103600D01*
X108807D01*
G02X109084Y103184I0J-300D01*
G03X110818Y103365I916J-384D01*
G02X110941Y103600I123J85D01*
G01X111098D01*
X111137Y103573D01*
G03X113344Y104132I863J1227D01*
G01X113354Y104154D01*
X116400Y107200D01*
Y113086D01*
X116478Y113129D01*
G03X116634Y114765I-478J871D01*
G02X116611Y115206I191J231D01*
G03X116400Y116759I-711J694D01*
G01Y132400D01*
X120705Y136705D01*
G02X121168Y136657I212J-212D01*
G03X121370Y136432I832J544D01*
G02Y135968I-190J-232D01*
G03X122630I630J-768D01*
G02Y136432I190J232D01*
G03X122991Y137277I-630J768D01*
G02X123290Y137600I299J23D01*
G01X129200D01*
Y138611D01*
G03Y139789I-800J589D01*
G01Y141200D01*
X129600Y141600D01*
X132671D01*
G02X132886Y141091I0J-300D01*
G03X134314I714J-691D01*
G02X134529Y141600I216J209D01*
G01X134800D01*
X136000Y140400D01*
Y136090D01*
G02X135677Y135791I-300J0D01*
G03X135817Y133830I-77J-991D01*
G01X135833Y133834D01*
X136000D01*
Y133600D01*
X135600Y133200D01*
Y129993D01*
G02X135184Y129716I-300J0D01*
G03Y127884I-384J-916D01*
G02X135600Y127607I116J-277D01*
G01Y123690D01*
G02X135277Y123391I-300J0D01*
G03Y121409I-77J-991D01*
G02X135600Y121110I23J-299D01*
G01Y120400D01*
X130686Y115486D01*
X130639Y115477D01*
G03X129423Y114261I261J-1477D01*
G01X129415Y114214D01*
X125000Y109800D01*
Y98600D01*
X106800Y80400D01*
Y44000D01*
X137300Y13500D01*
Y12179D01*
X151200Y-1722D01*
Y-22678D01*
X144500Y-29379D01*
Y-38621D01*
X144900Y-39021D01*
Y-73100D01*
X140400Y-77600D01*
Y-128678D01*
X117300Y-151779D01*
Y-161821D01*
X120939Y-165461D01*
G03X121500Y-165814I1061J1061D01*
G01X121600Y-165850D01*
Y-166800D01*
X129600Y-174800D01*
Y-196800D01*
X121263Y-205137D01*
G03X120771Y-205600I537J-1063D01*
G01X108800D01*
G37*
G36*
G01X92000Y-231600D02*
X90000Y-229600D01*
X46400D01*
X44000Y-227200D01*
Y-218400D01*
X51600Y-210800D01*
Y-209002D01*
X51730Y-208985D01*
G03Y-207015I-130J985D01*
G01X51600Y-206998D01*
Y-173200D01*
X54000Y-170800D01*
X95600D01*
X104800Y-180000D01*
Y-189607D01*
G02X104384Y-189884I-300J0D01*
G03Y-191716I-384J-917D01*
G02X104800Y-191993I116J-277D01*
G01Y-202298D01*
G02X104649Y-202448I-150J0D01*
G03Y-204436I-7J-994D01*
G02X104800Y-204586I1J-150D01*
G01Y-206800D01*
X110800Y-212800D01*
X188400D01*
X196000Y-205200D01*
Y-86000D01*
X199200Y-82800D01*
X212400D01*
X218400Y-88800D01*
Y-212400D01*
X199200Y-231600D01*
X92000D01*
G37*
G36*
G01X44090Y-18600D02*
X43190Y-17700D01*
X38310D01*
X38200Y-17809D01*
X38073Y-17682D01*
X38062Y-17654D01*
G03X38048Y-17624I-920J-376D01*
G02X38322Y-17200I273J123D01*
G01X42393D01*
X42405Y-17202D01*
G03X42736I165J980D01*
G01X42748Y-17200D01*
X48885D01*
G02X49097Y-17712I0J-300D01*
G01X48210Y-18600D01*
X47690D01*
X46890Y-17800D01*
X45410D01*
X44610Y-18600D01*
X44090D01*
G37*
G36*
G01X2590Y-16900D02*
X1940Y-16250D01*
X7929Y-10261D01*
X8069Y-10400D01*
X8685D01*
G02X8897Y-10912I0J-300D01*
G01X2910Y-16900D01*
X2590D01*
G37*
G36*
G01X107600Y44332D02*
Y55554D01*
G02X108112Y55766I300J0D01*
G01X127300Y36579D01*
Y33779D01*
X130979Y30100D01*
X133779D01*
X137300Y26579D01*
Y15356D01*
G02X136788Y15144I-300J0D01*
G01X107600Y44332D01*
G37*
G36*
G01X138000Y-31344D02*
G02X137488Y-31556I-300J0D01*
G01X134053Y-28121D01*
X134098Y-28025D01*
G03X132774Y-26702I-898J425D01*
G01X132679Y-26747D01*
X119220Y-13288D01*
G02X119224Y-12859I212J212D01*
G03X119490Y-11521I-824J859D01*
G02X119765Y-11100I275J121D01*
G01X130045D01*
X130080Y-11200D01*
G03X132386Y-10880I1120J400D01*
G02X132898Y-10688I299J-20D01*
G01X133700Y-11490D01*
Y-15090D01*
X134023Y-15414D01*
X134016Y-15484D01*
G03X135245Y-14412I1184J-116D01*
G02X135100Y-14262I6J150D01*
G01Y-10910D01*
X132690Y-8500D01*
X129090D01*
X126700Y-6110D01*
Y1090D01*
X87890Y39900D01*
X50690D01*
X47890Y42700D01*
X35090D01*
X25490Y52300D01*
X290D01*
X-7100Y59690D01*
Y68890D01*
X-11710Y73500D01*
X-14110D01*
X-25397Y84788D01*
G02X-25185Y85300I212J212D01*
G01X-16121D01*
X6900Y62279D01*
Y59377D01*
G02X6795Y58907I-227J-196D01*
G03X8107Y57595I405J-907D01*
G02X8594Y57685I274J-122D01*
G01X11779Y54500D01*
X12454D01*
G02X12720Y54061I0J-300D01*
G03X14350Y54252I880J-461D01*
G01X14314Y54294D01*
Y54500D01*
X14579D01*
X16179Y52900D01*
X42800D01*
G03X44298Y54320I0J1500D01*
G02X44698Y54586I300J-16D01*
G03X46261Y57061I502J1414D01*
G01X44621Y58700D01*
X19821D01*
X18700Y59821D01*
Y61077D01*
G03X19200Y62400I-1500J1323D01*
G01Y69211D01*
G02X19681Y69451I300J0D01*
G03Y71349I719J949D01*
G02X19200Y71589I-181J239D01*
G01Y71972D01*
X26829Y79600D01*
X32429D01*
X34029Y81200D01*
X38000D01*
G03X40000Y83200I0J2000D01*
G01Y87172D01*
X45200Y92372D01*
Y132772D01*
X49136Y136707D01*
Y140381D01*
G03X48786Y141530I-2000J19D01*
G02X49034Y142000I248J169D01*
G01X128144D01*
G02X128400Y141543I0J-300D01*
G01Y140202D01*
X128269Y140185D01*
G03X127705Y139910I131J-985D01*
G02X127495I-105J107D01*
G03X125884Y138816I-695J-710D01*
G02X125607Y138400I-277J-116D01*
G01X124322D01*
G02X124120Y138921I0J300D01*
G03X122718Y140328I-672J732D01*
G02X122285Y140321I-220J204D01*
G03X121088Y138757I-707J-699D01*
G02X121153Y138284I-148J-261D01*
G01X115600Y132732D01*
Y116852D01*
X115509Y116813D01*
G03X115266Y115135I391J-913D01*
G02X115289Y114694I-191J-231D01*
G03X115522Y113129I711J-694D01*
G01X115600Y113086D01*
Y111278D01*
G02X115254Y110982I-300J0D01*
G03Y109018I-154J-982D01*
G02X115600Y108722I46J-296D01*
G01Y107532D01*
X113688Y105619D01*
G02X113230Y105660I-212J212D01*
G03X113175Y105733I-1229J-860D01*
G02X113241Y105967I118J93D01*
G03X112363Y107736I-341J933D01*
G02X111900Y107988I-162J252D01*
G01Y111021D01*
X108621Y114300D01*
X101421D01*
X100282Y115440D01*
X100273Y115485D01*
G03X97300Y115200I-1473J-285D01*
G01Y114179D01*
X100179Y111300D01*
X107379D01*
X107547Y111132D01*
X107406Y110990D01*
X107356Y110983D01*
G03X108483Y109856I144J-983D01*
G01X108490Y109906D01*
X108632Y110047D01*
X108900Y109779D01*
Y105779D01*
X109766Y104912D01*
G02X109554Y104400I-212J-212D01*
G01X109132D01*
X108968Y104564D01*
X108981Y104639D01*
G03X108335Y105736I-981J161D01*
G02X108149Y106107I101J282D01*
G03X106865Y105464I-949J293D01*
G02X107051Y105093I-101J-282D01*
G03X107015Y104931I949J-293D01*
G01X106998Y104800D01*
X106868D01*
X95600Y93532D01*
Y79222D01*
X95588Y79194D01*
G03Y78407I912J-393D01*
G01X95600Y78378D01*
Y77389D01*
G03Y76211I800J-589D01*
G01Y75389D01*
G03Y74211I800J-589D01*
G01Y39268D01*
X138000Y-3132D01*
Y-11910D01*
G02X137677Y-12209I-300J0D01*
G03Y-14191I-77J-991D01*
G02X138000Y-14490I23J-299D01*
G01Y-31344D01*
G37*
G36*
G01X112741Y-6376D02*
G02X112312Y-6380I-217J208D01*
G01X96821Y9111D01*
X96921Y9217D01*
G03X95341Y10400I-721J683D01*
G01X89690D01*
G02X89391Y10723I0J300D01*
G03X87409I-991J77D01*
G02X87110Y10400I-299J-23D01*
G01X84465D01*
G03X84322Y10594I-865J-489D01*
G02Y11006I218J206D01*
G03X82878I-722J683D01*
G02Y10594I-218J-206D01*
G03X82735Y10400I722J-683D01*
G01X68989D01*
G03X67811I-589J-800D01*
G01X60919D01*
X60876Y10480D01*
G03X60722Y10694I-876J-469D01*
G02Y11106I218J206D01*
G03X59278I-722J683D01*
G02Y10694I-218J-206D01*
G03X59124Y10480I722J-683D01*
G01X59081Y10400D01*
X30868D01*
X25881Y5413D01*
G02X25392Y5509I-212J212D01*
G03X24091Y4208I-916J-385D01*
G02X24187Y3719I-116J-277D01*
G01X20530Y62D01*
G02X20023Y224I-212J212D01*
G03X18876Y-923I-980J-167D01*
G02X19038Y-1430I-50J-296D01*
G01X16919Y-3549D01*
G02X16411Y-3388I-212J212D01*
G03X15177Y-2598I-979J-170D01*
G02X14800Y-2308I-77J290D01*
G01Y2420D01*
G02X15176Y2710I300J0D01*
G03Y4633I252J961D01*
G02X14800Y4923I-76J290D01*
G01Y12332D01*
X13611Y13521D01*
X13800Y13710D01*
Y15321D01*
X13904Y15354D01*
G03X12765Y16839I-304J946D01*
G02X12301Y16789I-252J163D01*
G01X10453Y18637D01*
G02X10512Y19107I212J212D01*
G03X9150Y20469I-507J854D01*
G02X8680Y20410I-258J153D01*
G01X8644Y20446D01*
G02X8703Y20916I212J212D01*
G03X7341Y22278I-507J854D01*
G02X6871Y22219I-258J153D01*
G01X6516Y22574D01*
X5380Y23710D01*
X5026Y24065D01*
G02X5085Y24535I212J212D01*
G03X3723Y25896I-507J854D01*
G02X3253Y25838I-258J153D01*
G01X3216Y25874D01*
G02X3275Y26344I212J212D01*
G03X2562Y28171I-507J854D01*
G02X2200Y28464I-62J294D01*
G01Y46390D01*
X-16900Y65490D01*
Y69490D01*
X-18838Y71428D01*
G02X-18759Y71909I212J212D01*
G03X-19968Y73430I-441J891D01*
G02X-20432I-232J190D01*
G03X-21041Y73781I-768J-630D01*
G02X-21228Y74264I48J296D01*
G03X-22400Y76700I-1172J936D01*
G01X-24579D01*
X-29153Y81275D01*
G02X-29094Y81745I212J212D01*
G03X-30455Y83106I-506J855D01*
G02X-30925Y83047I-258J153D01*
G01X-31785Y83906D01*
G02X-31695Y84393I212J212D01*
G03X-33007Y85705I-405J907D01*
G02X-33494Y85615I-274J122D01*
G01X-35175Y87296D01*
G02X-35180Y87715I212J212D01*
G03X-36780Y87939I-720J685D01*
G02X-37046Y87500I-266J-139D01*
G01X-48579D01*
X-54479Y93400D01*
X-57542D01*
G02X-57833Y93770I0J300D01*
G03X-57920Y94461I-967J230D01*
G02X-57654Y94900I266J139D01*
G01X-44346D01*
G02X-44080Y94461I0J-300D01*
G03X-42320I880J-461D01*
G02X-42054Y94900I266J139D01*
G01X-36221D01*
X-35734Y94412D01*
G02X-35946Y93900I-212J-212D01*
G01X-39339D01*
G03X-39381Y92445I-961J-700D01*
G01X-39336Y92500D01*
X-39146D01*
G02X-38880Y92061I0J-300D01*
G03X-37120I880J-461D01*
G02X-36854Y92500I266J139D01*
G01X-35090D01*
X-14690Y72100D01*
X-12290D01*
X-8500Y68310D01*
Y59110D01*
X-290Y50900D01*
X10154D01*
G02X10420Y50461I0J-300D01*
G03X12180I880J-461D01*
G02X12446Y50900I266J139D01*
G01X24910D01*
X34510Y41300D01*
X47310D01*
X50110Y38500D01*
X87310D01*
X120183Y5627D01*
G02X120150Y5175I-212J-212D01*
G03X120142Y5168I241J-319D01*
G02X119910Y5232I-93J118D01*
G03X117842Y5507I-1110J-432D01*
G02X117359I-242J178D01*
G03X115693Y3842I-959J-707D01*
G02Y3359I-178J-241D01*
G03X115561Y1555I707J-959D01*
G02X115481Y1072I-211J-213D01*
G03X115293Y-959I519J-1072D01*
G02Y-1442I-178J-241D01*
G03Y-3359I707J-959D01*
G02Y-3842I-178J-242D01*
G03X115042Y-4093I707J-959D01*
G02X114559I-241J178D01*
G03X112893Y-5758I-958J-707D01*
G02Y-6242I-178J-241D01*
G03X112741Y-6376I707J-958D01*
G37*
G36*
G01X10113Y60409D02*
X9900Y60621D01*
Y63521D01*
X7147Y66275D01*
G02X7206Y66745I212J212D01*
G03X5845Y68106I-506J855D01*
G02X5375Y68047I-258J153D01*
G01X-14879Y88300D01*
X-25379D01*
X-33766Y96688D01*
G02X-33554Y97200I212J212D01*
G01X-30930D01*
G02X-30714Y96691I0J-300D01*
G03X-29286I714J-691D01*
G02X-29070Y97200I216J209D01*
G01X-24428D01*
X-21628Y94400D01*
X5972D01*
X13200Y87172D01*
Y84000D01*
G03X13218Y83729I2000J0D01*
G02X12893Y83389I-297J-41D01*
G03X13749Y82105I-93J-989D01*
G02X14187Y82275I287J-89D01*
G03X15200Y82000I1013J1725D01*
G01X16800D01*
G03X17312Y85934I0J2000D01*
G01X17200Y85963D01*
Y88828D01*
X8441Y97588D01*
G02X8653Y98100I212J212D01*
G01X15090D01*
X22690Y105700D01*
X37310D01*
X39300Y103710D01*
Y103433D01*
X39106D01*
X39070Y103456D01*
G03X37516Y103284I-669J-1056D01*
G01X29750Y95518D01*
Y93118D01*
X28082Y91450D01*
X25682D01*
X22350Y88118D01*
Y86118D01*
X17482Y81250D01*
X15482D01*
X8350Y74118D01*
Y69482D01*
X10750Y67082D01*
Y63882D01*
X12650Y61982D01*
Y61454D01*
G02X12176Y61210I-300J0D01*
G03X10621Y60570I-576J-810D01*
G02X10113Y60409I-296J51D01*
G37*
G36*
G01X13257Y68111D02*
X10850Y70518D01*
Y73082D01*
X15320Y77552D01*
G02X15826Y77400I212J-212D01*
G03X17549Y78253I973J199D01*
G02X17775Y78750I226J197D01*
G01X18518D01*
X24850Y85082D01*
Y87082D01*
X26718Y88950D01*
X29118D01*
X32250Y92082D01*
Y94482D01*
X39044Y101276D01*
G02X39300Y101170I106J-106D01*
G01Y100964D01*
X39245Y100919D01*
G03X38838Y99749I755J-919D01*
G02X38511Y99388I-293J-63D01*
G03X39388Y98511I-111J-988D01*
G02X39749Y98838I298J33D01*
G03X40718Y99052I251J1162D01*
G02X41200Y98813I181J-239D01*
G01Y94028D01*
X36000Y88828D01*
Y85200D01*
X32371D01*
X30771Y83600D01*
X27344D01*
G03X23628Y82572I-1715J-1029D01*
G01Y82057D01*
X15200Y73628D01*
Y68393D01*
G02X14784Y68116I-300J0D01*
G03X13747Y67949I-384J-917D01*
G02X13257Y68111I-197J226D01*
G37*
G36*
G01X-26000Y-11200D02*
X-36800Y-400D01*
X-37200D01*
Y800D01*
X-36800Y1200D01*
X-28973D01*
G02X-28744Y705I0J-300D01*
G03X-27179Y-516I756J-645D01*
G02X-26722Y-478I244J-174D01*
G01X-26717Y-483D01*
G02X-26756Y-939I-212J-212D01*
G03X-25370Y-2325I576J-810D01*
G02X-24913Y-2287I244J-174D01*
G01X-24903Y-2298D01*
G02X-24940Y-2754I-212J-212D01*
G03X-23554Y-4140I579J-808D01*
G02X-23098Y-4102I244J-175D01*
G01X-22879Y-4321D01*
X-22998Y-4440D01*
X-23014Y-4449D01*
G03X-21733Y-5932I514J-851D01*
G02X-21289Y-5911I232J-191D01*
G01X-21048Y-6152D01*
X-21171Y-6276D01*
X-21193Y-6286D01*
G03X-19942Y-7753I441J-890D01*
G02X-19486Y-7714I244J-174D01*
G01X-18000Y-9200D01*
X-20000Y-11200D01*
X-26000D01*
G37*
%LPC*%
G75*
G36*
G01X-129442Y113693D02*
G02X-131107Y115359I-958J707D01*
G03Y115842I-178J241D01*
G02X-129442Y117507I707J958D01*
G03X-128958I242J178D01*
G02X-127293Y115842I958J-707D01*
G03Y115359I178J-242D01*
G02X-128958Y113693I-707J-958D01*
G03X-129442I-242J-178D01*
G37*
G36*
G01X-138642Y111793D02*
G02X-140358Y113419I-958J707D01*
G03Y113881I-191J231D01*
G02X-138642Y115507I758J919D01*
G03X-138158I241J178D01*
G02X-136442Y113881I958J-707D01*
G03Y113419I191J-231D01*
G02X-138158Y111793I-758J-919D01*
G03X-138642I-242J-178D01*
G37*
G36*
G01X-132893Y106059D02*
G02X-134307I-707J-959D01*
G03Y106542I-178J241D01*
G02X-132893I707J958D01*
G03Y106059I178J-242D01*
G37*
G36*
G01X-192242Y78493D02*
G02Y79907I-958J707D01*
G03X-191758I242J178D01*
G02X-189842I958J-707D01*
G03X-189358I241J178D01*
G02Y78493I958J-707D01*
G03X-189842I-242J-178D01*
G02X-191758I-959J707D01*
G03X-192242I-241J-178D01*
G37*
G36*
G01X-190032Y6970D02*
G02Y8230I-768J630D01*
G03X-189568I232J190D01*
G02Y6970I768J-630D01*
G03X-190032I-232J-190D01*
G37*
G36*
G01X-158978Y-148890D02*
G02Y-144540I0J2175D01*
G01X-156222D01*
G02Y-148890I0J-2175D01*
G01X-158978D01*
G37*
G36*
G01Y-168575D02*
G02Y-164225I0J2175D01*
G01X-156222D01*
G02Y-168575I0J-2175D01*
G01X-158978D01*
G37*
G36*
G01X2322Y126606D02*
G03Y126194I218J-206D01*
G02X878I-722J-683D01*
G03Y126606I-218J206D01*
G02X2322I722J683D01*
G37*
G36*
G01X10722Y122917D02*
G03Y122505I218J-206D01*
G02X9278I-722J-683D01*
G03Y122917I-218J206D01*
G02X10722I722J683D01*
G37*
G36*
G01X18900Y122695D02*
G03Y122283I218J-206D01*
G02X17456I-722J-683D01*
G03Y122695I-218J206D01*
G02X18900I722J683D01*
G37*
G36*
G01X5109Y116813D02*
G03X4787Y116491I-23J-299D01*
G02X3691Y117587I-1187J-91D01*
G03X4013Y117909I23J299D01*
G02X6387I1187J91D01*
G03X6709Y117587I299J-23D01*
G02X5613Y116491I91J-1187D01*
G03X5291Y116813I-299J23D01*
G02X5109I-91J1187D01*
G37*
G36*
G01X-26683Y108178D02*
G03X-27095I-206J-218D01*
G02Y109622I-683J722D01*
G03X-26683I206J218D01*
G02Y108178I683J-722D01*
G37*
G36*
G01X13199Y106483D02*
G03X13601I201J222D01*
G02Y104717I799J-883D01*
G03X13199I-201J-222D01*
G02Y106483I-799J883D01*
G37*
G36*
G01X-10295Y105122D02*
G03X-9883I206J218D01*
G02Y103678I683J-722D01*
G03X-10295I-206J-218D01*
G02Y105122I-683J722D01*
G37*
G36*
G01X-14695Y102722D02*
G03X-14283I206J218D01*
G02Y101278I683J-722D01*
G03X-14695I-206J-218D01*
G02Y102722I-683J722D01*
G37*
G36*
G01X-21864Y24335D02*
G03X-21493Y24149I282J101D01*
G02X-22136Y22865I293J-949D01*
G03X-22507Y23051I-282J-101D01*
G02X-21864Y24335I-293J949D01*
G37*
G36*
G01X-18706Y20495D02*
G03X-18405Y20194I300J-1D01*
G02X-19394Y19205I5J-994D01*
G03X-19695Y19506I-300J1D01*
G02X-18706Y20495I-5J994D01*
G37*
G36*
G01X-113685Y-5890D02*
G03X-114010Y-6215I-26J-299D01*
G02X-114915Y-5310I-990J-85D01*
G03X-114590Y-4985I26J299D01*
G02X-113685Y-5890I990J85D01*
G37*
G36*
G01X-43305Y-48322D02*
G03X-43717I-206J-218D01*
G02Y-46878I-683J722D01*
G03X-43305I206J218D01*
G02Y-48322I683J-722D01*
G37*
G36*
G01X53922Y-61305D02*
G03Y-61717I218J-206D01*
G02X52478I-722J-683D01*
G03Y-61305I-218J206D01*
G02X53922I722J683D01*
G37*
G36*
G01X-61213Y-210091D02*
G03X-60891Y-210413I299J-23D01*
G02X-61987Y-211509I91J-1187D01*
G03X-62309Y-211187I-299J23D01*
G02X-61213Y-210091I-91J1187D01*
G37*
G36*
G01X-55494Y-232251D02*
G03X-55389Y-232094I-44J143D01*
G02X-54106Y-232949I989J94D01*
G03X-54211Y-233107I44J-143D01*
G02X-55494Y-232251I-989J-94D01*
G37*
G36*
G01X-41285Y-232417D02*
G03X-41043Y-232820I281J-105D01*
G02X-42315Y-233583I-157J-1180D01*
G03X-42557Y-233180I-281J105D01*
G02X-41285Y-232417I157J1180D01*
G37*
G36*
G01X24573Y134196D02*
G02X24164Y135218I-973J204D01*
G03X24627Y135404I170J247D01*
G02X26368Y135830I973J-204D01*
G03X26832I232J190D01*
G02Y134570I768J-630D01*
G03X26368I-232J-190D01*
G02X25036Y134382I-768J630D01*
G03X24573Y134196I-170J-247D01*
G37*
G36*
G01X-36970Y132368D02*
G02X-38230I-630J-768D01*
G03Y132832I-190J232D01*
G02X-36970I630J768D01*
G03Y132368I190J-232D01*
G37*
G36*
G01X-52032Y128570D02*
G02Y129830I-768J630D01*
G03X-51568I232J190D01*
G02Y128570I768J-630D01*
G03X-52032I-232J-190D01*
G37*
G36*
G01X26768Y122170D02*
G02Y123430I-768J630D01*
G03X27232I232J190D01*
G02Y122170I768J-630D01*
G03X26768I-232J-190D01*
G37*
G36*
G01X36368Y118170D02*
G02Y119430I-768J630D01*
G03X36832I232J190D01*
G02Y118170I768J-630D01*
G03X36368I-232J-190D01*
G37*
G36*
G01X22368Y117670D02*
G02Y118930I-768J630D01*
G03X22832I232J190D01*
G02Y117670I768J-630D01*
G03X22368I-232J-190D01*
G37*
G36*
G01X-82723Y104986D02*
X-82716Y104916D01*
G02X-83784Y105984I-1184J-116D01*
G01X-83714Y105977D01*
X-76590Y113100D01*
X-39090D01*
X-37890Y114300D01*
X-36988D01*
G03X-36736Y114763I0J300D01*
G02X-35064I836J537D01*
G03X-34812Y114300I252J-162D01*
G01X-21310D01*
X-17710Y110700D01*
X18910D01*
X30900Y122690D01*
Y125490D01*
X33300Y127890D01*
Y137439D01*
G02X34700I700J961D01*
G01Y127310D01*
X32300Y124910D01*
Y122110D01*
X19490Y109300D01*
X-18290D01*
X-21890Y112900D01*
X-37310D01*
X-38510Y111700D01*
X-76010D01*
X-82723Y104986D01*
G37*
G36*
G01X-22695Y103278D02*
G02Y104722I-683J722D01*
G03X-22283I206J218D01*
G02X-20747Y104509I683J-722D01*
G03X-20231I258J154D01*
G02X-18695Y104722I853J-509D01*
G03X-18283I206J218D01*
G02Y103278I683J-722D01*
G03X-18695I-206J-218D01*
G02X-20231Y103491I-683J722D01*
G03X-20747I-258J-154D01*
G02X-22283Y103278I-853J509D01*
G03X-22695I-206J-218D01*
G37*
G36*
G01X-54170Y24368D02*
G02X-55430I-630J-768D01*
G03Y24832I-190J232D01*
G02X-54170I630J768D01*
G03Y24368I190J-232D01*
G37*
G36*
G01X-44832Y14570D02*
G02Y15830I-768J630D01*
G03X-44368I232J190D01*
G02X-42832I768J-630D01*
G03X-42368I232J190D01*
G02X-40832I768J-630D01*
G03X-40368I232J190D01*
G02Y14570I768J-630D01*
G03X-40832I-232J-190D01*
G02X-42368I-768J630D01*
G03X-42832I-232J-190D01*
G02X-44368I-768J630D01*
G03X-44832I-232J-190D01*
G37*
G36*
G01X-106820Y12163D02*
G02X-108839Y12845I-1180J-163D01*
G03X-108919Y13328I-211J213D01*
G02X-108309Y15587I519J1072D01*
G03X-107987Y15909I23J299D01*
G02X-106382Y17115I1187J91D01*
G03X-105980Y17437I105J281D01*
G02X-104382Y18715I1180J163D01*
G03X-103980Y19037I105J281D01*
G02X-101883Y18441I1180J163D01*
G03X-101722Y17958I231J-191D01*
G02X-102418Y15685I-278J-1158D01*
G03X-102820Y15363I-105J-281D01*
G02X-104418Y14085I-1180J-163D01*
G03X-104820Y13763I-105J-281D01*
G02X-106418Y12485I-1180J-163D01*
G03X-106820Y12163I-105J-281D01*
G37*
G36*
G01X-13725Y2211D02*
G02X-14560Y2628I-809J-577D01*
G03X-14324Y3102I-8J300D01*
G02X-13489Y2685I809J577D01*
G03X-13725Y2211I8J-300D01*
G37*
G36*
G01X-10711Y-2008D02*
G02X-12635Y-1764I-989J-92D01*
G03X-12983Y-1370I-282J101D01*
G02X-12265Y-736I-217J970D01*
G03X-11917Y-1130I282J-101D01*
G02X-11844Y-1117I217J-970D01*
G03X-11589Y-792I-44J297D01*
G02X-10456Y-1683I989J92D01*
G03X-10711Y-2008I44J-297D01*
G37*
G36*
G01X79757Y-20969D02*
G02X79380Y-19893I-956J269D01*
G03X79844Y-19731I175J244D01*
G02X81568Y-19370I956J-269D01*
G03X82032I232J190D01*
G02Y-20630I768J-630D01*
G03X81568I-232J-190D01*
G02X80220Y-20807I-768J630D01*
G03X79757Y-20969I-175J-244D01*
G37*
G36*
G01X-112832Y-31030D02*
G02Y-29770I-768J630D01*
G03X-112368I232J190D01*
G02Y-31030I768J-630D01*
G03X-112832I-232J-190D01*
G37*
G36*
G01X-69370Y-40432D02*
G02X-70630I-630J-768D01*
G03Y-39968I-190J232D01*
G02Y-38432I630J768D01*
G03Y-37968I-190J232D01*
G02X-69370I630J768D01*
G03Y-38432I190J-232D01*
G02Y-39968I-630J-768D01*
G03Y-40432I190J-232D01*
G37*
G36*
G01X14456Y-66700D02*
X-456D01*
X-32856Y-34300D01*
X-49144D01*
X-51944Y-37100D01*
X-61144D01*
X-62902Y-38858D01*
X-62914Y-38884D01*
G02X-64484Y-37314I-1086J484D01*
G01X-64458Y-37302D01*
X-62056Y-34900D01*
X-52856D01*
X-50768Y-32812D01*
G03X-50980Y-32300I-212J212D01*
G01X-55656D01*
X-56458Y-31498D01*
X-56484Y-31486D01*
G02X-54914Y-29916I484J1086D01*
G01X-54902Y-29942D01*
X-54744Y-30100D01*
X-53146D01*
G03X-52880Y-29661I0J300D01*
G02X-51120I880J461D01*
G03X-50854Y-30100I266J-139D01*
G01X-31544D01*
X-24744Y-36900D01*
X-11099D01*
G03X-10820Y-36489I0J300D01*
G02X-8925Y-35915I924J366D01*
G03X-8420Y-36064I293J63D01*
G01X-8147Y-35792D01*
G03X-8296Y-35286I-212J212D01*
G02X-7250Y-33779I209J971D01*
G03X-6786Y-33830I253J162D01*
G01X-3900Y-30944D01*
Y-28572D01*
X-3758Y-28429D01*
X-3746Y-28403D01*
G02X-1700Y-29589I1086J-484D01*
G01Y-31856D01*
X-4900Y-35056D01*
Y-35656D01*
X-8344Y-39100D01*
X-24220D01*
G03X-24432Y-39612I0J-300D01*
G01X456Y-64500D01*
X5484D01*
G03X5697Y-63988I0J300D01*
G02X7103I703J702D01*
G03X7316Y-64500I212J-212D01*
G01X12732D01*
G03X12938Y-63982I0J300D01*
G02X14549Y-62901I684J720D01*
G03X15040Y-63004I280J109D01*
G01X16983Y-61061D01*
G03X16880Y-60569I-212J212D01*
G02X18167Y-59282I361J926D01*
G03X18659Y-59385I280J109D01*
G01X42832Y-35212D01*
G03X42620Y-34700I-212J212D01*
G01X41144D01*
X37644Y-31200D01*
X36190D01*
G02X34551Y-30083I-856J504D01*
G01X34137Y-29669D01*
G02X32742Y-28274I-613J782D01*
G01X31600Y-27132D01*
Y-26700D01*
X28856D01*
X27379Y-28177D01*
X24930D01*
X24905Y-28187D01*
G02Y-25967I-426J1110D01*
G01X24930Y-25977D01*
X26468D01*
X27944Y-24500D01*
X31600D01*
Y-23668D01*
X32879Y-22389D01*
X32779Y-22283D01*
G02X34417Y-21984I721J683D01*
G03X34693Y-22400I277J-116D01*
G01X35929D01*
G03X36211Y-21996I0J300D01*
G02X37704Y-22470I932J345D01*
G03X37662Y-22930I170J-247D01*
G01X39477Y-24745D01*
G03X39938Y-24701I212J212D01*
G02X40407Y-26186I823J-556D01*
G03X40000Y-26466I-107J-280D01*
G01Y-29132D01*
X39344Y-29788D01*
X42056Y-32500D01*
X71144D01*
X73144Y-30500D01*
X78856D01*
X79658Y-31302D01*
X79684Y-31314D01*
G02X80389Y-32417I-484J-1086D01*
G03X80539Y-32569I150J-2D01*
G02X81022Y-34845I0J-1189D01*
G01X80997Y-34856D01*
X80353Y-35500D01*
X76744D01*
X75593Y-34349D01*
X74807D01*
X72856Y-36300D01*
X44856D01*
X31164Y-49992D01*
G03X31335Y-50501I212J-212D01*
G02X30215Y-51621I-135J-984D01*
G03X29706Y-51450I-297J-41D01*
G01X14456Y-66700D01*
G37*
G36*
G01X-136642Y-105107D02*
G02Y-103693I-959J707D01*
G03X-136158I241J178D01*
G02X-134242I958J-707D01*
G03X-133758I241J178D01*
G02X-131842I958J-707D01*
G03X-131358I241J178D01*
G02X-129442I958J-707D01*
G03X-128958I242J178D01*
G02Y-105107I958J-707D01*
G03X-129442I-242J-178D01*
G02X-131358I-958J707D01*
G03X-131842I-242J-178D01*
G02X-133758I-959J707D01*
G03X-134242I-242J-178D01*
G02X-136158I-959J707D01*
G03X-136642I-242J-178D01*
G37*
G36*
G01X-153770Y-106432D02*
G02X-155030I-630J-768D01*
G03Y-105968I-190J232D01*
G02X-153770I630J768D01*
G03Y-106432I190J-232D01*
G37*
G36*
G01X-136642Y-107907D02*
G02Y-106493I-959J707D01*
G03X-136158I241J178D01*
G02X-134242I958J-707D01*
G03X-133758I241J178D01*
G02X-131842I958J-707D01*
G03X-131358I241J178D01*
G02X-129442I958J-707D01*
G03X-128958I242J178D01*
G02Y-107907I958J-707D01*
G03X-129442I-242J-178D01*
G02X-131358I-958J707D01*
G03X-131842I-242J-178D01*
G02X-133758I-959J707D01*
G03X-134242I-242J-178D01*
G02X-136158I-959J707D01*
G03X-136642I-242J-178D01*
G37*
G36*
G01Y-110707D02*
G02Y-109293I-959J707D01*
G03X-136158I241J178D01*
G02X-134242I958J-707D01*
G03X-133758I241J178D01*
G02X-131842I958J-707D01*
G03X-131358I241J178D01*
G02X-129442I958J-707D01*
G03X-128958I242J178D01*
G02Y-110707I958J-707D01*
G03X-129442I-242J-178D01*
G02X-131358I-958J707D01*
G03X-131842I-242J-178D01*
G02X-133758I-959J707D01*
G03X-134242I-242J-178D01*
G02X-136158I-959J707D01*
G03X-136642I-242J-178D01*
G37*
G36*
G01Y-113507D02*
G02Y-112093I-959J707D01*
G03X-136158I241J178D01*
G02X-134242I958J-707D01*
G03X-133758I241J178D01*
G02X-131842I958J-707D01*
G03X-131358I241J178D01*
G02X-129442I958J-707D01*
G03X-128958I242J178D01*
G02Y-113507I958J-707D01*
G03X-129442I-242J-178D01*
G02X-131358I-958J707D01*
G03X-131842I-242J-178D01*
G02X-133758I-959J707D01*
G03X-134242I-242J-178D01*
G02X-136158I-959J707D01*
G03X-136642I-242J-178D01*
G37*
G36*
G01Y-116307D02*
G02Y-114893I-959J707D01*
G03X-136158I241J178D01*
G02X-134242I958J-707D01*
G03X-133758I241J178D01*
G02X-131842I958J-707D01*
G03X-131358I241J178D01*
G02X-129442I958J-707D01*
G03X-128958I242J178D01*
G02Y-116307I958J-707D01*
G03X-129442I-242J-178D01*
G02X-131358I-958J707D01*
G03X-131842I-242J-178D01*
G02X-133758I-959J707D01*
G03X-134242I-242J-178D01*
G02X-136158I-959J707D01*
G03X-136642I-242J-178D01*
G37*
G36*
G01Y-119107D02*
G02Y-117693I-959J707D01*
G03X-136158I241J178D01*
G02X-134242I958J-707D01*
G03X-133758I241J178D01*
G02X-131842I958J-707D01*
G03X-131358I241J178D01*
G02X-129442I958J-707D01*
G03X-128958I242J178D01*
G02Y-119107I958J-707D01*
G03X-129442I-242J-178D01*
G02X-131358I-958J707D01*
G03X-131842I-242J-178D01*
G02X-133758I-959J707D01*
G03X-134242I-242J-178D01*
G02X-136158I-959J707D01*
G03X-136642I-242J-178D01*
G37*
G36*
G01X-171442Y-127107D02*
G02X-173107Y-125442I-958J707D01*
G03Y-124959I-178J242D01*
G02Y-123042I707J959D01*
G03Y-122559I-178J242D01*
G02X-171442Y-120893I707J959D01*
G03X-170958I242J178D01*
G02X-169293Y-122559I959J-707D01*
G03Y-123042I178J-241D01*
G02Y-124959I-707J-958D01*
G03Y-125442I178J-241D01*
G02X-169241Y-125483I-707J-959D01*
G03X-168758Y-125322I191J231D01*
G02X-166642Y-124893I1158J-278D01*
G03X-166158I241J178D01*
G02Y-126307I958J-707D01*
G03X-166642I-242J-178D01*
G02X-168359Y-126517I-959J707D01*
G03X-168842Y-126678I-191J-231D01*
G02X-170958Y-127107I-1158J278D01*
G03X-171442I-241J-178D01*
G37*
G36*
G01X-109035Y-146164D02*
G02X-110044Y-145407I-965J-236D01*
G03X-109765Y-145036I-13J300D01*
G02X-108757Y-145793I965J236D01*
G03X-109035Y-146164I13J-300D01*
G37*
G36*
G01X-119842Y-187107D02*
G02Y-185693I-958J707D01*
G03X-119359I242J178D01*
G02Y-187107I959J-707D01*
G03X-119842I-241J-178D01*
G37*
G36*
G01X-82642Y-192707D02*
G02X-84307Y-191042I-958J707D01*
G03Y-190558I-178J241D01*
G02X-84558Y-190307I707J958D01*
G03X-85042I-241J-178D01*
G02X-86707Y-188642I-958J707D01*
G03Y-188158I-178J241D01*
G02Y-186242I707J958D01*
G03Y-185758I-178J241D01*
G02Y-183842I707J958D01*
G03Y-183358I-178J241D01*
G02X-85042Y-181693I707J958D01*
G03X-84558I242J178D01*
G02X-82642I959J-707D01*
G03X-82158I241J178D01*
G02X-80401Y-181517I959J-707D01*
G03X-79999I201J222D01*
G02X-78401I799J-883D01*
G03X-77999I201J222D01*
G02X-76493Y-183358I799J-883D01*
G03Y-183842I178J-242D01*
G02Y-185758I-707J-959D01*
G03Y-186242I178J-242D01*
G02X-77999Y-188083I-707J-959D01*
G03X-78401I-201J-222D01*
G02X-79999I-799J883D01*
G03X-80401I-201J-222D01*
G02X-80493Y-188158I-798J884D01*
G03Y-188642I178J-242D01*
G02Y-190558I-707J-959D01*
G03Y-191042I178J-242D01*
G02X-82158Y-192707I-707J-958D01*
G03X-82642I-242J-178D01*
G37*
G36*
G01X-104642Y-194307D02*
G02Y-192893I-958J707D01*
G03X-104158I242J178D01*
G02X-102242I958J-707D01*
G03X-101758I242J178D01*
G02X-99842I958J-707D01*
G03X-99358I241J178D01*
G02X-97442I959J-707D01*
G03X-96958I242J178D01*
G02X-95042I959J-707D01*
G03X-94558I241J178D01*
G02X-92642I958J-707D01*
G03X-92159I241J178D01*
G02Y-194307I959J-707D01*
G03X-92642I-241J-178D01*
G02X-94558I-959J707D01*
G03X-95042I-242J-178D01*
G02X-96958I-958J707D01*
G03X-97442I-241J-178D01*
G02X-99358I-958J707D01*
G03X-99842I-241J-178D01*
G02X-101758I-959J707D01*
G03X-102242I-242J-178D01*
G02X-104158I-958J707D01*
G03X-104642I-242J-178D01*
G37*
G36*
G01Y-197107D02*
G02Y-195693I-958J707D01*
G03X-104158I242J178D01*
G02X-102242I958J-707D01*
G03X-101758I242J178D01*
G02X-99842I958J-707D01*
G03X-99358I241J178D01*
G02X-97442I959J-707D01*
G03X-96958I242J178D01*
G02X-95042I959J-707D01*
G03X-94558I241J178D01*
G02X-92642I958J-707D01*
G03X-92159I241J178D01*
G02Y-197107I959J-707D01*
G03X-92642I-241J-178D01*
G02X-94558I-959J707D01*
G03X-95042I-242J-178D01*
G02X-96958I-958J707D01*
G03X-97442I-241J-178D01*
G02X-99358I-958J707D01*
G03X-99842I-241J-178D01*
G02X-101758I-959J707D01*
G03X-102242I-242J-178D01*
G02X-104158I-958J707D01*
G03X-104642I-242J-178D01*
G37*
G36*
G01Y-199907D02*
G02Y-198493I-958J707D01*
G03X-104158I242J178D01*
G02X-102242I958J-707D01*
G03X-101758I242J178D01*
G02X-99842I958J-707D01*
G03X-99358I241J178D01*
G02X-97442I959J-707D01*
G03X-96958I242J178D01*
G02X-95042I959J-707D01*
G03X-94558I241J178D01*
G02X-92642I958J-707D01*
G03X-92159I241J178D01*
G02Y-199907I959J-707D01*
G03X-92642I-241J-178D01*
G02X-94558I-959J707D01*
G03X-95042I-242J-178D01*
G02X-96958I-958J707D01*
G03X-97442I-241J-178D01*
G02X-99358I-958J707D01*
G03X-99842I-241J-178D01*
G02X-101758I-959J707D01*
G03X-102242I-242J-178D01*
G02X-104158I-958J707D01*
G03X-104642I-242J-178D01*
G37*
G36*
G01Y-202707D02*
G02Y-201293I-958J707D01*
G03X-104158I242J178D01*
G02X-102242I958J-707D01*
G03X-101758I242J178D01*
G02X-99842I958J-707D01*
G03X-99358I241J178D01*
G02X-97442I959J-707D01*
G03X-96958I242J178D01*
G02X-95042I959J-707D01*
G03X-94558I241J178D01*
G02X-92642I958J-707D01*
G03X-92159I241J178D01*
G02Y-202707I959J-707D01*
G03X-92642I-241J-178D01*
G02X-94558I-959J707D01*
G03X-95042I-242J-178D01*
G02X-96958I-958J707D01*
G03X-97442I-241J-178D01*
G02X-99358I-958J707D01*
G03X-99842I-241J-178D01*
G02X-101758I-959J707D01*
G03X-102242I-242J-178D01*
G02X-104158I-958J707D01*
G03X-104642I-242J-178D01*
G37*
G36*
G01X-63632Y-207030D02*
G02Y-205770I-768J630D01*
G03X-63168I232J190D01*
G02X-61632I768J-630D01*
G03X-61168I232J190D01*
G02Y-207030I768J-630D01*
G03X-61632I-232J-190D01*
G02X-63168I-768J630D01*
G03X-63632I-232J-190D01*
G37*
G36*
G01X1758Y-211107D02*
G02X93Y-209442I-958J707D01*
G03Y-208958I-178J242D01*
G02Y-207042I707J958D01*
G03Y-206558I-178J242D01*
G02X1758Y-204893I707J958D01*
G03X2242I242J178D01*
G02X3907Y-206558I958J-707D01*
G03Y-207042I178J-242D01*
G02Y-208958I-707J-958D01*
G03Y-209442I178J-242D01*
G02X2242Y-211107I-707J-958D01*
G03X1758I-242J-178D01*
G37*
G36*
G01X-4242Y-220307D02*
G02X-5907Y-218642I-959J707D01*
G03Y-218158I-178J242D01*
G02Y-216242I707J958D01*
G03Y-215758I-178J242D01*
G02X-4242Y-214093I707J958D01*
G03X-3758I242J178D01*
G02X-1842I958J-707D01*
G03X-1359I242J178D01*
G02X558I959J-707D01*
G03X1042I242J178D01*
G02X2707Y-215758I959J-707D01*
G03Y-216242I178J-242D01*
G02X2958Y-216493I-707J-958D01*
G03X3442I242J178D01*
G02X5107Y-218158I958J-707D01*
G03Y-218642I178J-242D01*
G02X3442Y-220307I-707J-958D01*
G03X2958I-242J-178D01*
G02X1042I-958J707D01*
G03X558I-241J-178D01*
G02X-1359I-958J707D01*
G03X-1842I-241J-178D01*
G02X-3758I-958J707D01*
G03X-4242I-242J-178D01*
G37*
G36*
G01X-126893Y-239042D02*
G02X-128307I-707J-958D01*
G03Y-238559I-178J242D01*
G02X-126893I707J959D01*
G03Y-239042I178J-241D01*
G37*
G36*
G01X-126493Y-247442D02*
G02X-127907I-707J-958D01*
G03Y-246958I-178J242D01*
G02X-126493I707J958D01*
G03Y-247442I178J-242D01*
G37*
G36*
G01X-55335Y71842D02*
G03X-55544Y71471I80J-289D01*
G02X-56765Y72158I-956J-271D01*
G03X-56556Y72529I-80J289D01*
G02X-55335Y71842I956J271D01*
G37*
G36*
G01X-57678Y68517D02*
G03Y68105I218J-206D01*
G02X-59122I-722J-683D01*
G03Y68517I-218J206D01*
G02X-57678I722J683D01*
G37*
G36*
G01X-29286Y56909D02*
G03Y56491I216J-209D01*
G02X-30714I-714J-691D01*
G03Y56909I-216J209D01*
G02X-29286I714J691D01*
G37*
G36*
G01X-27907Y52225D02*
G03X-28139Y51854I58J-294D01*
G02X-29293Y52575I-961J-254D01*
G03X-29061Y52946I-58J294D01*
G02X-27907Y52225I961J254D01*
G37*
G36*
G01X-23512Y65154D02*
G02X-23752Y66353I-888J446D01*
G03X-23288Y66446I196J227D01*
G02X-23048Y65247I888J-446D01*
G03X-23512Y65154I-196J-227D01*
G37*
G36*
G01X-123182Y57364D02*
G02X-124204Y57773I-818J-564D01*
G03X-124018Y58236I-62J294D01*
G02X-122996Y57827I818J564D01*
G03X-123182Y57364I62J-294D01*
G37*
G36*
G01X-102493Y54159D02*
G02X-103907I-707J-959D01*
G03Y54642I-178J241D01*
G02X-102493I707J959D01*
G03Y54159I178J-241D01*
G37*
G36*
G01X-106570Y39168D02*
G02X-107830I-630J-768D01*
G03Y39632I-190J232D01*
G02X-106570I630J768D01*
G03Y39168I190J-232D01*
G37*
G36*
G01X-8265Y34184D02*
G02X-9226Y33752I-135J-984D01*
G03X-9435Y34216I-250J167D01*
G02X-10261Y35454I135J984D01*
G03X-10609Y35825I-290J77D01*
G02X-9839Y36546I-191J975D01*
G03X-9491Y36175I290J-77D01*
G02X-8474Y34648I191J-975D01*
G03X-8265Y34184I250J-167D01*
G37*
G36*
G01X-163442Y-27907D02*
G02X-164678Y-26042I-958J707D01*
G03X-164517Y-25559I-70J292D01*
G02X-162642Y-24093I917J759D01*
G03X-162158I241J178D01*
G02X-160242I958J-707D01*
G03X-159758I241J178D01*
G02X-158522Y-25958I958J-707D01*
G03X-158683Y-26441I70J-292D01*
G02X-160558Y-27907I-917J-759D01*
G03X-161042I-242J-178D01*
G02X-162958I-959J707D01*
G03X-163442I-242J-178D01*
G37*
G36*
G01X-41260Y-92180D02*
G03X-41690I-215J-210D01*
G02Y-90791I-710J695D01*
G03X-41260I215J210D01*
G02Y-92180I710J-695D01*
G37*
G36*
G01X-23207Y-95100D02*
G03X-23639Y-95196I-172J-246D01*
G02X-23930Y-93886I-861J496D01*
G03X-23498Y-93790I172J246D01*
G02X-23207Y-95100I861J-496D01*
G37*
G36*
G01X-29203Y-93945D02*
G03X-28800Y-94041I252J163D01*
G02X-29134Y-95440I500J-859D01*
G03X-29537Y-95344I-252J-163D01*
G02X-29203Y-93945I-500J859D01*
G37*
G36*
G01X34310Y-96081D02*
G03Y-96291I107J-105D01*
G02X32890I-710J-695D01*
G03Y-96081I-107J105D01*
G02X34310I710J695D01*
G37*
G36*
G01X-40460Y-113829D02*
G03X-40900Y-113875I-199J-224D01*
G02X-41040Y-112542I-800J590D01*
G03X-40600Y-112496I199J224D01*
G02X-39012Y-112480I800J-590D01*
G03X-38581Y-112527I238J183D01*
G02X-38728Y-113891I641J-759D01*
G03X-39159Y-113845I-238J-183D01*
G02X-40460Y-113829I-641J759D01*
G37*
G36*
G01X-48970Y-72032D02*
G02X-50230I-630J-768D01*
G03Y-71568I-190J232D01*
G02X-48970I630J768D01*
G03Y-72032I190J-232D01*
G37*
G36*
G01X78230Y-74432D02*
G02X76970I-630J-768D01*
G03Y-73968I-190J232D01*
G02X78230I630J768D01*
G03Y-74432I190J-232D01*
G37*
G36*
G01X-29835Y-78095D02*
G02X-31011Y-78074I-602J-791D01*
G03X-31002Y-77591I-173J245D01*
G02X-29826Y-77612I602J791D01*
G03X-29835Y-78095I173J-245D01*
G37*
G36*
G01X58692Y-78488D02*
G02X57662Y-78394I-592J-798D01*
G03X57708Y-77884I-132J269D01*
G02X58738Y-77978I592J798D01*
G03X58692Y-78488I132J-269D01*
G37*
G36*
G01X30460Y-78665D02*
G02X29417Y-78617I-560J-821D01*
G03X29440Y-78107I-146J262D01*
G02X30483Y-78154I560J821D01*
G03X30460Y-78665I146J-262D01*
G37*
G36*
G01X69236Y-83037D02*
G02Y-81963I-836J537D01*
G03X69741I252J162D01*
G02Y-83037I836J-537D01*
G03X69236I-252J-162D01*
G37*
G36*
G01X64561Y-85982D02*
G02X64452Y-84836I-861J496D01*
G03X64939Y-84790I227J196D01*
G02X65048Y-85935I861J-496D01*
G03X64561Y-85982I-227J-196D01*
G37*
G36*
G01X59168Y-86116D02*
G02Y-84855I-768J630D01*
G03X59632I232J190D01*
G02Y-86116I768J-630D01*
G03X59168I-232J-190D01*
G37*
G36*
G01X51568Y-86230D02*
G02Y-84970I-768J630D01*
G03X52032I232J190D01*
G02Y-86230I768J-630D01*
G03X51568I-232J-190D01*
G37*
G36*
G01X43938Y-89134D02*
G02X43875Y-87978I-838J534D01*
G03X44362Y-87952I234J188D01*
G02X44425Y-89108I838J-534D01*
G03X43938Y-89134I-234J-188D01*
G37*
G36*
G01X-18418Y-91036D02*
G02X-18472Y-92077I818J-564D01*
G03X-18982Y-92050I-263J-144D01*
G02X-18928Y-91009I-818J564D01*
G03X-18418Y-91036I263J144D01*
G37*
G36*
G01X62636Y-91367D02*
G02X62227Y-92390I564J-818D01*
G03X61764Y-92204I-294J-62D01*
G02X62173Y-91182I-564J818D01*
G03X62636Y-91367I294J62D01*
G37*
G36*
G01X34505Y-93268D02*
G02X34354Y-91938I-805J582D01*
G03X34795Y-91888I197J226D01*
G02X36324Y-91789I805J-582D01*
G03X36834Y-91654I218J206D01*
G02X37076Y-92567I966J-232D01*
G03X36566Y-92702I-218J-206D01*
G02X34946Y-93218I-966J232D01*
G03X34505Y-93268I-197J-226D01*
G37*
G36*
G01X-41648Y-93933D02*
G02X-41888Y-95132I648J-753D01*
G03X-42352Y-95039I-268J-135D01*
G02X-42112Y-93840I-648J753D01*
G03X-41648Y-93933I268J135D01*
G37*
G36*
G01X-32642Y-147107D02*
G02X-34307Y-145442I-959J707D01*
G03Y-144958I-178J242D01*
G02X-32642Y-143293I707J959D01*
G03X-32158I242J178D01*
G02X-30242I959J-707D01*
G03X-29758I242J178D01*
G02X-27842I958J-707D01*
G03X-27358I242J178D01*
G02X-25442I958J-707D01*
G03X-24958I242J178D01*
G02X-23042I959J-707D01*
G03X-22558I242J178D01*
G02X-20893Y-144958I959J-707D01*
G03Y-145442I178J-241D01*
G02X-22558Y-147107I-707J-958D01*
G03X-23042I-242J-178D01*
G02X-24958I-958J707D01*
G03X-25442I-242J-178D01*
G02X-27358I-959J707D01*
G03X-27842I-242J-178D01*
G02X-29758I-959J707D01*
G03X-30242I-242J-178D01*
G02X-32158I-958J707D01*
G03X-32642I-242J-178D01*
G37*
G36*
G01X-121693Y116959D02*
G02X-123107I-707J-959D01*
G03Y117442I-178J241D01*
G02X-121693I707J958D01*
G03Y116959I178J-242D01*
G37*
G36*
G01X104905Y-24710D02*
G03X104695I-105J-107D01*
G02Y-23290I-695J710D01*
G03X104905I105J107D01*
G02X106295I695J-710D01*
G03X106505I105J107D01*
G02Y-24710I695J-710D01*
G03X106295I-105J-107D01*
G02X104905I-695J710D01*
G37*
G36*
G01X128185Y-33190D02*
G03X127975I-105J-107D01*
G02X126570Y-31785I-695J710D01*
G03Y-31575I-107J105D01*
G02Y-30185I710J695D01*
G03Y-29975I-107J105D01*
G02X126287Y-29290I710J695D01*
G03X125990Y-28994I-300J-3D01*
G02X126994Y-27990I10J994D01*
G03X127290Y-28287I300J3D01*
G02X127975Y-28570I-10J-994D01*
G03X128185I105J107D01*
G02X129575I695J-710D01*
G03X129785I105J107D01*
G02X131190Y-29975I695J-710D01*
G03Y-30185I107J-105D01*
G02Y-31575I-710J-695D01*
G03Y-31785I107J-105D01*
G02X129785Y-33190I-710J-695D01*
G03X129575I-105J-107D01*
G02X128185I-695J710D01*
G37*
G36*
G01X29095Y-199290D02*
G03X29305I105J107D01*
G02Y-200710I695J-710D01*
G03X29095I-105J-107D01*
G02Y-199290I-695J710D01*
G37*
G36*
G01X23095Y-214890D02*
G03X23305I105J107D01*
G02Y-216310I695J-710D01*
G03X23095I-105J-107D01*
G02Y-214890I-695J710D01*
G37*
G36*
G01X97168Y-14230D02*
G02Y-12970I-768J630D01*
G03X97632I232J190D01*
G02Y-14230I768J-630D01*
G03X97168I-232J-190D01*
G37*
G36*
G01X85968Y-15030D02*
G02Y-13770I-768J630D01*
G03X86432I232J190D01*
G02X87968I768J-630D01*
G03X88432I232J190D01*
G02X89968I768J-630D01*
G03X90432I232J190D01*
G02Y-15030I768J-630D01*
G03X89968I-232J-190D01*
G02X88432I-768J630D01*
G03X87968I-232J-190D01*
G02X86432I-768J630D01*
G03X85968I-232J-190D01*
G37*
G36*
G01X122959Y-44307D02*
G02X121293Y-42642I-959J707D01*
G03Y-42158I-178J242D01*
G02X121042Y-41907I707J958D01*
G03X120559I-242J-178D01*
G02X118893Y-40242I-959J707D01*
G03Y-39758I-178J242D01*
G02X120559Y-38093I707J958D01*
G03X121042I241J178D01*
G02X122959I958J-707D01*
G03X123442I241J178D01*
G02X125107Y-39758I958J-707D01*
G03Y-40242I178J-242D01*
G02Y-42158I-707J-959D01*
G03Y-42642I178J-242D01*
G02X123442Y-44307I-707J-958D01*
G03X122959I-242J-178D01*
G37*
G36*
G01X33036Y-180782D02*
G02X32627Y-181804I564J-818D01*
G03X32164Y-181618I-294J-62D01*
G02X32573Y-180596I-564J818D01*
G03X33036Y-180782I294J62D01*
G37*
G36*
G01X45168Y-183730D02*
G02Y-182470I-768J630D01*
G03X45632I232J190D01*
G02Y-183730I768J-630D01*
G03X45168I-232J-190D01*
G37*
G36*
G01X38488Y-190846D02*
G02X38248Y-189647I-888J446D01*
G03X38712Y-189554I196J227D01*
G02X38952Y-190753I888J-446D01*
G03X38488Y-190846I-196J-227D01*
G37*
G36*
G01X29568Y-204630D02*
G02Y-203370I-768J630D01*
G03X30032I232J190D01*
G02Y-204630I768J-630D01*
G03X29568I-232J-190D01*
G37*
G36*
G01X31568Y-210230D02*
G02Y-208970I-768J630D01*
G03X32032I232J190D01*
G02Y-210230I768J-630D01*
G03X31568I-232J-190D01*
G37*
G36*
G01X140870Y134926D02*
G03X140430I-220J-204D01*
G02Y136274I-730J675D01*
G03X140870I220J204D01*
G02Y134926I730J-674D01*
G37*
G36*
G01X119100Y72636D02*
X131421Y84957D01*
X145037D01*
G02Y79957I1183J-2500D01*
G01X133493D01*
X124100Y70564D01*
Y62000D01*
G02X121600Y59500I-2500J0D01*
G01X118800D01*
G02Y64500I0J2500D01*
G01X119100D01*
Y72636D01*
G37*
G36*
G01X176001Y21917D02*
G03X175599I-201J-222D01*
G02Y23683I-799J883D01*
G03X176001I201J222D01*
G02X177599I799J-883D01*
G03X178001I201J222D01*
G02Y21917I799J-883D01*
G03X177599I-201J-222D01*
G02X176001I-799J883D01*
G37*
G36*
G01X166722Y19317D02*
G03Y18905I218J-206D01*
G02X165278I-722J-683D01*
G03Y19317I-218J206D01*
G02X166722I722J683D01*
G37*
G36*
G01X183283Y401D02*
G03Y-1I222J-201D01*
G02X181517I-883J-799D01*
G03Y401I-222J201D01*
G02Y1999I883J799D01*
G03Y2401I-222J201D01*
G02X181842Y4252I883J799D01*
G03X181956Y4675I-141J265D01*
G02Y5725I844J525D01*
G03X181842Y6148I-255J158D01*
G02X181220Y7043I558J1052D01*
G03X180817Y7285I-297J-40D01*
G02Y9515I-417J1115D01*
G03X181220Y9757I105J281D01*
G02X183107Y8642I1180J-157D01*
G03Y8158I178J-242D01*
G02X183320Y6444I-707J-958D01*
G03X183377Y6009I232J-190D01*
G02Y4391I-577J-809D01*
G03X183320Y3956I174J-244D01*
G02X183283Y2401I-920J-756D01*
G03Y1999I222J-201D01*
G02Y401I-883J-799D01*
G37*
G36*
G01X166587Y-46382D02*
G03X166170Y-46429I-185J-236D01*
G02X166013Y-45018I-770J629D01*
G03X166430Y-44972I185J236D01*
G02X166587Y-46382I770J-629D01*
G37*
G36*
G01X137895Y-193522D02*
G03X137483I-206J-218D01*
G02Y-192078I-683J722D01*
G03X137895I206J218D01*
G02Y-193522I683J-722D01*
G37*
G36*
G01X127358Y-236707D02*
G02Y-235293I-958J707D01*
G03X127842I242J178D01*
G02X129758I958J-707D01*
G03X130242I242J178D01*
G02Y-236707I958J-707D01*
G03X129758I-242J-178D01*
G02X127842I-958J707D01*
G03X127358I-242J-178D01*
G37*
G36*
G01X172559Y-67507D02*
G02X170893Y-65842I-959J707D01*
G03Y-65359I-178J241D01*
G02Y-63441I707J959D01*
G03Y-62959I-178J241D01*
G02X172559Y-61293I707J959D01*
G03X173042I241J178D01*
G02X174959I958J-707D01*
G03X175442I241J178D01*
G02X177107Y-62959I958J-707D01*
G03Y-63441I178J-241D01*
G02Y-65359I-707J-959D01*
G03Y-65842I178J-241D01*
G02X175442Y-67507I-707J-959D01*
G03X174959I-242J-178D01*
G02X173042I-959J707D01*
G03X172559I-242J-178D01*
G37*
G36*
G01X150230Y112368D02*
G02X148970I-630J-768D01*
G03Y112832I-190J232D01*
G02Y114368I630J768D01*
G03Y114832I-190J232D01*
G02X150230I630J768D01*
G03Y114368I190J-232D01*
G02Y112832I-630J-768D01*
G03Y112368I190J-232D01*
G37*
G36*
G01X148768Y134970D02*
G02Y136230I-768J630D01*
G03X149232I232J190D01*
G02Y134970I768J-630D01*
G03X148768I-232J-190D01*
G37*
G36*
G01X191861Y-185739D02*
G02X189739Y-187861I-1061J-1061D01*
G01X187300Y-185421D01*
Y-178621D01*
X183779Y-175100D01*
X166179D01*
X156100Y-165021D01*
Y-143790D01*
X168100Y-131790D01*
Y-97410D01*
X161700Y-91010D01*
Y-80590D01*
X170190Y-72100D01*
X193322D01*
X201300Y-64122D01*
Y-56990D01*
X203700Y-54590D01*
Y-40746D01*
G03X203261Y-40480I-300J0D01*
G02Y-38720I-461J880D01*
G03X203700Y-38454I139J266D01*
G01Y-37379D01*
X204500Y-36579D01*
Y-21176D01*
X199300Y-15976D01*
Y6776D01*
X201300Y8776D01*
Y12578D01*
X199779Y14100D01*
X186979D01*
X183700Y17379D01*
Y28400D01*
X181268D01*
X174868Y34800D01*
X163668D01*
X157268Y41200D01*
X149668D01*
X142400Y48468D01*
Y60332D01*
X147268Y65200D01*
G03X147166Y65691I-212J212D01*
G02X146642Y66093I434J1109D01*
G03X146158I-242J-178D01*
G02Y67507I-959J707D01*
G03X146642I241J178D01*
G02X148766Y66560I959J-707D01*
G03X149060Y66200I294J-60D01*
G01X164268D01*
X164468Y66400D01*
X176332D01*
X184071Y58661D01*
X185710Y60300D01*
X197547D01*
G03X197654Y60556I0J150D01*
G01X197386Y60823D01*
X197316Y60816D01*
G02X198384Y61884I-116J1184D01*
G01X198377Y61814D01*
X199090Y61100D01*
X199696D01*
G03X199919Y61602I0J300D01*
G02X201984Y62284I881J798D01*
G01X201977Y62214D01*
X208701Y55490D01*
Y5710D01*
X206700Y3710D01*
Y-12910D01*
X211900Y-18110D01*
Y-23199D01*
G03X212372Y-23445I300J0D01*
G02Y-25075I568J-815D01*
G03X211900Y-25321I-172J-246D01*
G01Y-27710D01*
X213500Y-29310D01*
Y-48454D01*
G03X213939Y-48720I300J0D01*
G02Y-50480I461J-880D01*
G03X213500Y-50746I-139J-266D01*
G01Y-54690D01*
X208300Y-59890D01*
Y-67090D01*
X196290Y-79100D01*
X188690D01*
X175100Y-92690D01*
Y-134690D01*
X163100Y-146690D01*
Y-161916D01*
X169284Y-168100D01*
X188690D01*
X193014Y-172423D01*
X193084Y-172416D01*
G02X194081Y-174399I116J-1184D01*
G03Y-174801I222J-201D01*
G02X193040Y-176778I-881J-799D01*
G03X192700Y-177076I-40J-297D01*
G01Y-179310D01*
X193414Y-180023D01*
X193484Y-180016D01*
G02X194481Y-181999I116J-1184D01*
G03Y-182401I222J-201D01*
G02Y-183999I-881J-799D01*
G03Y-184401I222J-201D01*
G02X192416Y-185084I-881J-799D01*
G01X192423Y-185014D01*
X190812Y-183403D01*
G03X190300Y-183615I-212J-212D01*
G01Y-184179D01*
X191861Y-185739D01*
G37*
G36*
G01X125670Y124926D02*
G03X125230I-220J-204D01*
G02Y126274I-730J674D01*
G03X125670I220J204D01*
G02Y124926I730J-675D01*
G37*
G36*
G01X124584Y116716D02*
G02X123291Y116202I-384J-917D01*
G03X123133Y116601I-274J122D01*
G02X122961Y118340I384J917D01*
G03X122980Y118824I-168J249D01*
G02X124156Y118777I620J777D01*
G03X124137Y118294I168J-249D01*
G02X124426Y117115I-620J-777D01*
G03X124584Y116716I274J-122D01*
G37*
G36*
G01X64549Y-186693D02*
G03X64735Y-187064I287J-89D01*
G02X63451Y-187707I-335J-936D01*
G03X63265Y-187336I-287J89D01*
G02X64549Y-186693I335J936D01*
G37*
G36*
G01X128801Y-218083D02*
G03X128399I-201J-222D01*
G02Y-216317I-799J883D01*
G03X128801I201J222D01*
G02Y-218083I799J-883D01*
G37*
G36*
G01X66695Y-226890D02*
G03X66905I105J107D01*
G02Y-228310I695J-710D01*
G03X66695I-105J-107D01*
G02Y-226890I-695J710D01*
G37*
G36*
G01X94955Y-180526D02*
G02X94274Y-179845I-955J-274D01*
G03X94645Y-179474I83J288D01*
G02X95326Y-180155I955J274D01*
G03X94955Y-180526I-83J-288D01*
G37*
G36*
G01X59294Y-187701D02*
G02X59170Y-188946I706J-699D01*
G03X58706Y-188899I-251J-165D01*
G02X57200Y-188790I-706J699D01*
G03X56737Y-188767I-241J-178D01*
G02X56800Y-187510I-737J667D01*
G03X57263Y-187533I241J178D01*
G02X58830Y-187654I737J-667D01*
G03X59294Y-187701I251J165D01*
G37*
G36*
G01X97355Y-191726D02*
G02X96674Y-191045I-955J-274D01*
G03X97045Y-190674I83J288D01*
G02X97726Y-191355I955J274D01*
G03X97355Y-191726I-83J-288D01*
G37*
G36*
G01X62604Y-199427D02*
G02X61582Y-199836I-204J-973D01*
G03X61396Y-199373I-247J170D01*
G02X62418Y-198964I204J973D01*
G03X62604Y-199427I247J-170D01*
G37*
G36*
G01X66460Y-201198D02*
G02X66276Y-199972I-860J498D01*
G03X66740Y-199902I204J220D01*
G02X66924Y-201128I860J-498D01*
G03X66460Y-201198I-204J-220D01*
G37*
G36*
G01X71568Y-203430D02*
G02Y-202170I-768J630D01*
G03X72032I232J190D01*
G02Y-203430I768J-630D01*
G03X71568I-232J-190D01*
G37*
G36*
G01X82918Y-204139D02*
G02X82572Y-203082I-955J273D01*
G03X83045Y-202927I184J237D01*
G02X83390Y-203984I955J-273D01*
G03X82918Y-204139I-184J-237D01*
G37*
G36*
G01X134424Y-224319D02*
G02X133938Y-225562I675J-981D01*
G03X133476Y-225381I-293J-66D01*
G02X131974Y-225257I-675J981D01*
G03X131471Y-225418I-208J-216D01*
G02X131126Y-224343I-1171J218D01*
G03X131629Y-224182I208J216D01*
G02X133962Y-224138I1171J-218D01*
G03X134424Y-224319I293J66D01*
G37*
G36*
G01X122801Y36717D02*
G03X122399I-201J-222D01*
G02Y38483I-799J883D01*
G03X122801I201J222D01*
G02Y36717I799J-883D01*
G37*
G36*
G01X98801Y139517D02*
G03X98399I-201J-222D01*
G02Y141283I-799J883D01*
G03X98801I201J222D01*
G02Y139517I799J-883D01*
G37*
G36*
G01X89084Y122363D02*
G03X88672I-206J-218D01*
G02Y123807I-683J722D01*
G03X89084I206J218D01*
G02Y122363I683J-722D01*
G37*
G36*
G01X84595D02*
G03X84183I-206J-218D01*
G02Y123807I-683J722D01*
G03X84595I206J218D01*
G02Y122363I683J-722D01*
G37*
G36*
G01X93395Y122163D02*
G03X92983I-206J-218D01*
G02Y123607I-683J722D01*
G03X93395I206J218D01*
G02Y122163I683J-722D01*
G37*
G36*
G01X81095Y116078D02*
G03X80683I-206J-218D01*
G02Y117522I-683J722D01*
G03X81095I206J218D01*
G02Y116078I683J-722D01*
G37*
G36*
G01X85717Y114478D02*
G03X85305I-206J-218D01*
G02Y115922I-683J722D01*
G03X85717I206J218D01*
G02Y114478I683J-722D01*
G37*
G36*
G01X75818Y111413D02*
G03X75772Y111830I-236J185D01*
G02X77182Y111987I629J770D01*
G03X77228Y111570I236J-185D01*
G02X75818Y111413I-629J-770D01*
G37*
G36*
G01X61495Y99177D02*
G03X61083I-206J-218D01*
G02Y100621I-683J722D01*
G03X61495I206J218D01*
G02Y99177I683J-722D01*
G37*
G36*
G01X57095D02*
G03X56683I-206J-218D01*
G02Y100621I-683J722D01*
G03X57095I206J218D01*
G02Y99177I683J-722D01*
G37*
G36*
G01X52695Y96377D02*
G03X52283I-206J-218D01*
G02Y97821I-683J722D01*
G03X52695I206J218D01*
G02Y96377I683J-722D01*
G37*
G36*
G01X48206D02*
G03X47794I-206J-218D01*
G02Y97821I-683J722D01*
G03X48206I206J218D01*
G02Y96377I683J-722D01*
G37*
G36*
G01X65895Y93177D02*
G03X65483I-206J-218D01*
G02Y94621I-683J722D01*
G03X65895I206J218D01*
G02Y93177I683J-722D01*
G37*
G36*
G01X36917Y48340D02*
G03X36505I-206J-218D01*
G02Y49784I-683J722D01*
G03X36917I206J218D01*
G02Y48340I683J-722D01*
G37*
G36*
G01X51565Y44234D02*
G03X52006Y44211I231J191D01*
G02X51935Y42866I694J-711D01*
G03X51494Y42889I-231J-191D01*
G02X51565Y44234I-694J711D01*
G37*
G36*
G01X74152Y136753D02*
G02X73912Y135554I648J-753D01*
G03X73448Y135647I-268J-135D01*
G02X72119Y135677I-648J753D01*
G03X71645Y135594I-206J-218D01*
G02X71440Y136765I-887J448D01*
G03X71913Y136848I206J218D01*
G02X73688Y136846I887J-448D01*
G03X74152Y136753I268J135D01*
G37*
G36*
G01X57568Y128970D02*
G02Y130230I-768J630D01*
G03X58032I232J190D01*
G02X59568I768J-630D01*
G03X60032I232J190D01*
G02Y128970I768J-630D01*
G03X59568I-232J-190D01*
G02X58032I-768J630D01*
G03X57568I-232J-190D01*
G37*
G36*
G01X61168Y124570D02*
G02Y125830I-768J630D01*
G03X61632I232J190D01*
G02X63168I768J-630D01*
G03X63632I232J190D01*
G02Y124570I768J-630D01*
G03X63168I-232J-190D01*
G02X61632I-768J630D01*
G03X61168I-232J-190D01*
G37*
G36*
G01X102149Y120693D02*
G02X100865Y121336I-949J-293D01*
G03X101051Y121707I-101J282D01*
G02X101410Y122800I949J293D01*
G03X101433Y123263I-178J241D01*
G02X102690Y123201I667J737D01*
G03X102667Y122737I178J-241D01*
G02X102335Y121064I-667J-737D01*
G03X102149Y120693I101J-282D01*
G37*
G36*
G01X60894Y119299D02*
G02X60770Y118054I706J-699D01*
G03X60306Y118101I-251J-165D01*
G02X58832Y118170I-706J699D01*
G03X58368I-232J-190D01*
G02Y119430I-768J630D01*
G03X58832I232J190D01*
G02X60430Y119346I768J-630D01*
G03X60894Y119299I251J165D01*
G37*
G36*
G01X72630Y117568D02*
G02X71370I-630J-768D01*
G03Y118032I-190J232D01*
G02X72630I630J768D01*
G03Y117568I190J-232D01*
G37*
G36*
G01X-14636Y80565D02*
G02X-15393Y79557I236J-965D01*
G03X-15764Y79835I-300J-13D01*
G02X-16965Y81036I-236J965D01*
G03X-17244Y81407I-291J71D01*
G02X-18165Y82636I44J993D01*
G03X-18444Y83007I-291J71D01*
G02X-17435Y83764I44J993D01*
G03X-17156Y83393I291J-71D01*
G02X-16235Y82164I-44J-993D01*
G03X-15957Y81793I291J-71D01*
G02X-15007Y80844I-43J-993D01*
G03X-14636Y80565I300J13D01*
G37*
G36*
G01X23922Y46695D02*
G03Y46283I218J-206D01*
G02X22478I-722J-683D01*
G03Y46695I-218J206D01*
G02X23922I722J683D01*
G37*
G36*
G01X72722Y18117D02*
G03Y17705I218J-206D01*
G02X71278I-722J-683D01*
G03Y18117I-218J206D01*
G02X72722I722J683D01*
G37*
G36*
G01X76322Y16517D02*
G03Y16105I218J-206D01*
G02X74878I-722J-683D01*
G03Y16517I-218J206D01*
G02X76322I722J683D01*
G37*
G36*
G01X66322Y19883D02*
G02X64878I-722J-683D01*
G03Y20295I-218J206D01*
G02X65466Y21963I722J683D01*
G03X65652Y22457I-40J297D01*
G02X65678Y23794I748J654D01*
G03Y24206I-218J206D01*
G02X65838Y25708I722J683D01*
G03Y26203I-170J247D01*
G02X65678Y27705I563J819D01*
G03Y28117I-218J206D01*
G02X67122I722J683D01*
G03Y27705I218J-206D01*
G02X66962Y26203I-722J-683D01*
G03Y25708I170J-247D01*
G02X67122Y24206I-563J-819D01*
G03Y23794I218J-206D01*
G02X66534Y22126I-722J-683D01*
G03X66348Y21632I40J-297D01*
G02X66322Y20295I-748J-654D01*
G03Y19883I218J-206D01*
G37*
G36*
G01X38158Y94493D02*
G02Y95907I-959J707D01*
G03X38642I242J178D01*
G02Y94493I959J-707D01*
G03X38158I-242J-178D01*
G37*
G54D42*
X-90089Y21975D03*
X110698Y-56765D03*
G54D45*
X184400Y-139300D03*
Y-94300D03*
G54D46*
X163857Y-192000D03*
X171731D03*
X179605D03*
G54D43*
X-120000Y32400D03*
X-112126D03*
G54D39*
X-187600Y-1600D03*
X-190800D03*
X-193600D03*
X-124800Y-254000D03*
X-112800Y-186400D03*
X-115600D03*
X-143200Y-141600D03*
Y-144400D03*
Y-147200D03*
Y-150000D03*
X-134800Y-152800D03*
X-137600D03*
X-140400D03*
X-134800Y-150000D03*
X-137600D03*
X-140400D03*
Y-147200D03*
X-137600D03*
X-134800D03*
X-132000D03*
X-140400Y-144400D03*
X-137600D03*
X-134800D03*
X-132000D03*
Y-141600D03*
X-134800D03*
X-137600D03*
X-140400D03*
X-158000Y-93200D03*
X-110800Y12000D03*
X-92800Y-14000D03*
X-98000Y115200D03*
Y118000D03*
X-95200D03*
X-89600D03*
X-92400D03*
X-89600Y115200D03*
X-92400D03*
X-95200D03*
X-126400Y42000D03*
X-95600Y74800D03*
X-35600Y-254400D03*
X-26000Y-255200D03*
X-16000D03*
X-6000D03*
X125200Y-98800D03*
X122000D03*
X100800Y-168800D03*
X98000D03*
X85400Y-186600D03*
X80400D03*
X75400D03*
X85800Y-191000D03*
X80800D03*
X75800D03*
X85800Y-195400D03*
X80800D03*
X75800D03*
X92000Y-174000D03*
X56400Y-219600D03*
Y-222352D03*
X214000Y-125200D03*
Y-135200D03*
Y-145200D03*
X194000Y-225200D03*
X184000D03*
X174000D03*
X164000D03*
X154000D03*
X202800Y-221600D03*
X212800Y-211600D03*
Y-201600D03*
Y-191600D03*
Y-181600D03*
Y-171600D03*
Y-161600D03*
X202800D03*
X144000Y-223200D03*
X214000Y-95200D03*
Y-105200D03*
Y-115200D03*
G54D38*
X-202139Y74050D03*
X-202200Y42554D03*
G54D44*
X149400Y-139320D03*
X159400Y-134320D03*
X149400Y-129320D03*
X159400Y-124320D03*
X149400Y-119320D03*
X159400Y-114320D03*
X149400Y-109320D03*
X159400Y-104320D03*
X149400Y-99320D03*
X159400Y-94320D03*
X203691Y-142883D03*
Y-132883D03*
Y-100717D03*
G54D47*
X156063Y82457D03*
X163937D03*
X175748Y89543D03*
X167874D03*
X152126D03*
X144252D03*
G54D41*
X-158000Y-243458D03*
G54D37*
X-181361Y-138239D03*
X-183920Y-135680D03*
X-174000Y-133200D03*
X-187600Y-111600D03*
X-183600Y-97600D03*
X-187200Y-100000D03*
X-188400Y-119600D03*
X-184172Y-119428D03*
X-187200Y4000D03*
X-192000Y36800D03*
X-193200Y-36800D03*
Y-16800D03*
X-187200Y48400D03*
Y38000D03*
X-185600Y56400D03*
X-187200Y63200D03*
X-193200Y-101600D03*
X-186400Y14800D03*
X-192800Y-61600D03*
X-184800Y44000D03*
X-185200Y-101600D03*
X-182800Y-88000D03*
X-188000Y-90800D03*
X-183200Y24400D03*
X-193200Y-71600D03*
Y-81600D03*
X-189828Y-220972D03*
X-138800Y-205200D03*
X-124800Y-124400D03*
X-116000Y-130400D03*
X-85400Y-194800D03*
X-139200Y-198000D03*
X-86000Y-242000D03*
X-139200Y-207600D03*
X-111600Y-140400D03*
X-119600Y-135200D03*
X-113600Y-122400D03*
X-73600Y-125600D03*
X-71600Y-127200D03*
X-105600Y-165200D03*
X-74800Y-123600D03*
X-74000Y-248800D03*
X-136000Y-223200D03*
X-110800Y-231600D03*
X-124400Y-180800D03*
X-118800Y-225416D03*
X-127200Y-209200D03*
X-129569Y-220031D03*
X-87600Y-232400D03*
X-86800Y-179200D03*
X-69600Y-136800D03*
X-70000Y-133200D03*
X-78800Y-228800D03*
X-133200Y-242800D03*
X-69600Y-128400D03*
X-138000Y-209600D03*
X-79600Y-239200D03*
X-95600Y-160000D03*
X-119200Y-139200D03*
X-148400Y-204800D03*
Y-200800D03*
Y-196400D03*
X-138500Y-185600D03*
X-148400Y-185200D03*
X-144800Y-182400D03*
X-89200Y-241600D03*
X-165600Y-191600D03*
X-148400Y-178800D03*
X-86000Y7600D03*
X-110000Y-39200D03*
X-112400Y-63200D03*
X-68800Y-55200D03*
X-106800Y-17600D03*
X-126800Y-62800D03*
X-102400Y-22000D03*
X-116800Y-62800D03*
X-104400Y-17600D03*
X-122000Y-62800D03*
X-116000Y-25600D03*
X-124800Y-14000D03*
X-103200Y-28800D03*
X-131200Y-62800D03*
X-114000Y-2000D03*
X-124800Y-9600D03*
X-121900D03*
X-117200Y-9500D03*
X-73100Y-37200D03*
X-99200Y-5700D03*
X-110000Y2000D03*
X-107300Y-500D03*
X-74400Y-33200D03*
X-87200Y12400D03*
X-84000Y14000D03*
X-116400Y-19200D03*
X-106000Y-27600D03*
X-112500Y-20400D03*
X-116000Y-28400D03*
X-164400Y-71600D03*
X-164800Y-100400D03*
X-162400Y-101600D03*
X-164800Y-111600D03*
X-166000Y-106400D03*
X-159200Y-105200D03*
X-154400Y-99200D03*
X-94400Y32000D03*
X-113200Y-84000D03*
X-120800Y-39600D03*
X-108000Y-22000D03*
X-109200Y-17200D03*
X-115200Y-39200D03*
X-116490Y-31290D03*
X-110800Y-84000D03*
X-68800Y135200D03*
X-89200Y96400D03*
X-36400Y-232800D03*
X-62800Y-221600D03*
X-11600Y-238800D03*
X-9200Y-223600D03*
X-28000Y-200400D03*
X-61500Y-197200D03*
X-58000D03*
X-66000Y-195200D03*
X-63600Y-227600D03*
X-34000Y-232800D03*
X-27100Y-203800D03*
X-66800Y-243200D03*
X-52400Y-233200D03*
X-27600Y-225600D03*
X-15600Y-228400D03*
X-63600Y-225200D03*
X-62000Y-194800D03*
X-58000D03*
X-57200Y-230400D03*
X-38500Y-194800D03*
X-67200Y-138800D03*
X-27200Y-223300D03*
X-5200Y-184400D03*
X11814Y-28887D03*
X22669Y-43361D03*
X-27989Y-18032D03*
X-26180Y-19841D03*
X-22561Y-23459D03*
X-20752Y-25268D03*
X-11700Y-34286D03*
X-17134Y-28887D03*
X-15324Y-30696D03*
X-22600Y-19886D03*
X-17134Y-25268D03*
X-42100Y-43600D03*
X-11706Y-30696D03*
X-30800Y-60400D03*
Y-56400D03*
X-25200Y-52800D03*
X-30800Y-52400D03*
X-25200Y-56800D03*
X-62400Y-61200D03*
X-59200Y-62686D03*
X-56000Y-63986D03*
X-38700Y-41200D03*
X-36900Y-56400D03*
X-38800Y-45100D03*
X-35600Y-43200D03*
X-25500Y-48400D03*
X-38600Y-49900D03*
X-32400Y-42800D03*
X81600Y-64400D03*
X-45600Y-64000D03*
X-48900Y-63600D03*
X-20800Y-50400D03*
Y-54800D03*
X28097Y-37933D03*
X29906Y-36124D03*
X44350Y-21625D03*
X26287Y-36124D03*
X53200Y-66400D03*
X31715Y-30696D03*
X70000Y-37600D03*
X71200Y-46400D03*
X65600Y-61600D03*
X62400Y-59800D03*
Y-54800D03*
X75200Y-60000D03*
X35200Y-58686D03*
X68800Y-60000D03*
X35600Y-65086D03*
X68400Y-54800D03*
X71400Y-66400D03*
X-32400Y-38800D03*
X76000Y-63600D03*
X-30000Y-42800D03*
X63600Y-38000D03*
Y-42000D03*
X66800Y-42400D03*
X67200Y-46400D03*
X66800Y-38000D03*
X70000Y-41600D03*
X72000Y-58000D03*
X72555Y-53345D03*
X20860Y-37933D03*
X17241Y-45170D03*
X19051Y-46979D03*
X13623Y-48788D03*
X-2660Y-43361D03*
X-851Y-37933D03*
X6386Y-48788D03*
Y-59643D03*
X2768Y-48788D03*
X959Y-46979D03*
X-35226Y-7177D03*
X-20752Y-14413D03*
X-33416Y-8986D03*
X-51800Y20100D03*
X-22561Y5488D03*
X-15324Y-16222D03*
Y-19841D03*
X-13515Y-21651D03*
X10400Y-43200D03*
X-2700Y-39800D03*
X22670Y-25268D03*
X24478Y-23459D03*
X26287Y-21650D03*
X20860Y-27078D03*
X19051Y-28887D03*
X15432D03*
X17241Y-30696D03*
X15432Y-32506D03*
X13623Y-34315D03*
X11814Y-32506D03*
X13623Y-30696D03*
X4577Y-28887D03*
X2768Y-27078D03*
X959Y-28887D03*
X2768Y-30696D03*
X959Y-25268D03*
X-851Y-27078D03*
Y-23458D03*
X-2660Y-25267D03*
X-4469Y-23459D03*
X-6278Y-21650D03*
X-8087Y-19841D03*
X-2660Y-21650D03*
X-4469Y-19841D03*
X6386Y-30696D03*
X8195Y-32506D03*
X4577D03*
X6386Y-34315D03*
X-17700Y23700D03*
X-6400Y-3600D03*
X-53200Y-25200D03*
X-11706Y-12604D03*
X-9897Y-14413D03*
X-8087Y-8986D03*
X-6278Y-7177D03*
X-2660D03*
X-4469Y-8986D03*
X-6278Y-14413D03*
X-2660D03*
Y-10795D03*
X-4469Y-12604D03*
X-851D03*
Y-8986D03*
X-6278Y-10795D03*
X-11714Y-8914D03*
X24478Y-30696D03*
X-13538Y-3562D03*
X-30000Y8800D03*
X-6278Y-28888D03*
X-851Y-5367D03*
X959Y-7177D03*
X-4369Y-1849D03*
X-13512Y-7112D03*
X-54800Y38800D03*
X-33600Y10900D03*
X-31600Y-10800D03*
X-33416Y-12604D03*
X-27989Y-14413D03*
X-17134D03*
X-35226D03*
X-22561Y-16222D03*
X-29804Y-12598D03*
X-31607Y-14413D03*
X-24370D03*
X-17134Y60D03*
X95600Y-32800D03*
X62400Y-21200D03*
X-49353Y40047D03*
X-49600Y21700D03*
X-15500Y-1752D03*
X-43100Y44000D03*
X-15324Y5488D03*
X-17134Y7297D03*
X-49200Y26800D03*
X-18942Y9106D03*
X-842Y-34323D03*
X20860Y-34315D03*
X-21200Y32800D03*
X-13515Y-18032D03*
X-9897D03*
X-15324Y-12604D03*
X-18942Y1870D03*
X-20752Y3679D03*
X102800Y-97200D03*
X-52400Y118800D03*
X6000Y102400D03*
X13200Y101300D03*
X-42400Y121500D03*
X-42700Y119200D03*
X-47200Y115200D03*
X-22800Y123200D03*
X-53200Y122800D03*
X-49600Y122100D03*
X-59600Y110000D03*
X-60400Y105200D03*
X-68400Y139200D03*
X-48000Y132000D03*
X-66000Y134400D03*
X-65200Y138400D03*
X-46800Y135200D03*
X-111600Y22800D03*
X-130400Y48400D03*
X-143200Y34800D03*
X-143600Y40000D03*
X-138400Y46800D03*
X-104000Y74800D03*
X-93200Y69600D03*
X-127200Y10400D03*
X-130000Y19600D03*
X-111772Y51372D03*
X-143600Y24800D03*
X-19200Y60800D03*
X6386Y-5367D03*
X2768Y-1749D03*
X-11706Y16343D03*
Y12725D03*
X-42200Y62100D03*
X-10900Y27600D03*
X-55900Y66000D03*
X6386Y9107D03*
X959Y18152D03*
X4577Y7297D03*
X-851Y5488D03*
X959Y7297D03*
X10005Y5538D03*
Y-1749D03*
Y1770D03*
X11814Y60D03*
Y-3558D03*
X8276Y3676D03*
X6386Y5388D03*
Y12725D03*
X8195Y14534D03*
X10000Y12723D03*
X-9897Y21771D03*
X-6278D03*
X-8087Y16343D03*
X2800Y19900D03*
X-6278Y14534D03*
X-26800Y70800D03*
X-9897Y14534D03*
X-18900Y53600D03*
X-2667Y18167D03*
X-851Y16343D03*
X-4469Y19961D03*
X-8087Y12725D03*
X-9897Y18152D03*
X-2660Y10915D03*
X-8087Y9106D03*
X-900Y20000D03*
X-2660Y21771D03*
X11814Y10915D03*
X952Y10948D03*
X-59200Y72800D03*
X-40400Y74400D03*
X-30400Y74000D03*
X-51200Y79600D03*
X11809Y3409D03*
X-904Y9104D03*
X8191Y7290D03*
X10005Y9106D03*
X2768Y12725D03*
X-2666Y7266D03*
X-4469Y9106D03*
X-150900Y71300D03*
Y66500D03*
X-142000Y70800D03*
X-68800Y85300D03*
X-62000Y85600D03*
X-66000Y88800D03*
X-150500Y46700D03*
X-135600Y-14400D03*
X-137200Y-16400D03*
X-164000Y-31600D03*
X-139600Y-12000D03*
X-154800Y-43200D03*
X-134400Y-26400D03*
X-160400Y-35200D03*
X-68800Y56400D03*
X-66400Y53200D03*
X-54000Y47200D03*
Y54300D03*
X-73772Y-85372D03*
X60400Y-133600D03*
X63200Y-130800D03*
X66800Y-127200D03*
X70000Y-124000D03*
X35600Y-133600D03*
X53200Y-134000D03*
X42400D03*
X28800D03*
X22000Y-133600D03*
X17600Y-130000D03*
X13200Y-126400D03*
X10000Y-123600D03*
X4000Y-121600D03*
X0Y-124000D03*
X-2400Y-127200D03*
X-6800Y-131600D03*
X-13600D03*
X-22400D03*
X-28400D03*
X-32800D03*
X-36400Y-131200D03*
X-39600Y-130000D03*
X-43600Y-127600D03*
X-50400Y-126800D03*
X-54000Y-126400D03*
X-58400Y-124800D03*
X-61200Y-122000D03*
X52800Y-97486D03*
X-50737Y-85086D03*
Y-82286D03*
X-22600Y-85286D03*
Y-82086D03*
X-40400Y-85200D03*
X-40800Y-82000D03*
X-30238Y-85205D03*
Y-82056D03*
X-50837Y-91486D03*
X-45500Y-88286D03*
X-30237D03*
X-27837Y-91286D03*
X-30437Y-91486D03*
X-26500Y-76000D03*
X-61200Y-84800D03*
X-53600Y-91600D03*
X-53400Y-88486D03*
Y-85286D03*
X-22000Y-73600D03*
X-19900Y-85286D03*
X-19700Y-88386D03*
X-25237Y-85286D03*
X-17400Y-81886D03*
X76300Y-85600D03*
X-17100Y-88386D03*
X76000Y-92000D03*
X-47900Y-88286D03*
X-48200Y-91486D03*
X-45600Y-85486D03*
Y-91486D03*
X-25237D03*
X-24937Y-88286D03*
X42700Y-85486D03*
Y-82286D03*
X71034Y-85600D03*
X60700Y-82286D03*
X42800Y-91686D03*
X68400D03*
X50600Y-94586D03*
X48000Y-85286D03*
X50700Y-82500D03*
X65800Y-82400D03*
X63600Y-88686D03*
X66100Y-91586D03*
X29600Y-71886D03*
X37550Y-88586D03*
X31200Y-83286D03*
X40200Y-91686D03*
X40400Y-88686D03*
X40100Y-85586D03*
X73700Y-85600D03*
Y-88786D03*
X71200Y-70800D03*
X73600Y-91686D03*
X76300Y-82386D03*
X-17100Y-85186D03*
X76000Y-88800D03*
X-19800Y-94286D03*
X45400Y-91686D03*
Y-85286D03*
X48000Y-82400D03*
X47800Y-91686D03*
X48000Y-88486D03*
X66000Y-88686D03*
X68400D03*
X63297Y-107471D03*
X55600Y-113686D03*
X55700Y-110586D03*
X55637Y-107486D03*
X60738Y-107471D03*
X58237Y-110886D03*
X-33600Y-97086D03*
X-30238Y-107253D03*
X-30800Y-115986D03*
X-32797Y-107253D03*
X-34200Y-115986D03*
X-37900Y-82286D03*
X34700Y-89700D03*
X38000Y-71586D03*
X68400Y-85600D03*
X73900Y-71000D03*
X60000Y-71886D03*
X71000Y-88400D03*
X-22300Y-88500D03*
X-50700Y-87900D03*
X45400Y-82700D03*
X70800Y-91600D03*
X-27600Y-88400D03*
X-56400D03*
X-53200Y-94400D03*
X-36300Y-95600D03*
X29600Y-74286D03*
X40000Y-94700D03*
X48000Y-94500D03*
X70800Y-94800D03*
X73600D03*
X74000Y-119600D03*
X9200Y-71200D03*
Y-77200D03*
Y-82000D03*
Y-89600D03*
Y-95600D03*
Y-102800D03*
Y-112000D03*
Y-116000D03*
X37900Y-79086D03*
X41600Y-77486D03*
X31200Y-102086D03*
X33000Y-113486D03*
X67200Y-74400D03*
X55200Y-72400D03*
X63028Y-94814D03*
X57200Y-95486D03*
X70300Y-79086D03*
X76200Y-79186D03*
X61900Y-75786D03*
X47843Y-79125D03*
X53200Y-88286D03*
X50400Y-91486D03*
Y-88400D03*
X60400Y-88286D03*
X47943Y-107471D03*
X50502Y-107271D03*
X47943Y-104322D03*
X48000Y-100786D03*
X50500Y-100986D03*
X50502Y-110821D03*
X53061Y-113771D03*
X58237Y-113786D03*
Y-107386D03*
X73533Y-110621D03*
Y-104322D03*
Y-107471D03*
X73600Y-113686D03*
X73533Y-101172D03*
X37707Y-104322D03*
X40337Y-104286D03*
X40300Y-100786D03*
Y-110586D03*
X37800Y-113486D03*
X40337Y-107486D03*
X42800Y-110486D03*
X66000Y-107486D03*
X63297Y-101172D03*
X68363Y-107124D03*
X66000Y-104286D03*
Y-101086D03*
X70974Y-110621D03*
X-66400Y-108000D03*
X-62400Y-100800D03*
X-35600Y-82000D03*
X-17600Y-78886D03*
X-55829Y-78906D03*
X-50737Y-78886D03*
X-37800Y-79086D03*
X-14400Y-81886D03*
X-17600Y-113286D03*
X-63200Y-117086D03*
X-22600Y-79086D03*
X-44300D03*
X-32797Y-88355D03*
Y-85205D03*
X-17437Y-107286D03*
X-20002Y-104103D03*
X-20000Y-100386D03*
X-19900Y-107286D03*
X-34100Y-113286D03*
X-38037Y-107286D03*
X-53270Y-100953D03*
Y-104103D03*
X-37800Y-88186D03*
X-40800Y-88286D03*
X-45593Y-104103D03*
X-43033Y-107253D03*
X-40437Y-107286D03*
X-45593Y-107253D03*
X-43033Y-100953D03*
X-45593D03*
X-53270Y-110402D03*
X-55829Y-113552D03*
X-50711Y-110402D03*
X-30200Y-100386D03*
X-27679Y-104103D03*
X-25037Y-104086D03*
Y-107286D03*
X-27600Y-100386D03*
X88000Y-86000D03*
Y-83200D03*
Y-80000D03*
X-37940Y-110286D03*
X54700Y-79086D03*
X86172Y-92458D03*
X78652Y-91723D03*
X43000Y-100786D03*
X42825Y-104322D03*
Y-107471D03*
X70974Y-101172D03*
Y-104322D03*
X70900Y-107048D03*
X60738Y-104322D03*
Y-101172D03*
X63297Y-104322D03*
X53000Y-104086D03*
X55620Y-101172D03*
X53061D03*
X63297Y-113771D03*
X50502D03*
X-14737Y-93086D03*
X-36400Y-77200D03*
X-58637Y-93086D03*
Y-89886D03*
X-14800Y-90400D03*
X-40474Y-104103D03*
X-37544Y-101030D03*
X-40400Y-101086D03*
X-43033Y-104103D03*
X-40474Y-110402D03*
X-44337Y-113386D03*
X-31500Y-113286D03*
X-28900D03*
X-22700Y-100386D03*
X-22561Y-104103D03*
Y-107253D03*
X-50711D03*
Y-104103D03*
Y-100953D03*
X-30238Y-104103D03*
X-32797D03*
X-32900Y-100386D03*
X-67600Y-102686D03*
X-38037Y-104186D03*
X-14884Y-104103D03*
X34300Y-108286D03*
X-14300Y-87286D03*
X-58136Y-100729D03*
Y-104229D03*
X-58437Y-108786D03*
X-58537Y-86886D03*
X35600Y-100786D03*
X35148Y-104322D03*
X33500Y-86686D03*
X78652Y-101172D03*
Y-104422D03*
Y-110621D03*
Y-107471D03*
X-14800Y-100386D03*
X-14884Y-107253D03*
X81200Y-92400D03*
X58000Y-104286D03*
X81200Y-111086D03*
X24000Y-204000D03*
X22800Y-210000D03*
X36000Y-177200D03*
X27600Y-233600D03*
X44000Y-204800D03*
X38000Y-186400D03*
X48800Y-180400D03*
X42400Y-209600D03*
X96853Y-122747D03*
X60400Y-154800D03*
X38400Y-178000D03*
X39200Y-201600D03*
X48800Y-203300D03*
X31600Y-193600D03*
Y-185200D03*
X39600Y-182000D03*
X43200Y-175200D03*
X39200Y-172000D03*
X48400Y-190400D03*
X37200Y-228800D03*
X47600Y-172800D03*
X26228Y-219028D03*
X45372Y-191828D03*
X48800Y-199600D03*
X37200Y-200000D03*
X48000Y-193600D03*
X1200Y-250400D03*
X116000Y-25600D03*
X29906Y3679D03*
X15432Y-18033D03*
X19051Y-18032D03*
X20860Y-16222D03*
X10000Y-19800D03*
X11814Y-21650D03*
X15432D03*
X100800Y-25600D03*
X79600Y-2900D03*
X72800D03*
X60800Y-1600D03*
X29900Y-14400D03*
X29904Y0D03*
X20860Y-5367D03*
X29906Y-7177D03*
X22669D03*
X24478Y-5367D03*
Y-8986D03*
X22669Y-10795D03*
X26287D03*
X29906D03*
X28097Y-8986D03*
X31715D03*
X33524Y-10795D03*
X31715Y-12604D03*
X28097D03*
X35334D03*
X33524Y-14413D03*
X22669Y-3558D03*
X29906D03*
X28097Y-5367D03*
X24478Y-1749D03*
X26287Y60D03*
X31715Y1870D03*
X42570Y-5367D03*
X44380Y3679D03*
X42570Y5488D03*
X37142Y-7177D03*
Y-3558D03*
X35334Y-1749D03*
Y-5367D03*
X15400Y-10800D03*
X11814Y-14412D03*
X53426Y-5367D03*
X55235Y-7177D03*
X47998Y60D03*
X49807Y-1749D03*
X64400Y-14800D03*
X68000Y-14400D03*
X65800Y-11000D03*
X33524Y7297D03*
X35334Y5488D03*
X37142Y7297D03*
X38952Y1870D03*
X53426Y-8986D03*
X40761Y3679D03*
Y60D03*
X42570Y1870D03*
X44380Y-3558D03*
X46189Y-1749D03*
X40761Y-7177D03*
X47998Y-3558D03*
X31715Y5488D03*
X101600Y-19600D03*
X40761Y-14413D03*
X55235D03*
X51616D03*
X46189Y-5367D03*
X19051Y-7177D03*
X26287Y-14413D03*
X13623Y-16224D03*
X15432Y-14413D03*
X17241Y-16222D03*
X19051Y-14413D03*
X24478Y-12604D03*
X20860D03*
X17241D03*
X19051Y-10795D03*
X20860Y-8986D03*
X17241D03*
X38952Y-12604D03*
X47998Y-14413D03*
X96800Y-21600D03*
X37142Y60D03*
X46189Y-12604D03*
X44380Y-14413D03*
X38952Y-1749D03*
X37134Y-10834D03*
X110400Y-28800D03*
X44380Y-7180D03*
X42570Y-8986D03*
X47998Y-7177D03*
X57029Y-5371D03*
X40761Y-10795D03*
X51616Y-7177D03*
X46189Y-8986D03*
X49807Y-12604D03*
X99600Y-20800D03*
X73200Y-9600D03*
X42570Y-12604D03*
X57044Y-8986D03*
X60700Y-9000D03*
X108000Y-9600D03*
X33524Y3679D03*
X49807Y-8986D03*
X13600Y-12600D03*
X58853Y-10795D03*
X53481Y-12600D03*
X33524Y-7177D03*
X26284Y-3562D03*
X26287Y-7177D03*
X37142Y-14413D03*
X55276Y-234724D03*
X106800Y-166000D03*
X71600Y-252400D03*
X80400Y-248800D03*
X50400Y-250000D03*
X76800Y-233200D03*
X127600Y-162400D03*
X128800Y64000D03*
X138000Y117200D03*
X141600Y105700D03*
X192000Y-57200D03*
X158800Y-42000D03*
X215750Y-39450D03*
X217600Y-36000D03*
Y-25200D03*
X203200Y-34400D03*
X205200Y70000D03*
Y78400D03*
X181828Y83828D03*
X201200Y-31600D03*
X163000Y-47400D03*
X160400Y-79822D03*
X149200Y13600D03*
X202400Y-53200D03*
X198400Y81600D03*
X184628Y62972D03*
X157497Y19672D03*
X162800Y24000D03*
X177109Y-36400D03*
X154000Y-44400D03*
X181200Y14000D03*
X172400Y17600D03*
Y20400D03*
X201340Y77460D03*
X219359Y81041D03*
X212000Y74000D03*
X194628Y69828D03*
X201600Y89200D03*
X157600Y132400D03*
X158000Y116400D03*
X151200Y138400D03*
X145600Y116400D03*
X150000Y124800D03*
X146000Y110400D03*
X155200Y136400D03*
X195200Y93200D03*
X155600Y120400D03*
X150000Y131200D03*
X151200Y117600D03*
X158400Y137200D03*
X184400Y89600D03*
X192800Y98800D03*
X161200Y105600D03*
X154400Y104800D03*
X211860Y93860D03*
X142000Y-48000D03*
X104500Y68400D03*
X116500Y92800D03*
X124800Y134800D03*
X126800Y131200D03*
X130400Y124000D03*
X111600Y93200D03*
X128800Y127200D03*
X142400Y-16000D03*
Y-11600D03*
X143200Y-50400D03*
X70800Y-227600D03*
X65600Y-211200D03*
X55600Y-174800D03*
X96800Y-185600D03*
X68000Y-211200D03*
X92400D03*
X88400D03*
X80400Y-211100D03*
X57600Y-192400D03*
X52572Y-217428D03*
X78000Y-202800D03*
X65200Y-197600D03*
X119600Y-228000D03*
X64000Y-195200D03*
X61400Y-181600D03*
X63700Y-190800D03*
X61200Y-208800D03*
Y-186400D03*
X92800Y-203200D03*
X75200Y-202300D03*
X89600Y-200000D03*
X61600Y-203300D03*
X90400Y-204800D03*
X62000Y-177200D03*
X94000Y-184800D03*
X80400Y-173600D03*
X68000Y-203300D03*
X93937Y-191937D03*
X75663Y-173563D03*
X85112Y-173588D03*
X122000Y-228800D03*
X209021Y-200579D03*
X198611Y-198611D03*
X67600Y84000D03*
X49200Y86000D03*
X50739Y68000D03*
X48400D03*
X131600Y-22400D03*
X67600Y70800D03*
X131600Y-19200D03*
X28800Y77600D03*
X67600Y68400D03*
X8972Y54172D03*
X68800Y116800D03*
X102300Y115800D03*
X58800Y122800D03*
X94800Y127900D03*
X108300Y121200D03*
X109200Y124800D03*
X76000Y130400D03*
X108400Y133600D03*
X112800Y128500D03*
X113300Y119900D03*
X79600Y105200D03*
X58400Y134400D03*
X66300Y118800D03*
X8195Y29007D03*
X6386Y30817D03*
X13623D03*
X11814Y29007D03*
X5700Y46400D03*
X17241Y23580D03*
X19051Y25389D03*
X26287Y14534D03*
X22669Y18152D03*
Y10915D03*
X20860Y9106D03*
X11200Y47200D03*
X19051Y7297D03*
X29906Y14534D03*
X28097Y12725D03*
X13623Y27198D03*
X17241Y5488D03*
X28097Y16343D03*
X24478Y19961D03*
X8400Y32400D03*
X15432Y25389D03*
X17241Y27198D03*
X18667Y14533D03*
X20800Y20000D03*
X17238Y9162D03*
X11800Y32600D03*
X-43600Y90000D03*
X8800Y88400D03*
X7200Y79600D03*
X10800Y78400D03*
X-23900Y92500D03*
X-27100Y95600D03*
X19200Y98000D03*
X26400D03*
X19200Y95200D03*
X-24370Y-7177D03*
X-27989D03*
X-26180Y-8986D03*
X-27961Y-3561D03*
X-29798Y-1749D03*
X-31607Y-3558D03*
X-22561Y-8986D03*
X-26100Y-5400D03*
G54D40*
X-145402Y-219049D03*
%LPD*%
G75*
G36*
G01X36287Y-30400D02*
X36248Y-30308D01*
G03X35361Y-29703I-915J-388D01*
G01X35301Y-29701D01*
X34519Y-28919D01*
X34518Y-28860D01*
G03X33552Y-27894I-993J-27D01*
G01X33492Y-27892D01*
X32400Y-26800D01*
Y-24000D01*
X33200Y-23200D01*
X36800D01*
X37363Y-23763D01*
G02X37149Y-24275I-212J-212D01*
G03X38136Y-25262I-6J-994D01*
G02X38648Y-25048I300J2D01*
G01X39200Y-25600D01*
Y-25785D01*
G02X38912Y-26085I-300J0D01*
G03Y-28071I40J-993D01*
G02X39200Y-28371I-12J-300D01*
G01Y-28800D01*
X37600Y-30400D01*
X36287D01*
G37*
G36*
G01X172759Y-78300D02*
X186785D01*
G02X186997Y-78812I0J-300D01*
G01X173700Y-92110D01*
Y-93517D01*
G02X173188Y-93729I-300J0D01*
G01X167900Y-88441D01*
Y-83159D01*
X172759Y-78300D01*
G37*
G36*
G01X187090Y57300D02*
X199710D01*
X204100Y52910D01*
Y14746D01*
G02X203588Y14534I-300J0D01*
G01X201021Y17100D01*
X188221D01*
X186700Y18621D01*
Y28400D01*
X195532D01*
X195976Y28844D01*
G02X196420Y28822I212J-212D01*
G03X197364Y31082I1074J879D01*
G02X197200Y31232I-14J149D01*
G01Y31319D01*
G02X197364Y31468I150J0D01*
G03X197499Y34238I130J1382D01*
G02X197200Y34538I1J300D01*
G01Y37462D01*
G02X197499Y37762I300J0D01*
G03X197364Y40532I-5J1388D01*
G02X197200Y40681I-14J149D01*
G01Y40768D01*
G02X197364Y40918I150J0D01*
G03X196841Y43524I130J1382D01*
G02X196400Y43788I-141J265D01*
G01Y43960D01*
G02X196841Y44224I300J0D01*
G03X196513Y46430I653J1224D01*
G01X196407Y46324D01*
X193904Y48828D01*
X193938Y48918D01*
G03X194060Y49582I-1758J665D01*
G01Y50764D01*
G03X190851Y52093I-1880J0D01*
G01X190745Y51987D01*
X186261Y56471D01*
X187090Y57300D01*
G37*
G36*
G01X181600Y29200D02*
X175200Y35600D01*
X164000D01*
X157600Y42000D01*
X150000D01*
X143200Y48800D01*
Y60000D01*
X144346Y61146D01*
G02X144768Y61148I212J-212D01*
G03X146558Y61293I832J852D01*
G02X147042I241J-178D01*
G03Y62707I958J707D01*
G02X146558I-242J178D01*
G03X146452Y62832I-959J-706D01*
G02X146454Y63254I215J210D01*
G01X148600Y65400D01*
X164600D01*
X164800Y65600D01*
X176000D01*
X182701Y58899D01*
G02X182471Y58387I-212J-212D01*
G03X181400Y56557I-71J-1187D01*
G01X181465Y56455D01*
X179700Y54690D01*
Y52561D01*
G03X181100I700J-961D01*
G01Y54110D01*
X181493Y54502D01*
X181657Y54338D01*
X181639Y54258D01*
G03X183984Y54116I1161J-258D01*
G01X183977Y54186D01*
X185695Y55905D01*
X190360Y51240D01*
X190343Y51160D01*
G03X190300Y50764I1837J-397D01*
G01Y49582D01*
G03X193324Y48091I1880J0D01*
G01X193429Y48171D01*
X193676Y47924D01*
X193603Y47821D01*
G03X195200Y45715I1136J-797D01*
G02X195600Y45432I100J-283D01*
G01Y42400D01*
X196198Y41802D01*
X196210Y41774D01*
G03X196400Y41445I1284J525D01*
G01Y40004D01*
G03X196371Y38335I1094J-854D01*
G01X196400Y38295D01*
Y37710D01*
X196126D01*
X196103Y37832D01*
G03X195858Y36755I-1364J-257D01*
G02X196400Y36577I242J-177D01*
G01Y35423D01*
G02X195858Y35245I-300J0D01*
G03X196103Y34168I-1119J-820D01*
G01X196126Y34290D01*
X196400D01*
Y33705D01*
X196371Y33666D01*
G03X196400Y31996I1123J-816D01*
G01Y30555D01*
G03X196210Y30226I1094J-854D01*
G01X196198Y30198D01*
X195200Y29200D01*
X181600D01*
G37*
%LPC*%
G75*
G36*
G01X174368Y56970D02*
G02Y58230I-768J630D01*
G03X174832I232J190D01*
G02X176368I768J-630D01*
G03X176832I232J190D01*
G02Y56970I768J-630D01*
G03X176368I-232J-190D01*
G02X174832I-768J630D01*
G03X174368I-232J-190D01*
G37*
G36*
G01X161358Y54093D02*
G02Y55507I-958J707D01*
G03X161842I242J178D01*
G02X163758I959J-707D01*
G03X164242I242J178D01*
G02X166158I959J-707D01*
G03X166642I242J178D01*
G02Y54093I958J-707D01*
G03X166158I-241J-178D01*
G02X164242I-958J707D01*
G03X163758I-241J-178D01*
G02X161842I-958J707D01*
G03X161358I-241J-178D01*
G37*
G36*
G01X174368Y53370D02*
G02Y54630I-768J630D01*
G03X174832I232J190D01*
G02X176368I768J-630D01*
G03X176832I232J190D01*
G02Y53370I768J-630D01*
G03X176368I-232J-190D01*
G02X174832I-768J630D01*
G03X174368I-232J-190D01*
G37*
G36*
G01X167168Y51578D02*
G02X166921Y52483I-968J222D01*
G03X167432Y52623I218J206D01*
G02X167679Y51717I968J-222D01*
G03X167168Y51578I-218J-206D01*
G37*
G54D49*
X197494Y26551D03*
G54D37*
X35334Y-27078D03*
X180800Y41200D03*
X192000Y46000D03*
X188107Y49307D03*
X184000Y32000D03*
X175200Y45200D03*
X164400Y62400D03*
X153428Y57600D03*
X184400Y34800D03*
Y37200D03*
X186800Y38800D03*
Y33200D03*
G54D48*
X192180Y21827D03*
%LPD*%
G75*
G54D10*
X-158000Y-219049D03*
X-178472D03*
G54D20*
X172392Y-147292D03*
X154683Y-181291D03*
X182085D03*
Y-202709D03*
X154526D03*
X172392Y-86308D03*
G54D11*
X-182016Y-247789D03*
X-143433D03*
G54D30*
G01X-9600Y5200D02*
Y6000D01*
X-16400Y12800D01*
X-24000D01*
X-26000Y14800D01*
X-30800D01*
G01X-30000Y2800D02*
X-28200D01*
X-17000Y-8400D01*
Y-10700D01*
X-17100Y-10800D01*
G01X-25000Y2000D02*
X-25200D01*
X-28400Y5200D01*
X-31200D01*
X-37200Y11200D01*
X-48800D01*
G01X-6800Y3679D02*
X-2660D01*
G54D21*
X155983Y-192000D03*
X203691Y-90717D03*
G54D12*
X-199600Y-244000D03*
Y130400D03*
X208800Y-244000D03*
Y130400D03*
G54D31*
G01X-35200Y-1600D02*
X-51600D01*
X-86400Y-36400D01*
Y-131600D01*
X-37800Y-180200D01*
X-35400D01*
X-32000Y-183600D01*
Y-195600D01*
X-32800Y-196400D01*
G01X-95600Y-68800D02*
X-94800Y-69600D01*
Y-132400D01*
X-50000Y-177200D01*
Y-189200D01*
X-47200Y-192000D01*
Y-197600D01*
G01X-30800Y14800D02*
X-36800Y20800D01*
X-45200D01*
X-69600Y-3600D01*
X-73200D01*
X-93600Y-24000D01*
Y-59600D01*
X-98400Y-64400D01*
Y-133200D01*
X-56000Y-175600D01*
Y-188800D01*
X-52100Y-192700D01*
Y-196300D01*
G01X-42000Y-197200D02*
X-42800D01*
X-44800Y-195200D01*
Y-188000D01*
X-44000Y-187200D01*
Y-178800D01*
X-90000Y-132800D01*
Y-25700D01*
X-89500Y-25200D01*
G01X-126800Y138800D02*
X-114400D01*
X-104000Y128400D01*
Y114000D01*
X-102000Y112000D01*
X-101600D01*
X-99200Y109600D01*
Y98800D01*
X-101200Y96800D01*
X-108400D01*
X-118000Y87200D01*
X-129200D01*
X-133200Y83200D01*
X-157200D01*
X-176800Y63600D01*
Y-31200D01*
X-157200Y-50800D01*
X-150800D01*
X-134400Y-67200D01*
Y-90000D01*
X-144400Y-100000D01*
Y-129600D01*
X-149200Y-134400D01*
Y-150800D01*
X-135200Y-164800D01*
Y-197200D01*
X-116572Y-215828D01*
Y-220228D01*
G01X-164000Y-16400D02*
Y-15689D01*
X-169200Y-10489D01*
Y34800D01*
X-150400Y53600D01*
X-147200D01*
X-141600Y59200D01*
X-134000D01*
X-115800Y77400D01*
G01X-22400Y75200D02*
X-25200D01*
X-36000Y86000D01*
X-49200D01*
X-55100Y91900D01*
X-71300D01*
X-78000Y85200D01*
X-108000D01*
X-115800Y77400D01*
G01X-121600Y131200D02*
X-118000Y127600D01*
Y116400D01*
X-108800Y107200D01*
Y100000D01*
X-118399Y90401D01*
X-129599D01*
X-134400Y85600D01*
X-159600D01*
X-179600Y65600D01*
Y-32000D01*
X-158000Y-53600D01*
X-152000D01*
X-137200Y-68400D01*
G01X-97200Y39600D02*
X-92000Y44800D01*
X-86800D01*
X-77600Y35600D01*
X-34400D01*
X-30000Y40000D01*
X-29200D01*
G01X-89500Y-25200D02*
X-87500Y-23200D01*
X-78800D01*
X-51200Y4400D01*
X-40800D01*
X-38414Y6786D01*
X-35586D01*
X-31600Y2800D01*
X-30000D01*
G01X42800Y54400D02*
X16800D01*
X15200Y56000D01*
X12400D01*
X8400Y60000D01*
Y62900D01*
X-15500Y86800D01*
X-26000D01*
X-35600Y96400D01*
X-72800D01*
X-80000Y89200D01*
X-107600D01*
X-133600Y63200D01*
X-152800D01*
X-174400Y41600D01*
Y-30000D01*
X-158400Y-46000D01*
X-156400D01*
G01X-48800Y11200D02*
X-50000D01*
X-68800Y-7600D01*
X-71900D01*
X-82000Y-17700D01*
G01X-121600Y136000D02*
Y133600D01*
G01D02*
Y131200D01*
G01X122000Y-156400D02*
Y-153600D01*
X144400Y-131200D01*
Y-95200D01*
X149000Y-90600D01*
Y-34200D01*
X148400Y-33600D01*
Y-31600D01*
G01X-18000Y-223200D02*
X-22800Y-218400D01*
X-28800D01*
X-31200Y-216000D01*
Y-207200D01*
X-36800Y-201600D01*
X-40400D01*
X-42000Y-200000D01*
Y-197200D01*
G01X122000Y-164400D02*
X118800Y-161200D01*
Y-152400D01*
X142000Y-129200D01*
Y-94000D01*
X146400Y-89600D01*
Y-38400D01*
X146000Y-38000D01*
Y-30000D01*
X152800Y-23200D01*
Y-1200D01*
X138800Y12800D01*
Y27200D01*
X134400Y31600D01*
X131600D01*
X128800Y34400D01*
Y37200D01*
X108400Y57600D01*
Y79600D01*
X128000Y99200D01*
Y109500D01*
X130900Y112400D01*
G01X-34400Y-800D02*
X-35200Y-1600D01*
G01X140800Y112400D02*
Y109200D01*
X134400Y102800D01*
Y101200D01*
X112000Y78800D01*
Y58000D01*
X141200Y28800D01*
Y14000D01*
X155400Y-200D01*
Y-24000D01*
X148400Y-31000D01*
Y-31600D01*
G01X17200Y62400D02*
Y59200D01*
X19200Y57200D01*
X44000D01*
X45200Y56000D01*
G01X140800Y114400D02*
Y112400D01*
G01X130900Y114000D02*
Y112400D01*
G01X112000Y104800D02*
X110400Y106400D01*
Y110400D01*
X108000Y112800D01*
X100800D01*
X98800Y114800D01*
Y115200D01*
G01X185200Y30000D02*
Y18000D01*
X187600Y15600D01*
X200400D01*
X202800Y13200D01*
Y8155D01*
X200800Y6154D01*
Y-15354D01*
X206000Y-20554D01*
Y-37200D01*
X205200Y-38000D01*
Y-55212D01*
X202800Y-57612D01*
Y-64743D01*
X193943Y-73600D01*
X170812D01*
X163200Y-81212D01*
Y-90388D01*
X169600Y-96788D01*
Y-132412D01*
X157600Y-144412D01*
Y-164400D01*
X166800Y-173600D01*
X184400D01*
X188800Y-178000D01*
Y-184800D01*
X190800Y-186800D01*
G54D13*
X-157600Y-186085D03*
G54D22*
X159600Y-250000D03*
X179600Y-250062D03*
G54D32*
G01X-56000Y-30400D02*
X-55200Y-31200D01*
X-32000D01*
X-25200Y-38000D01*
X-8800D01*
X-6000Y-35200D01*
Y-34600D01*
X-2800Y-31400D01*
Y-29027D01*
X-2660Y-28887D01*
G01X36800Y-28800D02*
X41600Y-33600D01*
X71600D01*
X73600Y-31600D01*
X78400D01*
X79200Y-32400D01*
G01X33200Y-25600D02*
X28400D01*
X26923Y-27077D01*
X24478D01*
G01X80539Y-33758D02*
X79897Y-34400D01*
X77200D01*
X76049Y-33249D01*
X74351D01*
X72400Y-35200D01*
X44400D01*
X14000Y-65600D01*
X0D01*
X-32400Y-33200D01*
X-49600D01*
X-52400Y-36000D01*
X-61600D01*
X-64000Y-38400D01*
G54D23*
X220526Y53598D03*
Y18402D03*
X197101Y52260D03*
Y19740D03*
G54D14*
X-197600Y-188800D03*
Y-192800D03*
X-195200Y-155200D03*
Y-158000D03*
Y-163600D03*
Y-166800D03*
Y-171600D03*
Y-174400D03*
Y-180400D03*
Y-183600D03*
X-200800Y-192800D03*
Y-188800D03*
X-198000Y-183600D03*
Y-180400D03*
Y-174400D03*
Y-171600D03*
Y-166800D03*
Y-163600D03*
Y-158000D03*
Y-155200D03*
X-77200Y-226900D03*
X-75000Y-226800D03*
X-77500Y-221700D03*
X-75100Y-221600D03*
X-157500Y-131600D03*
Y-129500D03*
Y-127400D03*
Y-123300D03*
X-181400Y-206400D03*
Y-204200D03*
X-209100Y-192800D03*
X-209300Y-188900D03*
X-210700Y-184900D03*
X-210800Y-182600D03*
Y-180300D03*
X-210900Y-176200D03*
Y-173800D03*
Y-171400D03*
X-211000Y-167700D03*
Y-165400D03*
Y-163200D03*
Y-159400D03*
Y-157100D03*
Y-154800D03*
X-122000Y-231600D03*
X-124000D03*
X-94400Y-220000D03*
X-96800D03*
X-111200Y-218800D03*
X-206800Y-226800D03*
X-99200Y-220000D03*
X-132800Y-159600D03*
X-110800Y-226000D03*
X-113200Y-218800D03*
X-124400Y-234000D03*
X-122400D03*
X-120400D03*
X-194400Y-214800D03*
Y-226400D03*
X-204000Y-230000D03*
X-214000Y-190000D03*
Y-200000D03*
Y-210000D03*
Y-220000D03*
Y-230000D03*
Y-240000D03*
Y-250000D03*
X-198400Y-256400D03*
X-186000D03*
X-136800D03*
X-109600D03*
X-96000Y-255200D03*
X-86000D03*
X-76000D03*
X-214400Y-128400D03*
Y-138400D03*
Y-148400D03*
Y-158400D03*
Y-168400D03*
Y-178400D03*
X-96800Y-234000D03*
X-103200Y-231600D03*
X-96800D03*
X-113600Y-238400D03*
X-111200D03*
X-113600Y-240800D03*
X-111200D03*
X-113600Y-243200D03*
X-111200D03*
X-70400Y-177600D03*
X-72400D03*
X-99200Y-176800D03*
X-124800Y-153200D03*
X-122800D03*
X-125200Y-151200D03*
X-123200D03*
X-114000Y-140400D03*
X-109600Y-180400D03*
X-105200D03*
X-107200D03*
X-103200Y-178000D03*
X-105600D03*
X-107600D03*
X-115600Y-173200D03*
X-117600D03*
X-72000Y-203200D03*
X-70000D03*
X-115200Y-148800D03*
Y-151200D03*
X-117200Y-148800D03*
Y-151200D03*
X-113200Y-144400D03*
Y-146800D03*
X-115200Y-144400D03*
Y-146800D03*
X-117200Y-144400D03*
Y-146800D03*
X-119600D03*
Y-149200D03*
X-73200Y-195200D03*
X-70800D03*
X-72400Y-184800D03*
Y-187200D03*
Y-182400D03*
X-70000D03*
X-72400Y-180000D03*
X-70000D03*
X-113600Y-245600D03*
X-111200D03*
X-113600Y-248000D03*
X-111200D03*
X-113600Y-250400D03*
X-111200D03*
X-115200Y-253600D03*
X-95200Y-252800D03*
X-210800Y-256400D03*
X-96800Y-184400D03*
X-152400Y10000D03*
X-150000D03*
X-147600D03*
X-145200D03*
X-142800D03*
Y7200D03*
X-145200D03*
X-147600D03*
X-150000D03*
X-152400D03*
X-157500Y-121100D03*
Y-118900D03*
X-147200Y-112800D03*
Y-114800D03*
X-214400Y81600D03*
Y71600D03*
Y61600D03*
Y51600D03*
Y41600D03*
Y31600D03*
Y21600D03*
Y11600D03*
Y1600D03*
Y-8400D03*
Y-18400D03*
Y-28400D03*
Y-38400D03*
Y-48400D03*
Y-58400D03*
Y-68400D03*
Y-78400D03*
Y-88400D03*
Y-98400D03*
Y-108400D03*
Y-118400D03*
X-163600Y8000D03*
Y10400D03*
X-163200Y12800D03*
Y15200D03*
X-161200Y8800D03*
Y10800D03*
X-114000Y-120000D03*
Y-117600D03*
X-111600Y-120000D03*
Y-117600D03*
X-114000Y-114400D03*
Y-112000D03*
X-111600Y-114400D03*
Y-112000D03*
X-114000Y-108400D03*
Y-106000D03*
X-111600Y-108400D03*
Y-106000D03*
X-114000Y-102800D03*
Y-100400D03*
X-111600Y-102800D03*
Y-100400D03*
X-109200D03*
Y-102800D03*
Y-106000D03*
Y-108400D03*
Y-112000D03*
Y-114400D03*
Y-117600D03*
Y-120000D03*
X-152400Y-15600D03*
X-154800D03*
X-157200D03*
X-152400Y-13200D03*
X-154800D03*
X-157200D03*
X-162400Y400D03*
Y-2000D03*
X-163600Y5200D03*
Y2800D03*
X-164800Y400D03*
Y-2000D03*
X-162400Y-6800D03*
Y-4400D03*
X-164800Y-6800D03*
Y-4400D03*
X-141200Y78800D03*
X-128800Y134800D03*
X-126400Y130000D03*
Y127600D03*
Y125200D03*
X-128800Y130000D03*
Y132400D03*
Y127600D03*
Y125200D03*
X-126400Y134800D03*
Y132400D03*
X-151200Y106400D03*
X-164000D03*
X-176800Y106000D03*
X-184400D03*
X-194400D03*
X-186800Y126000D03*
Y136000D03*
X-176800D03*
Y126000D03*
X-204400Y116000D03*
X-194400D03*
X-184400D03*
X-176800D03*
X-204000Y145800D03*
X-194000D03*
X-184000D03*
X-176400D03*
Y150800D03*
X-184000D03*
X-194000D03*
X-204000D03*
X-214000D03*
X-214400Y141600D03*
Y131600D03*
Y121600D03*
Y111600D03*
Y101600D03*
Y91600D03*
X-94400Y104400D03*
X-121200D03*
Y102300D03*
X-113600Y104400D03*
Y102300D03*
X-111200D03*
Y104400D03*
X-102400Y102000D03*
Y104000D03*
X-89200Y102000D03*
X-86000Y105200D03*
X-121600Y131200D03*
Y133600D03*
Y136000D03*
X-126800Y138800D03*
X-28400Y-254400D03*
X-30800D03*
X-33200D03*
X-28400Y-252000D03*
X-30800D03*
X-33200D03*
X-35600D03*
Y-249600D03*
X-33200D03*
X-30800D03*
X-28400D03*
X-32200Y-236300D03*
X-38000Y-236800D03*
X-51600Y-207700D03*
X-48600D03*
X-45600D03*
X-42600D03*
X-39600D03*
X-36600D03*
Y-210700D03*
X-39600D03*
X-42600D03*
X-45600D03*
X-48600D03*
X-51600D03*
X-36600Y-213700D03*
X-39600D03*
X-42600D03*
X-45600D03*
X-48600D03*
X-51600D03*
X-36600Y-216700D03*
X-39600D03*
X-42600D03*
X-45600D03*
X-48600D03*
X-51600D03*
X-36600Y-219700D03*
X-39600D03*
X-42600D03*
X-45600D03*
X-48600D03*
X-51600D03*
X-36600Y-222700D03*
X-39600D03*
X-42600D03*
X-45600D03*
X-48600D03*
X-51600D03*
X128000Y-157200D03*
X135200Y-147200D03*
X134400Y-244400D03*
X124000Y-245200D03*
X104000D03*
X128000Y-203600D03*
X131200D03*
X135600Y-204000D03*
X-66000Y-255200D03*
X-56000D03*
X-46000D03*
X24000D03*
X34000D03*
X44000D03*
X74000D03*
X104000D03*
X124000D03*
X134000D03*
X-16400Y-183200D03*
X-18400D03*
X-65600Y-202400D03*
X-67600Y-203200D03*
Y-200800D03*
X-68400Y-195200D03*
X800Y-199200D03*
X3200D03*
X5600D03*
X800Y-201600D03*
X3200D03*
X5600D03*
X-13200Y-186000D03*
X-13600Y-199200D03*
X-67600Y-182400D03*
X-65200Y-184800D03*
X-59200D03*
X-53200D03*
X-46800D03*
X-40800D03*
X-34800D03*
X-28400D03*
X-28600Y-187900D03*
X-20400Y-183200D03*
X-3200Y-232400D03*
X0D03*
X2400D03*
X4400D03*
Y-234800D03*
X2400D03*
X0D03*
X-3200D03*
X-7200Y-232400D03*
X-5200D03*
Y-234800D03*
X-7200D03*
X14000Y-207200D03*
Y-209600D03*
X16400Y-207200D03*
Y-209600D03*
X109600Y-198400D03*
X112000D03*
Y-200800D03*
X109600D03*
X48000Y-218800D03*
X45600D03*
X135600Y60800D03*
X137600Y-7600D03*
X136400Y-5600D03*
X134000D03*
X132000D03*
X129600D03*
X136800Y-2800D03*
X134400D03*
X132000D03*
X129600D03*
X134000Y-400D03*
X131600D03*
X129200D03*
X131600Y2000D03*
X129200D03*
Y4400D03*
X118400Y-9600D03*
X137200Y-75600D03*
X118800Y62000D03*
X121600D03*
X38000Y83200D03*
X35200D03*
X212800Y-221600D03*
X214000Y-225200D03*
X144000Y-235200D03*
X154000D03*
X164000D03*
X174000D03*
X184000D03*
X194000D03*
Y-245200D03*
X184000D03*
X174000D03*
X164000D03*
X154000D03*
X144000D03*
X146000Y-204400D03*
Y-202000D03*
X143600Y-158800D03*
X147600Y-166000D03*
X146400Y-181600D03*
X159600Y-171600D03*
X156400Y-140400D03*
X164400Y-153600D03*
X184000Y-122800D03*
X192400Y-125200D03*
X144000Y-255200D03*
X154000D03*
X164000D03*
X174000D03*
X184000D03*
X194000D03*
X204000D03*
X214000D03*
X224000D03*
Y-245200D03*
Y-235200D03*
Y-225200D03*
Y-215200D03*
Y-205200D03*
Y-195200D03*
Y-185200D03*
Y-175200D03*
Y-165200D03*
Y-155200D03*
Y-145200D03*
Y-135200D03*
Y-125200D03*
X214000Y44800D03*
Y34800D03*
Y24800D03*
X176000Y67200D03*
X173600D03*
X165600D03*
X199600Y36000D03*
X158000Y-54800D03*
X156000D03*
X164400Y-52800D03*
X166000Y-98800D03*
X166400Y-106800D03*
X177600Y-113200D03*
X166400Y-116400D03*
X184000Y-112800D03*
X192400Y-110000D03*
X193600Y-88400D03*
X212400Y-57200D03*
X185200Y-70800D03*
X194000Y-69600D03*
X194800Y-80800D03*
X204400D03*
X214400Y-70800D03*
Y-80800D03*
X224000Y-115200D03*
Y-105200D03*
Y-95200D03*
Y-85200D03*
Y-75200D03*
Y-65200D03*
Y-55200D03*
Y-45200D03*
Y-35200D03*
Y-25200D03*
Y-15200D03*
Y-5200D03*
Y4800D03*
Y14800D03*
Y24800D03*
Y34800D03*
Y44800D03*
Y54800D03*
Y64800D03*
Y74800D03*
Y84800D03*
X144800Y24000D03*
X146800D03*
X148800D03*
X150800D03*
X152800D03*
X154800D03*
X163200Y-71600D03*
X160800D03*
X158400D03*
X163200Y-69600D03*
X160800D03*
X158400D03*
X160000Y-52400D03*
X158000D03*
X156000D03*
X160000Y-47600D03*
X158000D03*
X156000D03*
Y-50000D03*
X158000D03*
X160000D03*
X195600Y10000D03*
X198000Y12400D03*
Y10000D03*
X195600Y7600D03*
X198000D03*
X195600Y5200D03*
X198000D03*
X195600Y2800D03*
X198000D03*
X195600Y400D03*
X198000D03*
X158000Y-12000D03*
X195600Y12400D03*
Y-28000D03*
X178800Y39600D03*
X176400D03*
X148400Y54400D03*
Y57200D03*
X145600Y54400D03*
Y57200D03*
X224000Y94800D03*
X204000Y115600D03*
Y104800D03*
X214000Y115600D03*
Y104800D03*
X224000D03*
Y115600D03*
X224400Y125200D03*
Y134400D03*
X216800Y143600D03*
X208400D03*
X224400Y144800D03*
X224000Y151200D03*
X216400D03*
X208400D03*
X200800D03*
X196000Y144800D03*
Y132000D03*
Y120000D03*
X194800Y106400D03*
X182400D03*
X171600D03*
X167600Y134000D03*
X167200Y110000D03*
Y120000D03*
G54D33*
G01X15200Y84000D02*
Y88000D01*
X6800Y96400D01*
X-20800D01*
X-23600Y99200D01*
X-34400D01*
X-40000Y104800D01*
X-51700D01*
X-57200Y99300D01*
X-74700D01*
X-81600Y92400D01*
X-108601D01*
X-117401Y83600D01*
X-128400D01*
X-133200Y78800D01*
X-141200D01*
G01X16800Y84000D02*
X15200D01*
G01X25629Y82572D02*
Y82372D01*
X26400Y81600D01*
G01X17200Y62400D02*
Y72800D01*
X26000Y81600D01*
X26400D01*
G01X38000Y83200D02*
X35200D01*
G01X26400Y81600D02*
X31600D01*
X33200Y83200D01*
X35200D01*
G01X38000D02*
Y88000D01*
X43200Y93200D01*
Y133600D01*
X47136Y137536D01*
Y140400D01*
G01X154000Y-34800D02*
Y-35000D01*
X157000Y-38000D01*
X170200D01*
X173200Y-41000D01*
Y-48065D01*
X176200Y-51065D01*
X179065D01*
G01D02*
X180000Y-52000D01*
X195600D01*
X200324Y-47276D01*
Y-43924D01*
G01X195600Y-28000D02*
X187600D01*
X185200Y-25600D01*
X158400D01*
X152400Y-31600D01*
X152000D01*
G54D24*
X194739Y40724D03*
Y31276D03*
Y24976D03*
G54D15*
X-201600Y-135200D03*
X-205600Y-135600D03*
X-72000Y-134800D03*
X-130000Y-170800D03*
X-88000Y-218400D03*
Y-216800D03*
X-94400Y-214000D03*
X-96000D03*
X-101200Y-216400D03*
X-116000Y-139200D03*
X-130000Y-128000D03*
X-128000D03*
X-126000D03*
X-92800Y-215600D03*
X-101200Y-214800D03*
X-72400Y-235600D03*
X-209600Y-135600D03*
X-162972Y-194172D03*
X-166869Y-188069D03*
X-122400Y-202000D03*
X-130000Y-157600D03*
X-116572Y-220228D03*
X-160400Y-8000D03*
X-144000Y-40800D03*
X-160000Y-107200D03*
X-164800Y-102800D03*
X-165600Y-81600D03*
Y-63200D03*
X-163600Y-21200D03*
X-164800Y-8800D03*
X-124400Y79200D03*
X-152000Y78000D03*
X-148000Y77200D03*
X-143200Y52000D03*
X-142400Y54800D03*
X-162000Y25200D03*
X-163600D03*
X-162000Y26800D03*
X-163600D03*
X-146000Y76400D03*
X-124400Y-6700D03*
X-114800Y-16800D03*
X-110400Y-20800D03*
X-117200Y-38400D03*
X-112400Y-39600D03*
X-75200Y-15600D03*
X-110400Y0D03*
X-78400Y-84400D03*
X-76800Y-82000D03*
X-74000Y-78400D03*
X-70000Y-75600D03*
X-138800Y70800D03*
X-137200D03*
Y69200D03*
X-138800D03*
X-140000Y70000D03*
X-145600Y70800D03*
Y66100D03*
X-143600Y53600D03*
X-110900Y-8500D03*
X-106000Y-24800D03*
X-110000Y-41200D03*
X-128400Y71600D03*
X-70400Y-10800D03*
X-72000Y-38800D03*
X-73200Y-34800D03*
X-162400Y-111600D03*
X-177600Y-37200D03*
X-128800Y79200D03*
X-127200D03*
X-122400D03*
X-165200Y61200D03*
Y56000D03*
Y57600D03*
Y59600D03*
X-125200Y-12000D03*
X-116000Y-22900D03*
X-110400Y-26000D03*
X-108100Y-27600D03*
X-142572Y-25372D03*
X-147600Y-20000D03*
X-152172Y-35028D03*
X-99200Y-1600D03*
X-97200D03*
X-124400Y-29200D03*
X-124000Y-35600D03*
X-139600Y-5600D03*
X-76400Y-88000D03*
X-154400Y-34400D03*
X-164000Y-16400D03*
X-115800Y77400D03*
X-95600Y-68800D03*
X-137200Y-68400D03*
X-97200Y39600D03*
X-89500Y-25200D03*
X-156400Y-46000D03*
X-90000Y41600D03*
X-82000Y-17700D03*
X-115200Y136400D03*
X-206000Y92400D03*
X-94400Y102400D03*
X-82800Y140000D03*
X-87600Y139600D03*
X-99600D03*
X-126400Y141200D03*
X-93941Y139941D03*
X-76700Y140000D03*
X-70400Y139200D03*
X-101600D03*
X-83900Y104800D03*
X-53200Y-243600D03*
X-62400Y-138400D03*
X58800Y-240400D03*
X57200D03*
X4400Y-175600D03*
X83200Y-238400D03*
X99200Y-242400D03*
X97200D03*
X-62800Y-243200D03*
X-56000Y-244000D03*
X-30800Y-237600D03*
Y-239200D03*
X-24400D03*
X-34000Y-237200D03*
X-35600D03*
X46800Y-238000D03*
X51600Y-236000D03*
X43600Y-237600D03*
X138000Y-194800D03*
X-1200Y-196800D03*
X-10800Y-188400D03*
X-25600Y-202000D03*
X-27688Y-209688D03*
X-19600Y-201600D03*
X-27644Y-212444D03*
X103428Y-176628D03*
X112800Y-192400D03*
X118800Y-183200D03*
X111600Y-175600D03*
X134000Y-192800D03*
Y-186800D03*
X1523Y-188477D03*
X-27200Y-197600D03*
X-25600Y-182900D03*
X76000Y-239200D03*
X92000Y-239600D03*
X93600D03*
X46400Y-251200D03*
Y-248800D03*
Y-246800D03*
X-21028Y-223772D03*
X-50900Y-231600D03*
X-47600D03*
X-26800Y-220500D03*
X-60400Y-254400D03*
X-32800Y-196400D03*
X122000Y-156400D03*
X-47200Y-197600D03*
X-49400D03*
X-18000Y-223200D03*
X-42000Y-197200D03*
X52400Y-181600D03*
X52800Y-187600D03*
X52400Y-203200D03*
Y-198800D03*
X65263Y-191937D03*
X94400Y-198000D03*
X96000Y-209600D03*
X78000D03*
X65200Y-182700D03*
X70400Y-210000D03*
X122000Y-164400D03*
X-56000Y-142800D03*
X-34800Y-198500D03*
X6386Y1770D03*
X8195Y-40D03*
Y-3558D03*
X6386Y-1749D03*
X8195Y-7177D03*
X10005Y-5367D03*
Y-8986D03*
X4577Y3679D03*
X2768Y5488D03*
X-851Y-16222D03*
X13623Y-23459D03*
X11814Y-25268D03*
X10005Y-23459D03*
X8189Y-21657D03*
X6380Y-19847D03*
X4600Y-18100D03*
X13623Y-19841D03*
X8195Y-18032D03*
X11814D03*
X10005Y-16222D03*
X43600Y88000D03*
X122800Y53500D03*
X131300Y54000D03*
X-1400Y-32400D03*
X-17100Y-3600D03*
X129600Y54000D03*
X62400Y-56800D03*
X76400Y-61600D03*
X68400Y-56800D03*
X70800Y-60000D03*
X74300Y-66400D03*
X53200Y-64400D03*
Y-58800D03*
X65600Y-59600D03*
X72400Y-55600D03*
X-33200Y-40400D03*
X-31000Y-44300D03*
X-30800Y-54400D03*
Y-58400D03*
X-25200Y-54800D03*
Y-50800D03*
X-20800Y-52400D03*
X-44800Y-50200D03*
X-47200Y-62400D03*
X-36900Y-54400D03*
X-38600Y-48100D03*
X-35600Y-45000D03*
X-38700Y-43200D03*
X-42000Y-45600D03*
X-62400Y-63200D03*
X-49200Y-65600D03*
X-56000Y-65900D03*
X-59200Y-64800D03*
X70000Y-39600D03*
Y-43600D03*
X63600Y-40000D03*
X69200Y-46400D03*
X66800Y-40000D03*
X10053Y-45253D03*
X81600Y-66800D03*
X87600Y12400D03*
X83800Y13500D03*
X76500Y13800D03*
X76400Y18800D03*
X70400Y16100D03*
Y19600D03*
X66800Y10700D03*
X58300Y12500D03*
X67300Y18300D03*
X67500Y21700D03*
X67900Y26000D03*
X102800Y-38800D03*
X-57600Y-38400D03*
X-52800Y-33200D03*
X-48400Y-28000D03*
X-45600Y-25600D03*
X136900Y-16400D03*
X95600Y15200D03*
X49600Y70000D03*
X39200Y50400D03*
X34400D03*
X23200Y49200D03*
Y43600D03*
X-32800Y29600D03*
X-43600Y17500D03*
X-67600Y-73200D03*
X-66800Y-70000D03*
Y-65600D03*
Y-61200D03*
X-64000Y-57600D03*
X-60400Y-54800D03*
X-57600Y-51200D03*
X-56800Y-46800D03*
Y-43200D03*
X10005Y45290D03*
X135289Y51111D03*
X134800Y39200D03*
X116100Y38000D03*
X126400Y36000D03*
X117600Y66800D03*
X135600Y53060D03*
X124400Y54000D03*
X14100Y70400D03*
X28000Y84400D03*
X28800Y86400D03*
X27200D03*
X52000Y85600D03*
X6386Y-12604D03*
X2768Y-8986D03*
X959Y-10795D03*
X4577Y-7176D03*
X-2560Y-3658D03*
X-651Y-1748D03*
X15432Y-54216D03*
X14000Y-56000D03*
X6086Y-56025D03*
X4577Y-54516D03*
X10000Y-63200D03*
X129600Y-18800D03*
Y-17200D03*
Y-15600D03*
X127975Y-20400D03*
X126400D03*
X127975Y-18800D03*
X126400D03*
X127975Y-17200D03*
X126400D03*
X128000Y-15600D03*
X126400D03*
X-2660Y-18032D03*
X-6278D03*
X-4469Y-16222D03*
X-15600Y3600D03*
X-8087Y-12604D03*
Y-16222D03*
X-11706Y-5367D03*
X-9904Y-3596D03*
X-11706Y-16222D03*
X-13515Y-14413D03*
X-6278Y60D03*
X-20752D03*
X-59600Y-26800D03*
X-66000Y-45200D03*
X-32900Y9200D03*
X132800Y23600D03*
X44400Y39200D03*
X136400Y19600D03*
X67600Y42000D03*
X88400Y45600D03*
X67800Y46400D03*
X4400Y63900D03*
X-64400Y53600D03*
X69200Y-29200D03*
X-50000Y-7200D03*
X-56800Y-23200D03*
X-48400D03*
X-38500Y-19300D03*
X-44272Y-8986D03*
X-46400Y-10800D03*
X-35226Y-10795D03*
X-37035Y-12604D03*
X-38844Y-10795D03*
X-37035Y-8986D03*
X-26000Y18400D03*
X-30800Y84000D03*
X-43200Y800D03*
X-28800Y34800D03*
X-43200Y39600D03*
X-68400Y53200D03*
X-21600Y77600D03*
X-32000Y88000D03*
X-29200Y17600D03*
X-12800Y75600D03*
X-36800Y4300D03*
X-60000Y85700D03*
X-41200Y9600D03*
X-22200Y-400D03*
X30400Y72800D03*
X29200Y71600D03*
X28000Y70400D03*
X26800Y69200D03*
X67600Y30400D03*
X17200Y38000D03*
X94800Y13200D03*
X4400Y48000D03*
Y62400D03*
X19051Y29007D03*
X20860Y27198D03*
X6386Y34435D03*
X10005Y38054D03*
X11814Y36244D03*
X13623Y34435D03*
X8195Y36244D03*
X4577Y32626D03*
X15500Y32600D03*
X46189Y-23459D03*
X11500Y-50700D03*
X11600Y-54000D03*
X-900Y-48300D03*
X-2660Y-46979D03*
X-851Y-45170D03*
X2000Y-50800D03*
X4577Y-46979D03*
X8595D03*
X9900Y-52400D03*
X6386Y-52407D03*
X-4469Y-41552D03*
X-8087D03*
X-6278Y-43361D03*
X-4469Y-44770D03*
X1100Y-42800D03*
X-13466Y-36134D03*
X-8144Y-39569D03*
X-9905Y-39695D03*
X17600Y-50500D03*
X16300Y-49600D03*
X-18942Y-29057D03*
Y-30696D03*
X28097Y-39797D03*
X24478Y-45170D03*
Y-41552D03*
X25987Y-43361D03*
X28097Y-41552D03*
X33566Y-36134D03*
X31715Y-34315D03*
X40761Y-21650D03*
X38952Y-23459D03*
X-31607Y-18032D03*
X-33416Y-16222D03*
X-29798D03*
X44380Y-18032D03*
X-26180Y-16222D03*
X-24370Y-18032D03*
Y-25268D03*
X-27989Y-21650D03*
X-20752D03*
X-18942Y-19841D03*
Y-23459D03*
X-17134Y-18032D03*
X19051Y-39842D03*
X29906Y-39742D03*
X37142Y-32506D03*
X33524D03*
X35334Y-34315D03*
X40761Y-28887D03*
X13623Y-45170D03*
X11814Y-46979D03*
X20860Y-45170D03*
X22569Y-46979D03*
X-11706Y-27078D03*
X-13515Y-28887D03*
X-9897Y-21650D03*
X-8087Y-23459D03*
X-6278Y-25268D03*
X-4470Y-27078D03*
X-11706Y-23459D03*
Y-19841D03*
X-9897Y-32504D03*
X-8089Y-30696D03*
X-4469D03*
X-26000Y-23500D03*
X-24400Y-22800D03*
X-18933Y-27108D03*
X-20752Y-28687D03*
X29906Y18152D03*
X31715Y16343D03*
X28097Y-23459D03*
X26287Y-25268D03*
X28097Y-19841D03*
X6386Y27198D03*
Y23580D03*
X15432Y10915D03*
Y7397D03*
X26287Y10915D03*
X20857Y5443D03*
X22669Y7297D03*
Y3679D03*
X20860Y1870D03*
X17241D03*
X19051Y3679D03*
X24478Y12725D03*
Y9106D03*
X20860Y16343D03*
X37142Y10915D03*
X24478Y23580D03*
X26287Y21771D03*
X-15324Y-34215D03*
X-13515Y-32506D03*
X43900Y-24900D03*
X42700Y-23600D03*
X17241Y-1749D03*
X15432Y60D03*
X4577Y-36124D03*
X2768Y-34315D03*
Y-37933D03*
X4577Y-14413D03*
X2768Y-16222D03*
X959Y-18032D03*
X10005Y-27078D03*
X959Y-21649D03*
X-851Y-19841D03*
X2768Y-23459D03*
X6386Y-27078D03*
X4577Y-25268D03*
X8195D03*
X6386Y-23459D03*
X8195Y-43361D03*
X6386Y-37933D03*
X8195Y-28887D03*
X10005Y-30696D03*
Y-34315D03*
X8195Y-36124D03*
X11814D03*
X15132D03*
X17241Y-34315D03*
X26291Y-28895D03*
X26287Y-32506D03*
X22669D03*
X20860Y-30696D03*
X22669Y-28887D03*
X19051Y-32506D03*
X13623Y-37933D03*
X17241Y-41552D03*
X10005Y-37933D03*
X8195Y-39742D03*
X6386Y-41552D03*
X4577Y-21650D03*
X2768Y-19840D03*
X959Y-14413D03*
X28097Y-34315D03*
X24478D03*
X8195Y-10793D03*
X28366Y-28466D03*
X10000Y-39742D03*
X15432Y14534D03*
Y21771D03*
X13623Y23580D03*
X13719Y19981D03*
X47998Y-18032D03*
X49807Y-19841D03*
X-18400Y89200D03*
X-12000Y70000D03*
X67600Y86000D03*
Y82000D03*
X93100Y78000D03*
X124000Y79200D03*
X5200Y58000D03*
X28000Y75600D03*
X133600Y62000D03*
X131200Y-10800D03*
X-18600Y-9000D03*
X41600Y-79286D03*
X47837Y-77286D03*
X45700Y-94386D03*
X78900Y-82386D03*
X34000Y-83686D03*
X67100Y-94886D03*
X62000Y-78786D03*
X67500Y-78686D03*
X70400Y-77200D03*
X53200Y-94386D03*
X53137Y-91686D03*
X55637D03*
X55600Y-85386D03*
X-22600Y-76986D03*
X-26500Y-78186D03*
X-14400Y-84586D03*
X-26400Y-94586D03*
X-41300Y-76100D03*
X-46900Y-79086D03*
X-50837Y-76886D03*
X-50000Y-94686D03*
X-48000D03*
X-59200Y-83886D03*
X-46000Y-94686D03*
X-38000Y-90869D03*
X-39200Y-94286D03*
X-32837Y-94486D03*
X-37800Y-85286D03*
X-34200Y-77186D03*
X13900Y58400D03*
X-53800Y50400D03*
X-22400Y75200D03*
X140800Y-33200D03*
X-2660Y3679D03*
X135200Y-15600D03*
X-29200Y40000D03*
X-17100Y-10800D03*
X-48300Y61800D03*
X15200Y84000D03*
X16800D03*
X-2660Y-28887D03*
X-56000Y-30400D03*
X79200Y-32400D03*
X24478Y-27077D03*
X42800Y54400D03*
X80539Y-33758D03*
X-64000Y-38400D03*
X45200Y56000D03*
X17200Y62400D03*
X25629Y82572D03*
X-28800Y37600D03*
X-25000Y2000D03*
X14000Y119600D03*
X32400Y117200D03*
X46000Y98800D03*
X50300Y98500D03*
X54800Y98400D03*
X59200D03*
X63200D03*
X63600Y95600D03*
X39200Y117600D03*
X30000Y122800D03*
X24000D03*
X16400Y124400D03*
X8800Y125100D03*
X27600Y92400D03*
X131200Y106800D03*
X138400Y140700D03*
X114400Y140400D03*
X102400D03*
X92400D03*
X87600Y140000D03*
X57200Y140400D03*
X-14900Y140000D03*
X-34400Y139200D03*
X7600Y103600D03*
X9200D03*
X4400Y105200D03*
X6000D03*
X7600D03*
X9200D03*
X87300Y116800D03*
X23200Y137200D03*
X34011Y140411D03*
X28000Y140400D03*
X0Y128100D03*
X91300Y121400D03*
X27600Y102400D03*
X26000D03*
X14400Y113300D03*
X83600Y116800D03*
X-51619Y140019D03*
X136800Y123200D03*
X93200Y100700D03*
Y102300D03*
Y103900D03*
X-44400Y139200D03*
X-43200Y92000D03*
X-62000Y114800D03*
X-47200Y139200D03*
X-20500Y105400D03*
X-58000Y139200D03*
X-53200Y137600D03*
X-39808Y139600D03*
X-16400Y100400D03*
X-25200Y105300D03*
X23500Y120300D03*
X16400Y120800D03*
X8500D03*
X-100Y124700D03*
X67600Y95499D03*
X95200Y121500D03*
X15000Y133000D03*
X82400Y139600D03*
X87200Y136800D03*
X34400Y117200D03*
X12000Y119600D03*
X70800Y114000D03*
X-12000Y106000D03*
X-16400Y105400D03*
X-12000Y100800D03*
X86400Y124800D03*
X90800Y124600D03*
X82000Y124800D03*
X77900Y116800D03*
X-24400Y110000D03*
X-8400Y106000D03*
X-28700Y110500D03*
X106000Y134000D03*
X95400Y140500D03*
X-28700Y140000D03*
X-23200Y137600D03*
X-10000Y139600D03*
X-4000Y140000D03*
X2000D03*
X8000Y140500D03*
X39362Y140277D03*
X44500Y140500D03*
X50700Y139900D03*
X62800Y140000D03*
X69800D03*
X75350Y140550D03*
X108800Y140400D03*
X118400D03*
X-64400D03*
X46000Y90400D03*
X134800Y106800D03*
X132800D03*
X129600Y92400D03*
X38400Y102400D03*
X140800Y112400D03*
Y114400D03*
X106900Y102800D03*
X132000Y139200D03*
X130400D03*
X-40300Y93200D03*
X130900Y112400D03*
Y114000D03*
X40000Y100000D03*
X-60500Y102400D03*
X34000Y138400D03*
X47136Y140400D03*
X98800Y115200D03*
X112000Y104800D03*
X171200Y-158800D03*
X171600Y-167200D03*
X190800Y-186800D03*
X193200Y-173600D03*
Y-175600D03*
X193600Y-183200D03*
Y-181200D03*
Y-185200D03*
X175600Y-35200D03*
X167600Y-40700D03*
X154800Y-41200D03*
X194000Y-47200D03*
X162800Y-29600D03*
X194000Y-18400D03*
X198800Y-33600D03*
X185200Y-55600D03*
X193600Y-48800D03*
X167600Y-48000D03*
Y-22400D03*
X166800Y21600D03*
X192800Y26800D03*
X188400Y18800D03*
X180000Y-42000D03*
X160400Y-81600D03*
X164800Y11200D03*
X169600D03*
X154800Y18000D03*
X179200Y15600D03*
X166800Y16400D03*
X157200Y-34400D03*
X162400Y-41200D03*
X175600Y-22400D03*
X166400Y-35200D03*
X176000Y-47200D03*
X193200Y-31200D03*
X194000Y-25200D03*
X168600Y29900D03*
X190400Y62800D03*
X154800Y38800D03*
X210000Y62800D03*
X200324Y-43924D03*
X179065Y-51065D03*
X154000Y-34800D03*
X148400Y-31600D03*
X152000D03*
X175568Y63168D03*
X192400Y31079D03*
Y40921D03*
X200800Y62400D03*
X197200Y62000D03*
X180400Y51600D03*
X182400Y57200D03*
X182800Y54000D03*
X165600Y140400D03*
X149400D03*
X144000Y140500D03*
X147600Y130800D03*
X154700Y139800D03*
X145200Y108400D03*
G54D34*
G01X146220Y82457D02*
X132457D01*
X121600Y71600D01*
Y62000D01*
G01X118800D02*
X121600D01*
G54D16*
X-114400Y-126400D03*
Y-124800D03*
X-118400Y-128000D03*
Y-130000D03*
Y-132000D03*
X-120400Y-142400D03*
X-122400D03*
X-120400Y-144400D03*
X-122400D03*
X-120400Y-128000D03*
Y-130000D03*
Y-132000D03*
X-124400Y-144400D03*
Y-142400D03*
Y-128000D03*
Y-130000D03*
Y-132000D03*
Y-140400D03*
X-122400Y-132000D03*
Y-128000D03*
Y-130000D03*
X35600Y-62500D03*
X34000Y-55886D03*
X31600Y-53486D03*
X99500Y-86400D03*
X90400Y-112000D03*
X81600Y-47200D03*
X81200Y-42000D03*
X88000Y-73600D03*
Y-70400D03*
Y-67200D03*
X87200Y-61600D03*
X84000Y-58000D03*
X81600Y-53600D03*
Y-50400D03*
X75200Y-35200D03*
X76400Y-36800D03*
X79500Y-39200D03*
X-41700Y-21086D03*
X-44000Y-23486D03*
X71200Y-30800D03*
X67100Y-26800D03*
X59600Y-20200D03*
X46400Y23600D03*
X41600Y18800D03*
X89200Y-95886D03*
X60800Y-94686D03*
X65600Y-94886D03*
G54D25*
X190192Y-63860D03*
Y-6773D03*
G54D35*
G01X-52100Y-196300D02*
X-50800Y-197600D01*
X-49400D01*
G01X-130000Y-157600D02*
Y-155600D01*
X-128400Y-154000D01*
Y-139200D01*
X-140400Y-127200D01*
Y-101600D01*
X-132000Y-93200D01*
Y-66000D01*
X-134400Y-63600D01*
Y-40800D01*
X-131200Y-37600D01*
Y-8400D01*
X-127600Y-4800D01*
Y-400D01*
X-102000Y25200D01*
Y38400D01*
X-93200Y47200D01*
X-85200D01*
X-81600Y43600D01*
X-53200D01*
X-48500Y48300D01*
Y61600D01*
X-48300Y61800D01*
G01X-122400Y-202000D02*
X-128400Y-196000D01*
Y-175600D01*
X-127600Y-174800D01*
Y-169200D01*
X-128400Y-168400D01*
Y-161600D01*
X-130000Y-160000D01*
Y-157600D01*
G01X-154400Y-34400D02*
X-152400Y-32400D01*
Y-20400D01*
X-140800Y-8800D01*
X-138800D01*
X-104400Y25600D01*
Y39200D01*
X-101600Y42000D01*
Y49600D01*
X-95200Y56000D01*
X-83600D01*
X-78000Y50400D01*
X-53800D01*
G01X-90000Y41600D02*
X-81200Y32800D01*
X-33600D01*
X-28800Y37600D01*
G01X-56000Y-142800D02*
X-23600Y-175200D01*
Y-191200D01*
X-31600Y-199200D01*
X-34100D01*
X-34800Y-198500D01*
G01X38400Y102400D02*
X31000Y95000D01*
Y92600D01*
X28600Y90200D01*
X26200D01*
X23600Y87600D01*
Y85600D01*
X18000Y80000D01*
X16000D01*
X9600Y73600D01*
Y70000D01*
X12000Y67600D01*
Y64400D01*
X13900Y62500D01*
Y58400D01*
G54D17*
X-202139Y74050D03*
X-202200Y42554D03*
G54D26*
X213657Y-6773D03*
Y-63860D03*
G54D36*
G01X-152018Y151186D02*
G02X-148819Y154385I3199J0D01*
G01X15278D01*
Y141378D01*
G03X19215I1969J0D01*
G01Y154385D01*
X167819D01*
G02X170812Y151392I0J-2993D01*
G01Y129989D01*
X166562D01*
G03Y124067I0J-2961D01*
G01X170825D01*
Y109450D01*
X192150D01*
Y154246D01*
X228150D01*
Y-259750D01*
X-217450D01*
Y154254D01*
X-173050D01*
Y109450D01*
X-152003D01*
Y111050D01*
Y113450D01*
Y124067D01*
X-147621D01*
G03Y129989I0J2961D01*
G01X-152018D01*
Y151186D01*
G54D18*
X138937Y75331D03*
X181063Y96669D03*
G54D27*
X146220Y82457D03*
X173780D03*
X160000Y89543D03*
G54D19*
X138937Y96669D03*
G54D28*
X181063Y75331D03*
G54D29*
G01X-160400Y-8000D02*
Y-7600D01*
X-158800Y-6000D01*
Y31700D01*
X-107300Y83200D01*
X-36000D01*
X-24000Y71200D01*
X-19600D01*
X-17600Y69200D01*
Y65200D01*
X1500Y46100D01*
Y26600D01*
X5090Y23010D01*
X5816Y22284D01*
X9434Y18666D01*
X12327Y15773D01*
X13100Y15000D01*
Y14000D01*
X12300Y13200D01*
G01X-83900Y104800D02*
X-76300Y112400D01*
X-38800D01*
X-37600Y113600D01*
X-21600D01*
X-18000Y110000D01*
X19200D01*
X31600Y122400D01*
Y125200D01*
X34000Y127600D01*
Y138400D01*
G01X13200Y-24800D02*
X15117Y-26717D01*
X15783D01*
X24100Y-18400D01*
X24900D01*
X25800Y-19300D01*
X26800D01*
X27517Y-18583D01*
X28683D01*
X29400Y-19300D01*
X34100D01*
X34900Y-18500D01*
X35800D01*
X36600Y-19300D01*
X37700D01*
X38600Y-18400D01*
X42900D01*
X43800Y-19300D01*
X44900D01*
X45700Y-18500D01*
X46600D01*
X47400Y-19300D01*
X48500D01*
X50200Y-17600D01*
X86800D01*
X118800Y-49600D01*
Y-61200D01*
X106400Y-73600D01*
Y-100400D01*
X68000Y-138800D01*
X32400D01*
X19600Y-151600D01*
Y-226800D01*
X5600Y-240800D01*
X-48400D01*
X-51200Y-243600D01*
X-53200D01*
G01X10005Y-8986D02*
Y-10795D01*
X3200Y-17600D01*
X2300D01*
X1400Y-16700D01*
X-373D01*
X-851Y-16222D01*
G01D02*
X-328Y-15700D01*
X1500D01*
X8214Y-8986D01*
G01D02*
X10005D01*
G01X12300Y13200D02*
Y12200D01*
X13100Y11400D01*
G01X131200Y-10800D02*
X130800Y-10400D01*
X119200D01*
X118400Y-9600D01*
G01X-6800Y3679D02*
X-7279Y3200D01*
X-8600D01*
X-9400Y2400D01*
X-10400D01*
X-11200Y3200D01*
Y4200D01*
X-10200Y5200D01*
X-9600D01*
G01D02*
X-9300D01*
X-8100Y4000D01*
X-7121D01*
X-6800Y3679D01*
G01X135200Y-15600D02*
X134400Y-14800D01*
Y-11200D01*
X132400Y-9200D01*
X128800D01*
X126000Y-6400D01*
Y800D01*
X87600Y39200D01*
X50400D01*
X47600Y42000D01*
X34800D01*
X25200Y51600D01*
X0D01*
X-7800Y59400D01*
Y68600D01*
X-12000Y72800D01*
X-14400D01*
X-34800Y93200D01*
X-40300D01*
G01X37600Y-26800D02*
X37713Y-26687D01*
Y-26565D01*
X38400Y-25878D01*
G01X34800Y-28400D02*
X33600Y-27200D01*
Y-26800D01*
G01X36800D02*
X36572Y-26573D01*
Y-26565D01*
X35847Y-25839D01*
X35839D01*
X35200Y-25200D01*
X34400D01*
G01X38400Y-25878D02*
Y-24800D01*
X38382Y-24782D01*
Y-24755D01*
X37656Y-24029D01*
X37630D01*
X37200Y-23600D01*
G01D02*
X36000D01*
G01X40000Y100000D02*
Y104000D01*
X37600Y106400D01*
X22400D01*
X14800Y98800D01*
X-20230D01*
X-23430Y102000D01*
X-25200D01*
X-31600Y108400D01*
X-51070D01*
X-57070Y102400D01*
X-60500D01*
G01X200800Y62400D02*
X208000Y55200D01*
Y6000D01*
X206000Y4000D01*
Y-13200D01*
X211200Y-18400D01*
Y-28000D01*
X212800Y-29600D01*
Y-54400D01*
X207600Y-59600D01*
Y-66800D01*
X196000Y-78400D01*
X188400D01*
X174400Y-92400D01*
Y-134400D01*
X162400Y-146400D01*
Y-162206D01*
X168994Y-168800D01*
X188400D01*
X193200Y-173600D01*
G01X197200Y62000D02*
X198800Y60400D01*
X201200D01*
X207200Y54400D01*
Y6332D01*
X205200Y4331D01*
Y-13531D01*
X210400Y-18731D01*
Y-28331D01*
X212000Y-29931D01*
Y-54069D01*
X206800Y-59269D01*
Y-66400D01*
X195600Y-77600D01*
X172469D01*
X167200Y-82869D01*
Y-88731D01*
X173600Y-95131D01*
Y-134069D01*
X161600Y-146069D01*
Y-162537D01*
X168663Y-169600D01*
X186800D01*
X192800Y-175600D01*
X193200D01*
G01X193600Y-183200D02*
X191200Y-180800D01*
Y-176800D01*
X185600Y-171200D01*
X168000D01*
X160000Y-163200D01*
Y-145406D01*
X172000Y-133406D01*
Y-95794D01*
X165600Y-89394D01*
Y-82206D01*
X171806Y-76000D01*
X194937D01*
X205200Y-65737D01*
Y-58606D01*
X210400Y-53406D01*
Y-30594D01*
X208800Y-28994D01*
Y-19394D01*
X203600Y-14194D01*
Y4994D01*
X205600Y6995D01*
Y53600D01*
X200400Y58800D01*
X186400D01*
X183200Y55600D01*
X181600D01*
X180400Y54400D01*
Y51600D01*
G01X182400Y57200D02*
X183600D01*
X186000Y59600D01*
X200800D01*
X206400Y54000D01*
Y6663D01*
X204400Y4663D01*
Y-13863D01*
X209600Y-19063D01*
Y-28663D01*
X211200Y-30263D01*
Y-53737D01*
X206000Y-58937D01*
Y-66069D01*
X195269Y-76800D01*
X172137D01*
X166400Y-82537D01*
Y-89063D01*
X172800Y-95463D01*
Y-133737D01*
X160800Y-145737D01*
Y-162869D01*
X168331Y-170400D01*
X186000D01*
X192000Y-176400D01*
Y-179600D01*
X193600Y-181200D01*
G01X182800Y54000D02*
X186800Y58000D01*
X200000D01*
X204800Y53200D01*
Y7326D01*
X202800Y5326D01*
Y-14526D01*
X208000Y-19726D01*
Y-29326D01*
X209600Y-30926D01*
Y-53074D01*
X204400Y-58274D01*
Y-65406D01*
X194606Y-75200D01*
X171474D01*
X164800Y-81874D01*
Y-89726D01*
X171200Y-96126D01*
Y-133074D01*
X159200Y-145074D01*
Y-163600D01*
X167600Y-172000D01*
X185200D01*
X190400Y-177200D01*
Y-182000D01*
X193600Y-185200D01*
M02*
