G04 ================== begin FILE IDENTIFICATION RECORD ==================*
G04 Layout Name:  RK_SAPPHIRE_SOCBOARD_RK3399_LPDDR3D178P232SD8_V12_20161110_final_lint.brd*
G04 Film Name:    PAST_BOT*
G04 File Format:  Gerber RS274X*
G04 File Origin:  Cadence Allegro 16.6-S050*
G04 Origin Date:  Fri Nov 11 15:52:08 2016*
G04 *
G04 Layer:  PIN/PASTEMASK_BOTTOM*
G04 Layer:  PACKAGE GEOMETRY/PASTEMASK_BOTTOM*
G04 Layer:  BOARD GEOMETRY/OUTLINE*
G04 *
G04 Offset:    (0.000 0.000)*
G04 Mirror:    No*
G04 Mode:      Positive*
G04 Rotation:  0*
G04 FullContactRelief:  No*
G04 UndefLineWidth:     5.000*
G04 ================== end FILE IDENTIFICATION RECORD ====================*
%FSLAX25Y25*MOIN*%
%IR0*IPPOS*OFA0.00000B0.00000*MIA0B0*SFA1.00000B1.00000*%
%ADD29R,.062988X.027559*%
%AMMACRO27*
21,1,.031496,.035433,0.0,0.0,135.*%
%ADD27MACRO27*%
%AMMACRO70*
4,1,8,.04833,.04754,
.04833,.02468,
.05317,.02468,
.05317,-.04754,
-.05317,-.04754,
-.05317,.02161,
.0286,.02161,
.0286,.04754,
.04833,.04754,
0.0*
%
%ADD70MACRO70*%
%ADD24R,.051181X.133858*%
%ADD16C,.009449*%
%ADD48R,.011811X.009839*%
%AMMACRO47*
21,1,.009839,.011811,0.0,0.0,45.*%
%ADD47MACRO47*%
%ADD40R,.009839X.011811*%
%ADD25R,.059055X.15748*%
%AMMACRO33*
4,1,9,-.017094,-.01252,
-.017094,.01252,
.007846,.01252,
.007846,.009209,
.007846,.00902,
.017094,-.000232,
.007846,-.00948,
.007846,-.009661,
.007846,-.01252,
-.017094,-.01252,
0.0*
%
%ADD33MACRO33*%
%ADD55O,.137795X.059055*%
%ADD63R,.177165X.070866*%
%ADD61R,.009843X.027559*%
%ADD60R,.027559X.009843*%
%AMMACRO34*
4,1,9,-.008142,-.012524,
-.008142,-.009024,
-.008142,-.008878,
-.016929,-.000075,
-.008142,.008717,
-.008142,.009878,
-.008142,.012528,
.016929,.012528,
.016929,-.012524,
-.008142,-.012524,
0.0*
%
%ADD34MACRO34*%
%ADD59R,.011811X.023622*%
%ADD19O,.023622X.043307*%
%ADD42O,.043307X.023622*%
%ADD17O,.047244X.011811*%
%ADD58R,.023618X.011811*%
%ADD20R,.023622X.043307*%
%ADD14R,.051181X.037402*%
%ADD43R,.043307X.023622*%
%ADD18R,.047244X.011811*%
%ADD15R,.037402X.051181*%
%ADD54O,.025591X.037402*%
%ADD53C,.025591*%
%ADD51C,.07087*%
%ADD49R,.049209X.011811*%
%ADD35O,.057087X.011811*%
%ADD65R,.023622X.031496*%
%AMMACRO28*
21,1,.021654,.021654,0.0,0.0,45.*%
%ADD28MACRO28*%
%ADD69R,.01969X.0185*%
%ADD66R,.031496X.023622*%
%ADD36R,.057087X.011811*%
%ADD31R,.08661X.04724*%
%ADD13R,.021654X.021654*%
%ADD21R,.043307X.031496*%
%AMMACRO46*
21,1,.009839,.011811,0.0,0.0,135.*%
%ADD46MACRO46*%
%AMMACRO39*
21,1,.031496,.035433,0.0,0.0,45.*%
%ADD39MACRO39*%
%ADD22R,.031496X.043307*%
%ADD11R,.035433X.031496*%
%ADD41C,.027559*%
%ADD12R,.031496X.035433*%
%ADD64R,.03937X.03937*%
%AMMACRO68*
4,1,8,-.04833,-.04754,
-.04833,-.02468,
-.05317,-.02468,
-.05317,.04754,
.05317,.04754,
.05317,-.02161,
-.0286,-.02161,
-.0286,-.04754,
-.04833,-.04754,
0.0*
%
%ADD68MACRO68*%
%ADD67R,.03937X.047244*%
%ADD32R,.031496X.025591*%
%ADD62R,.035433X.027559*%
%ADD50R,.098402X.078701*%
%ADD23R,.027559X.035433*%
%ADD57R,.057087X.057087*%
%ADD52O,.059059X.035429*%
%ADD56O,.098425X.059055*%
%ADD44R,.055118X.062992*%
%AMMACRO38*
21,1,.019685,.019685,0.0,0.0,45.*%
%ADD38MACRO38*%
%ADD10R,.019685X.019685*%
%ADD45R,.059055X.098425*%
%ADD37R,.037992X.031496*%
%ADD30R,.062988X.055118*%
%ADD26R,.07874X.027559*%
%ADD71C,.005*%
G75*
%LPD*%
G75*
G54D10*
X-128228Y-215600D03*
X-131772D03*
X-132000Y-192628D03*
Y-196172D03*
X-193828Y-129600D03*
X-197372D03*
X-193828Y-134000D03*
X-197372D03*
X-201600Y-133372D03*
Y-129828D03*
X-184172Y-125600D03*
X-180628D03*
X-69600Y-243828D03*
Y-247372D03*
X-180628Y-121600D03*
X-184172D03*
X-109940Y-137983D03*
Y-134439D03*
X-110628Y-129200D03*
X-114172D03*
X-99428Y-205600D03*
X-102972D03*
X-128000Y-196172D03*
Y-192628D03*
X-98400Y-213028D03*
Y-216572D03*
X-209600Y-129828D03*
Y-133372D03*
X-159428Y-196400D03*
X-162972D03*
X-172628Y-182800D03*
X-176172D03*
X-151028Y-204800D03*
X-154572D03*
X-151028Y-196400D03*
X-154572D03*
X-141600Y-183772D03*
Y-180228D03*
X-73772Y-91886D03*
X-70228D03*
Y-96286D03*
X-73772D03*
X-110000Y-35772D03*
Y-32228D03*
X-122172Y-24800D03*
X-118628D03*
X-137028Y52800D03*
X-140572D03*
X-142572Y-19200D03*
X-139028D03*
X-118400Y71428D03*
Y74972D03*
X-112400Y-24228D03*
Y-27772D03*
X-155372Y-6800D03*
X-151828D03*
X-114000Y-35772D03*
Y-32228D03*
X-143200Y-7028D03*
Y-10572D03*
X-112972Y6000D03*
X-109428D03*
X-142572Y-15200D03*
X-139028D03*
X-24572Y-204800D03*
X-21028D03*
X-30400Y-200628D03*
Y-204172D03*
X-57600Y-201428D03*
Y-204972D03*
X142000Y-219428D03*
Y-222972D03*
X59372Y-203200D03*
X55828D03*
X59372Y-198800D03*
X55828D03*
X59372Y-181600D03*
X55828D03*
X80400Y-208972D03*
Y-205428D03*
X55828Y-177200D03*
X59372D03*
X92800Y-208972D03*
Y-205428D03*
X88400Y-208972D03*
Y-205428D03*
X59372Y-186000D03*
X55828D03*
X61600Y-247428D03*
Y-250972D03*
X86572Y-99086D03*
X83028D03*
Y-103086D03*
X86572D03*
X14800Y76628D03*
Y80172D03*
X6800Y60228D03*
Y63772D03*
X46000Y83428D03*
Y86972D03*
X19200Y80172D03*
Y76628D03*
X42000Y79828D03*
Y83372D03*
X137200Y-30572D03*
Y-27028D03*
X132000Y50972D03*
Y47428D03*
X133200Y-13772D03*
Y-10228D03*
X-54000Y31828D03*
Y35372D03*
X6800Y50628D03*
Y54172D03*
X132000Y38628D03*
Y42172D03*
X51200Y79828D03*
Y83372D03*
X142400Y15828D03*
Y19372D03*
X120800Y74228D03*
Y77772D03*
X127200Y77372D03*
Y73828D03*
X34000Y109828D03*
Y113372D03*
X128000Y109428D03*
Y112972D03*
X162800Y-164572D03*
Y-161028D03*
X167200Y-164572D03*
Y-161028D03*
X171600Y-164572D03*
Y-161028D03*
X176000Y-164572D03*
Y-161028D03*
X180400Y-164572D03*
Y-161028D03*
X184516Y-164706D03*
Y-161162D03*
X188800Y-164572D03*
Y-161028D03*
X159600Y24572D03*
Y21028D03*
X181200Y-31372D03*
Y-27828D03*
X146400Y7428D03*
Y10972D03*
X185772Y-44000D03*
X182228D03*
X200800Y-25428D03*
Y-28972D03*
X217600Y-27428D03*
Y-30972D03*
Y-37828D03*
Y-41372D03*
X212400Y-49428D03*
Y-52972D03*
X195600Y-51428D03*
Y-54972D03*
X192628Y-36400D03*
X196172D03*
X160172Y-44400D03*
X156628D03*
X208400Y81028D03*
Y84572D03*
X188000Y83828D03*
Y87372D03*
X207772Y89200D03*
X204228D03*
X204000Y81028D03*
Y84572D03*
X218572Y74000D03*
X215028D03*
X184000Y83828D03*
Y87372D03*
X198172Y72400D03*
X194628D03*
X199200Y95428D03*
Y98972D03*
X195200Y95428D03*
Y98972D03*
G54D11*
X-68000Y-191156D03*
Y-185644D03*
X-100000Y-225644D03*
Y-231156D03*
X-105200Y-31644D03*
Y-37156D03*
X-116000Y-41644D03*
Y-47156D03*
X-137600Y79156D03*
Y73644D03*
Y60844D03*
Y66356D03*
X-50000Y-191156D03*
Y-185644D03*
X-62000Y-191156D03*
Y-185644D03*
X-56000Y-191156D03*
Y-185644D03*
X-37600Y-191156D03*
Y-185644D03*
X80400Y-176844D03*
Y-182356D03*
X-25600Y-191156D03*
Y-185644D03*
X-31600Y-191156D03*
Y-185644D03*
X-43600Y-191156D03*
Y-185644D03*
X98400Y-234044D03*
Y-239556D03*
X-26800Y-245956D03*
Y-240444D03*
X-57200Y-216756D03*
Y-211244D03*
X-10800Y-87842D03*
Y-82330D03*
X105200Y-16044D03*
Y-21556D03*
G54D20*
X-128063Y-174400D03*
X-124126D03*
Y-185424D03*
X-132000D03*
X-127263Y75200D03*
X-123326D03*
Y64176D03*
X-131200D03*
X132737Y-220800D03*
X136674D03*
Y-231824D03*
X128800D03*
X123137Y50400D03*
X127074D03*
Y39376D03*
X119200D03*
X130863Y57200D03*
X126926D03*
Y68224D03*
X134800D03*
G54D30*
X-162769Y30743D03*
X-162768Y92553D03*
G54D12*
X-128356Y-147600D03*
X-122844D03*
X-122425Y-124228D03*
X-116913D03*
X-122356Y-101600D03*
X-116844D03*
X-122425Y-113128D03*
X-116913D03*
X-154444Y14000D03*
X-159956D03*
X-122416Y-107509D03*
X-116904D03*
X-140275Y-117760D03*
X-145787D03*
X-122425Y-118728D03*
X-116913D03*
X-154844Y4000D03*
X-160356D03*
X-59956Y-228100D03*
X-54444D03*
X-59956Y-222600D03*
X-54444D03*
X68044Y-194800D03*
X73556D03*
X-43956Y-116686D03*
X-38444D03*
X84844Y-89200D03*
X90356D03*
X45556Y-115486D03*
X40044D03*
X-48756Y-96886D03*
X-43244D03*
X42756Y-96286D03*
X37244D03*
X121244Y9200D03*
X126756D03*
X39156Y60800D03*
X33644D03*
X21244Y66435D03*
X26756D03*
X38756D03*
X33244D03*
X19130Y85721D03*
X24642D03*
X36642D03*
X31130D03*
X121244Y-7600D03*
X126756D03*
X121244Y-13200D03*
X126756D03*
X121244Y-2000D03*
X126756D03*
X121244Y3600D03*
X126756D03*
X122444Y-35600D03*
X127956D03*
X17627Y103886D03*
X23139D03*
X35539D03*
X30027D03*
G54D21*
X-103669Y-211860D03*
Y-219340D03*
X-112331Y-215600D03*
X67669Y-252540D03*
Y-245060D03*
X76331Y-248800D03*
X197669Y59060D03*
Y66540D03*
X206331Y62800D03*
G54D22*
X-176940Y-188069D03*
X-169460D03*
X-173200Y-196731D03*
X-113740Y54331D03*
X-106260D03*
X-110000Y45669D03*
X180260Y26731D03*
X187740D03*
X184000Y18069D03*
G54D13*
X-124000Y-196172D03*
Y-192628D03*
X-94972Y-205600D03*
X-91428D03*
X-205600Y-133372D03*
Y-129828D03*
X-131772Y-211600D03*
X-128228D03*
X-203028Y-192800D03*
X-206572D03*
X-104800Y-225428D03*
Y-228972D03*
X-99200Y-170628D03*
Y-174172D03*
X-132000Y-165372D03*
Y-161828D03*
X-113940Y-134439D03*
Y-137983D03*
X-203028Y-188800D03*
X-206572D03*
X-188400Y-125372D03*
Y-121828D03*
X-132172Y-223600D03*
X-128628D03*
X-197372Y-138000D03*
X-193828D03*
X-151028Y-200800D03*
X-154572D03*
X-70228Y-100286D03*
X-73772D03*
Y-87886D03*
X-70228D03*
Y-104286D03*
X-73772D03*
X-119028Y-15200D03*
X-122572D03*
X-118628Y-20800D03*
X-122172D03*
X-147200Y-7028D03*
Y-10572D03*
X-155828Y-800D03*
X-159372D03*
X-139028Y-23200D03*
X-142572D03*
X-122172Y-28800D03*
X-118628D03*
Y-32800D03*
X-122172D03*
X-154628Y8800D03*
X-158172D03*
X-118400Y63028D03*
Y66572D03*
X-196628Y800D03*
X-200172D03*
X-196628Y-3200D03*
X-200172D03*
X-124800Y-228D03*
Y-3772D03*
X-122000Y110972D03*
Y107428D03*
X59372Y-190400D03*
X55828D03*
X-32000Y-246572D03*
Y-243028D03*
X78400Y-235428D03*
Y-238972D03*
X-56000Y-238628D03*
Y-242172D03*
X91772Y-189200D03*
X88228D03*
X91372Y-184400D03*
X87828D03*
X67828Y-182800D03*
X71372D03*
X67828Y-190000D03*
X71372D03*
X91772Y-197200D03*
X88228D03*
X91772Y-193200D03*
X88228D03*
X75600Y-176628D03*
Y-180172D03*
X85200Y-177028D03*
Y-180572D03*
X84172Y-200000D03*
X80628D03*
X75772D03*
X72228D03*
X70800Y-221828D03*
Y-225372D03*
X66800Y-221828D03*
Y-225372D03*
X53600Y-222228D03*
Y-225772D03*
X92800Y-234228D03*
Y-237772D03*
X135200Y-211372D03*
Y-207828D03*
X-34000Y-91258D03*
Y-87714D03*
X77772Y-97886D03*
X74228D03*
X83028Y-107486D03*
X86572D03*
X86172Y-95086D03*
X82628D03*
X47200Y-76028D03*
Y-79572D03*
X55000Y-91258D03*
Y-87714D03*
X66572Y-97486D03*
X63028D03*
X59000Y-91258D03*
Y-87714D03*
X-34600Y-79314D03*
Y-82858D03*
X-22200Y-76114D03*
Y-79658D03*
X-43600Y-74628D03*
Y-78172D03*
X32572Y-108686D03*
X29028D03*
X32000Y-86514D03*
Y-90058D03*
X32572Y-104686D03*
X29028D03*
X50572Y-104800D03*
X47028D03*
X45372Y-110800D03*
X41828D03*
X43428Y-100800D03*
X46972D03*
X70172Y-102686D03*
X66628D03*
X-16228Y-98286D03*
X-19772D03*
X-60628Y-87886D03*
X-64172D03*
X-60628Y-104286D03*
X-64172D03*
X-60628Y-107886D03*
X-64172D03*
X-49372Y-101486D03*
X-45828D03*
X-41828Y-110000D03*
X-45372D03*
X-22572Y-102286D03*
X-19028D03*
X-49372Y-105486D03*
X-45828D03*
X57600Y-83258D03*
Y-79714D03*
X-26572Y-113600D03*
X-23028D03*
X55028Y-97486D03*
X58572D03*
X-37600Y-91258D03*
Y-87714D03*
X65700Y-79372D03*
Y-75828D03*
X-32972Y-101086D03*
X-29428D03*
X64628Y-111886D03*
X68172D03*
X-50800Y-75714D03*
Y-79258D03*
X61600Y-78058D03*
Y-74514D03*
X58500Y-103714D03*
Y-107258D03*
X83028Y-111086D03*
X86572D03*
X-38400Y-82958D03*
Y-79414D03*
X-37200Y-103314D03*
Y-106858D03*
X32400Y-80458D03*
Y-76914D03*
X-27428Y-97086D03*
X-30972D03*
X57600Y-74858D03*
Y-71314D03*
X-34800Y-74572D03*
Y-71028D03*
X137200Y-22172D03*
Y-18628D03*
X39772Y56000D03*
X36228D03*
X40628Y91200D03*
X44172D03*
X150400Y7428D03*
Y10972D03*
X177200Y-27828D03*
Y-31372D03*
X173200Y47372D03*
Y43828D03*
X166572Y59200D03*
X163028D03*
X182228Y-52800D03*
X185772D03*
X160172Y-40400D03*
X156628D03*
X181828Y-40000D03*
X185372D03*
X169372Y-50400D03*
X165828D03*
X185772Y-48800D03*
X182228D03*
X181828Y-36000D03*
X185372D03*
X184628Y61200D03*
X188172D03*
X160172Y-36400D03*
X156628D03*
X156800Y54628D03*
Y58172D03*
G54D31*
X-200564Y31530D03*
Y92553D03*
G54D40*
X55483Y-107886D03*
X53317D03*
X-37883Y-112886D03*
X-35717D03*
X-37883Y-110386D03*
X-35717D03*
X55483Y-110686D03*
X53317D03*
X-15517Y-18100D03*
X-17683D03*
X36483Y-9200D03*
X34317D03*
X7983Y9600D03*
X5817D03*
X-33383Y-110386D03*
X-31217D03*
X50883Y-109086D03*
X48717D03*
X168517Y20400D03*
X170683D03*
X168517Y17600D03*
X170683D03*
G54D23*
X-93359Y-211060D03*
X-88241D03*
X-90800Y-218540D03*
X219359Y78260D03*
X214241D03*
X216800Y85740D03*
X198959Y77460D03*
X193841D03*
X196400Y84940D03*
X208959Y93860D03*
X203841D03*
X206400Y101340D03*
G54D50*
X214805Y-158492D03*
Y-217075D03*
G54D32*
X-120400Y46054D03*
Y40346D03*
G54D41*
X8800Y22400D03*
X10800Y26000D03*
X-13600Y-21800D03*
X42000Y29600D03*
X11200Y50000D03*
X51200Y48000D03*
X-30400Y8000D03*
X29600Y26700D03*
X17900Y9800D03*
G54D14*
X-116800Y-182848D03*
Y-176352D03*
X-106000Y-168352D03*
Y-174848D03*
X-128800Y110848D03*
Y104352D03*
X77200Y-221552D03*
Y-228048D03*
X60400Y-222352D03*
Y-228848D03*
X86000Y-235152D03*
Y-241648D03*
X128400Y-213248D03*
Y-206752D03*
X-31200Y-216848D03*
Y-210352D03*
X142000Y34848D03*
Y28352D03*
X119600Y59152D03*
Y65648D03*
X142000Y55552D03*
Y62048D03*
X152400Y34848D03*
Y28352D03*
G54D51*
X159600Y-250000D03*
X179600Y-250062D03*
G54D15*
X-201152Y-165200D03*
X-207648D03*
X-201152Y-173600D03*
X-207648D03*
X-201152Y-156800D03*
X-207648D03*
X-166848Y-120800D03*
X-160352D03*
X-166848Y-129200D03*
X-160352D03*
X-201152Y-182400D03*
X-207648D03*
X-36352Y-228400D03*
X-42848D03*
X185552Y10800D03*
X192048D03*
X168448Y-65600D03*
X161952D03*
X168448Y-56800D03*
X161952D03*
X185552Y2000D03*
X192048D03*
X151152Y66400D03*
X157648D03*
G54D42*
X24800Y72400D03*
X17600Y109200D03*
X23086Y91320D03*
G54D60*
X165091Y-44153D03*
Y-42184D03*
Y-40216D03*
Y-38247D03*
X176509D03*
Y-40216D03*
Y-42184D03*
Y-44153D03*
G54D33*
X-150433Y52717D03*
Y63517D03*
Y73917D03*
Y68717D03*
X-150033Y44317D03*
Y39517D03*
Y34717D03*
G54D24*
X-124934Y-162000D03*
X-116666D03*
X114534Y-227200D03*
X106266D03*
G54D52*
X220526Y53598D03*
Y18402D03*
X197101Y52260D03*
Y19740D03*
G54D43*
X24800Y76337D03*
Y80274D03*
X35824D03*
Y72400D03*
X17600Y113137D03*
Y117074D03*
X28624D03*
Y109200D03*
X23086Y95258D03*
Y99195D03*
X34110D03*
Y91320D03*
G54D34*
X-146269Y52793D03*
Y63593D03*
Y73993D03*
Y68793D03*
X-145869Y44393D03*
Y39593D03*
Y34793D03*
G54D61*
X172769Y-37460D03*
G54D25*
X-172894Y-156400D03*
X-184706D03*
G54D16*
X-121590Y-138573D03*
Y-136998D03*
Y-135424D03*
Y-133849D03*
X-123165Y-138573D03*
Y-136998D03*
Y-135424D03*
Y-133849D03*
X-124740Y-138573D03*
Y-136998D03*
Y-135424D03*
Y-133849D03*
X-126315Y-138573D03*
Y-136998D03*
Y-135424D03*
Y-133849D03*
X-127890Y-138573D03*
Y-136998D03*
Y-135424D03*
Y-133849D03*
X129150Y-26762D03*
Y-25187D03*
Y-23613D03*
Y-22038D03*
X127575Y-26762D03*
Y-25187D03*
Y-23613D03*
Y-22038D03*
X126000Y-26762D03*
Y-25187D03*
Y-23613D03*
Y-22038D03*
X124425Y-26762D03*
Y-25187D03*
Y-23613D03*
Y-22038D03*
X122850Y-26762D03*
Y-25187D03*
Y-23613D03*
Y-22038D03*
G54D70*
X169605Y36327D03*
G54D71*
G01X-152018Y151186D02*
G02X-148819Y154385I3199J0D01*
G01X15278D01*
Y141378D01*
G03X19215I1969J0D01*
G01Y154385D01*
X167819D01*
G02X170812Y151392I0J-2993D01*
G01Y129989D01*
X166562D01*
G03Y124067I0J-2961D01*
G01X170825D01*
Y109450D01*
X192150D01*
Y154246D01*
X228150D01*
Y-259750D01*
X-217450D01*
Y154254D01*
X-173050D01*
Y109450D01*
X-152003D01*
Y111050D01*
Y113450D01*
Y124067D01*
X-147621D01*
G03Y129989I0J2961D01*
G01X-152018D01*
Y151186D01*
G54D26*
X-137762Y-132008D03*
Y-123740D03*
X113200Y-22134D03*
Y-13866D03*
G54D44*
X123800Y-94400D03*
X133000D03*
G54D62*
X207740Y-47841D03*
Y-52959D03*
X200260Y-50400D03*
X213340Y-37041D03*
Y-42159D03*
X205860Y-39600D03*
X212940Y-26641D03*
Y-31759D03*
X205460Y-29200D03*
X154940Y20959D03*
Y15841D03*
X147460Y18400D03*
G54D35*
X-103424Y337D03*
G54D53*
X192180Y21827D03*
X194739Y47024D03*
X197494Y45449D03*
Y42299D03*
X194739Y40724D03*
X197494Y39150D03*
X194739Y37575D03*
Y34425D03*
X197494Y32850D03*
X194739Y31276D03*
X197494Y29701D03*
Y26551D03*
X194739Y24976D03*
G54D17*
X-177682Y-130561D03*
G54D45*
X142082Y45200D03*
X152318D03*
G54D36*
X-103424Y-1631D03*
Y-3600D03*
Y-5569D03*
Y-7537D03*
X-118976D03*
Y-5569D03*
Y-3600D03*
Y-1631D03*
Y337D03*
G54D54*
X192180Y50173D03*
G54D18*
X-177682Y-133120D03*
Y-135680D03*
Y-138239D03*
X-187918D03*
Y-135680D03*
Y-133120D03*
Y-130561D03*
G54D63*
X170400Y-10490D03*
Y3290D03*
G54D27*
X-110051Y16851D03*
X-113949Y20749D03*
X-106051Y20851D03*
X-109949Y24749D03*
X-6851Y-9549D03*
X-10749Y-5651D03*
X23249Y-23449D03*
X19351Y-19551D03*
G54D37*
X91550Y-228000D03*
X85250D03*
X91550Y-222000D03*
X85250D03*
G54D64*
X158113Y-29600D03*
X172287D03*
G54D46*
X1266Y-33066D03*
X-266Y-31534D03*
X22034Y-35534D03*
X23566Y-37066D03*
X18266Y-26266D03*
X16734Y-24734D03*
X-6734Y-4266D03*
X-8266Y-2734D03*
X-3834Y14534D03*
X-5366Y16066D03*
X12766Y4834D03*
X11234Y6366D03*
X-14034Y12434D03*
X-15566Y13966D03*
X-4934Y-2566D03*
X-6466Y-1034D03*
X166Y-4766D03*
X-1366Y-3234D03*
X6634Y-8034D03*
X8166Y-9566D03*
X13766Y-3866D03*
X12234Y-2334D03*
X14766Y-15966D03*
X13234Y-14434D03*
X-666Y-11534D03*
X866Y-13066D03*
X-3534Y-7466D03*
X-5066Y-5934D03*
X1934Y-6434D03*
X3466Y-7966D03*
X10234Y-4434D03*
X11766Y-5966D03*
X10234Y-8034D03*
X11766Y-9566D03*
X26834Y-26934D03*
X28366Y-28466D03*
X32266Y-18666D03*
X30734Y-17134D03*
X-14934Y-7066D03*
X-16466Y-5534D03*
X35666Y-17166D03*
X34134Y-15634D03*
X-14434Y1634D03*
X-15966Y3166D03*
X-19134Y-10766D03*
X-20666Y-9234D03*
X-19434Y-2366D03*
X-20966Y-834D03*
X-18034Y-7466D03*
X-19566Y-5934D03*
X16734Y3666D03*
X18266Y2134D03*
X17634Y6266D03*
X19166Y4734D03*
X-1266Y7266D03*
X266Y5734D03*
X20434Y66D03*
X21966Y-1466D03*
X12734Y1566D03*
X14266Y34D03*
X-1566Y2766D03*
X-34Y1234D03*
X-25166Y1966D03*
X-23634Y434D03*
X-4834Y10434D03*
X-6366Y11966D03*
X20134Y-28134D03*
X21666Y-29666D03*
X16366Y-28066D03*
X14834Y-26534D03*
X18334Y-29934D03*
X19866Y-31466D03*
X16434Y-31734D03*
X17966Y-33266D03*
X-266Y-16934D03*
X1266Y-18466D03*
G54D28*
X-113147Y13147D03*
X-115653Y15653D03*
X-51147Y-24453D03*
X-53653Y-21947D03*
X-3447Y247D03*
X-5953Y2753D03*
X3147Y3447D03*
X5653Y5953D03*
X17853Y-13753D03*
X15347Y-11247D03*
X5847Y947D03*
X8353Y3453D03*
X5753Y-18653D03*
X3247Y-16147D03*
X-11447Y-11847D03*
X-13953Y-14353D03*
X27253Y4453D03*
X24747Y1947D03*
X-353Y13547D03*
X2153Y16053D03*
X10247Y16747D03*
X12753Y19253D03*
X9253Y-16453D03*
X6747Y-13947D03*
X27947Y-15553D03*
X30453Y-13047D03*
X1847Y-25653D03*
X4353Y-23147D03*
X4647Y-28453D03*
X7153Y-25947D03*
X25553Y-19053D03*
X23047Y-16547D03*
X12953Y-33247D03*
X10447Y-35753D03*
X12053Y-42853D03*
X9547Y-40347D03*
X-53D03*
X2453Y-42853D03*
G54D19*
X-132000Y-174400D03*
X-131200Y75200D03*
X128800Y-220800D03*
X119200Y50400D03*
X134800Y57200D03*
G54D55*
X190192Y-63860D03*
Y-6773D03*
G54D38*
X42453Y-1947D03*
X39947Y-4453D03*
X-24347Y7253D03*
X-26853Y4747D03*
X94347Y-36747D03*
X96853Y-39253D03*
X97147Y-33947D03*
X99653Y-36453D03*
X34453Y853D03*
X31947Y-1653D03*
X30453Y7147D03*
X27947Y9653D03*
X-7947Y-27653D03*
X-10453Y-25147D03*
X15947Y-39253D03*
X18453Y-36747D03*
X-5653Y-39253D03*
X-3147Y-36747D03*
X22847Y21847D03*
X25353Y24353D03*
X18347Y14347D03*
X20853Y16853D03*
X-19147Y27947D03*
X-21653Y30453D03*
G54D56*
X213657Y-6773D03*
Y-63860D03*
G54D65*
X159600Y38724D03*
Y29276D03*
X195600Y-31124D03*
Y-21676D03*
G54D47*
X-3634Y-24434D03*
X-5166Y-25966D03*
X17234Y-3966D03*
X18766Y-2434D03*
X8734Y-22266D03*
X10266Y-20734D03*
X7066Y-3134D03*
X5534Y-4666D03*
X26434Y-1966D03*
X27966Y-434D03*
X4434Y13634D03*
X5966Y15166D03*
X27634Y-7166D03*
X29166Y-5634D03*
X13134Y8234D03*
X14666Y9766D03*
X15434Y17134D03*
X16966Y18666D03*
X25734Y-13066D03*
X27266Y-11534D03*
X11666Y-26434D03*
X10134Y-27966D03*
X-8934Y-14634D03*
X-10466Y-16166D03*
X8334Y-966D03*
X9866Y566D03*
X-2634Y-15634D03*
X-4166Y-17166D03*
X-10366Y9334D03*
X-8834Y10866D03*
X24034Y5634D03*
X25566Y7166D03*
X-8934Y-18234D03*
X-10466Y-19766D03*
X14734Y-23266D03*
X16266Y-21734D03*
X10534Y-24066D03*
X12066Y-22534D03*
X22134Y-12566D03*
X23666Y-11034D03*
X15434Y-2166D03*
X16966Y-634D03*
X14866Y-6234D03*
X13334Y-7766D03*
X-5334Y-14634D03*
X-6866Y-16166D03*
X2634Y-3866D03*
X4166Y-2334D03*
X-1934Y-29834D03*
X-3466Y-31366D03*
X32634Y-5966D03*
X34166Y-4434D03*
X11834Y12334D03*
X13366Y13866D03*
X-6334Y8566D03*
X-7866Y7034D03*
X-5334Y-22534D03*
X-6866Y-24066D03*
X-7234Y-20734D03*
X-8766Y-22266D03*
X-1566Y-22366D03*
X-34Y-20834D03*
X-3366Y-20466D03*
X-1834Y-18934D03*
X1134Y-2366D03*
X2666Y-834D03*
G54D29*
X-160800Y70900D03*
Y66569D03*
Y62239D03*
Y57908D03*
Y53577D03*
Y49246D03*
Y44916D03*
Y40585D03*
Y36254D03*
G54D57*
X175568Y56036D03*
G54D39*
X19651Y-9149D03*
X23549Y-5251D03*
X7149Y-32451D03*
X3251Y-36349D03*
G54D66*
X200324Y-41600D03*
X190876D03*
G54D48*
X39000Y-10883D03*
Y-8717D03*
X3100Y10783D03*
Y8617D03*
G54D67*
X159663Y47200D03*
X167537D03*
G54D49*
X204667Y-210422D03*
Y-208453D03*
Y-206485D03*
Y-204516D03*
Y-202548D03*
Y-200579D03*
Y-198611D03*
Y-196642D03*
Y-194674D03*
Y-192705D03*
Y-190737D03*
Y-188768D03*
Y-186800D03*
Y-184831D03*
Y-182863D03*
Y-180894D03*
Y-178926D03*
Y-176957D03*
Y-174989D03*
Y-173020D03*
Y-171052D03*
Y-169083D03*
Y-167115D03*
Y-165146D03*
G54D58*
X170805Y58989D03*
Y57021D03*
Y55052D03*
Y53084D03*
X180332D03*
Y55052D03*
Y57021D03*
Y58989D03*
G54D68*
X150395Y-9127D03*
G54D59*
X173600Y51272D03*
X175568D03*
X177537D03*
Y60800D03*
X175568D03*
X173600D03*
G54D69*
X146561Y-599D03*
X149120D03*
X151680D03*
X154239D03*
Y-13001D03*
X151680D03*
X149120D03*
X173439Y27799D03*
X170880D03*
X168320D03*
X165761D03*
Y40201D03*
X168320D03*
X170880D03*
M02*
