G04 ================== begin FILE IDENTIFICATION RECORD ==================*
G04 Layout Name:  RK_SAPPHIRE_SOCBOARD_RK3399_LPDDR3D178P232SD8_V12_20161110_final_lint.brd*
G04 Film Name:    PAST_TOP*
G04 File Format:  Gerber RS274X*
G04 File Origin:  Cadence Allegro 16.6-S050*
G04 Origin Date:  Fri Nov 11 15:52:08 2016*
G04 *
G04 Layer:  PIN/PASTEMASK_TOP*
G04 Layer:  PACKAGE GEOMETRY/PASTEMASK_TOP*
G04 Layer:  BOARD GEOMETRY/OUTLINE*
G04 *
G04 Offset:    (0.000 0.000)*
G04 Mirror:    No*
G04 Mode:      Positive*
G04 Rotation:  0*
G04 FullContactRelief:  No*
G04 UndefLineWidth:     5.000*
G04 ================== end FILE IDENTIFICATION RECORD ====================*
%FSLAX25Y25*MOIN*%
%IR0*IPPOS*OFA0.00000B0.00000*MIA0B0*SFA1.00000B1.00000*%
%AMMACRO49*
4,1,9,-.012524,-.008142,
-.009024,-.008142,
-.008878,-.008142,
-.000075,-.016929,
.008717,-.008142,
.009878,-.008142,
.012528,-.008142,
.012528,.016929,
-.012524,.016929,
-.012524,-.008142,
0.0*
%
%ADD49MACRO49*%
%AMMACRO51*
4,1,9,-.008142,.012524,
-.008142,.009024,
-.008142,.008878,
-.016929,.000075,
-.008142,-.008717,
-.008142,-.009878,
-.008142,-.012528,
.016929,-.012528,
.016929,.012524,
-.008142,.012524,
0.0*
%
%ADD51MACRO51*%
%ADD72R,.102358X.011811*%
%ADD42R,.173228X.173228*%
%AMMACRO60*
21,1,.025591,.031496,0.0,0.0,135.*%
%ADD60MACRO60*%
%ADD35O,.005906X.031496*%
%ADD31R,.133858X.051181*%
%ADD32R,.011811X.009839*%
%ADD66R,.009839X.011811*%
%ADD37R,.031496X.005906*%
%ADD36R,.005906X.031496*%
%ADD38R,.19685X.19685*%
%ADD39O,.007874X.031496*%
%ADD73O,.137795X.059055*%
%ADD58R,.026772X.007874*%
%ADD41R,.031496X.007874*%
%ADD40R,.007874X.031496*%
%ADD16R,.070866X.177165*%
%ADD15R,.009843X.027559*%
%ADD14R,.027559X.009843*%
%ADD26C,.011811*%
%ADD27O,.023622X.043307*%
%ADD28R,.023622X.043307*%
%ADD12R,.051181X.037402*%
%ADD13R,.037402X.051181*%
%ADD70O,.025591X.037402*%
%ADD69C,.025591*%
%ADD65C,.07087*%
%ADD21C,.03937*%
%ADD44R,.047244X.023622*%
%ADD57C,.012795*%
%AMMACRO56*
21,1,.021654,.021654,0.0,0.0,45.*%
%ADD56MACRO56*%
%ADD20R,.023622X.031496*%
%ADD52R,.031496X.023622*%
%ADD23R,.01969X.0185*%
%ADD11R,.021654X.021654*%
%ADD67R,.027559X.011811*%
%ADD29R,.043307X.031496*%
%ADD71R,.011811X.019685*%
%AMMACRO63*
21,1,.009839,.011811,0.0,0.0,135.*%
%ADD63MACRO63*%
%AMMACRO59*
21,1,.055118,.047244,0.0,0.0,45.*%
%ADD59MACRO59*%
%ADD43R,.047244X.055118*%
%ADD24R,.035433X.031496*%
%ADD34R,.031496X.035433*%
%ADD25C,.027559*%
%ADD62R,.047244X.03937*%
%AMMACRO22*
4,1,8,-.04833,.04754,
-.04833,.02468,
-.05317,.02468,
-.05317,-.04754,
.05317,-.04754,
.05317,.02161,
-.0286,.02161,
-.0286,.04754,
-.04833,.04754,
0.0*
%
%ADD22MACRO22*%
%ADD19R,.03937X.03937*%
%AMMACRO61*
21,1,.025591,.031496,0.0,0.0,45.*%
%ADD61MACRO61*%
%ADD17R,.043307X.070866*%
%ADD47R,.025591X.031496*%
%ADD45R,.047244X.059055*%
%ADD33R,.086614X.086614*%
%ADD30R,.035433X.027559*%
%ADD68O,.059059X.035429*%
%ADD74O,.098425X.059055*%
%AMMACRO55*
21,1,.019685,.019685,0.0,0.0,45.*%
%ADD55MACRO55*%
%ADD10R,.019685X.019685*%
%ADD64R,.029528X.015748*%
%AMMACRO48*
4,1,9,-.01252,-.017094,
.01252,-.017094,
.01252,.007846,
.009209,.007846,
.00902,.007846,
-.000232,.017094,
-.00948,.007846,
-.009661,.007846,
-.01252,.007846,
-.01252,-.017094,
0.0*
%
%ADD48MACRO48*%
%AMMACRO50*
4,1,9,-.017094,.01252,
-.017094,-.01252,
.007846,-.01252,
.007846,-.009209,
.007846,-.00902,
.017094,.000232,
.007846,.00948,
.007846,.009661,
.007846,.01252,
-.017094,.01252,
0.0*
%
%ADD50MACRO50*%
%ADD46R,.031496X.037992*%
%ADD18R,.059055X.098425*%
%ADD54R,.07874X.027559*%
%ADD53R,.027559X.07874*%
%ADD75C,.005*%
G75*
%LPD*%
G75*
G54D10*
X-101428Y-247600D03*
X-104972D03*
X-201200Y-220972D03*
Y-217428D03*
X-126628Y-180000D03*
X-130172D03*
X-133200Y-240572D03*
Y-237028D03*
X-71772Y-219600D03*
X-116172Y-231600D03*
X-112628D03*
X-71372Y-233200D03*
X-181028Y-133600D03*
X-184572D03*
X-73772Y-87886D03*
X-70228D03*
Y-96286D03*
X-73772D03*
X-160572Y-33200D03*
X-157028D03*
X-144000Y-36972D03*
Y-33428D03*
X-160572Y-37200D03*
X-157028D03*
X-148628D03*
X-152172D03*
X-140000Y-33428D03*
Y-36972D03*
X-138000Y77828D03*
Y81372D03*
X-134400D03*
Y77828D03*
X-108228Y54000D03*
X-111772D03*
X-136000Y45828D03*
Y49372D03*
X-116400Y57372D03*
Y53828D03*
X-160572Y-41200D03*
X-157028D03*
X70628Y-231600D03*
X74172D03*
X97600Y-181772D03*
Y-178228D03*
X59372Y-190400D03*
X55828D03*
X98628Y-195200D03*
X102172D03*
X131428Y-143600D03*
X134972D03*
X-24572Y-225600D03*
X-21028D03*
X-24572Y-229600D03*
X-21028D03*
X-50000Y-192172D03*
Y-188628D03*
X-6400Y-247828D03*
Y-251372D03*
X70628Y-236400D03*
X74172D03*
X76000Y-208972D03*
Y-205428D03*
X55828Y-194800D03*
X59372D03*
X84400Y-208972D03*
Y-205428D03*
X55828Y-186000D03*
X59372D03*
X-52628Y-240000D03*
X-56172D03*
X-11828Y-224800D03*
X-15372D03*
X-68228Y-219600D03*
X88400Y-205428D03*
Y-208972D03*
X45372Y-176800D03*
X41828D03*
X45372Y-189200D03*
X41828D03*
X92800Y-205428D03*
Y-208972D03*
X59372Y-177200D03*
X55828D03*
X80400Y-205428D03*
Y-208972D03*
X55828Y-181600D03*
X59372D03*
X55828Y-198800D03*
X59372D03*
X55828Y-203200D03*
X59372D03*
X98628Y-199200D03*
X102172D03*
X-67828Y-233200D03*
X24000Y-219028D03*
Y-222572D03*
X72000Y-208972D03*
Y-205428D03*
X24000Y-227828D03*
Y-231372D03*
X102112Y-203442D03*
X98568D03*
X59372Y-207600D03*
X55828D03*
X45372Y-180800D03*
X41828D03*
X45372Y-185200D03*
X41828D03*
X45372Y-201600D03*
X41828D03*
X45372Y-197600D03*
X41828D03*
X45372Y-172800D03*
X41828D03*
X45372Y-193600D03*
X41828D03*
X117428Y-231200D03*
X120972D03*
X86972Y-95886D03*
X83428D03*
Y-99886D03*
X86972D03*
X31200Y-111028D03*
Y-114572D03*
X-63600Y-106972D03*
Y-103428D03*
X31200Y-106972D03*
Y-103428D03*
X-63600Y-111428D03*
Y-114972D03*
X96228Y-23600D03*
X99772D03*
X91772D03*
X88228D03*
X80628D03*
X84172D03*
X6800Y50628D03*
Y54172D03*
X133428Y-86800D03*
X136972D03*
X104628Y76000D03*
X108172D03*
X104628Y72000D03*
X108172D03*
X104628Y83600D03*
X108172D03*
X104628Y87600D03*
X108172D03*
X-54000Y31828D03*
Y35372D03*
X8628Y76000D03*
X12172D03*
X8628Y72000D03*
X12172D03*
X11200Y82228D03*
Y85772D03*
X7200Y82228D03*
Y85772D03*
X116628Y-34400D03*
X120172D03*
X11600Y53828D03*
Y57372D03*
X127828Y61600D03*
X131372D03*
X24000Y95828D03*
Y99372D03*
X28400D03*
Y95828D03*
X21200Y111828D03*
Y115372D03*
X112400Y110228D03*
Y113772D03*
X73600Y113372D03*
Y109828D03*
X169200Y8972D03*
Y5428D03*
X173200Y8972D03*
Y5428D03*
G54D11*
X-71372Y-229200D03*
X-122172Y-254000D03*
X-118628D03*
X-89600Y-211428D03*
Y-214972D03*
X-116572Y-226400D03*
X-113028D03*
X-137200Y-237028D03*
Y-240572D03*
X-116572Y-222400D03*
X-113028D03*
X-71372Y-225200D03*
X-70228Y-91886D03*
X-73772D03*
X-125428Y81600D03*
X-128972D03*
X-148628Y-32800D03*
X-152172D03*
X-126228Y76400D03*
X-129772D03*
X-153828Y53200D03*
X-157372D03*
X-158972Y74800D03*
X-155428D03*
X-108228Y58000D03*
X-111772D03*
X-122000Y110972D03*
Y107428D03*
X-118000Y110972D03*
Y107428D03*
X-113600Y110972D03*
Y107428D03*
X-140800Y109772D03*
Y106228D03*
X-136800Y109772D03*
Y106228D03*
X-83600Y110972D03*
Y107428D03*
X101600Y-181772D03*
Y-178228D03*
Y-186628D03*
Y-190172D03*
X68000Y-205428D03*
Y-208972D03*
X-67828Y-229200D03*
X-19772Y-186000D03*
X-16228D03*
X-19772Y-199200D03*
X-16228D03*
X-24572Y-233600D03*
X-21028D03*
X44000Y-232228D03*
Y-235772D03*
X49028Y-215600D03*
X52572D03*
X-38800Y-188628D03*
Y-192172D03*
X-16800Y-247828D03*
Y-251372D03*
X19028Y-207600D03*
X22572D03*
X28400Y-227828D03*
Y-231372D03*
X135600Y-209772D03*
Y-206228D03*
X131428Y-139600D03*
X134972D03*
X35372Y-211600D03*
X31828D03*
X34972Y-201600D03*
X31428D03*
X-62800Y-241372D03*
Y-237828D03*
X-58000Y-188628D03*
Y-192172D03*
X-54000Y-188628D03*
Y-192172D03*
X-42000Y-188628D03*
Y-192172D03*
X-66000Y-188628D03*
Y-192172D03*
X-46000D03*
Y-188628D03*
X-67828Y-225200D03*
X-34800Y-188628D03*
Y-192172D03*
X-62000Y-188628D03*
Y-192172D03*
X-30800Y-188628D03*
Y-192172D03*
X117428Y-235200D03*
X120972D03*
X83028Y-103886D03*
X86572D03*
X8628Y68000D03*
X12172D03*
X118972Y59200D03*
X115428D03*
X108172Y94000D03*
X104628D03*
X108172Y98000D03*
X104628D03*
X32800Y99772D03*
Y96228D03*
X25828Y116400D03*
X29372D03*
X100400Y112972D03*
Y109428D03*
X132800Y112972D03*
Y109428D03*
X3200Y113772D03*
Y110228D03*
X142800Y112972D03*
Y109428D03*
X165200Y5428D03*
Y8972D03*
X185428Y5200D03*
X188972D03*
X156972Y55200D03*
X153428D03*
G54D20*
X-76400Y-238876D03*
Y-248324D03*
X-82800Y-238876D03*
Y-248324D03*
X-11600Y-242076D03*
Y-251524D03*
G54D30*
X-141340Y72959D03*
Y67841D03*
X-133860Y70400D03*
X11460Y-232641D03*
Y-237759D03*
X18940Y-235200D03*
G54D21*
X-83600Y-203200D03*
X-130800Y-123200D03*
X-156800Y10400D03*
X-44400Y-250800D03*
X120800Y-18400D03*
G54D12*
X-96000Y-209952D03*
Y-216448D03*
X-104800Y-209952D03*
Y-216448D03*
X-138400Y-164448D03*
Y-157952D03*
X-155200Y-25648D03*
Y-19152D03*
X-128800Y110848D03*
Y104352D03*
X-107200Y112048D03*
Y105552D03*
X-90000Y111648D03*
Y105152D03*
X-98400Y111648D03*
Y105152D03*
X-36800Y-246448D03*
Y-239952D03*
X-27600Y-246448D03*
Y-239952D03*
X-2800Y-208048D03*
Y-201552D03*
X2000Y-222752D03*
Y-229248D03*
X142400Y-210448D03*
Y-203952D03*
X139600Y65648D03*
Y59152D03*
X169900D03*
Y65648D03*
X161600Y59152D03*
Y65648D03*
G54D22*
X-141205Y-179273D03*
G54D13*
X-171552Y-204000D03*
X-178048D03*
X-124048Y-247600D03*
X-117552D03*
X-124048Y-239200D03*
X-117552D03*
X-77648Y-199600D03*
X-71152D03*
X-78048Y-191200D03*
X-71552D03*
X-153552Y59600D03*
X-160048D03*
X-158048Y81600D03*
X-151552D03*
X-108352Y64800D03*
X-114848D03*
G54D40*
X86687Y-176189D03*
X85112D03*
X83537D03*
X81962D03*
X80387D03*
X78813D03*
X77238D03*
X75663D03*
X74088D03*
X72513D03*
X70939D03*
Y-199811D03*
X72513D03*
X74088D03*
X75663D03*
X77238D03*
X78813D03*
X80387D03*
X81962D03*
X83537D03*
X85112D03*
X86687D03*
X88261D03*
G54D31*
X-151600Y-6534D03*
Y1734D03*
G54D50*
X116367Y-239517D03*
G54D23*
X-145039Y-187801D03*
X-142480D03*
X-139920D03*
X-137361D03*
Y-175399D03*
X-139920D03*
X-142480D03*
G54D14*
X-121891Y-229353D03*
Y-227384D03*
Y-225416D03*
Y-223447D03*
X-133309D03*
Y-225416D03*
Y-227384D03*
Y-229353D03*
G54D41*
X67789Y-179339D03*
Y-180913D03*
Y-182488D03*
Y-184063D03*
Y-185638D03*
Y-187213D03*
Y-188787D03*
Y-190362D03*
Y-191937D03*
Y-193512D03*
Y-195087D03*
Y-196661D03*
X91411D03*
Y-195087D03*
Y-193512D03*
Y-191937D03*
Y-190362D03*
Y-188787D03*
Y-187213D03*
Y-185638D03*
Y-184063D03*
Y-182488D03*
Y-180913D03*
Y-179339D03*
G54D32*
X-139600Y-9483D03*
Y-7317D03*
G54D33*
X-143600Y18400D03*
X-143711Y45110D03*
X137200Y-250000D03*
X110490Y-250111D03*
X10400Y-250000D03*
X37110Y-249889D03*
X60400Y-250000D03*
X87110Y-249889D03*
G54D24*
X-138800Y62356D03*
Y56844D03*
X-5200Y-222844D03*
Y-228356D03*
X49200Y-232044D03*
Y-237556D03*
X95600Y113156D03*
Y107644D03*
X8000Y113156D03*
Y107644D03*
X128000Y112756D03*
Y107244D03*
X138000Y112756D03*
Y107244D03*
G54D15*
X-129569Y-222660D03*
G54D60*
X96018Y-38018D03*
X91982Y-33982D03*
G54D42*
X79600Y-188000D03*
G54D51*
X120531Y-239593D03*
G54D61*
X-62418Y-36418D03*
X-58382Y-32382D03*
G54D25*
X-126800Y-62800D03*
X-122000D03*
X-116800D03*
X-104000Y74400D03*
X-112400Y-63200D03*
X-131200Y-62800D03*
X47600Y68400D03*
X51600D03*
X128000Y-68800D03*
G54D34*
X63956Y-237600D03*
X58444D03*
X17644Y-212800D03*
X23156D03*
X35156Y-206800D03*
X29644D03*
X121244Y-13200D03*
X126756D03*
X121244Y-2000D03*
X126756D03*
X121244Y-7600D03*
X126756D03*
X112356Y3600D03*
X106844D03*
X36756Y86000D03*
X31244D03*
X121244Y3600D03*
X126756D03*
G54D43*
X114946Y-188331D03*
Y-179669D03*
X108254D03*
Y-188331D03*
G54D52*
X55276Y-231600D03*
X64724D03*
G54D70*
X192180Y50173D03*
G54D16*
X-128490Y-199600D03*
X-114710D03*
G54D53*
X-18134Y-208400D03*
X-9866D03*
X-18134Y-218000D03*
X-9866D03*
G54D17*
X-78718Y-210800D03*
X-68482D03*
G54D62*
X95200Y-85663D03*
Y-93537D03*
G54D71*
X186077Y22732D03*
Y31079D03*
Y40921D03*
Y49307D03*
G54D44*
X-19152Y-194385D03*
Y-190842D03*
G54D26*
X-116490Y2575D03*
X-112553D03*
X-106647D03*
X-102710D03*
X-120427Y606D03*
X-98773D03*
X-122395Y-3331D03*
X-96805D03*
X-122395Y-11205D03*
X-120427D03*
X-118458D03*
X-116490D03*
X-114521D03*
X-112553D03*
X-110584D03*
X-108616D03*
X-106647D03*
X-104679D03*
X-102710D03*
X-100742D03*
X-98773D03*
X-96805D03*
X-122395Y-13173D03*
X-120427D03*
X-118458D03*
X-116490D03*
X-114521D03*
X-112553D03*
X-110584D03*
X-108616D03*
X-106647D03*
X-104679D03*
X-102710D03*
X-100742D03*
X-98773D03*
X-96805D03*
X-122395Y-15142D03*
X-120427D03*
X-118458D03*
X-116490D03*
X-114521D03*
X-112553D03*
X-110584D03*
X-108616D03*
X-106647D03*
X-104679D03*
X-102710D03*
X-100742D03*
X-98773D03*
X-96805D03*
X-122395Y-17110D03*
X-120427D03*
X-118458D03*
X-116490D03*
X-100742D03*
X-98773D03*
X-96805D03*
X-122395Y-19079D03*
X-120427D03*
X-118458D03*
X-114521D03*
X-112553D03*
X-110584D03*
X-108616D03*
X-106647D03*
X-104679D03*
X-100742D03*
X-98773D03*
X-96805D03*
X-122395Y-21047D03*
X-120427D03*
X-118458D03*
X-114521D03*
X-104679D03*
X-100742D03*
X-98773D03*
X-96805D03*
X-122395Y-23016D03*
X-120427D03*
X-118458D03*
X-114521D03*
X-104679D03*
X-100742D03*
X-98773D03*
X-96805D03*
X-122395Y-24984D03*
X-120427D03*
X-118458D03*
X-114521D03*
X-104679D03*
X-100742D03*
X-98773D03*
X-96805D03*
X-122395Y-26953D03*
X-120427D03*
X-118458D03*
X-114521D03*
X-104679D03*
X-100742D03*
X-98773D03*
X-96805D03*
X-122395Y-28921D03*
X-120427D03*
X-118458D03*
X-114521D03*
X-112553D03*
X-110584D03*
X-108616D03*
X-106647D03*
X-104679D03*
X-100742D03*
X-98773D03*
X-96805D03*
X-122395Y-30890D03*
X-120427D03*
X-118458D03*
X-100742D03*
X-98773D03*
X-96805D03*
X-122395Y-32858D03*
X-120427D03*
X-118458D03*
X-116490D03*
X-114521D03*
X-112553D03*
X-110584D03*
X-108616D03*
X-106647D03*
X-104679D03*
X-102710D03*
X-100742D03*
X-98773D03*
X-96805D03*
X-122395Y-34827D03*
X-120427D03*
X-118458D03*
X-116490D03*
X-114521D03*
X-112553D03*
X-110584D03*
X-108616D03*
X-106647D03*
X-104679D03*
X-102710D03*
X-100742D03*
X-98773D03*
X-96805D03*
X-122395Y-36795D03*
X-120427D03*
X-118458D03*
X-116490D03*
X-114521D03*
X-112553D03*
X-110584D03*
X-108616D03*
X-106647D03*
X-104679D03*
X-102710D03*
X-100742D03*
X-98773D03*
X-96805D03*
X-122395Y-44669D03*
X-96805D03*
X-120427Y-48606D03*
X-98773D03*
X-116490Y-50575D03*
X-112553D03*
X-106647D03*
X-102710D03*
X-57108Y-115127D03*
Y-111977D03*
Y-108827D03*
Y-105678D03*
Y-102528D03*
Y-99379D03*
Y-93079D03*
Y-89930D03*
Y-86780D03*
Y-83631D03*
Y-80481D03*
Y-77331D03*
X-54549Y-115127D03*
Y-111977D03*
Y-108827D03*
Y-105678D03*
Y-102528D03*
Y-99379D03*
Y-93079D03*
Y-89930D03*
Y-86780D03*
Y-83631D03*
Y-80481D03*
Y-77331D03*
X-51990Y-111977D03*
Y-108827D03*
Y-105678D03*
Y-102528D03*
Y-99379D03*
Y-93079D03*
Y-89930D03*
Y-86780D03*
Y-83631D03*
Y-80481D03*
X-49431Y-111977D03*
Y-108827D03*
Y-105678D03*
Y-102528D03*
Y-99379D03*
Y-93079D03*
Y-89930D03*
Y-86780D03*
Y-83631D03*
Y-80481D03*
X-46872Y-111977D03*
Y-108827D03*
Y-105678D03*
Y-102528D03*
Y-99379D03*
Y-93079D03*
Y-89930D03*
Y-86780D03*
Y-83631D03*
Y-80481D03*
X-44313Y-111977D03*
Y-108827D03*
Y-105678D03*
Y-102528D03*
Y-99379D03*
Y-93079D03*
Y-89930D03*
Y-86780D03*
Y-83631D03*
Y-80481D03*
X-41754Y-111977D03*
Y-108827D03*
Y-105678D03*
Y-102528D03*
Y-99379D03*
Y-93079D03*
Y-89930D03*
Y-86780D03*
Y-83631D03*
Y-80481D03*
X-39195Y-111977D03*
Y-108827D03*
Y-105678D03*
Y-102528D03*
Y-99379D03*
Y-93079D03*
Y-89930D03*
Y-86780D03*
Y-83631D03*
Y-80481D03*
X-36636Y-111977D03*
Y-108827D03*
Y-105678D03*
Y-102528D03*
Y-99379D03*
Y-93079D03*
Y-89930D03*
Y-86780D03*
Y-83631D03*
Y-80481D03*
X-34077Y-111977D03*
Y-108827D03*
Y-105678D03*
Y-102528D03*
Y-99379D03*
Y-93079D03*
Y-89930D03*
Y-86780D03*
Y-83631D03*
Y-80481D03*
X-31518Y-111977D03*
Y-108827D03*
Y-105678D03*
Y-102528D03*
Y-99379D03*
Y-93079D03*
Y-89930D03*
Y-86780D03*
Y-83631D03*
Y-80481D03*
X-28959Y-111977D03*
Y-108827D03*
Y-105678D03*
Y-102528D03*
Y-99379D03*
Y-93079D03*
Y-89930D03*
Y-86780D03*
Y-83631D03*
Y-80481D03*
X-26400Y-111977D03*
Y-108827D03*
Y-105678D03*
Y-102528D03*
Y-99379D03*
Y-93079D03*
Y-89930D03*
Y-86780D03*
Y-83631D03*
Y-80481D03*
X-23841Y-111977D03*
Y-108827D03*
Y-105678D03*
Y-102528D03*
Y-99379D03*
Y-93079D03*
Y-89930D03*
Y-86780D03*
Y-83631D03*
Y-80481D03*
X-21282Y-111977D03*
Y-108827D03*
Y-105678D03*
Y-102528D03*
Y-99379D03*
Y-93079D03*
Y-89930D03*
Y-86780D03*
Y-83631D03*
Y-80481D03*
X-18723Y-115127D03*
Y-111977D03*
Y-108827D03*
Y-105678D03*
Y-102528D03*
Y-99379D03*
Y-93079D03*
Y-89930D03*
Y-86780D03*
Y-83631D03*
Y-80481D03*
Y-77331D03*
X-16164Y-115127D03*
Y-111977D03*
Y-108827D03*
Y-105678D03*
Y-102528D03*
Y-99379D03*
Y-93079D03*
Y-89930D03*
Y-86780D03*
Y-83631D03*
Y-80481D03*
Y-77331D03*
X36428Y-115346D03*
Y-112196D03*
Y-109046D03*
Y-105897D03*
Y-102747D03*
Y-99598D03*
Y-93298D03*
Y-90149D03*
Y-86999D03*
Y-83850D03*
Y-80700D03*
Y-77550D03*
X38987Y-115346D03*
Y-112196D03*
Y-109046D03*
Y-105897D03*
Y-102747D03*
Y-99598D03*
Y-93298D03*
Y-90149D03*
Y-86999D03*
Y-83850D03*
Y-80700D03*
Y-77550D03*
X41546Y-112196D03*
Y-109046D03*
Y-105897D03*
Y-102747D03*
Y-99598D03*
Y-93298D03*
Y-90149D03*
Y-86999D03*
Y-83850D03*
Y-80700D03*
X44105Y-112196D03*
Y-109046D03*
Y-105897D03*
Y-102747D03*
Y-99598D03*
Y-93298D03*
Y-90149D03*
Y-86999D03*
Y-83850D03*
Y-80700D03*
X46664Y-112196D03*
Y-109046D03*
Y-105897D03*
Y-102747D03*
Y-99598D03*
Y-93298D03*
Y-90149D03*
Y-86999D03*
Y-83850D03*
Y-80700D03*
X49223Y-112196D03*
Y-109046D03*
Y-105897D03*
Y-102747D03*
Y-99598D03*
Y-93298D03*
Y-90149D03*
Y-86999D03*
Y-83850D03*
Y-80700D03*
X51782Y-112196D03*
Y-109046D03*
Y-105897D03*
Y-102747D03*
Y-99598D03*
Y-93298D03*
Y-90149D03*
Y-86999D03*
Y-83850D03*
Y-80700D03*
X54341Y-112196D03*
Y-109046D03*
Y-105897D03*
Y-102747D03*
Y-99598D03*
Y-93298D03*
Y-90149D03*
Y-86999D03*
Y-83850D03*
Y-80700D03*
X56900Y-112196D03*
Y-109046D03*
Y-105897D03*
Y-102747D03*
Y-99598D03*
Y-93298D03*
Y-90149D03*
Y-86999D03*
Y-83850D03*
Y-80700D03*
X59459Y-112196D03*
Y-109046D03*
Y-105897D03*
Y-102747D03*
Y-99598D03*
Y-93298D03*
Y-90149D03*
Y-86999D03*
Y-83850D03*
Y-80700D03*
X62018Y-112196D03*
Y-109046D03*
Y-105897D03*
Y-102747D03*
Y-99598D03*
Y-93298D03*
Y-90149D03*
Y-86999D03*
Y-83850D03*
Y-80700D03*
X64577Y-112196D03*
Y-109046D03*
Y-105897D03*
Y-102747D03*
Y-99598D03*
Y-93298D03*
Y-90149D03*
Y-86999D03*
Y-83850D03*
Y-80700D03*
X67136Y-112196D03*
Y-109046D03*
Y-105897D03*
Y-102747D03*
Y-99598D03*
Y-93298D03*
Y-90149D03*
Y-86999D03*
Y-83850D03*
Y-80700D03*
X69695Y-112196D03*
Y-109046D03*
Y-105897D03*
Y-102747D03*
Y-99598D03*
Y-93298D03*
Y-90149D03*
Y-86999D03*
Y-83850D03*
Y-80700D03*
X72254Y-112196D03*
Y-109046D03*
Y-105897D03*
Y-102747D03*
Y-99598D03*
Y-93298D03*
Y-90149D03*
Y-86999D03*
Y-83850D03*
Y-80700D03*
X74813Y-115346D03*
Y-112196D03*
Y-109046D03*
Y-105897D03*
Y-102747D03*
Y-99598D03*
Y-93298D03*
Y-90149D03*
Y-86999D03*
Y-83850D03*
Y-80700D03*
Y-77550D03*
X77372Y-115346D03*
Y-112196D03*
Y-109046D03*
Y-105897D03*
Y-102747D03*
Y-99598D03*
Y-93298D03*
Y-90149D03*
Y-86999D03*
Y-83850D03*
Y-80700D03*
Y-77550D03*
G54D35*
X-32976Y-201420D03*
G54D54*
X-46000Y-245334D03*
Y-237066D03*
G54D18*
X-152882Y-204000D03*
X-163118D03*
G54D45*
X5651Y-192574D03*
G54D63*
X-52034Y-3566D03*
X-53566Y-2034D03*
X-54034Y-5566D03*
X-55566Y-4034D03*
X-60034Y-11566D03*
X-61566Y-10034D03*
X-58034Y-9566D03*
X-59566Y-8034D03*
X-48034Y434D03*
X-49566Y1966D03*
X-46034Y2434D03*
X-47566Y3966D03*
X-50034Y-1566D03*
X-51566Y-34D03*
X-56034Y-7566D03*
X-57566Y-6034D03*
G54D27*
X-140000Y-16000D03*
G54D36*
X-34354Y-201420D03*
X-35732D03*
X-37110D03*
X-38488D03*
X-39866D03*
X-41244D03*
X-42622D03*
X-44000D03*
X-45378D03*
X-46756D03*
X-48134D03*
X-49512D03*
X-50890D03*
X-52268D03*
X-53646D03*
X-55024D03*
Y-228980D03*
X-53646D03*
X-52268D03*
X-50890D03*
X-49512D03*
X-48134D03*
X-46756D03*
X-45378D03*
X-44000D03*
X-42622D03*
X-41244D03*
X-39866D03*
X-38488D03*
X-37110D03*
X-35732D03*
X-34354D03*
X-32976D03*
G54D72*
X187200Y-17600D03*
Y-19569D03*
Y-21537D03*
Y-23506D03*
Y-25474D03*
Y-27443D03*
Y-29411D03*
Y-31380D03*
Y-33348D03*
Y-35317D03*
Y-37285D03*
Y-39254D03*
Y-41222D03*
Y-43191D03*
Y-45159D03*
Y-47128D03*
Y-49096D03*
Y-51065D03*
Y-53033D03*
G54D46*
X42000Y-223950D03*
Y-217650D03*
X33600Y-223950D03*
Y-217650D03*
G54D64*
X119244Y92800D03*
X122356D03*
X170044Y-22400D03*
X173156D03*
X170444Y-35200D03*
X173556D03*
X170444Y-47200D03*
X173556D03*
X171244Y30000D03*
X174356D03*
X168844Y45200D03*
X171956D03*
G54D55*
X-50453Y41547D03*
X-47947Y44053D03*
X-53253Y44347D03*
X-50747Y46853D03*
X-65147Y-41147D03*
X-67653Y-43653D03*
X-32453Y21947D03*
X-29947Y24453D03*
X-24347Y30053D03*
X-26853Y27547D03*
X-47653Y38747D03*
X-45147Y41253D03*
X-32696Y47058D03*
X-30190Y49564D03*
G54D19*
X-114113Y-214800D03*
X-128287D03*
X-68800Y-252287D03*
Y-238113D03*
X106113Y-28000D03*
X120287D03*
X159200Y-9087D03*
Y5087D03*
G54D28*
X-143937Y-16000D03*
X-147874D03*
Y-27024D03*
X-140000D03*
G54D73*
X190192Y-63860D03*
Y-6773D03*
G54D37*
X-57780Y-204176D03*
Y-205554D03*
Y-206932D03*
Y-208310D03*
Y-209688D03*
Y-211066D03*
Y-212444D03*
Y-213822D03*
Y-215200D03*
Y-216578D03*
Y-217956D03*
Y-219334D03*
Y-220712D03*
Y-222090D03*
Y-223468D03*
Y-224846D03*
Y-226224D03*
X-30220D03*
Y-224846D03*
Y-223468D03*
Y-222090D03*
Y-220712D03*
Y-219334D03*
Y-217956D03*
Y-216578D03*
Y-215200D03*
Y-213822D03*
Y-212444D03*
Y-211066D03*
Y-209688D03*
Y-208310D03*
Y-206932D03*
Y-205554D03*
Y-204176D03*
G54D74*
X213657Y-6773D03*
Y-63860D03*
G54D47*
X129546Y-134400D03*
X135254D03*
G54D29*
X-120201Y82329D03*
Y74849D03*
X-111539Y78589D03*
X-129931Y53340D03*
Y45860D03*
X-121269Y49600D03*
X142331Y-193340D03*
Y-185860D03*
X133669Y-189600D03*
X80069Y-230660D03*
Y-238140D03*
X88731Y-234400D03*
X18731Y-226540D03*
Y-219060D03*
X10069Y-222800D03*
X116469Y79740D03*
Y72260D03*
X125131Y76000D03*
X143269Y43740D03*
Y36260D03*
X151931Y40000D03*
G54D56*
X-35253Y24747D03*
X-32747Y27253D03*
X-27147Y32853D03*
X-29653Y30347D03*
X-29867Y44230D03*
X-27361Y46736D03*
X99147Y-42453D03*
X101653Y-39947D03*
X-63653Y-30853D03*
X-61147Y-28347D03*
G54D65*
X159600Y-250000D03*
X179600Y-250062D03*
G54D38*
X-44000Y-215200D03*
G54D75*
G01X-152018Y151186D02*
G02X-148819Y154385I3199J0D01*
G01X15278D01*
Y141378D01*
G03X19215I1969J0D01*
G01Y154385D01*
X167819D01*
G02X170812Y151392I0J-2993D01*
G01Y129989D01*
X166562D01*
G03Y124067I0J-2961D01*
G01X170825D01*
Y109450D01*
X192150D01*
Y154246D01*
X228150D01*
Y-259750D01*
X-217450D01*
Y154254D01*
X-173050D01*
Y109450D01*
X-152003D01*
Y111050D01*
Y113450D01*
Y124067D01*
X-147621D01*
G03Y129989I0J2961D01*
G01X-152018D01*
Y151186D01*
G54D48*
X130717Y-210833D03*
X-1683Y-250833D03*
G54D57*
X10000Y-65086D03*
X8191Y-63276D03*
X6381Y-61467D03*
X4572Y-59658D03*
X2762Y-57848D03*
X953Y-56039D03*
X-858Y-54228D03*
X-2667Y-52419D03*
X-4477Y-50609D03*
X-6286Y-48800D03*
X-8096Y-46990D03*
X-9905Y-45181D03*
X-11714Y-43371D03*
X-13524Y-41562D03*
X-15334Y-39752D03*
X-17143Y-37943D03*
X-18952Y-36133D03*
X-20762Y-34324D03*
X-22572Y-32514D03*
X-24381Y-30705D03*
X-26190Y-28896D03*
X-28000Y-27086D03*
X-29809Y-25277D03*
X-31619Y-23467D03*
X-33428Y-21658D03*
X-35239Y-19847D03*
X-37048Y-18038D03*
X-38858Y-16229D03*
X-40667Y-14419D03*
X-42476Y-12610D03*
X-44286Y-10800D03*
X11810Y-63276D03*
X13619Y-61467D03*
X15428Y-59658D03*
X17238Y-57848D03*
X19047Y-56039D03*
X20858Y-54228D03*
X22667Y-52419D03*
X24477Y-50609D03*
X26286Y-48800D03*
X28096Y-46990D03*
X29905Y-45181D03*
X31714Y-43371D03*
X33524Y-41562D03*
X35334Y-39752D03*
X37143Y-37943D03*
X38952Y-36133D03*
X40762Y-34324D03*
X42572Y-32514D03*
X44381Y-30705D03*
X46190Y-28896D03*
X48000Y-27086D03*
X49809Y-25277D03*
X51619Y-23467D03*
X53428Y-21658D03*
X55239Y-19847D03*
X57048Y-18038D03*
X58858Y-16229D03*
X60667Y-14419D03*
X62476Y-12610D03*
X64286Y-10800D03*
X10000Y-61467D03*
X8191Y-59658D03*
X6381Y-57848D03*
X4572Y-56039D03*
X2762Y-54229D03*
X952Y-52419D03*
X-858Y-50609D03*
X-2667Y-48800D03*
X-4477Y-46990D03*
X-6286Y-45181D03*
X-8096Y-43371D03*
X-9905Y-41562D03*
X-11714Y-39752D03*
X-13524Y-37943D03*
X-15334Y-36133D03*
X-17143Y-34324D03*
X-18952Y-32514D03*
X-20762Y-30705D03*
X-22572Y-28896D03*
X-24381Y-27086D03*
X-26190Y-25277D03*
X-28000Y-23467D03*
X-29809Y-21658D03*
X-31619Y-19848D03*
X-33429Y-18038D03*
X-35239Y-16229D03*
X-37048Y-14419D03*
X-38858Y-12610D03*
X-40667Y-10800D03*
X-42476Y-8990D03*
X11810Y-59658D03*
X10000Y-57848D03*
X8191Y-56039D03*
X6381Y-54229D03*
X4572Y-52420D03*
X952Y-48800D03*
X-858Y-46990D03*
X-4477Y-43371D03*
X-6286Y-41562D03*
X-9905Y-37943D03*
X-11714Y-36133D03*
X-15334Y-32514D03*
X-17143Y-30705D03*
X-20762Y-27086D03*
X-22572Y-25277D03*
X-26190Y-21658D03*
X-28000Y-19848D03*
X-31620Y-16229D03*
X-33429Y-14419D03*
X-35239Y-12610D03*
X-37048Y-10800D03*
X-38858Y-8990D03*
X-40667Y-7181D03*
X13619Y-57848D03*
X11810Y-56039D03*
X8191Y-52420D03*
X6381Y-50610D03*
X2761Y-46990D03*
X952Y-45181D03*
X-2667Y-41562D03*
X-4477Y-39752D03*
X-8096Y-36133D03*
X-9905Y-34324D03*
X-13524Y-30705D03*
X-15334Y-28896D03*
X-18952Y-25277D03*
X-20762Y-23467D03*
X-24381Y-19848D03*
X-26190Y-18039D03*
X-29810Y-14419D03*
X-31620Y-12610D03*
X-35239Y-8990D03*
X-37048Y-7181D03*
X-38858Y-5372D03*
X15428Y-56039D03*
X13619Y-54229D03*
X11810Y-52420D03*
X8191Y-48801D03*
X6380Y-46990D03*
X4571Y-45181D03*
X2761Y-43371D03*
X-858Y-39752D03*
X-2667Y-37943D03*
X-6286Y-34324D03*
X-8096Y-32514D03*
X-11714Y-28896D03*
X-13524Y-27086D03*
X-17143Y-23467D03*
X-18952Y-21658D03*
X-22572Y-18039D03*
X-24381Y-16229D03*
X-26190Y-14420D03*
X-28001Y-12610D03*
X-31620Y-8990D03*
X-33429Y-7181D03*
X-35239Y-5372D03*
X-37048Y-3562D03*
X17238Y-54229D03*
X15428Y-52420D03*
X13619Y-50610D03*
X11810Y-48801D03*
X8190Y-45181D03*
X6380Y-43371D03*
X4571Y-41562D03*
X952Y-37943D03*
X-858Y-36133D03*
X-4477Y-32514D03*
X-6286Y-30705D03*
X-9905Y-27086D03*
X-11714Y-25277D03*
X-15334Y-21658D03*
X-17143Y-19848D03*
X-20762Y-16229D03*
X-22572Y-14420D03*
X-24381Y-12610D03*
X-28001Y-8990D03*
X-29810Y-7181D03*
X-31620Y-5372D03*
X-33429Y-3562D03*
X-35239Y-1753D03*
X19048Y-52419D03*
X13620Y-46990D03*
X11810Y-45181D03*
X8191Y-41561D03*
X6381Y-39752D03*
X2762Y-36133D03*
X953Y-34323D03*
X-2666Y-30704D03*
X-4476Y-28895D03*
X-8095Y-25276D03*
X-9904Y-23466D03*
X-13523Y-19847D03*
X-15333Y-18038D03*
X-18952Y-14419D03*
X-20761Y-12610D03*
X-24381Y-8990D03*
X-26190Y-7180D03*
X-31619Y-1752D03*
X-33428Y58D03*
X20858Y-50609D03*
X19048Y-48800D03*
X17239Y-46990D03*
X15429Y-45181D03*
X13620Y-43371D03*
X11810Y-41561D03*
X8191Y-37942D03*
X6381Y-36133D03*
X4572Y-34323D03*
X2762Y-32514D03*
X953Y-30704D03*
X-857Y-28895D03*
X-2666Y-27085D03*
X-4476Y-25276D03*
X-6285Y-23466D03*
X-8095Y-21657D03*
X-9904Y-19847D03*
X-11714Y-18038D03*
X-13523Y-16229D03*
X-15333Y-14419D03*
X-17142Y-12610D03*
X-18952Y-10800D03*
X-20761Y-8990D03*
X-22572Y-7180D03*
X-24381Y-5371D03*
X-26190Y-3561D03*
X-28000Y-1752D03*
X-29809Y58D03*
X-31619Y1867D03*
X22667Y-48800D03*
X20858Y-46990D03*
X19048Y-45181D03*
X17239Y-43371D03*
X15429Y-41562D03*
X13619Y-39752D03*
X11810Y-37942D03*
X10000Y-36133D03*
X8191Y-34323D03*
X6381Y-32514D03*
X4572Y-30704D03*
X2762Y-28895D03*
X953Y-27085D03*
X-857Y-25276D03*
X-2666Y-23466D03*
X-4476Y-21657D03*
X-6285Y-19847D03*
X-8095Y-18038D03*
X-9904Y-16229D03*
X-11714Y-14419D03*
X-13523Y-12610D03*
X-15333Y-10800D03*
X-17142Y-8990D03*
X-18952Y-7181D03*
X-20762Y-5371D03*
X-22572Y-3561D03*
X-24381Y-1752D03*
X-26190Y58D03*
X-28000Y1867D03*
X-29809Y3677D03*
X24477Y-46990D03*
X13619Y-36133D03*
X11810Y-34323D03*
X10000Y-32514D03*
X8191Y-30704D03*
X6381Y-28895D03*
X4572Y-27085D03*
X2762Y-25276D03*
X953Y-23466D03*
X-857Y-21657D03*
X-2666Y-19847D03*
X-4476Y-18038D03*
X-6285Y-16229D03*
X-8095Y-14419D03*
X-9904Y-12610D03*
X-11714Y-10800D03*
X-13523Y-8990D03*
X-15333Y-7181D03*
X-26190Y3677D03*
X-28000Y5486D03*
X26286Y-45181D03*
X24477Y-43371D03*
X22667Y-41562D03*
X20858Y-39752D03*
X19048Y-37943D03*
X17238Y-36133D03*
X15428Y-34323D03*
X13619Y-32514D03*
X11810Y-30704D03*
X10000Y-28895D03*
X8191Y-27085D03*
X6381Y-25276D03*
X4572Y-23466D03*
X2762Y-21657D03*
X953Y-19847D03*
X-857Y-18038D03*
X-2666Y-16229D03*
X-4476Y-14419D03*
X-6285Y-12610D03*
X-8095Y-10800D03*
X-9904Y-8990D03*
X-11714Y-7181D03*
X-13523Y-5372D03*
X-15333Y-3562D03*
X-17143Y-1752D03*
X-18952Y58D03*
X-20762Y1867D03*
X-22572Y3677D03*
X-24381Y5486D03*
X-26190Y7296D03*
X28096Y-43371D03*
X26286Y-41562D03*
X24477Y-39752D03*
X22667Y-37943D03*
X20858Y-36133D03*
X19047Y-34323D03*
X17238Y-32514D03*
X15428Y-30704D03*
X13619Y-28895D03*
X11810Y-27085D03*
X10000Y-25276D03*
X8191Y-23466D03*
X6381Y-21657D03*
X4572Y-19847D03*
X2762Y-18038D03*
X953Y-16229D03*
X-857Y-14419D03*
X-2666Y-12610D03*
X-4476Y-10800D03*
X-6285Y-8990D03*
X-8095Y-7181D03*
X-9904Y-5372D03*
X-11714Y-3562D03*
X-13523Y-1753D03*
X-15334Y58D03*
X-17143Y1867D03*
X-18952Y3677D03*
X-20762Y5486D03*
X-22572Y7296D03*
X-24381Y9105D03*
X29905Y-41562D03*
X19047Y-30704D03*
X17238Y-28895D03*
X15428Y-27085D03*
X13619Y-25276D03*
X11810Y-23466D03*
X10000Y-21657D03*
X8191Y-19847D03*
X6381Y-18038D03*
X4572Y-16229D03*
X2762Y-14419D03*
X953Y-12610D03*
X-857Y-10800D03*
X-2666Y-8990D03*
X-4476Y-7181D03*
X-6285Y-5372D03*
X-8095Y-3562D03*
X-9904Y-1753D03*
X-20762Y9105D03*
X-22572Y10914D03*
X31714Y-39752D03*
X29905Y-37943D03*
X28096Y-36133D03*
X26286Y-34324D03*
X24477Y-32514D03*
X22666Y-30704D03*
X20857Y-28895D03*
X19047Y-27085D03*
X17238Y-25276D03*
X15428Y-23466D03*
X13619Y-21657D03*
X11810Y-19847D03*
X10000Y-18038D03*
X8191Y-16229D03*
X6381Y-14419D03*
X4572Y-12610D03*
X2762Y-10800D03*
X953Y-8990D03*
X-857Y-7181D03*
X-2666Y-5372D03*
X-4476Y-3562D03*
X-6285Y-1753D03*
X-8095Y57D03*
X-9904Y1866D03*
X-11714Y3677D03*
X-13524Y5486D03*
X-15334Y7296D03*
X-17143Y9105D03*
X-18952Y10914D03*
X-20762Y12724D03*
X33524Y-37943D03*
X31714Y-36133D03*
X29905Y-34324D03*
X28096Y-32514D03*
X26286Y-30705D03*
X24476Y-28895D03*
X22666Y-27085D03*
X20857Y-25276D03*
X19047Y-23466D03*
X17238Y-21657D03*
X15428Y-19847D03*
X13619Y-18038D03*
X11810Y-16229D03*
X10000Y-14419D03*
X8191Y-12610D03*
X6381Y-10800D03*
X4572Y-8990D03*
X2762Y-7181D03*
X953Y-5372D03*
X-857Y-3562D03*
X-2666Y-1753D03*
X-4476Y57D03*
X-6285Y1866D03*
X-8095Y3676D03*
X-9905Y5486D03*
X-11714Y7296D03*
X-13524Y9105D03*
X-15334Y10914D03*
X-17143Y12724D03*
X-18952Y14534D03*
X35334Y-36133D03*
X24476Y-25276D03*
X22666Y-23466D03*
X20857Y-21657D03*
X19047Y-19847D03*
X17238Y-18038D03*
X15428Y-16229D03*
X13619Y-14419D03*
X11810Y-12610D03*
X10000Y-10800D03*
X8191Y-8990D03*
X6381Y-7181D03*
X4572Y-5372D03*
X2762Y-3562D03*
X953Y-1753D03*
X-857Y57D03*
X-2666Y1866D03*
X-4476Y3676D03*
X-15334Y14534D03*
X-17143Y16343D03*
X37143Y-34324D03*
X35334Y-32514D03*
X33524Y-30705D03*
X31714Y-28896D03*
X29905Y-27086D03*
X28095Y-25276D03*
X26285Y-23466D03*
X24476Y-21657D03*
X22666Y-19847D03*
X20857Y-18038D03*
X19047Y-16229D03*
X17238Y-14419D03*
X15428Y-12610D03*
X13619Y-10800D03*
X11810Y-8990D03*
X10000Y-7181D03*
X8191Y-5372D03*
X6381Y-3562D03*
X4572Y-1753D03*
X2762Y57D03*
X953Y1866D03*
X-857Y3676D03*
X-2666Y5485D03*
X-4476Y7295D03*
X-6286Y9105D03*
X-8096Y10914D03*
X-9905Y12724D03*
X-11714Y14534D03*
X-13524Y16343D03*
X-15334Y18153D03*
X38952Y-32514D03*
X37143Y-30705D03*
X35334Y-28896D03*
X33524Y-27086D03*
X31714Y-25277D03*
X29904Y-23466D03*
X28095Y-21657D03*
X26285Y-19847D03*
X24476Y-18038D03*
X22666Y-16229D03*
X20857Y-14419D03*
X19047Y-12610D03*
X17238Y-10800D03*
X15428Y-8990D03*
X13619Y-7181D03*
X11810Y-5372D03*
X10000Y-3562D03*
X8191Y-1753D03*
X6381Y57D03*
X4572Y1866D03*
X2762Y3676D03*
X953Y5485D03*
X-857Y7295D03*
X-2666Y9104D03*
X-4477Y10914D03*
X-6286Y12724D03*
X-8096Y14534D03*
X-9905Y16343D03*
X-11714Y18153D03*
X-13524Y19962D03*
X40762Y-30705D03*
X29904Y-19847D03*
X28095Y-18038D03*
X26285Y-16229D03*
X24476Y-14419D03*
X22666Y-12610D03*
X20857Y-10800D03*
X19047Y-8990D03*
X17238Y-7181D03*
X15428Y-5372D03*
X13619Y-3562D03*
X11810Y-1753D03*
X10000Y57D03*
X8191Y1866D03*
X6381Y3676D03*
X4572Y5485D03*
X2762Y7295D03*
X953Y9104D03*
X-9905Y19962D03*
X-11714Y21772D03*
X42572Y-28896D03*
X40762Y-27086D03*
X38952Y-25277D03*
X37143Y-23467D03*
X35334Y-21658D03*
X33523Y-19847D03*
X31714Y-18038D03*
X29904Y-16229D03*
X28095Y-14419D03*
X26285Y-12610D03*
X24476Y-10800D03*
X22666Y-8990D03*
X20857Y-7181D03*
X19047Y-5372D03*
X17238Y-3562D03*
X15428Y-1753D03*
X13619Y57D03*
X11810Y1866D03*
X10000Y3676D03*
X8191Y5485D03*
X6381Y7295D03*
X4572Y9104D03*
X2762Y10914D03*
X953Y12723D03*
X-858Y14534D03*
X-2667Y16343D03*
X-4477Y18153D03*
X-6286Y19962D03*
X-8096Y21772D03*
X-9905Y23581D03*
X44381Y-27086D03*
X42572Y-25277D03*
X40762Y-23467D03*
X38952Y-21658D03*
X37143Y-19848D03*
X35333Y-18038D03*
X33523Y-16229D03*
X31714Y-14419D03*
X29904Y-12610D03*
X28095Y-10800D03*
X26285Y-8990D03*
X24476Y-7181D03*
X22666Y-5372D03*
X20857Y-3562D03*
X19047Y-1753D03*
X17238Y57D03*
X15428Y1866D03*
X13619Y3676D03*
X11810Y5485D03*
X10000Y7295D03*
X8191Y9104D03*
X6381Y10914D03*
X4572Y12723D03*
X2762Y14533D03*
X952Y16343D03*
X-858Y18153D03*
X-2667Y19962D03*
X-4477Y21772D03*
X-6286Y23581D03*
X-8096Y25390D03*
X46190Y-25277D03*
X35333Y-14419D03*
X33523Y-12610D03*
X31714Y-10800D03*
X29904Y-8990D03*
X28095Y-7181D03*
X26285Y-5372D03*
X24476Y-3562D03*
X22666Y-1753D03*
X20857Y57D03*
X19047Y1866D03*
X17238Y3676D03*
X15428Y5485D03*
X13619Y7295D03*
X11810Y9104D03*
X10000Y10914D03*
X8191Y12723D03*
X6381Y14533D03*
X-4477Y25390D03*
X-6286Y27200D03*
X48000Y-23467D03*
X46190Y-21658D03*
X44381Y-19848D03*
X42572Y-18039D03*
X40762Y-16229D03*
X38952Y-14419D03*
X37142Y-12610D03*
X35333Y-10800D03*
X33523Y-8990D03*
X31714Y-7181D03*
X29904Y-5372D03*
X28095Y-3562D03*
X26285Y-1753D03*
X24476Y57D03*
X22666Y1866D03*
X20857Y3676D03*
X19047Y5485D03*
X17238Y7295D03*
X15428Y9104D03*
X13619Y10914D03*
X11810Y12723D03*
X10000Y14533D03*
X8191Y16342D03*
X6381Y18152D03*
X4571Y19962D03*
X2761Y21772D03*
X952Y23581D03*
X-858Y25390D03*
X-2667Y27200D03*
X-4477Y29009D03*
X49809Y-21658D03*
X48000Y-19848D03*
X46190Y-18039D03*
X44381Y-16229D03*
X42572Y-14420D03*
X40761Y-12610D03*
X38952Y-10800D03*
X37142Y-8990D03*
X35333Y-7181D03*
X33523Y-5372D03*
X31714Y-3562D03*
X29904Y-1753D03*
X28095Y57D03*
X26285Y1866D03*
X24476Y3676D03*
X22666Y5485D03*
X20857Y7295D03*
X19047Y9104D03*
X17238Y10914D03*
X15428Y12723D03*
X13619Y14533D03*
X11810Y16342D03*
X10000Y18152D03*
X8191Y19961D03*
X6380Y21772D03*
X4571Y23581D03*
X2761Y25390D03*
X952Y27200D03*
X-858Y29009D03*
X-2667Y30819D03*
X51619Y-19848D03*
X46190Y-14420D03*
X44381Y-12610D03*
X40761Y-8990D03*
X38952Y-7181D03*
X35333Y-3562D03*
X33523Y-1753D03*
X29904Y1866D03*
X28095Y3676D03*
X24476Y7295D03*
X22666Y9104D03*
X19047Y12723D03*
X17238Y14533D03*
X13619Y18152D03*
X11810Y19961D03*
X8190Y23581D03*
X6380Y25390D03*
X952Y30819D03*
X-858Y32628D03*
X53429Y-18038D03*
X51620Y-16229D03*
X49810Y-14419D03*
X48001Y-12610D03*
X44381Y-8990D03*
X42572Y-7180D03*
X40762Y-5371D03*
X37143Y-1752D03*
X35334Y58D03*
X31714Y3677D03*
X29905Y5486D03*
X26286Y9105D03*
X24477Y10914D03*
X20858Y14534D03*
X19048Y16343D03*
X15429Y19962D03*
X13620Y21772D03*
X11810Y23581D03*
X8191Y27201D03*
X6381Y29010D03*
X4572Y30820D03*
X2762Y32629D03*
X953Y34439D03*
X55239Y-16229D03*
X53429Y-14419D03*
X51620Y-12610D03*
X48001Y-8990D03*
X46190Y-7180D03*
X44381Y-5371D03*
X42572Y-3561D03*
X38952Y58D03*
X37143Y1867D03*
X33524Y5486D03*
X31714Y7296D03*
X28096Y10914D03*
X26286Y12724D03*
X22667Y16343D03*
X20858Y18153D03*
X17239Y21772D03*
X15429Y23581D03*
X13620Y25390D03*
X11810Y27201D03*
X8191Y30820D03*
X6381Y32629D03*
X4572Y34439D03*
X2762Y36248D03*
X57048Y-14419D03*
X55239Y-12610D03*
X51620Y-8990D03*
X49810Y-7181D03*
X46190Y-3561D03*
X44381Y-1752D03*
X40762Y1867D03*
X38952Y3677D03*
X35334Y7296D03*
X33524Y9105D03*
X29905Y12724D03*
X28096Y14534D03*
X24477Y18153D03*
X22667Y19962D03*
X19048Y23581D03*
X17239Y25390D03*
X13619Y29010D03*
X11810Y30820D03*
X8191Y34439D03*
X6381Y36248D03*
X4572Y38058D03*
X58858Y-12610D03*
X57048Y-10800D03*
X55239Y-8990D03*
X53429Y-7181D03*
X51620Y-5372D03*
X48000Y-1752D03*
X46190Y58D03*
X42572Y3677D03*
X40762Y5486D03*
X37143Y9105D03*
X35334Y10914D03*
X31714Y14534D03*
X29905Y16343D03*
X26286Y19962D03*
X24477Y21772D03*
X20858Y25390D03*
X19048Y27200D03*
X15428Y30820D03*
X13619Y32629D03*
X11810Y34439D03*
X10000Y36248D03*
X8191Y38058D03*
X6381Y39867D03*
X60667Y-10800D03*
X58858Y-8990D03*
X57048Y-7181D03*
X55239Y-5372D03*
X53429Y-3562D03*
X51619Y-1752D03*
X49809Y58D03*
X48000Y1867D03*
X46190Y3677D03*
X44381Y5486D03*
X42572Y7296D03*
X40762Y9105D03*
X38952Y10914D03*
X37143Y12724D03*
X35334Y14534D03*
X33524Y16343D03*
X31714Y18153D03*
X29905Y19962D03*
X28096Y21772D03*
X26286Y23581D03*
X24477Y25390D03*
X22667Y27200D03*
X20858Y29009D03*
X19048Y30819D03*
X17238Y32629D03*
X15428Y34439D03*
X13619Y36248D03*
X11810Y38058D03*
X10000Y39867D03*
X8191Y41676D03*
X62476Y-8990D03*
X60667Y-7181D03*
X58858Y-5372D03*
X57048Y-3562D03*
X55239Y-1753D03*
X53428Y58D03*
X51619Y1867D03*
X49809Y3677D03*
X48000Y5486D03*
X46190Y7296D03*
X44381Y9105D03*
X42572Y10914D03*
X40762Y12724D03*
X38952Y14534D03*
X37143Y16343D03*
X35334Y18153D03*
X33524Y19962D03*
X31714Y21772D03*
X29905Y23581D03*
X28096Y25390D03*
X26286Y27200D03*
X24477Y29009D03*
X22667Y30819D03*
X20858Y32628D03*
X19047Y34439D03*
X17238Y36248D03*
X15428Y38058D03*
X13619Y39867D03*
X11810Y41676D03*
X10000Y43486D03*
G54D39*
X88261Y-176189D03*
G54D66*
X176283Y17600D03*
X174117D03*
X176283Y20400D03*
X174117D03*
X170683D03*
X168517D03*
X170683Y17600D03*
X168517D03*
X162117Y46700D03*
X164283D03*
X162117Y49500D03*
X164283D03*
X164517Y31600D03*
X166683D03*
X164517Y34400D03*
X166683D03*
G54D67*
X189581Y25173D03*
Y27142D03*
Y29110D03*
Y31079D03*
Y33047D03*
Y35016D03*
Y36984D03*
Y38953D03*
Y40921D03*
Y42890D03*
Y44858D03*
Y46827D03*
G54D58*
X119078Y88863D03*
X122522D03*
X119078Y96737D03*
Y94768D03*
Y90832D03*
X122522D03*
Y94768D03*
Y96737D03*
X169878Y-18463D03*
Y-20432D03*
Y-24368D03*
Y-26337D03*
X173322D03*
Y-24368D03*
Y-20432D03*
Y-18463D03*
X170278Y-31263D03*
Y-33232D03*
Y-37168D03*
Y-39137D03*
X173722D03*
Y-37168D03*
Y-33232D03*
Y-31263D03*
X170278Y-43263D03*
Y-45232D03*
Y-49168D03*
Y-51137D03*
X173722D03*
Y-49168D03*
Y-45232D03*
Y-43263D03*
X171078Y33937D03*
Y31968D03*
Y28032D03*
Y26063D03*
X174522D03*
Y28032D03*
Y31968D03*
Y33937D03*
X168678Y49137D03*
Y47168D03*
Y43232D03*
Y41263D03*
X172122D03*
Y43232D03*
Y47168D03*
Y49137D03*
G54D49*
X130793Y-206669D03*
X-1607Y-246669D03*
G54D68*
X220526Y53598D03*
Y18402D03*
X197101Y52260D03*
Y19740D03*
G54D59*
X-38696Y29772D03*
X-32571Y35896D03*
X-37304Y40628D03*
X-43428Y34504D03*
G54D69*
X192180Y21827D03*
X194739Y47024D03*
X197494Y45449D03*
Y42299D03*
X194739Y40724D03*
X197494Y39150D03*
X194739Y37575D03*
Y34425D03*
X197494Y32850D03*
X194739Y31276D03*
X197494Y29701D03*
Y26551D03*
X194739Y24976D03*
M02*
