G04 ================== begin FILE IDENTIFICATION RECORD ==================*
G04 Layout Name:  RK_SAPPHIRE_SOCBOARD_RK3399_LPDDR3D178P232SD8_V12_20161110_final_lint.brd*
G04 Film Name:    SILK_BOT*
G04 File Format:  Gerber RS274X*
G04 File Origin:  Cadence Allegro 16.6-S050*
G04 Origin Date:  Fri Nov 11 15:52:09 2016*
G04 *
G04 Layer:  PACKAGE GEOMETRY/SILKSCREEN_BOTTOM*
G04 Layer:  BOARD GEOMETRY/OUTLINE*
G04 Layer:  BOARD GEOMETRY/SILKSCREEN_BOTTOM*
G04 *
G04 Offset:    (0.000 0.000)*
G04 Mirror:    Yes*
G04 Mode:      Positive*
G04 Rotation:  0*
G04 FullContactRelief:  No*
G04 UndefLineWidth:     5.000*
G04 ================== end FILE IDENTIFICATION RECORD ====================*
%FSLAX25Y25*MOIN*%
%IR0*IPPOS*OFA0.00000B0.00000*MIA1B0*SFA1.00000B1.00000*%
%ADD10C,.005*%
%ADD11C,.008*%
%ADD12C,.00606*%
%ADD13C,.00472*%
%ADD14C,.00591*%
%ADD15C,.005118*%
%ADD16C,.00394*%
%ADD17C,.003941*%
%ADD18C,.00984*%
%ADD19C,.00787*%
%ADD20C,.005909*%
%ADD21C,.01*%
G75*
%LPD*%
G75*
G54D10*
G01X-177682Y-128514D02*
X-182160D01*
G01D02*
Y-129250D01*
G01D02*
X-183440D01*
G01D02*
Y-128514D01*
G01D02*
X-187918D01*
G01D02*
Y-140286D01*
G01D02*
X-177682D01*
G01D02*
Y-128514D01*
G01X-133968Y-178928D02*
G02Y-180896I0J-984D01*
G01D02*
Y-182065D01*
G01D02*
X-122158D01*
G01D02*
Y-177859D01*
G01D02*
X-133968D01*
G01D02*
Y-178928D01*
G01X-170532Y-148132D02*
X-187068D01*
G01X-170532Y-164668D02*
X-187068D01*
G01X-166722Y33105D02*
X-195327D01*
G01X-217887D02*
X-205913D01*
G01X-160800Y89210D02*
Y73593D01*
G01X-217887Y33105D02*
Y90979D01*
G01X-133168Y70672D02*
G02Y68704I0J-984D01*
G01D02*
Y67535D01*
G01D02*
X-121358D01*
G01D02*
Y71741D01*
G01D02*
X-133168D01*
G01D02*
Y70672D01*
G01X-143900Y54800D02*
Y50800D01*
G01D02*
X-152900D01*
G01D02*
Y54800D01*
G01D02*
X-143900D01*
G01X-152928Y54769D02*
X-153872Y53824D01*
G01D02*
Y51737D01*
G01D02*
X-152928Y50792D01*
G01X-143900Y65600D02*
Y61600D01*
G01D02*
X-152900D01*
G01D02*
Y65600D01*
G01D02*
X-143900D01*
G01X-152928Y65569D02*
X-153872Y64624D01*
G01D02*
Y62537D01*
G01D02*
X-152928Y61592D01*
G01X-143900Y76000D02*
Y72000D01*
G01D02*
X-152900D01*
G01D02*
Y76000D01*
G01D02*
X-143900D01*
G01X-152928Y75969D02*
X-153872Y75024D01*
G01D02*
Y72937D01*
G01D02*
X-152928Y71992D01*
G01X-143900Y70800D02*
Y66800D01*
G01D02*
X-152900D01*
G01D02*
Y70800D01*
G01D02*
X-143900D01*
G01X-152928Y70769D02*
X-153872Y69824D01*
G01D02*
Y67737D01*
G01D02*
X-152928Y66792D01*
G01X-143500Y46400D02*
Y42400D01*
G01D02*
X-152500D01*
G01D02*
Y46400D01*
G01D02*
X-143500D01*
G01X-152528Y46369D02*
X-153472Y45424D01*
G01D02*
Y43337D01*
G01D02*
X-152528Y42392D01*
G01X-143500Y41600D02*
Y37600D01*
G01D02*
X-152500D01*
G01D02*
Y41600D01*
G01D02*
X-143500D01*
G01X-152528Y41569D02*
X-153472Y40624D01*
G01D02*
Y38537D01*
G01D02*
X-152528Y37592D01*
G01X-143500Y36800D02*
Y32800D01*
G01D02*
X-152500D01*
G01D02*
Y36800D01*
G01D02*
X-143500D01*
G01X-152528Y36769D02*
X-153472Y35824D01*
G01D02*
Y33737D01*
G01D02*
X-152528Y32792D01*
G01X-166646Y90979D02*
X-195102D01*
G01X-217887D02*
X-207190D01*
G01X126832Y-225328D02*
G02Y-227296I0J-984D01*
G01D02*
Y-228465D01*
G01D02*
X138642D01*
G01D02*
Y-224259D01*
G01D02*
X126832D01*
G01D02*
Y-225328D01*
G01X94109Y-230362D02*
Y-225638D01*
G01D02*
X82691D01*
G01D02*
Y-230362D01*
G01D02*
X94109D01*
G01X87631Y-226018D02*
X89212Y-227419D01*
G01D02*
X87631Y-228571D01*
G01D02*
X89130Y-230003D01*
G01X94109Y-224362D02*
Y-219638D01*
G01D02*
X82691D01*
G01D02*
Y-224362D01*
G01D02*
X94109D01*
G01X87631Y-220018D02*
X89212Y-221419D01*
G01D02*
X87631Y-222571D01*
G01D02*
X89130Y-224003D01*
G01X-39733Y22000D02*
X-38667D01*
Y24500D01*
X-39733D01*
G01X-39307Y23292D02*
X-38667D01*
G01X-40707Y22000D02*
Y24500D01*
X-41400Y22417D01*
X-42093Y24500D01*
Y22000D01*
G01X-42907D02*
Y24500D01*
X-43600Y22417D01*
X-44293Y24500D01*
Y22000D01*
G01X-46387Y24292D02*
X-46227Y24417D01*
X-46040Y24500D01*
X-45827D01*
X-45587Y24375D01*
X-45400Y24167D01*
X-45267Y23917D01*
X-45160Y23500D01*
X-45133Y23125D01*
X-45187Y22750D01*
X-45267Y22500D01*
X-45427Y22250D01*
X-45613Y22083D01*
X-45800Y22000D01*
X-45987D01*
X-46173Y22083D01*
X-46333Y22208D01*
X-46467Y22375D01*
G01X-47200Y21167D02*
X-48800D01*
G01X-50200Y24500D02*
Y22000D01*
G01X-49587Y24500D02*
X-50813D01*
G01X-51867Y22000D02*
Y24500D01*
X-52507D01*
X-52720Y24375D01*
X-52880Y24083D01*
X-52933Y23750D01*
X-52880Y23417D01*
X-52747Y23167D01*
X-52507Y23042D01*
X-51867D01*
G01X-18213Y-38400D02*
Y-35900D01*
X-18747D01*
X-18960Y-36025D01*
X-19120Y-36192D01*
X-19253Y-36442D01*
X-19360Y-36733D01*
X-19387Y-37150D01*
X-19360Y-37567D01*
X-19253Y-37858D01*
X-19120Y-38108D01*
X-18960Y-38275D01*
X-18747Y-38400D01*
X-18213D01*
G01X-20413D02*
Y-35900D01*
X-20947D01*
X-21160Y-36025D01*
X-21320Y-36192D01*
X-21453Y-36442D01*
X-21560Y-36733D01*
X-21587Y-37150D01*
X-21560Y-37567D01*
X-21453Y-37858D01*
X-21320Y-38108D01*
X-21160Y-38275D01*
X-20947Y-38400D01*
X-20413D01*
G01X-22667D02*
Y-35900D01*
X-23333D01*
X-23547Y-36025D01*
X-23680Y-36192D01*
X-23733Y-36525D01*
X-23680Y-36858D01*
X-23520Y-37067D01*
X-23333Y-37192D01*
X-22667D01*
G01X-23333D02*
X-23733Y-38400D01*
G01X-25400D02*
Y-35900D01*
X-25080Y-36400D01*
G01Y-38400D02*
X-25720D01*
G01X-26800Y-39233D02*
X-28400D01*
G01X-29267Y-38400D02*
Y-35900D01*
X-29907D01*
X-30120Y-36025D01*
X-30280Y-36317D01*
X-30333Y-36650D01*
X-30280Y-36983D01*
X-30147Y-37233D01*
X-29907Y-37358D01*
X-29267D01*
G01X-31467Y-35900D02*
Y-38400D01*
X-32533D01*
G01X-33667Y-35900D02*
Y-38400D01*
X-34733D01*
G01X-35600Y-39233D02*
X-37200D01*
G01X-38600Y-35900D02*
Y-38400D01*
G01X-37987Y-35900D02*
X-39213D01*
G01X-41333Y-38400D02*
X-40267D01*
Y-35900D01*
X-41333D01*
G01X-40907Y-37108D02*
X-40267D01*
G01X-42440Y-38067D02*
X-42653Y-38275D01*
X-42893Y-38400D01*
X-43107D01*
X-43320Y-38275D01*
X-43480Y-38067D01*
X-43560Y-37775D01*
X-43507Y-37483D01*
X-43373Y-37233D01*
X-43133Y-37067D01*
X-42813Y-36983D01*
X-42627Y-36817D01*
X-42547Y-36525D01*
X-42600Y-36233D01*
X-42733Y-36025D01*
X-42920Y-35900D01*
X-43107D01*
X-43293Y-35983D01*
X-43453Y-36192D01*
G01X-45200Y-35900D02*
Y-38400D01*
G01X-44587Y-35900D02*
X-45813D01*
G01X-47400Y-38400D02*
X-47187Y-38358D01*
X-47000Y-38192D01*
X-46840Y-37942D01*
X-46733Y-37650D01*
X-46680Y-37317D01*
Y-36983D01*
X-46733Y-36650D01*
X-46840Y-36358D01*
X-47000Y-36108D01*
X-47187Y-35942D01*
X-47400Y-35900D01*
X-47613Y-35942D01*
X-47800Y-36108D01*
X-47960Y-36358D01*
X-48067Y-36650D01*
X-48120Y-36983D01*
Y-37317D01*
X-48067Y-37650D01*
X-47960Y-37942D01*
X-47800Y-38192D01*
X-47613Y-38358D01*
X-47400Y-38400D01*
G01X-49013Y-35900D02*
Y-37692D01*
X-49120Y-38067D01*
X-49333Y-38317D01*
X-49600Y-38400D01*
X-49867Y-38317D01*
X-50080Y-38067D01*
X-50187Y-37692D01*
Y-35900D01*
G01X-51800D02*
Y-38400D01*
G01X-51187Y-35900D02*
X-52413D01*
G01X-53200Y-39233D02*
X-54800D01*
G01X-55587Y-38400D02*
Y-35900D01*
X-56813Y-38400D01*
Y-35900D01*
G01X24400Y-20400D02*
Y-19600D01*
G01X26400Y15200D02*
X34400Y23200D01*
X40800Y16800D01*
X32000Y8000D01*
X25600Y14400D01*
X26400Y15200D01*
G01X22400Y6000D02*
X28000Y11600D01*
G01X117232Y45872D02*
G02Y43904I0J-984D01*
G01D02*
Y42735D01*
G01D02*
X129042D01*
G01D02*
Y46941D01*
G01D02*
X117232D01*
G01D02*
Y45872D01*
G01X29328Y70432D02*
G02X31296I984J0D01*
G01D02*
X32465D01*
G01D02*
Y82242D01*
G01D02*
X28259D01*
G01D02*
Y70432D01*
G01D02*
X29328D01*
G01X136768Y61728D02*
G02Y63696I0J984D01*
G01D02*
Y64865D01*
G01D02*
X124958D01*
G01D02*
Y60659D01*
G01D02*
X136768D01*
G01D02*
Y61728D01*
G01X126769Y-98400D02*
X121480D01*
G02Y-90300I3362J4050D01*
G01D02*
X126769D01*
G01X130234D02*
X135522D01*
G02Y-98400I-3362J-4050D01*
G01D02*
X130234D01*
G01X155861Y50712D02*
X138539D01*
G01D02*
Y39688D01*
G01D02*
X155861D01*
G01X22128Y107232D02*
G02X24096I984J0D01*
G01D02*
X25265D01*
G01D02*
Y119042D01*
G01D02*
X21059Y119042D01*
G01D02*
X21059Y107232D01*
G01D02*
X22128D01*
G01X27614Y89353D02*
G02X29582I984J0D01*
G01D02*
X30751D01*
G01D02*
Y101163D01*
G01D02*
X26545D01*
G01D02*
X26545Y89353D01*
G01D02*
X27614D01*
G01X170647Y60958D02*
Y51115D01*
X180490D01*
Y60958D01*
X170647D01*
G01X172100Y65800D02*
X173100Y63300D01*
X174100Y65800D01*
X172100D01*
G01X179800Y-14400D02*
Y7200D01*
G01D02*
X161000D01*
G01D02*
Y-14400D01*
G01D02*
X179800D01*
G01X155861Y39688D02*
Y50712D01*
G01X169632Y-33143D02*
Y-26057D01*
G01D02*
X160818D01*
G01D02*
Y-33143D01*
G01D02*
X169632D01*
G01X168600Y-26057D02*
Y-33143D01*
G01X157041Y31473D02*
X162159D01*
G01D02*
Y36630D01*
G01D02*
X157041D01*
G01D02*
Y31473D01*
G01X161962Y32451D02*
X157238D01*
G01X193073Y-39041D02*
Y-44159D01*
G01D02*
X198230D01*
G01D02*
Y-39041D01*
G01D02*
X193073D01*
G01X194051Y-43962D02*
Y-39238D01*
G01X198159Y-23873D02*
X193041D01*
G01D02*
Y-29030D01*
G01D02*
X198159D01*
G01D02*
Y-23873D01*
G01X193238Y-24851D02*
X197962D01*
G01X-152018Y151186D02*
G02X-148819Y154385I3199J0D01*
G01X15278D01*
Y141378D01*
G03X19215I1969J0D01*
G01Y154385D01*
X167819D01*
G02X170812Y151392I0J-2993D01*
G01Y129989D01*
X166562D01*
G03Y124067I0J-2961D01*
G01X170825D01*
Y109450D01*
X192150D01*
Y154246D01*
X228150D01*
Y-259750D01*
X-217450D01*
Y154254D01*
X-173050D01*
Y109450D01*
X-152003D01*
Y111050D01*
Y113450D01*
Y124067D01*
X-147621D01*
G03Y129989I0J2961D01*
G01X-152018D01*
Y151186D01*
G54D20*
G01X-129016Y-214025D02*
X-126457D01*
G01D02*
Y-217175D01*
G01D02*
X-129016D01*
G01X-130984Y-214025D02*
X-133543D01*
G01D02*
Y-217175D01*
G01D02*
X-130984D01*
G01X-133575Y-193416D02*
Y-190857D01*
G01D02*
X-130425D01*
G01D02*
Y-193416D01*
G01X-133575Y-195384D02*
Y-197943D01*
G01D02*
X-130425D01*
G01D02*
Y-195384D01*
G01X-194616Y-128025D02*
X-192057D01*
G01D02*
Y-131175D01*
G01D02*
X-194616D01*
G01X-196584Y-128025D02*
X-199143D01*
G01D02*
Y-131175D01*
G01D02*
X-196584D01*
G01X-194616Y-132425D02*
X-192057D01*
G01D02*
Y-135575D01*
G01D02*
X-194616D01*
G01X-196584Y-132425D02*
X-199143D01*
G01D02*
Y-135575D01*
G01D02*
X-196584D01*
G01X-200025Y-132584D02*
Y-135143D01*
G01D02*
X-203175D01*
G01D02*
Y-132584D01*
G01X-200025Y-130616D02*
Y-128057D01*
G01D02*
X-203175D01*
G01D02*
Y-130616D01*
G01X-183384Y-127175D02*
X-185943D01*
G01D02*
Y-124025D01*
G01D02*
X-183384D01*
G01X-181416Y-127175D02*
X-178857D01*
G01D02*
Y-124025D01*
G01D02*
X-181416D01*
G01X-71175Y-244616D02*
Y-242057D01*
G01D02*
X-68025D01*
G01X-71175Y-246584D02*
Y-249143D01*
G01D02*
X-68025D01*
G01X-178857Y-120025D02*
Y-123175D01*
G01D02*
X-181416D01*
G01X-185943Y-120025D02*
Y-123175D01*
G01D02*
X-183384D01*
G01X-108366Y-137195D02*
Y-139754D01*
G01D02*
X-111515D01*
G01D02*
Y-137195D01*
G01X-108366Y-135227D02*
Y-132668D01*
G01D02*
X-111515D01*
G01D02*
Y-135227D01*
G01X-111416Y-127625D02*
X-108857D01*
G01D02*
Y-130775D01*
G01D02*
X-111416D01*
G01X-113384Y-127625D02*
X-115943D01*
G01D02*
Y-130775D01*
G01D02*
X-113384D01*
G01X-100216Y-204025D02*
X-97657D01*
G01D02*
Y-207175D01*
G01D02*
X-100216D01*
G01X-102184Y-204025D02*
X-104743D01*
G01D02*
Y-207175D01*
G01D02*
X-102184D01*
G01X-126425Y-195384D02*
Y-197943D01*
G01D02*
X-129575D01*
G01D02*
Y-195384D01*
G01X-126425Y-193416D02*
Y-190857D01*
G01D02*
X-129575D01*
G01D02*
Y-193416D01*
G01X-99975Y-213816D02*
Y-211257D01*
G01D02*
X-96825D01*
G01D02*
Y-213816D01*
G01X-99975Y-215784D02*
Y-218343D01*
G01D02*
X-96825D01*
G01D02*
Y-215784D01*
G01X-211175Y-130616D02*
Y-128057D01*
G01D02*
X-208025D01*
G01D02*
Y-130616D01*
G01X-211175Y-132584D02*
Y-135143D01*
G01D02*
X-208025D01*
G01D02*
Y-132584D01*
G01X-160216Y-194825D02*
X-157657D01*
G01D02*
Y-197975D01*
G01D02*
X-160216D01*
G01X-162184Y-194825D02*
X-164743D01*
G01D02*
Y-197975D01*
G01D02*
X-162184D01*
G01X-173416Y-181225D02*
X-170857D01*
G01D02*
Y-184375D01*
G01D02*
X-173416D01*
G01X-175384Y-181225D02*
X-177943D01*
G01D02*
Y-184375D01*
G01D02*
X-175384D01*
G01X-151816Y-203225D02*
X-149257D01*
G01D02*
Y-206375D01*
G01D02*
X-151816D01*
G01X-153784Y-203225D02*
X-156343D01*
G01D02*
Y-206375D01*
G01D02*
X-153784D01*
G01X-151816Y-194825D02*
X-149257D01*
G01D02*
Y-197975D01*
G01D02*
X-151816D01*
G01X-153784Y-194825D02*
X-156343D01*
G01D02*
Y-197975D01*
G01D02*
X-153784D01*
G01X-140025Y-182984D02*
Y-185543D01*
G01D02*
X-143175D01*
G01D02*
Y-182984D01*
G01X-140025Y-181016D02*
Y-178457D01*
G01D02*
X-143175D01*
G01D02*
Y-181016D01*
G01X-70362Y-186825D02*
Y-183676D01*
G02X-65638I2362J-3417D01*
G01X-70362Y-189975D02*
Y-193124D01*
G03X-65638I2362J3417D01*
G01X-124025Y-145238D02*
X-120876D01*
G02Y-149962I-3417J-2362D01*
G01D02*
X-124025D01*
G01X-127175Y-145238D02*
X-130324Y-145238D01*
G03Y-149962I3417J-2362D01*
G01D02*
X-127175Y-149962D01*
G01X-118094Y-121866D02*
X-114945D01*
G02Y-126590I-3417J-2362D01*
G01D02*
X-118094Y-126590D01*
G01X-121244Y-121866D02*
X-124393Y-121866D01*
G03Y-126590I3417J-2362D01*
G01D02*
X-121244D01*
G01X-97638Y-229975D02*
Y-233124D01*
G02X-102362I-2362J3417D01*
G01D02*
Y-229975D01*
G01X-97638Y-226825D02*
Y-223676D01*
G03X-102362I-2362J-3417D01*
G01D02*
Y-226825D01*
G01X-113060Y-181372D02*
Y-185322D01*
G02X-120540I-3740J7585D01*
G01D02*
Y-181372D01*
G01Y-177828D02*
Y-173863D01*
G02X-112961I3790J-7024D01*
G01D02*
Y-177828D01*
G01X-109740Y-169828D02*
Y-165878D01*
G02X-102260I3740J-7585D01*
G01D02*
Y-169828D01*
G01Y-173372D02*
Y-177337D01*
G02X-109839I-3790J7024D01*
G01D02*
Y-173372D01*
G01X-202628Y-161460D02*
X-198678D01*
G02Y-168940I-7585J-3740D01*
G01D02*
X-202628D01*
G01X-206172D02*
X-210137D01*
G02Y-161361I7024J3790D01*
G01D02*
X-206172D01*
G01X-202628Y-169860D02*
X-198678D01*
G02Y-177340I-7585J-3740D01*
G01D02*
X-202628D01*
G01X-206172D02*
X-210137D01*
G02Y-169761I7024J3790D01*
G01D02*
X-206172D01*
G01X-202628Y-153060D02*
X-198678D01*
G02Y-160540I-7585J-3740D01*
G01D02*
X-202628D01*
G01X-206172D02*
X-210137D01*
G02Y-152961I7024J3790D01*
G01D02*
X-206172D01*
G01X-165372Y-124540D02*
X-169322D01*
G02Y-117060I7585J3740D01*
G01X-161828D02*
X-157863D01*
G02Y-124639I-7024J-3790D01*
G01D02*
X-161828D01*
G01X-165372Y-132940D02*
X-169322D01*
G02Y-125460I7585J3740D01*
G01D02*
X-165372D01*
G01X-161828D02*
X-157863D01*
G02Y-133039I-7024J-3790D01*
G01D02*
X-161828D01*
G01X-202628Y-178660D02*
X-198678D01*
G02Y-186140I-7585J-3740D01*
G01D02*
X-202628D01*
G01X-206172D02*
X-210137D01*
G02Y-178561I7024J3790D01*
G01D02*
X-206172D01*
G01X-72984Y-93461D02*
X-75543D01*
G01D02*
Y-90311D01*
G01D02*
X-72984D01*
G01X-71016Y-93461D02*
X-68457D01*
G01Y-90311D02*
X-71016D01*
G01Y-94711D02*
X-68457D01*
G01Y-97861D02*
X-71016D01*
G01X-72984Y-94711D02*
X-75543D01*
G01D02*
Y-97861D01*
G01D02*
X-72984D01*
G01X-108425Y-34984D02*
Y-37543D01*
G01D02*
X-111575D01*
G01D02*
Y-34984D01*
G01X-108425Y-33016D02*
Y-30457D01*
G01D02*
X-111575D01*
G01D02*
Y-33016D01*
G01X-121384Y-26375D02*
X-123943D01*
G01D02*
Y-23225D01*
G01D02*
X-121384D01*
G01X-119416Y-26375D02*
X-116857D01*
G01D02*
Y-23225D01*
G01D02*
X-119416D01*
G01X-137816Y54375D02*
X-135257D01*
G01D02*
Y51225D01*
G01D02*
X-137816D01*
G01X-139784Y54375D02*
X-142343D01*
G01D02*
Y51225D01*
G01D02*
X-139784D01*
G01X-141784Y-20775D02*
X-144343D01*
G01D02*
Y-17625D01*
G01D02*
X-141784D01*
G01X-139816Y-20775D02*
X-137257D01*
G01D02*
Y-17625D01*
G01D02*
X-139816D01*
G01X-181416Y-120025D02*
X-178857D01*
G01X-183384D02*
X-185943D01*
G01X-116825Y72216D02*
Y69657D01*
G01D02*
X-119975D01*
G01D02*
Y72216D01*
G01X-116825Y74184D02*
Y76743D01*
G01D02*
X-119975D01*
G01D02*
Y74184D01*
G01X-113975Y-25016D02*
Y-22457D01*
G01D02*
X-110825D01*
G01D02*
Y-25016D01*
G01X-113975Y-26984D02*
Y-29543D01*
G01D02*
X-110825D01*
G01D02*
Y-26984D01*
G01X-154584Y-8375D02*
X-157143D01*
G01D02*
Y-5225D01*
G01D02*
X-154584D01*
G01X-152616Y-8375D02*
X-150057D01*
G01D02*
Y-5225D01*
G01D02*
X-152616D01*
G01X-112425Y-34984D02*
Y-37543D01*
G01D02*
X-115575D01*
G01D02*
Y-34984D01*
G01X-112425Y-33016D02*
Y-30457D01*
G01D02*
X-115575D01*
G01D02*
Y-33016D01*
G01X-144775Y-7816D02*
Y-5257D01*
G01D02*
X-141625D01*
G01D02*
Y-7816D01*
G01X-144775Y-9784D02*
Y-12343D01*
G01D02*
X-141625D01*
G01D02*
Y-9784D01*
G01X-112184Y4425D02*
X-114743D01*
G01D02*
Y7575D01*
G01D02*
X-112184D01*
G01X-110216Y4425D02*
X-107657D01*
G01D02*
Y7575D01*
G01D02*
X-110216D01*
G01X-141784Y-16775D02*
X-144343D01*
G01D02*
Y-13625D01*
G01D02*
X-141784D01*
G01X-139816Y-16775D02*
X-137257D01*
G01D02*
Y-13625D01*
G01D02*
X-139816D01*
G01X-102838Y-35975D02*
Y-39124D01*
G02X-107562I-2362J3417D01*
G01D02*
Y-35975D01*
G01X-102838Y-32825D02*
Y-29676D01*
G03X-107562I-2362J-3417D01*
G01D02*
Y-32825D01*
G01X-114784Y18243D02*
X-117011Y20470D01*
G02X-113670Y23811I4086J-746D01*
G01D02*
X-111444Y21584D01*
G01X-112557Y16016D02*
X-110330Y13789D01*
G03X-106989Y17130I-746J4086D01*
G01D02*
X-109216Y19356D01*
G01X-118025Y-99238D02*
X-114876D01*
G02Y-103962I-3417J-2362D01*
G01D02*
X-118025Y-103962D01*
G01X-121175Y-99238D02*
X-124324D01*
G03Y-103962I3417J-2362D01*
G01D02*
X-121175Y-103962D01*
G01X-118094Y-110766D02*
X-114945D01*
G02Y-115490I-3417J-2362D01*
G01D02*
X-118094D01*
G01X-121244Y-110766D02*
X-124393Y-110766D01*
G03Y-115490I3417J-2362D01*
G01D02*
X-121244Y-115490D01*
G01X-113638Y-45975D02*
Y-49124D01*
G02X-118362I-2362J3417D01*
G01D02*
Y-45975D01*
G01X-113638Y-42825D02*
Y-39676D01*
G03X-118362I-2362J-3417D01*
G01D02*
Y-42825D01*
G01X-135238Y74825D02*
Y71676D01*
G02X-139962I-2362J3417D01*
G01D02*
Y74825D01*
G01X-135238Y77975D02*
Y81124D01*
G03X-139962I-2362J-3417D01*
G01D02*
Y77975D01*
G01Y65175D02*
Y68324D01*
G02X-135238I2362J-3417D01*
G01D02*
Y65175D01*
G01X-139962Y62025D02*
Y58876D01*
G03X-135238I2362J3417D01*
G01D02*
Y62025D01*
G01X-158775Y11638D02*
X-161924D01*
G02Y16362I3417J2362D01*
G01D02*
X-158775D01*
G01X-155625Y11638D02*
X-152476D01*
G03Y16362I-3417J2362D01*
G01D02*
X-155625D01*
G01X-110784Y22244D02*
X-113010Y24470D01*
G02X-109670Y27810I4086J-746D01*
G01D02*
X-107444Y25584D01*
G01X-108557Y20016D02*
X-106330Y17790D01*
G03X-102990Y21130I-746J4086D01*
G01D02*
X-105216Y23356D01*
G01X-118086Y-105147D02*
X-114936D01*
G02Y-109871I-3417J-2362D01*
G01D02*
X-118086D01*
G01X-121235Y-105147D02*
X-124384D01*
G03Y-109871I3417J-2362D01*
G01D02*
X-121235D01*
G01X-144606Y-120122D02*
X-147755D01*
G02Y-115398I3417J2362D01*
G01D02*
X-144606D01*
G01X-141456Y-120122D02*
X-138307Y-120122D01*
G03Y-115398I-3417J2362D01*
G01D02*
X-141456Y-115398D01*
G01X-118094Y-116366D02*
X-114945D01*
G02Y-121090I-3417J-2362D01*
G01D02*
X-118094D01*
G01X-121244Y-116366D02*
X-124393Y-116366D01*
G03Y-121090I3417J-2362D01*
G01D02*
X-121244Y-121090D01*
G01X-159175Y1638D02*
X-162324D01*
G02Y6362I3417J2362D01*
G01D02*
X-159175D01*
G01X-156025Y1638D02*
X-152876D01*
G03Y6362I-3417J2362D01*
G01D02*
X-156025D01*
G01X-169322Y-117060D02*
X-165372D01*
G01X-132540Y109372D02*
Y113322D01*
G02X-125060I3740J-7585D01*
G01D02*
Y109372D01*
G01Y105828D02*
Y101863D01*
G02X-132639I-3790J7024D01*
G01D02*
Y105828D01*
G01X-68025Y-242057D02*
Y-244616D01*
G01Y-249143D02*
Y-246584D01*
G01X-23784Y-206375D02*
X-26343D01*
G01D02*
Y-203225D01*
G01D02*
X-23784D01*
G01X-21816Y-206375D02*
X-19257D01*
G01D02*
Y-203225D01*
G01D02*
X-21816D01*
G01X-31975Y-201416D02*
Y-198857D01*
G01D02*
X-28825D01*
G01D02*
Y-201416D01*
G01X-31975Y-203384D02*
Y-205943D01*
G01D02*
X-28825D01*
G01D02*
Y-203384D01*
G01X-59175Y-202216D02*
Y-199657D01*
G01D02*
X-56025D01*
G01D02*
Y-202216D01*
G01X-59175Y-204184D02*
Y-206743D01*
G01D02*
X-56025D01*
G01D02*
Y-204184D01*
G01X140425Y-220216D02*
Y-217657D01*
G01D02*
X143575D01*
G01X140425Y-222184D02*
Y-224743D01*
G01D02*
X143575D01*
G01X58584Y-201625D02*
X61143D01*
G01D02*
Y-204775D01*
G01D02*
X58584D01*
G01X56616Y-201625D02*
X54057D01*
G01D02*
Y-204775D01*
G01D02*
X56616D01*
G01X58584Y-197225D02*
X61143D01*
G01D02*
Y-200375D01*
G01D02*
X58584D01*
G01X56616Y-197225D02*
X54057D01*
G01D02*
Y-200375D01*
G01D02*
X56616D01*
G01X58584Y-180025D02*
X61143D01*
G01D02*
Y-183175D01*
G01D02*
X58584D01*
G01X56616Y-180025D02*
X54057D01*
G01D02*
Y-183175D01*
G01D02*
X56616D01*
G01X81975Y-208184D02*
Y-210743D01*
G01D02*
X78825D01*
G01D02*
Y-208184D01*
G01X81975Y-206216D02*
Y-203657D01*
G01D02*
X78825D01*
G01D02*
Y-206216D01*
G01X56616Y-178775D02*
X54057D01*
G01D02*
Y-175625D01*
G01D02*
X56616D01*
G01X58584Y-178775D02*
X61143D01*
G01D02*
Y-175625D01*
G01D02*
X58584D01*
G01X94375Y-208184D02*
Y-210743D01*
G01D02*
X91225D01*
G01D02*
Y-208184D01*
G01X94375Y-206216D02*
Y-203657D01*
G01D02*
X91225D01*
G01D02*
Y-206216D01*
G01X89975Y-208184D02*
Y-210743D01*
G01D02*
X86825D01*
G01D02*
Y-208184D01*
G01X89975Y-206216D02*
Y-203657D01*
G01D02*
X86825D01*
G01D02*
Y-206216D01*
G01X58584Y-184425D02*
X61143D01*
G01D02*
Y-187575D01*
G01D02*
X58584D01*
G01X56616Y-184425D02*
X54057D01*
G01D02*
Y-187575D01*
G01D02*
X56616D01*
G01X60025Y-248216D02*
Y-245657D01*
G01D02*
X63175D01*
G01D02*
Y-248216D01*
G01X60025Y-250184D02*
Y-252743D01*
G01D02*
X63175D01*
G01D02*
Y-250184D01*
G01X-52362Y-186825D02*
Y-183676D01*
G02X-47638I2362J-3417D01*
G01D02*
Y-186825D01*
G01X-52362Y-189975D02*
Y-193124D01*
G03X-47638I2362J3417D01*
G01D02*
Y-189975D01*
G01X-64362Y-186825D02*
Y-183676D01*
G02X-59638I2362J-3417D01*
G01D02*
Y-186825D01*
G01X-64362Y-189975D02*
Y-193124D01*
G03X-59638I2362J3417D01*
G01D02*
Y-189975D01*
G01X-65638Y-183676D02*
Y-186825D01*
G01Y-193124D02*
Y-189975D01*
G01X-58362Y-186825D02*
Y-183676D01*
G02X-53638I2362J-3417D01*
G01D02*
Y-186825D01*
G01X-58362Y-189975D02*
Y-193124D01*
G03X-53638I2362J3417D01*
G01D02*
Y-189975D01*
G01X-39962Y-186825D02*
Y-183676D01*
G02X-35238I2362J-3417D01*
G01D02*
Y-186825D01*
G01X-39962Y-189975D02*
Y-193124D01*
G03X-35238I2362J3417D01*
G01D02*
Y-189975D01*
G01X-55625Y-225738D02*
X-52476D01*
G02Y-230462I-3417J-2362D01*
G01D02*
X-55625D01*
G01X-58775Y-225738D02*
X-61924D01*
G03Y-230462I3417J-2362D01*
G01D02*
X-58775D01*
G01X-55625Y-220238D02*
X-52476D01*
G02Y-224962I-3417J-2362D01*
G01D02*
X-55625D01*
G01X-58775Y-220238D02*
X-61924D01*
G03Y-224962I3417J-2362D01*
G01D02*
X-58775D01*
G01X82762Y-181175D02*
Y-184324D01*
G02X78038I-2362J3417D01*
G01D02*
Y-181175D01*
G01X82762Y-178025D02*
Y-174876D01*
G03X78038I-2362J-3417D01*
G01D02*
Y-178025D01*
G01X72375Y-192438D02*
X75524D01*
G02Y-197162I-3417J-2362D01*
G01D02*
X72375D01*
G01X69225Y-192438D02*
X66076D01*
G03Y-197162I3417J-2362D01*
G01D02*
X69225D01*
G01X-27962Y-186825D02*
Y-183676D01*
G02X-23238I2362J-3417D01*
G01D02*
Y-186825D01*
G01X-27962Y-189975D02*
Y-193124D01*
G03X-23238I2362J3417D01*
G01D02*
Y-189975D01*
G01X-33962Y-186825D02*
Y-183676D01*
G02X-29238I2362J-3417D01*
G01D02*
Y-186825D01*
G01X-33962Y-189975D02*
Y-193124D01*
G03X-29238I2362J3417D01*
G01D02*
Y-189975D01*
G01X-45962Y-186825D02*
Y-183676D01*
G02X-41238I2362J-3417D01*
G01D02*
Y-186825D01*
G01X-45962Y-189975D02*
Y-193124D01*
G03X-41238I2362J3417D01*
G01D02*
Y-189975D01*
G01X100762Y-238375D02*
Y-241524D01*
G02X96038I-2362J3417D01*
G01D02*
Y-238375D01*
G01X100762Y-235225D02*
Y-232076D01*
G03X96038I-2362J-3417D01*
G01D02*
Y-235225D01*
G01X-29162Y-241625D02*
Y-238476D01*
G02X-24438I2362J-3417D01*
G01D02*
Y-241625D01*
G01X-29162Y-244775D02*
Y-247924D01*
G03X-24438I2362J3417D01*
G01D02*
Y-244775D01*
G01X-59562Y-212425D02*
Y-209276D01*
G02X-54838I2362J-3417D01*
G01D02*
Y-212425D01*
G01X-59562Y-215575D02*
Y-218724D01*
G03X-54838I2362J3417D01*
G01D02*
Y-215575D01*
G01X73460Y-223028D02*
Y-219078D01*
G02X80940I3740J-7585D01*
G01D02*
Y-223028D01*
G01Y-226572D02*
Y-230537D01*
G02X73361I-3790J7024D01*
G01D02*
Y-226572D01*
G01X56660Y-223828D02*
Y-219878D01*
G02X64140I3740J-7585D01*
G01D02*
Y-223828D01*
G01Y-227372D02*
Y-231337D01*
G02X56561I-3790J7024D01*
G01D02*
Y-227372D01*
G01X82260Y-236628D02*
Y-232678D01*
G02X89740I3740J-7585D01*
G01D02*
Y-236628D01*
G01Y-240172D02*
Y-244137D01*
G02X82161I-3790J7024D01*
G01D02*
Y-240172D01*
G01X132140Y-211772D02*
Y-215722D01*
G02X124660I-3740J7585D01*
G01D02*
Y-211772D01*
G01Y-208228D02*
Y-204263D01*
G02X132239I3790J-7024D01*
G01D02*
Y-208228D01*
G01X-27460Y-215372D02*
Y-219322D01*
G02X-34940I-3740J7585D01*
G01D02*
Y-215372D01*
G01Y-211828D02*
Y-207863D01*
G02X-27361I3790J-7024D01*
G01D02*
Y-211828D01*
G01X-37828Y-224660D02*
X-33878D01*
G02Y-232140I-7585J-3740D01*
G01D02*
X-37828D01*
G01X-41372D02*
X-45337D01*
G02Y-224561I7024J3790D01*
G01D02*
X-41372D01*
G01X-68457Y-93461D02*
Y-90311D01*
G01X85784Y-97511D02*
X88343D01*
G01D02*
Y-100661D01*
G01D02*
X85784D01*
G01X83816Y-97511D02*
X81257D01*
G01D02*
Y-100661D01*
G01D02*
X83816D01*
G01X-68457Y-94711D02*
Y-97861D01*
G01X83816Y-104661D02*
X81257D01*
G01D02*
Y-101511D01*
G01D02*
X83816D01*
G01X85784Y-104661D02*
X88343D01*
G01D02*
Y-101511D01*
G01D02*
X85784D01*
G01X40782Y-1391D02*
X42592Y419D01*
G01D02*
X44819Y-1808D01*
G01D02*
X43009Y-3618D01*
G01X39391Y-2782D02*
X37581Y-4592D01*
G01D02*
X39808Y-6819D01*
G01D02*
X41618Y-5009D01*
G01X16375Y77416D02*
Y74857D01*
G01D02*
X13225D01*
G01D02*
Y77416D01*
G01X16375Y79384D02*
X16375Y81943D01*
G01D02*
X13225D01*
G01D02*
Y79384D01*
G01X8375Y61016D02*
Y58457D01*
G01D02*
X5225D01*
G01D02*
Y61016D01*
G01X8375Y62984D02*
Y65543D01*
G01D02*
X5225D01*
G01D02*
Y62984D01*
G01X47575Y84216D02*
Y81657D01*
G01D02*
X44425D01*
G01D02*
Y84216D01*
G01X47575Y86184D02*
Y88743D01*
G01D02*
X44425D01*
G01D02*
Y86184D01*
G01X17625Y79384D02*
X17625Y81943D01*
G01D02*
X20775D01*
G01D02*
X20775Y79384D01*
G01X17625Y77416D02*
Y74857D01*
G01D02*
X20775D01*
G01D02*
Y77416D01*
G01X43575Y80616D02*
Y78057D01*
G01D02*
X40425D01*
G01D02*
Y80616D01*
G01X43575Y82584D02*
Y85143D01*
G01D02*
X40425D01*
G01D02*
Y82584D01*
G01X138775Y-29784D02*
Y-32343D01*
G01D02*
X135625D01*
G01D02*
Y-29784D01*
G01X138775Y-27816D02*
Y-25257D01*
G01D02*
X135625D01*
G01D02*
Y-27816D01*
G01X130425Y50184D02*
Y52743D01*
G01D02*
X133575D01*
G01D02*
Y50184D01*
G01X130425Y48216D02*
Y45657D01*
G01D02*
X133575D01*
G01D02*
Y48216D01*
G01X-26018Y7809D02*
X-24208Y9619D01*
G01D02*
X-21981Y7392D01*
G01D02*
X-23791Y5582D01*
G01X-27409Y6418D02*
X-29219Y4608D01*
G01D02*
X-26992Y2381D01*
G01D02*
X-25182Y4191D01*
G01X134775Y-12984D02*
Y-15543D01*
G01D02*
X131625D01*
G01D02*
Y-12984D01*
G01X134775Y-11016D02*
Y-8457D01*
G01D02*
X131625D01*
G01D02*
Y-11016D01*
G01X-52425Y32616D02*
Y30057D01*
G01D02*
X-55575D01*
G01D02*
Y32616D01*
G01X-52425Y34584D02*
Y37143D01*
G01D02*
X-55575D01*
G01D02*
Y34584D01*
G01X93791Y-38418D02*
X91981Y-36608D01*
G01D02*
X94208Y-34381D01*
G01D02*
X96018Y-36191D01*
G01X95182Y-39809D02*
X96992Y-41619D01*
G01D02*
X99219Y-39392D01*
G01D02*
X97409Y-37582D01*
G01X96591Y-35618D02*
X94781Y-33808D01*
G01D02*
X97008Y-31581D01*
G01D02*
X98818Y-33391D01*
G01X97982Y-37009D02*
X99792Y-38819D01*
G01D02*
X102019Y-36592D01*
G01D02*
X100209Y-34782D01*
G01X8375Y51416D02*
Y48857D01*
G01D02*
X5225D01*
G01D02*
Y51416D01*
G01X8375Y53384D02*
Y55943D01*
G01D02*
X5225D01*
G01D02*
Y53384D01*
G01X133575Y39416D02*
Y36857D01*
G01D02*
X130425D01*
G01D02*
Y39416D01*
G01X133575Y41384D02*
Y43943D01*
G01D02*
X130425D01*
G01D02*
Y41384D01*
G01X32782Y1409D02*
X34592Y3219D01*
G01D02*
X36819Y992D01*
G01D02*
X35009Y-818D01*
G01X31391Y18D02*
X29581Y-1792D01*
G01D02*
X31808Y-4019D01*
G01D02*
X33618Y-2209D01*
G01X52775Y80616D02*
Y78057D01*
G01D02*
X49625D01*
G01D02*
Y80616D01*
G01X52775Y82584D02*
Y85143D01*
G01D02*
X49625D01*
G01D02*
Y82584D01*
G01X31009Y8818D02*
X32819Y7008D01*
G01D02*
X30592Y4781D01*
G01D02*
X28782Y6591D01*
G01X29618Y10209D02*
X27808Y12019D01*
G01D02*
X25581Y9792D01*
G01D02*
X27391Y7982D01*
G01X143975Y14057D02*
X140825D01*
G01D02*
Y16616D01*
G01X143975Y21143D02*
X140825D01*
G01D02*
Y18584D01*
G01X-7391Y-25982D02*
X-5581Y-27792D01*
G01D02*
X-7808Y-30019D01*
G01D02*
X-9618Y-28209D01*
G01X-8782Y-24591D02*
X-10592Y-22781D01*
G01D02*
X-12819Y-25008D01*
G01D02*
X-11009Y-26818D01*
G01X17618Y-39809D02*
X15808Y-41619D01*
G01D02*
X13581Y-39392D01*
G01D02*
X15391Y-37582D01*
G01X19009Y-38418D02*
X20819Y-36608D01*
G01D02*
X18592Y-34381D01*
G01D02*
X16782Y-36191D01*
G01X-3982Y-39809D02*
X-5792Y-41619D01*
G01D02*
X-8019Y-39392D01*
G01D02*
X-6209Y-37582D01*
G01X-2591Y-38418D02*
X-781Y-36608D01*
G01D02*
X-3008Y-34381D01*
G01D02*
X-4818Y-36191D01*
G01X24518Y21291D02*
X22708Y19481D01*
G01D02*
X20481Y21708D01*
G01D02*
X22291Y23518D01*
G01X25909Y22682D02*
X27719Y24492D01*
G01D02*
X25492Y26719D01*
G01D02*
X23682Y24909D01*
G01X20018Y13791D02*
X18208Y11981D01*
G01D02*
X15981Y14208D01*
G01D02*
X17791Y16018D01*
G01X21409Y15182D02*
X23219Y16992D01*
G01D02*
X20992Y19219D01*
G01D02*
X19182Y17409D01*
G01X-18591Y29618D02*
X-16781Y27808D01*
G01D02*
X-19008Y25581D01*
G01D02*
X-20818Y27391D01*
G01X-19982Y31009D02*
X-21792Y32819D01*
G01D02*
X-24019Y30592D01*
G01D02*
X-22209Y28782D01*
G01X122375Y75016D02*
Y72457D01*
G01D02*
X119225D01*
G01D02*
Y75016D01*
G01X122375Y76984D02*
Y79543D01*
G01D02*
X119225D01*
G01D02*
Y76984D01*
G01X125625Y76584D02*
Y79143D01*
G01D02*
X128775D01*
G01D02*
Y76584D01*
G01X125625Y74616D02*
Y72057D01*
G01D02*
X128775D01*
G01D02*
Y74616D01*
G01X-39625Y-114324D02*
X-36476D01*
G02Y-119048I-3417J-2362D01*
G01D02*
X-39625D01*
G01X-42775Y-114324D02*
X-45924D01*
G03Y-119048I3417J-2362D01*
G01D02*
X-42775D01*
G01X89175Y-86838D02*
X92324D01*
G02Y-91562I-3417J-2362D01*
G01D02*
X89175D01*
G01X86025Y-86838D02*
X82876D01*
G03Y-91562I3417J-2362D01*
G01D02*
X86025D01*
G01X41225Y-117848D02*
X38076D01*
G02Y-113124I3417J2362D01*
G01D02*
X41225D01*
G01X44375Y-117848D02*
X47524D01*
G03Y-113124I-3417J2362D01*
G01D02*
X44375D01*
G01X-13162Y-83511D02*
Y-80362D01*
G02X-8438I2362J-3417D01*
G01D02*
Y-83511D01*
G01X-13162Y-86661D02*
Y-89810D01*
G03X-8438I2362J3417D01*
G01D02*
Y-86661D01*
G01X-44425Y-94524D02*
X-41276D01*
G02Y-99248I-3417J-2362D01*
G01D02*
X-44425D01*
G01X-47575Y-94524D02*
X-50724D01*
G03Y-99248I3417J-2362D01*
G01D02*
X-47575D01*
G01X38425Y-98648D02*
X35276D01*
G02Y-93924I3417J2362D01*
G01D02*
X38425D01*
G01X41575Y-98648D02*
X44724D01*
G03Y-93924I-3417J2362D01*
G01D02*
X41575D01*
G01X-11584Y-8157D02*
X-13811Y-5930D01*
G02X-10470Y-2589I4086J-746D01*
G01D02*
X-8243Y-4816D01*
G01X-9357Y-10384D02*
X-7130Y-12611D01*
G03X-3789Y-9270I-746J4086D01*
G01D02*
X-6016Y-7043D01*
G01X107562Y-20375D02*
X107562Y-23524D01*
G02X102838Y-23524I-2362J3417D01*
G01D02*
Y-20375D01*
G01X107562Y-17225D02*
X107562Y-14076D01*
G03X102839I-2362J-3417D01*
G01D02*
X102838Y-17225D01*
G01X125575Y11562D02*
X128724D01*
G02Y6838I-3417J-2362D01*
G01D02*
X125575D01*
G01X122425Y11562D02*
X119276D01*
G03Y6838I3417J-2362D01*
G01D02*
X122425D01*
G01X34825Y58438D02*
X31676D01*
G02Y63162I3417J2362D01*
G01D02*
X34825D01*
G01X37975Y58438D02*
X41124D01*
G03Y63162I-3417J2362D01*
G01D02*
X37975D01*
G01X25575Y68797D02*
X28724D01*
G02X28724Y64074I-3417J-2362D01*
G01D02*
X25575D01*
G01X22425Y68797D02*
X19276D01*
G03Y64074I3417J-2362D01*
G01D02*
X22425D01*
G01X34425D02*
X31276D01*
G02Y68797I3417J2362D01*
G01D02*
X34425D01*
G01X37575Y64074D02*
X40724D01*
G03Y68797I-3417J2362D01*
G01D02*
X37575D01*
G01X23461Y88082D02*
X26610D01*
G02Y83359I-3417J-2362D01*
G01D02*
X23461D01*
G01X20312Y88082D02*
X17162D01*
G03Y83359I3417J-2362D01*
G01D02*
X20312D01*
G01X32312D02*
X29162D01*
G02Y88082I3417J2362D01*
G01D02*
X32312D01*
G01X35461Y83359D02*
X38610D01*
G03Y88082I-3417J2362D01*
G01D02*
X35461D01*
G01X21044Y-4416D02*
X23270Y-2190D01*
G02X26610Y-5530I-746J-4086D01*
G01D02*
X24384Y-7756D01*
G01X18816Y-6644D02*
X16590Y-8870D01*
G03X19930Y-12210I4086J746D01*
G01D02*
X22156Y-9984D01*
G01X125575Y-5238D02*
X128724D01*
G02Y-9962I-3417J-2362D01*
G01D02*
X125575D01*
G01X122425Y-5238D02*
X119276D01*
G03Y-9962I3417J-2362D01*
G01D02*
X122425D01*
G01X125575Y-10838D02*
X128724D01*
G02Y-15562I-3417J-2362D01*
G01D02*
X125575D01*
G01X122425Y-10838D02*
X119276D01*
G03Y-15562I3417J-2362D01*
G01D02*
X122425D01*
G01X125575Y362D02*
X128724D01*
G02Y-4362I-3417J-2362D01*
G01D02*
X125575D01*
G01X122425Y362D02*
X119276D01*
G03Y-4362I3417J-2362D01*
G01D02*
X122425D01*
G01X125575Y5962D02*
X128724D01*
G02Y1238I-3417J-2362D01*
G01D02*
X125575D01*
G01X122425Y5962D02*
X119276D01*
G03Y1238I3417J-2362D01*
G01D02*
X122425D01*
G01X126775Y-33238D02*
X129924D01*
G02Y-37962I-3417J-2362D01*
G01D02*
X126775D01*
G01X123625Y-33238D02*
X120476D01*
G03Y-37962I3417J-2362D01*
G01D02*
X123625D01*
G01X5756Y-37184D02*
X3530Y-39410D01*
G02X190Y-36070I746J4086D01*
G01D02*
X2416Y-33844D01*
G01X7984Y-34956D02*
X10210Y-32730D01*
G03X6870Y-29390I-4086J-746D01*
G01D02*
X4644Y-31616D01*
G01X18516Y-22056D02*
X16290Y-19830D01*
G02X19630Y-16490I4086J-746D01*
G01D02*
X21856Y-18716D01*
G01X20744Y-24284D02*
X22970Y-26510D01*
G03X26310Y-23170I-746J4086D01*
G01D02*
X24084Y-20944D01*
G01X138260Y33372D02*
Y37322D01*
G02X145740I3740J-7585D01*
G01Y29828D02*
Y25863D01*
G02X138161I-3790J7024D01*
G01D02*
Y29828D01*
G01X123340Y60628D02*
Y56678D01*
G02X115860I-3740J7585D01*
G01D02*
Y60628D01*
G01Y64172D02*
Y68137D01*
G02X123439I3790J-7024D01*
G01D02*
Y64172D01*
G01X145740Y57028D02*
Y53078D01*
G02X138260I-3740J7585D01*
G01D02*
Y57028D01*
G01Y60572D02*
Y64537D01*
G02X145839I3790J-7024D01*
G01X35575Y110616D02*
Y108057D01*
G01D02*
X32425D01*
G01D02*
Y110616D01*
G01X35575Y112584D02*
Y115143D01*
G01D02*
X32425D01*
G01D02*
Y112584D01*
G01X129575Y110216D02*
Y107657D01*
G01D02*
X126425D01*
G01D02*
Y110216D01*
G01X129575Y112184D02*
Y114743D01*
G01D02*
X126425D01*
G01D02*
Y112184D01*
G01X21958Y106248D02*
X25107D01*
G02Y101524I-3417J-2362D01*
G01D02*
X21958D01*
G01X18808Y106248D02*
X15659D01*
G03Y101524I3417J-2362D01*
G01D02*
X18808D01*
G01X31208D02*
X28059D01*
G02Y106248I3417J2362D01*
G01D02*
X31208D01*
G01X34358Y101524D02*
X37507D01*
G03Y106248I-3417J2362D01*
G01D02*
X34358Y106248D01*
G01X143575Y-217657D02*
Y-220216D01*
G01Y-224743D02*
Y-222184D01*
G01X164375Y-163784D02*
Y-166343D01*
G01D02*
X161225D01*
G01D02*
Y-163784D01*
G01X164375Y-161816D02*
Y-159257D01*
G01D02*
X161225D01*
G01D02*
Y-161816D01*
G01X168775Y-163784D02*
Y-166343D01*
G01D02*
X165625D01*
G01D02*
Y-163784D01*
G01X168775Y-161816D02*
Y-159257D01*
G01D02*
X165625D01*
G01D02*
Y-161816D01*
G01X173175Y-163784D02*
Y-166343D01*
G01D02*
X170025D01*
G01D02*
Y-163784D01*
G01X173175Y-161816D02*
Y-159257D01*
G01D02*
X170025D01*
G01D02*
Y-161816D01*
G01X177575Y-163784D02*
Y-166343D01*
G01D02*
X174425D01*
G01D02*
Y-163784D01*
G01X177575Y-161816D02*
Y-159257D01*
G01D02*
X174425D01*
G01D02*
Y-161816D01*
G01X181975Y-163784D02*
Y-166343D01*
G01D02*
X178825D01*
G01D02*
Y-163784D01*
G01X181975Y-161816D02*
Y-159257D01*
G01D02*
X178825D01*
G01D02*
Y-161816D01*
G01X186091Y-163918D02*
Y-166477D01*
G01D02*
X182941D01*
G01D02*
Y-163918D01*
G01X186091Y-161950D02*
Y-159391D01*
G01D02*
X182941D01*
G01D02*
Y-161950D01*
G01X190375Y-163784D02*
Y-166343D01*
G01D02*
X187225D01*
G01D02*
Y-163784D01*
G01X190375Y-161816D02*
Y-159257D01*
G01D02*
X187225D01*
G01D02*
Y-161816D01*
G01X158025Y23784D02*
Y26343D01*
G01D02*
X161175D01*
G01D02*
Y23784D01*
G01X158025Y21816D02*
Y19257D01*
G01D02*
X161175D01*
G01D02*
Y21816D01*
G01X182775Y-30584D02*
Y-33143D01*
G01D02*
X179625D01*
G01D02*
Y-30584D01*
G01X182775Y-28616D02*
Y-26057D01*
G01D02*
X179625D01*
G01D02*
Y-28616D01*
G01X147975Y8216D02*
Y5657D01*
G01D02*
X144825D01*
G01D02*
Y8216D01*
G01X147975Y10184D02*
Y12743D01*
G01D02*
X144825D01*
G01D02*
Y10184D01*
G01X184984Y-42425D02*
X187543D01*
G01D02*
Y-45575D01*
G01D02*
X184984D01*
G01X183016Y-42425D02*
X180457D01*
G01D02*
Y-45575D01*
G01D02*
X183016D01*
G01X199225Y-26216D02*
Y-23657D01*
G01D02*
X202375D01*
G01D02*
Y-26216D01*
G01X199225Y-28184D02*
Y-30743D01*
G01D02*
X202375D01*
G01D02*
Y-28184D01*
G01X216025Y-28216D02*
Y-25657D01*
G01D02*
X219175D01*
G01D02*
Y-28216D01*
G01X216025Y-30184D02*
Y-32743D01*
G01D02*
X219175D01*
G01D02*
Y-30184D01*
G01X216025Y-38616D02*
Y-36057D01*
G01D02*
X219175D01*
G01D02*
Y-38616D01*
G01X216025Y-40584D02*
Y-43143D01*
G01D02*
X219175D01*
G01D02*
Y-40584D01*
G01X210825Y-50216D02*
Y-47657D01*
G01D02*
X213975D01*
G01D02*
Y-50216D01*
G01X210825Y-52184D02*
Y-54743D01*
G01D02*
X213975D01*
G01D02*
Y-52184D01*
G01X194025Y-52216D02*
Y-49657D01*
G01D02*
X197175D01*
G01D02*
Y-52216D01*
G01X194025Y-54184D02*
Y-56743D01*
G01D02*
X197175D01*
G01D02*
Y-54184D01*
G01X193416Y-37975D02*
X190857D01*
G01D02*
Y-34825D01*
G01D02*
X193416D01*
G01X195384Y-37975D02*
X197943D01*
G01D02*
Y-34825D01*
G01D02*
X195384D01*
G01X159384Y-42825D02*
X161943D01*
G01D02*
Y-45975D01*
G01D02*
X159384D01*
G01X157416Y-42825D02*
X154857D01*
G01D02*
Y-45975D01*
G01D02*
X157416D01*
G01X143975Y16616D02*
Y14057D01*
G01Y18584D02*
Y21143D01*
G01X209975Y81816D02*
Y79257D01*
G01D02*
X206825D01*
G01D02*
Y81816D01*
G01X209975Y83784D02*
Y86343D01*
G01D02*
X206825D01*
G01D02*
Y83784D01*
G01X189575Y84616D02*
Y82057D01*
G01D02*
X186425D01*
G01D02*
Y84616D01*
G01X189575Y86584D02*
Y89143D01*
G01D02*
X186425D01*
G01D02*
Y86584D01*
G01X209543Y90775D02*
Y87625D01*
G01D02*
X206984D01*
G01X202457Y90775D02*
Y87625D01*
G01D02*
X205016D01*
G01X205575Y81816D02*
Y79257D01*
G01D02*
X202425D01*
G01D02*
Y81816D01*
G01X205575Y83784D02*
Y86343D01*
G01D02*
X202425D01*
G01D02*
Y83784D01*
G01X217784Y75575D02*
X220343D01*
G01D02*
Y72425D01*
G01D02*
X217784D01*
G01X215816Y75575D02*
X213257D01*
G01D02*
Y72425D01*
G01D02*
X215816D01*
G01X185575Y84616D02*
Y82057D01*
G01D02*
X182425D01*
G01D02*
Y84616D01*
G01X185575Y86584D02*
Y89143D01*
G01D02*
X182425D01*
G01D02*
Y86584D01*
G01X197384Y73975D02*
X199943D01*
G01D02*
Y70825D01*
G01D02*
X197384D01*
G01X195416Y73975D02*
X192857D01*
G01D02*
Y70825D01*
G01D02*
X195416D01*
G01X145740Y37322D02*
Y33372D01*
G01X187028Y7060D02*
X183078D01*
G02Y14540I7585J3740D01*
G01D02*
X187028D01*
G01X190572D02*
X194537D01*
G02Y6961I-7024J-3790D01*
G01D02*
X190572D01*
G01X148660Y33372D02*
Y37322D01*
G02X156140I3740J-7585D01*
G01D02*
Y33372D01*
G01Y29828D02*
Y25863D01*
G02X148561I-3790J7024D01*
G01D02*
Y29828D01*
G01X166972Y-61860D02*
X170922D01*
G02Y-69340I-7585J-3740D01*
G01D02*
X166972D01*
G01X163428D02*
X159463D01*
G02Y-61761I7024J3790D01*
G01D02*
X163428D01*
G01X166972Y-53060D02*
X170922D01*
G02Y-60540I-7585J-3740D01*
G01D02*
X166972D01*
G01X163428D02*
X159463D01*
G02Y-52961I7024J3790D01*
G01D02*
X163428D01*
G01X187028Y-1740D02*
X183078D01*
G02Y5740I7585J3740D01*
G01D02*
X187028D01*
G01X190572D02*
X194537D01*
G02Y-1839I-7024J-3790D01*
G01D02*
X190572D01*
G01X152628Y62660D02*
X148678D01*
G02Y70140I7585J3740D01*
G01D02*
X152628D01*
G01X156172D02*
X160137D01*
G02Y62561I-7024J-3790D01*
G01D02*
X156172D01*
G01X145839Y64537D02*
Y60572D01*
G01X200775Y96216D02*
Y93657D01*
G01D02*
X197625D01*
G01D02*
Y96216D01*
G01X200775Y98184D02*
Y100743D01*
G01D02*
X197625D01*
G01D02*
Y98184D01*
G01X196775Y96216D02*
Y93657D01*
G01D02*
X193625D01*
G01D02*
Y96216D01*
G01X196775Y98184D02*
Y100743D01*
G01D02*
X193625D01*
G01D02*
Y98184D01*
G01X206984Y90775D02*
X209543D01*
G01X205016D02*
X202457D01*
G54D11*
G01X205848Y-163847D02*
Y-153650D01*
G01D02*
X213012D01*
G01D02*
Y-155815D01*
G01D02*
X222498D01*
G01D02*
Y-153217D01*
G01D02*
X227895D01*
G01D02*
Y-221642D01*
G01D02*
X222436D01*
G01D02*
Y-219083D01*
G01D02*
X213246D01*
G01D02*
Y-221642D01*
G01D02*
X205848D01*
G01D02*
Y-211811D01*
G01X222436Y-221422D02*
Y-155815D01*
G01X201067Y-210422D02*
X195000Y-212300D01*
G01D02*
Y-208300D01*
G01D02*
X201067Y-210422D01*
G54D21*
G01X197500Y-215000D02*
X200000D01*
X199500Y-215320D01*
G01X197500D02*
Y-214680D01*
G01X200583Y-166507D02*
X200833Y-166347D01*
X200958Y-166160D01*
X201000Y-165947D01*
X200917Y-165680D01*
X200708Y-165493D01*
X200458Y-165440D01*
X200208Y-165467D01*
X200000Y-165573D01*
X199583Y-166107D01*
X199292Y-166347D01*
X198875Y-166507D01*
X198500Y-166560D01*
Y-165440D01*
G01Y-163480D02*
X201000D01*
X199208Y-164467D01*
Y-163133D01*
G54D12*
G01X-111543Y-212600D02*
Y-209301D01*
G01D02*
X-104443D01*
G01X-111543Y-218600D02*
Y-221899D01*
G01D02*
X-104443D01*
G01X-104457Y-214616D02*
Y-216584D01*
G01X-176200Y-195943D02*
X-179499D01*
G01D02*
Y-188843D01*
G01X-170200Y-195943D02*
X-166901D01*
G01D02*
Y-188843D01*
G01X-174184Y-188857D02*
X-172216D01*
G01X-95131Y-212143D02*
X-86469D01*
G01D02*
Y-217457D01*
G01D02*
X-95131D01*
G01D02*
Y-212143D01*
G01X-127690Y-154126D02*
X-128674Y-155110D01*
G01D02*
Y-169874D01*
G01D02*
X-113910D01*
G01D02*
X-112926Y-168890D01*
G01D02*
Y-154126D01*
G01D02*
X-127690D01*
G01X-113000Y46457D02*
X-116299D01*
G01D02*
Y53557D01*
G01X-107000Y46457D02*
X-103701D01*
G01D02*
Y53557D01*
G01X-110984Y53543D02*
X-109016D01*
G01X75543Y-251800D02*
Y-255099D01*
G01D02*
X68443D01*
G01X75543Y-245800D02*
Y-242501D01*
G01D02*
X68443D01*
G01X68457Y-249784D02*
Y-247816D01*
G01X117290Y-235074D02*
X118274Y-234090D01*
G01D02*
Y-219326D01*
G01D02*
X103510D01*
G01D02*
X102526Y-220310D01*
G01D02*
Y-235074D01*
G01D02*
X117290D01*
G01X205543Y59800D02*
Y56501D01*
G01D02*
X198443D01*
G01X205543Y65800D02*
Y69099D01*
G01D02*
X198443D01*
G01X198457Y61816D02*
Y63784D01*
G01X181000Y18857D02*
X177701D01*
G01D02*
Y25957D01*
G01X187000Y18857D02*
X190299D01*
G01D02*
Y25957D01*
G01X183016Y25943D02*
X184984D01*
G01X206657Y-46069D02*
Y-54731D01*
G01D02*
X201343D01*
G01D02*
Y-46069D01*
G01D02*
X206657D01*
G01X212257Y-35269D02*
Y-43931D01*
G01D02*
X206943D01*
G01D02*
Y-35269D01*
G01D02*
X212257D01*
G01X211857Y-24869D02*
Y-33531D01*
G01D02*
X206543D01*
G01D02*
Y-24869D01*
G01D02*
X211857D01*
G01X153857Y22731D02*
Y14069D01*
G01D02*
X148543D01*
G01D02*
Y22731D01*
G01D02*
X153857D01*
G01X221131Y79343D02*
X212469D01*
G01D02*
Y84657D01*
G01D02*
X221131D01*
G01D02*
Y79343D01*
G01X200731Y78543D02*
X192069D01*
G01D02*
Y83857D01*
G01D02*
X200731D01*
G01D02*
Y78543D01*
G01X210731Y94943D02*
X202069D01*
G01D02*
Y100257D01*
G01D02*
X210731D01*
G01D02*
Y94943D01*
G54D13*
G01X176706Y-45137D02*
Y-37263D01*
G01D02*
X164894D01*
G01D02*
Y-45137D01*
G01D02*
X176706D01*
G01X173331Y-47720D02*
G03I-612J0D01*
G54D14*
G01X-172024Y-130463D02*
G03I-1056J0D01*
G01X-131724Y-169463D02*
G03I-1056J0D01*
G01X-127099Y-154126D02*
Y-153535D01*
G01X-124737Y-154126D02*
G03X-128674Y-158063I-2612J-1325D01*
G01D02*
Y-155110D01*
G01D02*
X-127690Y-154126D01*
G01D02*
X-124737D01*
G01X-129855Y-156094D02*
X-126706Y-152945D01*
G01X-130249Y-155701D02*
X-127099Y-152551D01*
G01X-129954Y-154618D02*
X-128280Y-152945D01*
G01X-129068Y-157472D02*
Y-155307D01*
G01X-125524Y-153732D02*
X-127394D01*
G01D02*
X-129461Y-155799D01*
G01D02*
Y-157276D01*
G01X-129855Y-154520D02*
Y-156488D01*
G01X-125524Y-154126D02*
X-126706Y-152945D01*
G01X-128280D02*
X-126706D01*
G01D02*
Y-153732D01*
G01X-124737Y-154126D02*
X-125918Y-152945D01*
G01X-114501Y-169874D02*
Y-170465D01*
G01X-116863Y-169874D02*
G03X-112926Y-165937I2612J1325D01*
G01D02*
Y-168890D01*
G01D02*
X-113910Y-169874D01*
G01D02*
X-116863D01*
G01X-111745Y-167906D02*
X-114894Y-171055D01*
G01X-111351Y-168299D02*
X-114501Y-171449D01*
G01X-111646Y-169382D02*
X-113320Y-171055D01*
G01X-112532Y-166528D02*
Y-168693D01*
G01X-116076Y-170268D02*
X-114206D01*
G01D02*
X-112139Y-168201D01*
G01D02*
Y-166724D01*
G01X-111745Y-169480D02*
Y-167512D01*
G01X-116076Y-169874D02*
X-114894Y-171055D01*
G01X-113320D02*
X-114894D01*
G01D02*
Y-170268D01*
G01X-116863Y-169874D02*
X-115682Y-171055D01*
G01X-130924Y80137D02*
G03I-1056J0D01*
G01X-122762Y44381D02*
Y48515D01*
G01D02*
X-118038D01*
G01D02*
Y44381D01*
G01X-122762Y42019D02*
Y37885D01*
G01D02*
X-118038D01*
G01D02*
Y42019D01*
G01X129076Y-215863D02*
G03I-1056J0D01*
G01X116699Y-235074D02*
Y-235665D01*
G01X114337Y-235074D02*
G03X118274Y-231137I2612J1325D01*
G01D02*
Y-234090D01*
G01D02*
X117290Y-235074D01*
G01D02*
X114337D01*
G01X119455Y-233106D02*
X116306Y-236255D01*
G01X119849Y-233499D02*
X116699Y-236649D01*
G01X119554Y-234582D02*
X117880Y-236255D01*
G01X118668Y-231728D02*
Y-233893D01*
G01X115124Y-235468D02*
X116994D01*
G01D02*
X119061Y-233401D01*
G01D02*
Y-231924D01*
G01X119455Y-234680D02*
Y-232712D01*
G01X115124Y-235074D02*
X116306Y-236255D01*
G01X117880D02*
X116306D01*
G01D02*
Y-235468D01*
G01X114337Y-235074D02*
X115518Y-236255D01*
G01X104101Y-219326D02*
Y-218735D01*
G01X106463Y-219326D02*
G03X102526Y-223263I-2612J-1325D01*
G01D02*
Y-220310D01*
G01D02*
X103510Y-219326D01*
G01D02*
X106463D01*
G01X101345Y-221294D02*
X104494Y-218145D01*
G01X100951Y-220901D02*
X104101Y-217751D01*
G01X101246Y-219818D02*
X102920Y-218145D01*
G01X102132Y-222672D02*
Y-220507D01*
G01X105676Y-218932D02*
X103806D01*
G01D02*
X101739Y-220999D01*
G01D02*
Y-222476D01*
G01X101345Y-219720D02*
Y-221688D01*
G01X105676Y-219326D02*
X104494Y-218145D01*
G01X102920D02*
X104494D01*
G01D02*
Y-218932D01*
G01X106463Y-219326D02*
X105282Y-218145D01*
G01X119476Y55337D02*
G03I-1056J0D01*
G01X20919Y71620D02*
G03I-1056J0D01*
G01X136636Y52263D02*
G03I-1056J0D01*
G01X13719Y108420D02*
G03I-1056J0D01*
G01X19205Y90541D02*
G03I-1056J0D01*
G01X144892Y-107D02*
X143707D01*
G01D02*
Y-13493D01*
G01D02*
X144992D01*
G01X155960Y-107D02*
X157093D01*
G01D02*
Y-13493D01*
G01D02*
X155959D01*
G01X175108Y27307D02*
X176293D01*
G01D02*
Y40693D01*
G01D02*
X175008D01*
G01X164040Y27307D02*
X162907D01*
G01D02*
Y40693D01*
G01D02*
X164041D01*
G54D15*
G01X-122425Y-193416D02*
Y-191200D01*
G03X-125575I-1575J-1786D01*
G01D02*
Y-193416D01*
G01X-122425Y-195384D02*
Y-197600D01*
G02X-125575I-1575J1786D01*
G01D02*
Y-195384D01*
G01X-92216Y-207175D02*
X-90000D01*
G03Y-204025I-1786J1575D01*
G01D02*
X-92216D01*
G01X-94184Y-207175D02*
X-96400D01*
G02Y-204025I1786J1575D01*
G01D02*
X-94184D01*
G01X-204025Y-130616D02*
Y-128400D01*
G03X-207175I-1575J-1786D01*
G01D02*
Y-130616D01*
G01X-204025Y-132584D02*
Y-134800D01*
G02X-207175I-1575J1786D01*
G01D02*
Y-132584D01*
G01X-129016Y-213175D02*
X-126800D01*
G03Y-210025I-1786J1575D01*
G01D02*
X-129016D01*
G01X-130984Y-213175D02*
X-133200D01*
G02Y-210025I1786J1575D01*
G01D02*
X-130984D01*
G01X-205784Y-191225D02*
X-208000D01*
G03Y-194375I1786J-1575D01*
G01D02*
X-205784D01*
G01X-203816Y-191225D02*
X-201600D01*
G02Y-194375I-1786J-1575D01*
G01D02*
X-203816D01*
G01X-106375Y-228184D02*
Y-230400D01*
G03X-103225I1575J1786D01*
G01D02*
Y-228184D01*
G01X-106375Y-226216D02*
Y-224000D01*
G02X-103225I1575J-1786D01*
G01D02*
Y-226216D01*
G01X-100775Y-173384D02*
Y-175600D01*
G03X-97625I1575J1786D01*
G01D02*
Y-173384D01*
G01X-100775Y-171416D02*
Y-169200D01*
G02X-97625I1575J-1786D01*
G01D02*
Y-171416D01*
G01X-130425Y-162616D02*
Y-160400D01*
G03X-133575I-1575J-1786D01*
G01D02*
Y-162616D01*
G01X-130425Y-164584D02*
Y-166800D01*
G02X-133575I-1575J1786D01*
G01D02*
Y-164584D01*
G01X-115515Y-137195D02*
X-115515Y-139411D01*
G03X-112365Y-139411I1575J1786D01*
G01D02*
X-112366Y-137195D01*
G01X-115515Y-135227D02*
Y-133011D01*
G02X-112365I1575J-1786D01*
G01D02*
Y-135227D01*
G01X-205784Y-187225D02*
X-208000D01*
G03Y-190375I1786J-1575D01*
G01D02*
X-205784D01*
G01X-203816Y-187225D02*
X-201600D01*
G02Y-190375I-1786J-1575D01*
G01D02*
X-203816D01*
G01X-186825Y-122616D02*
Y-120400D01*
G03X-189975I-1575J-1786D01*
G01D02*
Y-122616D01*
G01X-186825Y-124584D02*
Y-126800D01*
G02X-189975I-1575J1786D01*
G01D02*
Y-124584D01*
G01X-129416Y-225175D02*
X-127200D01*
G03Y-222025I-1786J1575D01*
G01D02*
X-129416D01*
G01X-131384Y-225175D02*
X-133600D01*
G02Y-222025I1786J1575D01*
G01D02*
X-131384D01*
G01X-194616Y-139575D02*
X-192400D01*
G03Y-136425I-1786J1575D01*
G01D02*
X-194616D01*
G01X-196584Y-139575D02*
X-198800D01*
G02Y-136425I1786J1575D01*
G01D02*
X-196584D01*
G01X-153784Y-199225D02*
X-156000D01*
G03Y-202375I1786J-1575D01*
G01D02*
X-153784D01*
G01X-151816Y-199225D02*
X-149600D01*
G02Y-202375I-1786J-1575D01*
G01D02*
X-151816D01*
G01X-72984Y-98711D02*
X-75200D01*
G03Y-101861I1786J-1575D01*
G01D02*
X-72984D01*
G01X-71016Y-98711D02*
X-68800D01*
G02Y-101861I-1786J-1575D01*
G01D02*
X-71016D01*
G01Y-89461D02*
X-68800D01*
G03Y-86311I-1786J1575D01*
G01D02*
X-71016D01*
G01X-72984Y-89461D02*
X-75200D01*
G02Y-86311I1786J1575D01*
G01D02*
X-72984D01*
G01Y-102711D02*
X-75200D01*
G03Y-105861I1786J-1575D01*
G01D02*
X-72984D01*
G01X-71016Y-102711D02*
X-68800D01*
G02Y-105861I-1786J-1575D01*
G01D02*
X-71016D01*
G01X-121784Y-13625D02*
X-124000D01*
G03Y-16775I1786J-1575D01*
G01D02*
X-121784D01*
G01X-119816Y-13625D02*
X-117600D01*
G02Y-16775I-1786J-1575D01*
G01D02*
X-119816D01*
G01X-121384Y-19225D02*
X-123600D01*
G03Y-22375I1786J-1575D01*
G01D02*
X-121384D01*
G01X-119416Y-19225D02*
X-117200D01*
G02Y-22375I-1786J-1575D01*
G01D02*
X-119416D01*
G01X-148775Y-9784D02*
Y-12000D01*
G03X-145625I1575J1786D01*
G01D02*
Y-9784D01*
G01X-148775Y-7816D02*
Y-5600D01*
G02X-145625I1575J-1786D01*
G01D02*
Y-7816D01*
G01X-158584Y775D02*
X-160800D01*
G03Y-2375I1786J-1575D01*
G01D02*
X-158584D01*
G01X-156616Y775D02*
X-154400D01*
G02Y-2375I-1786J-1575D01*
G01D02*
X-156616D01*
G01X-141784Y-21625D02*
X-144000D01*
G03Y-24775I1786J-1575D01*
G01D02*
X-141784D01*
G01X-139816Y-21625D02*
X-137600D01*
G02Y-24775I-1786J-1575D01*
G01D02*
X-139816D01*
G01X-119416Y-30375D02*
X-117200D01*
G03Y-27225I-1786J1575D01*
G01D02*
X-119416D01*
G01X-121384Y-30375D02*
X-123600D01*
G02Y-27225I1786J1575D01*
G01D02*
X-121384D01*
G01Y-31225D02*
X-123600D01*
G03Y-34375I1786J-1575D01*
G01D02*
X-121384D01*
G01X-119416Y-31225D02*
X-117200D01*
G02Y-34375I-1786J-1575D01*
G01D02*
X-119416D01*
G01X-157384Y10375D02*
X-159600D01*
G03Y7225I1786J-1575D01*
G01D02*
X-157384D01*
G01X-155416Y10375D02*
X-153200D01*
G02Y7225I-1786J-1575D01*
G01D02*
X-155416D01*
G01X-113982Y16209D02*
X-115549Y17776D01*
G03X-117776Y15549I149J-2376D01*
G01D02*
X-116209Y13982D01*
G01X-112591Y14818D02*
X-111024Y13251D01*
G02X-113251Y11024I-2376J149D01*
G01D02*
X-114818Y12591D01*
G01X-116825Y65784D02*
Y68000D01*
G03X-119975I-1575J-1786D01*
G01D02*
Y65784D01*
G01X-116825Y63816D02*
Y61600D01*
G02X-119975I-1575J1786D01*
G01D02*
Y63816D01*
G01X-199384Y2375D02*
X-201600D01*
G03Y-775I1786J-1575D01*
G01D02*
X-199384D01*
G01X-197416Y2375D02*
X-195200D01*
G02Y-775I-1786J-1575D01*
G01D02*
X-197416D01*
G01X-199384Y-1625D02*
X-201600D01*
G03Y-4775I1786J-1575D01*
G01D02*
X-199384D01*
G01X-197416Y-1625D02*
X-195200D01*
G02Y-4775I-1786J-1575D01*
G01D02*
X-197416D01*
G01X-126375Y-2984D02*
Y-5200D01*
G03X-123225I1575J1786D01*
G01D02*
Y-2984D01*
G01X-126375Y-1016D02*
Y1200D01*
G02X-123225I1575J-1786D01*
G01D02*
Y-1016D01*
G01X-123575Y108216D02*
Y106000D01*
G03X-120425I1575J1786D01*
G01D02*
Y108216D01*
G01X-123575Y110184D02*
Y112400D01*
G02X-120425I1575J-1786D01*
G01D02*
Y110184D01*
G01X56616Y-188825D02*
X54400D01*
G03Y-191975I1786J-1575D01*
G01D02*
X56616D01*
G01X58584Y-188825D02*
X60800D01*
G02Y-191975I-1786J-1575D01*
G01D02*
X58584D01*
G01X-30425Y-243816D02*
Y-241600D01*
G03X-33575I-1575J-1786D01*
G01D02*
Y-243816D01*
G01X-30425Y-245784D02*
Y-248000D01*
G02X-33575I-1575J1786D01*
G01D02*
Y-245784D01*
G01X76825Y-238184D02*
Y-240400D01*
G03X79975I1575J1786D01*
G01D02*
Y-238184D01*
G01X76825Y-236216D02*
Y-234000D01*
G02X79975I1575J-1786D01*
G01D02*
Y-236216D01*
G01X-57575Y-241384D02*
Y-243600D01*
G03X-54425I1575J1786D01*
G01D02*
Y-241384D01*
G01X-57575Y-239416D02*
Y-237200D01*
G02X-54425I1575J-1786D01*
G01D02*
Y-239416D01*
G01X89016Y-187625D02*
X86800D01*
G03Y-190775I1786J-1575D01*
G01D02*
X89016D01*
G01X90984Y-187625D02*
X93200D01*
G02Y-190775I-1786J-1575D01*
G01D02*
X90984D01*
G01X88616Y-182825D02*
X86400D01*
G03Y-185975I1786J-1575D01*
G01D02*
X88616D01*
G01X90584Y-182825D02*
X92800D01*
G02Y-185975I-1786J-1575D01*
G01D02*
X90584D01*
G01X70584Y-184375D02*
X72800D01*
G03Y-181225I-1786J1575D01*
G01D02*
X70584D01*
G01X68616Y-184375D02*
X66400D01*
G02Y-181225I1786J1575D01*
G01D02*
X68616D01*
G01X70584Y-191575D02*
X72800D01*
G03Y-188425I-1786J1575D01*
G01D02*
X70584D01*
G01X68616Y-191575D02*
X66400D01*
G02Y-188425I1786J1575D01*
G01D02*
X68616D01*
G01X89016Y-195625D02*
X86800D01*
G03Y-198775I1786J-1575D01*
G01D02*
X89016D01*
G01X90984Y-195625D02*
X93200D01*
G02Y-198775I-1786J-1575D01*
G01D02*
X90984D01*
G01X89016Y-191625D02*
X86800D01*
G03Y-194775I1786J-1575D01*
G01D02*
X89016D01*
G01X90984Y-191625D02*
X93200D01*
G02Y-194775I-1786J-1575D01*
G01D02*
X90984D01*
G01X74025Y-179384D02*
Y-181600D01*
G03X77175I1575J1786D01*
G01D02*
Y-179384D01*
G01X74025Y-177416D02*
Y-175200D01*
G02X77175I1575J-1786D01*
G01D02*
Y-177416D01*
G01X83625Y-179784D02*
Y-182000D01*
G03X86775I1575J1786D01*
G01D02*
Y-179784D01*
G01X83625Y-177816D02*
Y-175600D01*
G02X86775I1575J-1786D01*
G01D02*
Y-177816D01*
G01X81416Y-198425D02*
X79200D01*
G03Y-201575I1786J-1575D01*
G01D02*
X81416D01*
G01X83384Y-198425D02*
X85600D01*
G02Y-201575I-1786J-1575D01*
G01D02*
X83384D01*
G01X73016Y-198425D02*
X70800D01*
G03Y-201575I1786J-1575D01*
G01D02*
X73016D01*
G01X74984Y-198425D02*
X77200D01*
G02Y-201575I-1786J-1575D01*
G01D02*
X74984D01*
G01X69225Y-224584D02*
Y-226800D01*
G03X72375I1575J1786D01*
G01D02*
Y-224584D01*
G01X69225Y-222616D02*
Y-220400D01*
G02X72375I1575J-1786D01*
G01D02*
Y-222616D01*
G01X65225Y-224584D02*
Y-226800D01*
G03X68375I1575J1786D01*
G01D02*
Y-224584D01*
G01X65225Y-222616D02*
Y-220400D01*
G02X68375I1575J-1786D01*
G01D02*
Y-222616D01*
G01X52025Y-224984D02*
Y-227200D01*
G03X55175I1575J1786D01*
G01D02*
Y-224984D01*
G01X52025Y-223016D02*
Y-220800D01*
G02X55175I1575J-1786D01*
G01D02*
Y-223016D01*
G01X91225Y-236984D02*
Y-239200D01*
G03X94375I1575J1786D01*
G01D02*
Y-236984D01*
G01X91225Y-235016D02*
Y-232800D01*
G02X94375I1575J-1786D01*
G01D02*
Y-235016D01*
G01X136775Y-208616D02*
Y-206400D01*
G03X133625I-1575J-1786D01*
G01D02*
Y-208616D01*
G01X136775Y-210584D02*
Y-212800D01*
G02X133625I-1575J1786D01*
G01D02*
Y-210584D01*
G01X-32425Y-88502D02*
Y-86286D01*
G03X-35575I-1575J-1786D01*
G01D02*
Y-88502D01*
G01X-32425Y-90470D02*
Y-92686D01*
G02X-35575I-1575J1786D01*
G01D02*
Y-90470D01*
G01X75016Y-96311D02*
X72800D01*
G03Y-99461I1786J-1575D01*
G01D02*
X75016D01*
G01X76984Y-96311D02*
X79200D01*
G02Y-99461I-1786J-1575D01*
G01D02*
X76984D01*
G01X85784Y-109061D02*
X88000D01*
G03Y-105911I-1786J1575D01*
G01D02*
X85784D01*
G01X83816Y-109061D02*
X81600D01*
G02Y-105911I1786J1575D01*
G01D02*
X83816D01*
G01X83416Y-93511D02*
X81200D01*
G03Y-96661I1786J-1575D01*
G01D02*
X83416D01*
G01X85384Y-93511D02*
X87600D01*
G02Y-96661I-1786J-1575D01*
G01D02*
X85384D01*
G01X45625Y-78784D02*
Y-81000D01*
G03X48775I1575J1786D01*
G01D02*
Y-78784D01*
G01X45625Y-76816D02*
Y-74600D01*
G02X48775I1575J-1786D01*
G01D02*
Y-76816D01*
G01X56575Y-88502D02*
Y-86286D01*
G03X53425I-1575J-1786D01*
G01D02*
Y-88502D01*
G01X56575Y-90470D02*
Y-92686D01*
G02X53425I-1575J1786D01*
G01D02*
Y-90470D01*
G01X63816Y-95911D02*
X61600D01*
G03Y-99061I1786J-1575D01*
G01D02*
X63816D01*
G01X65784Y-95911D02*
X68000D01*
G02Y-99061I-1786J-1575D01*
G01D02*
X65784D01*
G01X60575Y-88502D02*
Y-86286D01*
G03X57425I-1575J-1786D01*
G01D02*
Y-88502D01*
G01X60575Y-90470D02*
Y-92686D01*
G02X57425I-1575J1786D01*
G01D02*
Y-90470D01*
G01X-36175Y-82070D02*
Y-84286D01*
G03X-33025I1575J1786D01*
G01D02*
Y-82070D01*
G01X-36175Y-80102D02*
Y-77886D01*
G02X-33025I1575J-1786D01*
G01D02*
Y-80102D01*
G01X-23775Y-78870D02*
Y-81086D01*
G03X-20625I1575J1786D01*
G01D02*
Y-78870D01*
G01X-23775Y-76902D02*
Y-74686D01*
G02X-20625I1575J-1786D01*
G01D02*
Y-76902D01*
G01X-45175Y-77384D02*
Y-79600D01*
G03X-42025I1575J1786D01*
G01D02*
Y-77384D01*
G01X-45175Y-75416D02*
Y-73200D01*
G02X-42025I1575J-1786D01*
G01D02*
Y-75416D01*
G01X29816Y-107111D02*
X27600D01*
G03Y-110261I1786J-1575D01*
G01D02*
X29816D01*
G01X31784Y-107111D02*
X34000D01*
G02Y-110261I-1786J-1575D01*
G01D02*
X31784D01*
G01X30425Y-89270D02*
Y-91486D01*
G03X33575I1575J1786D01*
G01D02*
Y-89270D01*
G01X30425Y-87302D02*
Y-85086D01*
G02X33575I1575J-1786D01*
G01D02*
Y-87302D01*
G01X29816Y-103111D02*
X27600D01*
G03Y-106261I1786J-1575D01*
G01D02*
X29816D01*
G01X31784Y-103111D02*
X34000D01*
G02Y-106261I-1786J-1575D01*
G01D02*
X31784D01*
G01X47816Y-103225D02*
X45600D01*
G03Y-106375I1786J-1575D01*
G01D02*
X47816D01*
G01X49784Y-103225D02*
X52000D01*
G02Y-106375I-1786J-1575D01*
G01D02*
X49784D01*
G01X42616Y-109225D02*
X40400D01*
G03Y-112375I1786J-1575D01*
G01D02*
X42616D01*
G01X44584Y-109225D02*
X46800D01*
G02Y-112375I-1786J-1575D01*
G01D02*
X44584D01*
G01X46184Y-102375D02*
X48400D01*
G03Y-99225I-1786J1575D01*
G01D02*
X46184D01*
G01X44216Y-102375D02*
X42000D01*
G02Y-99225I1786J1575D01*
G01D02*
X44216D01*
G01X67416Y-101111D02*
X65200D01*
G03Y-104261I1786J-1575D01*
G01D02*
X67416D01*
G01X69384Y-101111D02*
X71600D01*
G02Y-104261I-1786J-1575D01*
G01D02*
X69384D01*
G01X-18984Y-96711D02*
X-21200D01*
G03Y-99861I1786J-1575D01*
G01D02*
X-18984D01*
G01X-17016Y-96711D02*
X-14800D01*
G02Y-99861I-1786J-1575D01*
G01D02*
X-17016D01*
G01X-63384Y-86311D02*
X-65600D01*
G03Y-89461I1786J-1575D01*
G01D02*
X-63384D01*
G01X-61416Y-86311D02*
X-59200D01*
G02Y-89461I-1786J-1575D01*
G01D02*
X-61416D01*
G01X-63384Y-102711D02*
X-65600D01*
G03Y-105861I1786J-1575D01*
G01D02*
X-63384D01*
G01X-61416Y-102711D02*
X-59200D01*
G02Y-105861I-1786J-1575D01*
G01D02*
X-61416D01*
G01X-63384Y-106311D02*
X-65600D01*
G03Y-109461I1786J-1575D01*
G01D02*
X-63384D01*
G01X-61416Y-106311D02*
X-59200D01*
G02Y-109461I-1786J-1575D01*
G01D02*
X-61416D01*
G01X-46616Y-103061D02*
X-44400D01*
G03Y-99911I-1786J1575D01*
G01D02*
X-46616D01*
G01X-48584Y-103061D02*
X-50800D01*
G02Y-99911I1786J1575D01*
G01D02*
X-48584D01*
G01X-44584Y-108425D02*
X-46800D01*
G03Y-111575I1786J-1575D01*
G01D02*
X-44584D01*
G01X-42616Y-108425D02*
X-40400D01*
G02Y-111575I-1786J-1575D01*
G01D02*
X-42616D01*
G01X-19816Y-103861D02*
X-17600D01*
G03Y-100711I-1786J1575D01*
G01D02*
X-19816D01*
G01X-21784Y-103861D02*
X-24000D01*
G02Y-100711I1786J1575D01*
G01D02*
X-21784D01*
G01X-46616Y-107061D02*
X-44400D01*
G03Y-103911I-1786J1575D01*
G01D02*
X-46616D01*
G01X-48584Y-107061D02*
X-50800D01*
G02Y-103911I1786J1575D01*
G01D02*
X-48584D01*
G01X59175Y-80502D02*
Y-78286D01*
G03X56025I-1575J-1786D01*
G01D02*
Y-80502D01*
G01X59175Y-82470D02*
Y-84686D01*
G02X56025I-1575J1786D01*
G01D02*
Y-82470D01*
G01X-23816Y-115175D02*
X-21600D01*
G03Y-112025I-1786J1575D01*
G01D02*
X-23816D01*
G01X-25784Y-115175D02*
X-28000D01*
G02Y-112025I1786J1575D01*
G01D02*
X-25784D01*
G01X57784Y-99061D02*
X60000D01*
G03Y-95911I-1786J1575D01*
G01D02*
X57784D01*
G01X55816Y-99061D02*
X53600D01*
G02Y-95911I1786J1575D01*
G01D02*
X55816D01*
G01X-36025Y-88502D02*
Y-86286D01*
G03X-39175I-1575J-1786D01*
G01D02*
Y-88502D01*
G01X-36025Y-90470D02*
Y-92686D01*
G02X-39175I-1575J1786D01*
G01D02*
Y-90470D01*
G01X67275Y-76616D02*
Y-74400D01*
G03X64125I-1575J-1786D01*
G01D02*
Y-76616D01*
G01X67275Y-78584D02*
Y-80800D01*
G02X64125I-1575J1786D01*
G01D02*
Y-78584D01*
G01X-30216Y-102661D02*
X-28000D01*
G03Y-99511I-1786J1575D01*
G01D02*
X-30216D01*
G01X-32184Y-102661D02*
X-34400D01*
G02Y-99511I1786J1575D01*
G01D02*
X-32184D01*
G01X67384Y-113461D02*
X69600D01*
G03Y-110311I-1786J1575D01*
G01D02*
X67384D01*
G01X65416Y-113461D02*
X63200D01*
G02Y-110311I1786J1575D01*
G01D02*
X65416D01*
G01X-52375Y-78470D02*
Y-80686D01*
G03X-49225I1575J1786D01*
G01D02*
Y-78470D01*
G01X-52375Y-76502D02*
Y-74286D01*
G02X-49225I1575J-1786D01*
G01D02*
Y-76502D01*
G01X63175Y-75302D02*
Y-73086D01*
G03X60025I-1575J-1786D01*
G01D02*
Y-75302D01*
G01X63175Y-77270D02*
Y-79486D01*
G02X60025I-1575J1786D01*
G01D02*
Y-77270D01*
G01X56925Y-106470D02*
Y-108686D01*
G03X60075I1575J1786D01*
G01D02*
Y-106470D01*
G01X56925Y-104502D02*
Y-102286D01*
G02X60075I1575J-1786D01*
G01D02*
Y-104502D01*
G01X85784Y-112661D02*
X88000D01*
G03Y-109511I-1786J1575D01*
G01D02*
X85784D01*
G01X83816Y-112661D02*
X81600D01*
G02Y-109511I1786J1575D01*
G01D02*
X83816D01*
G01X-36825Y-80202D02*
Y-77986D01*
G03X-39975I-1575J-1786D01*
G01D02*
Y-80202D01*
G01X-36825Y-82170D02*
Y-84386D01*
G02X-39975I-1575J1786D01*
G01D02*
Y-82170D01*
G01X-38775Y-106070D02*
Y-108286D01*
G03X-35625I1575J1786D01*
G01D02*
Y-106070D01*
G01X-38775Y-104102D02*
Y-101886D01*
G02X-35625I1575J-1786D01*
G01D02*
Y-104102D01*
G01X33975Y-77702D02*
Y-75486D01*
G03X30825I-1575J-1786D01*
G01D02*
Y-77702D01*
G01X33975Y-79670D02*
Y-81886D01*
G02X30825I-1575J1786D01*
G01D02*
Y-79670D01*
G01X-30184Y-95511D02*
X-32400D01*
G03Y-98661I1786J-1575D01*
G01D02*
X-30184D01*
G01X-28216Y-95511D02*
X-26000D01*
G02Y-98661I-1786J-1575D01*
G01D02*
X-28216D01*
G01X59175Y-72102D02*
Y-69886D01*
G03X56025I-1575J-1786D01*
G01D02*
Y-72102D01*
G01X59175Y-74070D02*
Y-76286D01*
G02X56025I-1575J1786D01*
G01D02*
Y-74070D01*
G01X-33225Y-71816D02*
Y-69600D01*
G03X-36375I-1575J-1786D01*
G01D02*
Y-71816D01*
G01X-33225Y-73784D02*
Y-76000D01*
G02X-36375I-1575J1786D01*
G01D02*
Y-73784D01*
G01X-51982Y-21391D02*
X-53549Y-19824D01*
G03X-55776Y-22051I149J-2376D01*
G01D02*
X-54209Y-23618D01*
G01X-50591Y-22782D02*
X-49024Y-24349D01*
G02X-51251Y-26576I-2376J149D01*
G01D02*
X-52818Y-25009D01*
G01X-4282Y3309D02*
X-5849Y4876D01*
G03X-8076Y2649I149J-2376D01*
G01D02*
X-6509Y1082D01*
G01X-2891Y1918D02*
X-1324Y351D01*
G02X-3551Y-1876I-2376J149D01*
G01D02*
X-5118Y-309D01*
G01X6209Y4282D02*
X7776Y5849D01*
G03X5549Y8076I-2376J-149D01*
G01D02*
X3982Y6509D01*
G01X4818Y2891D02*
X3251Y1324D01*
G02X1024Y3551I149J2376D01*
G01D02*
X2591Y5118D01*
G01X17018Y-10691D02*
X15451Y-9124D01*
G03X13224Y-11351I149J-2376D01*
G01D02*
X14791Y-12918D01*
G01X18409Y-12082D02*
X19976Y-13649D01*
G02X17749Y-15876I-2376J149D01*
G01D02*
X16182Y-14309D01*
G01X8909Y1782D02*
X10476Y3349D01*
G03X8249Y5576I-2376J-149D01*
G01D02*
X6682Y4009D01*
G01X7518Y391D02*
X5951Y-1176D01*
G02X3724Y1051I149J2376D01*
G01D02*
X5291Y2618D01*
G01X4918Y-15591D02*
X3351Y-14024D01*
G03X1124Y-16251I149J-2376D01*
G01D02*
X2691Y-17818D01*
G01X6309Y-16982D02*
X7876Y-18549D01*
G02X5649Y-20776I-2376J149D01*
G01D02*
X4082Y-19209D01*
G01X138775Y-19416D02*
Y-17200D01*
G03X135625I-1575J-1786D01*
G01D02*
Y-19416D01*
G01X138775Y-21384D02*
Y-23600D01*
G02X135625I-1575J1786D01*
G01D02*
Y-21384D01*
G01X37016Y57575D02*
X34800D01*
G03Y54425I1786J-1575D01*
G01D02*
X37016D01*
G01X38984Y57575D02*
X41200D01*
G02Y54425I-1786J-1575D01*
G01D02*
X38984D01*
G01X-14509Y-12682D02*
X-16076Y-14249D01*
G03X-13849Y-16476I2376J149D01*
G01D02*
X-12282Y-14909D01*
G01X-13118Y-11291D02*
X-11551Y-9724D01*
G02X-9324Y-11951I-149J-2376D01*
G01D02*
X-10891Y-13518D01*
G01X24191Y3618D02*
X22624Y2051D01*
G03X24851Y-176I2376J149D01*
G01D02*
X26418Y1391D01*
G01X25582Y5009D02*
X27149Y6576D01*
G02X29376Y4349I-149J-2376D01*
G01D02*
X27809Y2782D01*
G01X2709Y14382D02*
X4276Y15949D01*
G03X2049Y18176I-2376J-149D01*
G01D02*
X482Y16609D01*
G01X1318Y12991D02*
X-249Y11424D01*
G02X-2476Y13651I149J2376D01*
G01D02*
X-909Y15218D01*
G01X13309Y17582D02*
X14876Y19149D01*
G03X12649Y21376I-2376J-149D01*
G01D02*
X11082Y19809D01*
G01X11918Y16191D02*
X10351Y14624D01*
G02X8124Y16851I149J2376D01*
G01D02*
X9691Y18418D01*
G01X8418Y-13391D02*
X6851Y-11824D01*
G03X4624Y-14051I149J-2376D01*
G01D02*
X6191Y-15618D01*
G01X9809Y-14782D02*
X11376Y-16349D01*
G02X9149Y-18576I-2376J149D01*
G01D02*
X7582Y-17009D01*
G01X31009Y-14718D02*
X32576Y-13151D01*
G03X30349Y-10924I-2376J-149D01*
G01D02*
X28782Y-12491D01*
G01X29618Y-16109D02*
X28051Y-17676D01*
G02X25824Y-15449I149J2376D01*
G01D02*
X27391Y-13882D01*
G01X4909Y-24818D02*
X6476Y-23251D01*
G03X4249Y-21024I-2376J-149D01*
G01D02*
X2682Y-22591D01*
G01X3518Y-26209D02*
X1951Y-27776D01*
G02X-276Y-25549I149J2376D01*
G01D02*
X1291Y-23982D01*
G01X7709Y-27618D02*
X9276Y-26051D01*
G03X7049Y-23824I-2376J-149D01*
G01D02*
X5482Y-25391D01*
G01X6318Y-29009D02*
X4751Y-30576D01*
G02X2524Y-28349I149J2376D01*
G01D02*
X4091Y-26782D01*
G01X24718Y-15991D02*
X23151Y-14424D01*
G03X20924Y-16651I149J-2376D01*
G01D02*
X22491Y-18218D01*
G01X26109Y-17382D02*
X27676Y-18949D01*
G02X25449Y-21176I-2376J149D01*
G01D02*
X23882Y-19609D01*
G01X9891Y-34082D02*
X8324Y-35649D01*
G03X10551Y-37876I2376J149D01*
G01D02*
X12118Y-36309D01*
G01X11282Y-32691D02*
X12849Y-31124D01*
G02X15076Y-33351I-149J-2376D01*
G01D02*
X13509Y-34918D01*
G01X11218Y-39791D02*
X9651Y-38224D01*
G03X7424Y-40451I149J-2376D01*
G01D02*
X8991Y-42018D01*
G01X12609Y-41182D02*
X14176Y-42749D01*
G02X11949Y-44976I-2376J149D01*
G01D02*
X10382Y-43409D01*
G01X782D02*
X2349Y-44976D01*
G03X4576Y-42749I-149J2376D01*
G01D02*
X3009Y-41182D01*
G01X-609Y-42018D02*
X-2176Y-40451D01*
G02X51Y-38224I2376J-149D01*
G01D02*
X1618Y-39791D01*
G01X43384Y89625D02*
X45600D01*
G03Y92775I-1786J1575D01*
G01D02*
X43384D01*
G01X41416Y89625D02*
X39200D01*
G02Y92775I1786J1575D01*
G01D02*
X41416D01*
G01X151975Y10184D02*
Y12400D01*
G03X148825I-1575J-1786D01*
G01D02*
Y10184D01*
G01X151975Y8216D02*
Y6000D01*
G02X148825I-1575J1786D01*
G01D02*
Y8216D01*
G01X175625Y-30584D02*
Y-32800D01*
G03X178775I1575J1786D01*
G01D02*
Y-30584D01*
G01X175625Y-28616D02*
Y-26400D01*
G02X178775I1575J-1786D01*
G01D02*
Y-28616D01*
G01X171625Y44616D02*
Y42400D01*
G03X174775I1575J1786D01*
G01D02*
Y44616D01*
G01X171625Y46584D02*
Y48800D01*
G02X174775I1575J-1786D01*
G01D02*
Y46584D01*
G01X163816Y60775D02*
X161600D01*
G03Y57625I1786J-1575D01*
G01D02*
X163816D01*
G01X165784Y60775D02*
X168000D01*
G02Y57625I-1786J-1575D01*
G01D02*
X165784D01*
G01X184984Y-54375D02*
X187200D01*
G03Y-51225I-1786J1575D01*
G01D02*
X184984D01*
G01X183016Y-54375D02*
X180800D01*
G02Y-51225I1786J1575D01*
G01D02*
X183016D01*
G01X157416Y-38825D02*
X155200D01*
G03Y-41975I1786J-1575D01*
G01D02*
X157416D01*
G01X159384Y-38825D02*
X161600D01*
G02Y-41975I-1786J-1575D01*
G01D02*
X159384D01*
G01X184584Y-41575D02*
X186800D01*
G03Y-38425I-1786J1575D01*
G01D02*
X184584D01*
G01X182616Y-41575D02*
X180400D01*
G02Y-38425I1786J1575D01*
G01D02*
X182616D01*
G01X166616Y-48825D02*
X164400D01*
G03Y-51975I1786J-1575D01*
G01D02*
X166616D01*
G01X168584Y-48825D02*
X170800D01*
G02Y-51975I-1786J-1575D01*
G01D02*
X168584D01*
G01X183016Y-47225D02*
X180800D01*
G03Y-50375I1786J-1575D01*
G01D02*
X183016D01*
G01X184984Y-47225D02*
X187200D01*
G02Y-50375I-1786J-1575D01*
G01D02*
X184984D01*
G01X184584Y-37575D02*
X186800D01*
G03Y-34425I-1786J1575D01*
G01D02*
X184584D01*
G01X182616Y-37575D02*
X180400D01*
G02Y-34425I1786J1575D01*
G01D02*
X182616D01*
G01X187384Y59625D02*
X189600D01*
G03Y62775I-1786J1575D01*
G01D02*
X187384D01*
G01X185416Y59625D02*
X183200D01*
G02Y62775I1786J1575D01*
G01D02*
X185416D01*
G01X157416Y-34825D02*
X155200D01*
G03Y-37975I1786J-1575D01*
G01D02*
X157416D01*
G01X159384Y-34825D02*
X161600D01*
G02Y-37975I-1786J-1575D01*
G01D02*
X159384D01*
G01X158375Y57384D02*
Y59600D01*
G03X155225I-1575J-1786D01*
G01D02*
Y57384D01*
G01X158375Y55416D02*
Y53200D01*
G02X155225I-1575J1786D01*
G01D02*
Y55416D01*
G54D16*
G01X-128677Y-139361D02*
X-121197Y-139361D01*
G01D02*
X-120803Y-138967D01*
G01D02*
Y-133061D01*
G01D02*
X-128677D01*
G01D02*
Y-139361D01*
G01X-118234Y-140502D02*
G03I-1034J0D01*
G01X-118834Y-144085D02*
X-116866Y-142117D01*
G01D02*
Y-128337D01*
G01D02*
X-132614Y-128337D01*
G01D02*
X-132614Y-144085D01*
G01D02*
X-118834D01*
G01X-133825Y-130175D02*
Y-125684D01*
G01X-141699Y-130175D02*
Y-125684D01*
G01X-117106Y2306D02*
Y1364D01*
G01X-105294Y-9506D02*
Y-8473D01*
G01Y2306D02*
Y1364D01*
G01X-117106Y-9506D02*
Y-8518D01*
G01X-105294Y-9506D02*
X-117106D01*
G01Y2306D02*
X-105294D01*
G01X-98406Y376D02*
G03I-511J0D01*
G01X122063Y-27550D02*
X129543D01*
G01D02*
X129937Y-27156D01*
G01D02*
Y-21250D01*
G01D02*
X122063D01*
G01D02*
Y-27550D01*
G01X132506Y-28691D02*
G03I-1034J0D01*
G01X131906Y-32274D02*
X133874Y-30306D01*
G01D02*
Y-16526D01*
G01D02*
X118126D01*
G01D02*
Y-32274D01*
G01D02*
X131906D01*
G01X117137Y-20301D02*
Y-15810D01*
G01X109263Y-20301D02*
Y-15810D01*
G54D17*
G01X10572Y22400D02*
G03I-1772J0D01*
G01X12572Y26000D02*
G03I-1772J0D01*
G01X-11828Y-21800D02*
G03I-1772J0D01*
G01X43772Y29600D02*
G03I-1772J0D01*
G01X12972Y50000D02*
G03I-1772J0D01*
G01X52972Y48000D02*
G03I-1772J0D01*
G01X-28628Y8000D02*
G03I-1772J0D01*
G01X31372Y26700D02*
G03I-1772J0D01*
G01X19672Y9800D02*
G03I-1772J0D01*
G54D18*
G01X147462Y2251D02*
G03I-839J0D01*
G01X174216Y24949D02*
G03I-839J0D01*
G54D19*
G01X162357Y43460D02*
X156907D01*
G01D02*
Y50940D01*
G01D02*
X162399D01*
G01X164846D02*
X170293D01*
G01D02*
Y43460D01*
G01D02*
X164804D01*
M02*
